<?xml version="1.0" encoding="UTF-8" standalone="no"?>
<!-- Created with Inkscape (http://www.inkscape.org/) -->

<svg
   xmlns:dc="http://purl.org/dc/elements/1.1/"
   xmlns:cc="http://creativecommons.org/ns#"
   xmlns:rdf="http://www.w3.org/1999/02/22-rdf-syntax-ns#"
   xmlns:svg="http://www.w3.org/2000/svg"
   xmlns="http://www.w3.org/2000/svg"
   xmlns:sodipodi="http://sodipodi.sourceforge.net/DTD/sodipodi-0.dtd"
   xmlns:inkscape="http://www.inkscape.org/namespaces/inkscape"
   id="svg2"
   version="1.1"
   inkscape:version="0.48.4 r9939"
   width="262.25"
   height="152.5"
   xml:space="preserve"
   sodipodi:docname="Schemas.pdf"><metadata
     id="metadata8"><rdf:RDF><cc:Work
         rdf:about=""><dc:format>image/svg+xml</dc:format><dc:type
           rdf:resource="http://purl.org/dc/dcmitype/StillImage" /><dc:title></dc:title></cc:Work></rdf:RDF></metadata><defs
     id="defs6"><clipPath
       clipPathUnits="userSpaceOnUse"
       id="clipPath16"><path
         d="m 0,0.1 595.2,0 0,841.8 L 0,841.9 0,0.1 z"
         clip-rule="evenodd"
         id="path18"
         inkscape:connector-curvature="0" /></clipPath></defs><sodipodi:namedview
     pagecolor="#ffffff"
     bordercolor="#666666"
     borderopacity="1"
     objecttolerance="10"
     gridtolerance="10"
     guidetolerance="10"
     inkscape:pageopacity="0"
     inkscape:pageshadow="2"
     inkscape:window-width="1360"
     inkscape:window-height="713"
     id="namedview4"
     showgrid="false"
     fit-margin-top="0"
     fit-margin-left="0"
     fit-margin-right="0"
     fit-margin-bottom="0"
     inkscape:zoom="1.2684253"
     inkscape:cx="289.32379"
     inkscape:cy="76.313153"
     inkscape:window-x="283"
     inkscape:window-y="30"
     inkscape:window-maximized="1"
     inkscape:current-layer="g14" /><g
     id="g10"
     inkscape:groupmode="layer"
     inkscape:label="Schemas"
     transform="matrix(1.25,0,0,-1.25,-35.375,1017.125)"><g
       id="g12"><g
         id="g14"
         clip-path="url(#clipPath16)"><g
           id="g76" /><g
           id="g90" /><g
           id="g146" /><g
           id="g160" /><g
           id="g252" /><g
           id="g260" /><g
           id="g268" /><g
           id="g276" /><g
           id="g284" /><g
           id="g292" /><g
           id="g3281"><path
             id="path22"
             style="fill:#dc322f;fill-opacity:1;fill-rule:evenodd;stroke:none"
             d="m 109.1,793.8 c 7.3,0 12.8,-5.5 12.8,-12.7 0,-7.3 -5.5,-12.8 -12.8,-12.8 -7.2,0 -12.7,5.5 -12.7,12.8 0,7.2 5.5,12.7 12.7,12.7 z m -12.7,0 0,0 z m 25.5,-25.5 0,0 z"
             inkscape:connector-curvature="0" /><g
             id="g24"><text
               id="text26"
               transform="matrix(1,0,0,-1,101.7,776.9)"><tspan
                 id="tspan28"
                 y="0"
                 x="0"
                 style="font-size:18px;font-variant:normal;font-weight:normal;writing-mode:lr-tb;fill:#ffffff;fill-opacity:1;fill-rule:nonzero;stroke:none;font-family:Aller;-inkscape-font-specification:Aller">a</tspan></text>
</g><g
             id="g30"><text
               id="text32"
               transform="matrix(1,0,0,-1,111.1,770.9)"><tspan
                 id="tspan34"
                 y="0"
                 x="0"
                 style="font-size:10.39999962px;font-variant:normal;font-weight:normal;writing-mode:lr-tb;fill:#ffffff;fill-opacity:1;fill-rule:nonzero;stroke:none;font-family:Aller;-inkscape-font-specification:Aller">k</tspan></text>
</g><path
             id="path36"
             style="fill:#dc322f;fill-opacity:1;fill-rule:evenodd;stroke:none"
             d="m 49.6,813.7 c 7.2,0 12.8,-5.6 12.8,-12.8 0,-7.2 -5.6,-12.8 -12.8,-12.8 -7.2,0 -12.7,5.6 -12.7,12.8 0,7.2 5.5,12.8 12.7,12.8 z m -12.7,0 0,0 z m 25.5,-25.6 0,0 z"
             inkscape:connector-curvature="0" /><g
             id="g38"><text
               id="text40"
               transform="matrix(1,0,0,-1,43.4,796.7)"><tspan
                 id="tspan42"
                 y="0"
                 x="0"
                 style="font-size:18px;font-variant:normal;font-weight:normal;writing-mode:lr-tb;fill:#ffffff;fill-opacity:1;fill-rule:nonzero;stroke:none;font-family:Aller;-inkscape-font-specification:Aller">a</tspan></text>
</g><g
             id="g44"><text
               id="text46"
               transform="matrix(1,0,0,-1,52.8,790.8)"><tspan
                 id="tspan48"
                 y="0"
                 x="0"
                 style="font-size:10.39999962px;font-variant:normal;font-weight:normal;writing-mode:lr-tb;fill:#ffffff;fill-opacity:1;fill-rule:nonzero;stroke:none;font-family:Aller;-inkscape-font-specification:Aller">i</tspan></text>
</g><path
             id="path50"
             style="fill:#dc322f;fill-opacity:1;fill-rule:evenodd;stroke:none"
             d="m 49.6,774 c 7.2,0 12.8,-5.6 12.8,-12.8 0,-7.2 -5.6,-12.7 -12.8,-12.7 -7.2,0 -12.7,5.5 -12.7,12.7 0,7.2 5.5,12.8 12.7,12.8 z m -12.7,0 0,0 z m 25.5,-25.6 0,0 z"
             inkscape:connector-curvature="0" /><g
             id="g52"><text
               id="text54"
               transform="matrix(1,0,0,-1,43.4,757)"><tspan
                 id="tspan56"
                 y="0"
                 x="0"
                 style="font-size:18px;font-variant:normal;font-weight:normal;writing-mode:lr-tb;fill:#ffffff;fill-opacity:1;fill-rule:nonzero;stroke:none;font-family:Aller;-inkscape-font-specification:Aller">a</tspan></text>
</g><g
             id="g58"><text
               id="text60"
               transform="matrix(1,0,0,-1,52.8,751.1)"><tspan
                 id="tspan62"
                 y="0"
                 x="0"
                 style="font-size:10.39999962px;font-variant:normal;font-weight:normal;writing-mode:lr-tb;fill:#ffffff;fill-opacity:1;fill-rule:nonzero;stroke:none;font-family:Aller;-inkscape-font-specification:Aller">j</tspan></text>
</g><g
             id="g64"><path
               id="path66"
               style="fill:none;stroke:#657b83;stroke-width:2.26398993;stroke-linecap:butt;stroke-linejoin:round;stroke-miterlimit:10;stroke-opacity:1;stroke-dasharray:none"
               d="m 62.4,800.9 17,0 0,-19.8 4,0"
               inkscape:connector-curvature="0" /></g><path
             id="path68"
             style="fill:#657b83;fill-opacity:1;fill-rule:evenodd;stroke:none"
             d="m 96.4,781.1 -13.6,4.5 0,-9.1 13.6,4.6 z"
             inkscape:connector-curvature="0" /><g
             id="g70"><text
               id="text72"
               transform="matrix(1,0,0,-1,71.3,787.6)"><tspan
                 id="tspan74"
                 y="0"
                 x="0"
                 style="font-size:12px;font-variant:normal;font-weight:bold;writing-mode:lr-tb;fill:#4a8e00;fill-opacity:1;fill-rule:nonzero;stroke:none;font-family:Aller;-inkscape-font-specification:Aller-Bold">f</tspan></text>
</g><g
             id="g78"><path
               id="path80"
               style="fill:none;stroke:#657b83;stroke-width:2.26398993;stroke-linecap:butt;stroke-linejoin:round;stroke-miterlimit:10;stroke-opacity:1;stroke-dasharray:none"
               d="m 62.4,761.2 17,0 0,19.9 4,0"
               inkscape:connector-curvature="0" /></g><path
             id="path82"
             style="fill:#657b83;fill-opacity:1;fill-rule:evenodd;stroke:none"
             d="m 96.4,781.1 -13.6,4.5 0,-9.1 13.6,4.6 z"
             inkscape:connector-curvature="0" /><g
             id="g84"><text
               id="text86"
               transform="matrix(1,0,0,-1,71.3,767.8)"><tspan
                 id="tspan88"
                 y="0"
                 x="0"
                 style="font-size:12px;font-variant:normal;font-weight:bold;writing-mode:lr-tb;fill:#4a8e00;fill-opacity:1;fill-rule:nonzero;stroke:none;font-family:Aller;-inkscape-font-specification:Aller-Bold">f</tspan></text>
</g><path
             id="path92"
             style="fill:#dc322f;fill-opacity:1;fill-rule:evenodd;stroke:none"
             d="m 225.4,793.8 c 7.2,0 12.7,-5.5 12.7,-12.7 0,-7.3 -5.5,-12.8 -12.7,-12.8 -7.3,0 -12.8,5.5 -12.8,12.8 0,7.2 5.5,12.7 12.8,12.7 z m -12.8,0 0,0 z m 25.5,-25.5 0,0 z"
             inkscape:connector-curvature="0" /><g
             id="g94"><text
               id="text96"
               transform="matrix(1,0,0,-1,218,776.9)"><tspan
                 id="tspan98"
                 y="0"
                 x="0"
                 style="font-size:18px;font-variant:normal;font-weight:normal;writing-mode:lr-tb;fill:#ffffff;fill-opacity:1;fill-rule:nonzero;stroke:none;font-family:Aller;-inkscape-font-specification:Aller">a</tspan></text>
</g><g
             id="g100"><text
               id="text102"
               transform="matrix(1,0,0,-1,227.3,770.9)"><tspan
                 id="tspan104"
                 y="0"
                 x="0"
                 style="font-size:10.39999962px;font-variant:normal;font-weight:normal;writing-mode:lr-tb;fill:#ffffff;fill-opacity:1;fill-rule:nonzero;stroke:none;font-family:Aller;-inkscape-font-specification:Aller">k</tspan></text>
</g><path
             id="path106"
             style="fill:#dc322f;fill-opacity:1;fill-rule:evenodd;stroke:none"
             d="m 165.8,813.7 c 7.3,0 12.8,-5.6 12.8,-12.8 0,-7.2 -5.5,-12.8 -12.8,-12.8 -7.2,0 -12.7,5.6 -12.7,12.8 0,7.2 5.5,12.8 12.7,12.8 z m -12.7,0 0,0 z m 25.5,-25.6 0,0 z"
             inkscape:connector-curvature="0" /><g
             id="g108"><text
               id="text110"
               transform="matrix(1,0,0,-1,159.6,796.7)"><tspan
                 id="tspan112"
                 y="0"
                 x="0"
                 style="font-size:18px;font-variant:normal;font-weight:normal;writing-mode:lr-tb;fill:#ffffff;fill-opacity:1;fill-rule:nonzero;stroke:none;font-family:Aller;-inkscape-font-specification:Aller">a</tspan></text>
</g><g
             id="g114"><text
               id="text116"
               transform="matrix(1,0,0,-1,169,790.8)"><tspan
                 id="tspan118"
                 y="0"
                 x="0"
                 style="font-size:10.39999962px;font-variant:normal;font-weight:normal;writing-mode:lr-tb;fill:#ffffff;fill-opacity:1;fill-rule:nonzero;stroke:none;font-family:Aller;-inkscape-font-specification:Aller">i</tspan></text>
</g><path
             id="path120"
             style="fill:#dc322f;fill-opacity:1;fill-rule:evenodd;stroke:none"
             d="m 165.8,774 c 7.3,0 12.8,-5.6 12.8,-12.8 0,-7.2 -5.5,-12.7 -12.8,-12.7 -7.2,0 -12.7,5.5 -12.7,12.7 0,7.2 5.5,12.8 12.7,12.8 z m -12.7,0 0,0 z m 25.5,-25.6 0,0 z"
             inkscape:connector-curvature="0" /><g
             id="g122"><text
               id="text124"
               transform="matrix(1,0,0,-1,159.6,757)"><tspan
                 id="tspan126"
                 y="0"
                 x="0"
                 style="font-size:18px;font-variant:normal;font-weight:normal;writing-mode:lr-tb;fill:#ffffff;fill-opacity:1;fill-rule:nonzero;stroke:none;font-family:Aller;-inkscape-font-specification:Aller">a</tspan></text>
</g><g
             id="g128"><text
               id="text130"
               transform="matrix(1,0,0,-1,169,751.1)"><tspan
                 id="tspan132"
                 y="0"
                 x="0"
                 style="font-size:10.39999962px;font-variant:normal;font-weight:normal;writing-mode:lr-tb;fill:#ffffff;fill-opacity:1;fill-rule:nonzero;stroke:none;font-family:Aller;-inkscape-font-specification:Aller">j</tspan></text>
</g><g
             id="g134"><path
               id="path136"
               style="fill:none;stroke:#657b83;stroke-width:2.26398993;stroke-linecap:butt;stroke-linejoin:round;stroke-miterlimit:10;stroke-opacity:1;stroke-dasharray:none"
               d="m 178.6,800.9 17,0 0,-19.8 4,0"
               inkscape:connector-curvature="0" /></g><path
             id="path138"
             style="fill:#657b83;fill-opacity:1;fill-rule:evenodd;stroke:none"
             d="m 212.6,781.1 -13.6,4.5 0,-9.1 13.6,4.6 z"
             inkscape:connector-curvature="0" /><g
             id="g140"><text
               id="text142"
               transform="matrix(1,0,0,-1,187.5,787.6)"><tspan
                 id="tspan144"
                 y="0"
                 x="0"
                 style="font-size:12px;font-variant:normal;font-weight:bold;writing-mode:lr-tb;fill:#4a8e00;fill-opacity:1;fill-rule:nonzero;stroke:none;font-family:Aller;-inkscape-font-specification:Aller-Bold">f</tspan></text>
</g><g
             id="g148"><path
               id="path150"
               style="fill:none;stroke:#657b83;stroke-width:2.26398993;stroke-linecap:butt;stroke-linejoin:round;stroke-miterlimit:10;stroke-opacity:1;stroke-dasharray:none"
               d="m 178.6,761.2 17,0 0,19.9 4,0"
               inkscape:connector-curvature="0" /></g><path
             id="path152"
             style="fill:#657b83;fill-opacity:1;fill-rule:evenodd;stroke:none"
             d="m 212.6,781.1 -13.6,4.5 0,-9.1 13.6,4.6 z"
             inkscape:connector-curvature="0" /><g
             id="g154"><text
               id="text156"
               transform="matrix(1,0,0,-1,187.5,767.8)"><tspan
                 id="tspan158"
                 y="0"
                 x="0"
                 style="font-size:12px;font-variant:normal;font-weight:bold;writing-mode:lr-tb;fill:#4a8e00;fill-opacity:1;fill-rule:nonzero;stroke:none;font-family:Aller;-inkscape-font-specification:Aller-Bold">f</tspan></text>
</g><path
             id="path162"
             style="fill:#dc322f;fill-opacity:1;fill-rule:evenodd;stroke:none"
             d="m 41.1,717.3 c 7.2,0 12.8,-5.6 12.8,-12.8 0,-7.2 -5.6,-12.7 -12.8,-12.7 -7.2,0 -12.8,5.5 -12.8,12.7 0,7.2 5.6,12.8 12.8,12.8 z m -12.8,0 0,0 z m 25.6,-25.6 0,0 z"
             inkscape:connector-curvature="0" /><g
             id="g164"><text
               id="text166"
               transform="matrix(1,0,0,-1,32.6,700.3)"><tspan
                 id="tspan168"
                 y="0"
                 x="0"
                 style="font-size:18px;font-variant:normal;font-weight:normal;writing-mode:lr-tb;fill:#ffffff;fill-opacity:1;fill-rule:nonzero;stroke:none;font-family:Aller;-inkscape-font-specification:Aller">a</tspan></text>
</g><g
             id="g170"><text
               id="text172"
               transform="matrix(1,0,0,-1,41.9,694.4)"><tspan
                 id="tspan174"
                 y="0"
                 x="0"
                 style="font-size:10.39999962px;font-variant:normal;font-weight:normal;writing-mode:lr-tb;fill:#ffffff;fill-opacity:1;fill-rule:nonzero;stroke:none;font-family:Aller;-inkscape-font-specification:Aller">…</tspan></text>
</g><path
             id="path176"
             style="fill:#dc322f;fill-opacity:1;fill-rule:evenodd;stroke:none"
             d="m 60.9,717.3 c 7.3,0 12.8,-5.6 12.8,-12.8 0,-7.2 -5.5,-12.7 -12.8,-12.7 -7.2,0 -12.7,5.5 -12.7,12.7 0,7.2 5.5,12.8 12.7,12.8 z m -12.7,0 0,0 z m 25.5,-25.6 0,0 z"
             inkscape:connector-curvature="0" /><g
             id="g178"><text
               id="text180"
               transform="matrix(1,0,0,-1,52.4,700.3)"><tspan
                 id="tspan182"
                 y="0"
                 x="0"
                 style="font-size:18px;font-variant:normal;font-weight:normal;writing-mode:lr-tb;fill:#ffffff;fill-opacity:1;fill-rule:nonzero;stroke:none;font-family:Aller;-inkscape-font-specification:Aller">a</tspan></text>
</g><g
             id="g184"><text
               id="text186"
               transform="matrix(1,0,0,-1,61.8,694.4)"><tspan
                 id="tspan188"
                 y="0"
                 x="0"
                 style="font-size:10.39999962px;font-variant:normal;font-weight:normal;writing-mode:lr-tb;fill:#ffffff;fill-opacity:1;fill-rule:nonzero;stroke:none;font-family:Aller;-inkscape-font-specification:Aller">…</tspan></text>
</g><path
             id="path190"
             style="fill:#dc322f;fill-opacity:1;fill-rule:evenodd;stroke:none"
             d="m 83.6,717.3 c 7.3,0 12.8,-5.6 12.8,-12.8 0,-7.2 -5.5,-12.7 -12.8,-12.7 -7.2,0 -12.7,5.5 -12.7,12.7 0,7.2 5.5,12.8 12.7,12.8 z m -12.7,0 0,0 z m 25.5,-25.6 0,0 z"
             inkscape:connector-curvature="0" /><g
             id="g192"><text
               id="text194"
               transform="matrix(1,0,0,-1,75.1,700.3)"><tspan
                 id="tspan196"
                 y="0"
                 x="0"
                 style="font-size:18px;font-variant:normal;font-weight:normal;writing-mode:lr-tb;fill:#ffffff;fill-opacity:1;fill-rule:nonzero;stroke:none;font-family:Aller;-inkscape-font-specification:Aller">a</tspan></text>
</g><g
             id="g198"><text
               id="text200"
               transform="matrix(1,0,0,-1,84.4,694.4)"><tspan
                 id="tspan202"
                 y="0"
                 x="0"
                 style="font-size:10.39999962px;font-variant:normal;font-weight:normal;writing-mode:lr-tb;fill:#ffffff;fill-opacity:1;fill-rule:nonzero;stroke:none;font-family:Aller;-inkscape-font-specification:Aller">…</tspan></text>
</g><path
             id="path204"
             style="fill:#dc322f;fill-opacity:1;fill-rule:evenodd;stroke:none"
             d="m 140.3,717.3 c 7.2,0 12.8,-5.6 12.8,-12.8 0,-7.2 -5.6,-12.7 -12.8,-12.7 -7.2,0 -12.7,5.5 -12.7,12.7 0,7.2 5.5,12.8 12.7,12.8 z m -12.7,0 0,0 z m 25.5,-25.6 0,0 z"
             inkscape:connector-curvature="0" /><g
             id="g206"><text
               id="text208"
               transform="matrix(1,0,0,-1,131.8,700.3)"><tspan
                 id="tspan210"
                 y="0"
                 x="0"
                 style="font-size:18px;font-variant:normal;font-weight:normal;writing-mode:lr-tb;fill:#ffffff;fill-opacity:1;fill-rule:nonzero;stroke:none;font-family:Aller;-inkscape-font-specification:Aller">a</tspan></text>
</g><g
             id="g212"><text
               id="text214"
               transform="matrix(1,0,0,-1,141.1,694.4)"><tspan
                 id="tspan216"
                 y="0"
                 x="0"
                 style="font-size:10.39999962px;font-variant:normal;font-weight:normal;writing-mode:lr-tb;fill:#ffffff;fill-opacity:1;fill-rule:nonzero;stroke:none;font-family:Aller;-inkscape-font-specification:Aller">…</tspan></text>
</g><path
             id="path218"
             style="fill:#dc322f;fill-opacity:1;fill-rule:evenodd;stroke:none"
             d="m 160.2,717.3 c 7.2,0 12.7,-5.6 12.7,-12.8 0,-7.2 -5.5,-12.7 -12.7,-12.7 -7.3,0 -12.8,5.5 -12.8,12.7 0,7.2 5.5,12.8 12.8,12.8 z m -12.8,0 0,0 z m 25.5,-25.6 0,0 z"
             inkscape:connector-curvature="0" /><g
             id="g220"><text
               id="text222"
               transform="matrix(1,0,0,-1,151.6,700.3)"><tspan
                 id="tspan224"
                 y="0"
                 x="0"
                 style="font-size:18px;font-variant:normal;font-weight:normal;writing-mode:lr-tb;fill:#ffffff;fill-opacity:1;fill-rule:nonzero;stroke:none;font-family:Aller;-inkscape-font-specification:Aller">a</tspan></text>
</g><g
             id="g226"><text
               id="text228"
               transform="matrix(1,0,0,-1,161,694.4)"><tspan
                 id="tspan230"
                 y="0"
                 x="0"
                 style="font-size:10.39999962px;font-variant:normal;font-weight:normal;writing-mode:lr-tb;fill:#ffffff;fill-opacity:1;fill-rule:nonzero;stroke:none;font-family:Aller;-inkscape-font-specification:Aller">…</tspan></text>
</g><path
             id="path232"
             style="fill:#dc322f;fill-opacity:1;fill-rule:evenodd;stroke:none"
             d="m 182.8,717.3 c 7.3,0 12.8,-5.6 12.8,-12.8 0,-7.2 -5.5,-12.7 -12.8,-12.7 -7.2,0 -12.7,5.5 -12.7,12.7 0,7.2 5.5,12.8 12.7,12.8 z m -12.7,0 0,0 z m 25.5,-25.6 0,0 z"
             inkscape:connector-curvature="0" /><g
             id="g234"><text
               id="text236"
               transform="matrix(1,0,0,-1,174.3,700.3)"><tspan
                 id="tspan238"
                 y="0"
                 x="0"
                 style="font-size:18px;font-variant:normal;font-weight:normal;writing-mode:lr-tb;fill:#ffffff;fill-opacity:1;fill-rule:nonzero;stroke:none;font-family:Aller;-inkscape-font-specification:Aller">a</tspan></text>
</g><g
             id="g240"><text
               id="text242"
               transform="matrix(1,0,0,-1,183.7,694.4)"><tspan
                 id="tspan244"
                 y="0"
                 x="0"
                 style="font-size:10.39999962px;font-variant:normal;font-weight:normal;writing-mode:lr-tb;fill:#ffffff;fill-opacity:1;fill-rule:nonzero;stroke:none;font-family:Aller;-inkscape-font-specification:Aller">…</tspan></text>
</g><g
             id="g246"><path
               id="path248"
               style="fill:none;stroke:#657b83;stroke-width:2.26398993;stroke-linecap:butt;stroke-linejoin:round;stroke-miterlimit:10;stroke-opacity:1;stroke-dasharray:none"
               d="m 49.6,748.5 0,-11.4 34,0 0,-6.8"
               inkscape:connector-curvature="0" /></g><path
             id="path250"
             style="fill:#657b83;fill-opacity:1;fill-rule:evenodd;stroke:none"
             d="m 83.6,717.3 4.6,13.6 -9.1,0 4.5,-13.6 z"
             inkscape:connector-curvature="0" /><g
             id="g254"><path
               id="path256"
               style="fill:none;stroke:#657b83;stroke-width:2.26398993;stroke-linecap:butt;stroke-linejoin:round;stroke-miterlimit:10;stroke-opacity:1;stroke-dasharray:none"
               d="m 49.6,748.5 0,-11.4 11.3,0 0,-6.8"
               inkscape:connector-curvature="0" /></g><path
             id="path258"
             style="fill:#657b83;fill-opacity:1;fill-rule:evenodd;stroke:none"
             d="m 60.9,717.3 4.6,13.6 -9.1,0 4.5,-13.6 z"
             inkscape:connector-curvature="0" /><g
             id="g262"><path
               id="path264"
               style="fill:none;stroke:#657b83;stroke-width:2.26398993;stroke-linecap:butt;stroke-linejoin:round;stroke-miterlimit:10;stroke-opacity:1;stroke-dasharray:none"
               d="m 49.6,748.5 0,-11.4 -8.5,0 0,-6.8"
               inkscape:connector-curvature="0" /></g><path
             id="path266"
             style="fill:#657b83;fill-opacity:1;fill-rule:evenodd;stroke:none"
             d="m 41.1,717.3 4.5,13.6 -9,0 4.5,-13.6 z"
             inkscape:connector-curvature="0" /><g
             id="g270"><path
               id="path272"
               style="fill:none;stroke:#657b83;stroke-width:2.26398993;stroke-linecap:butt;stroke-linejoin:round;stroke-miterlimit:10;stroke-opacity:1;stroke-dasharray:none"
               d="m 160.2,717.3 0,9.9 5.6,0 0,8.2"
               inkscape:connector-curvature="0" /></g><path
             id="path274"
             style="fill:#657b83;fill-opacity:1;fill-rule:evenodd;stroke:none"
             d="m 165.8,748.5 -4.5,-13.6 9.1,0 -4.6,13.6 z"
             inkscape:connector-curvature="0" /><g
             id="g278"><path
               id="path280"
               style="fill:none;stroke:#657b83;stroke-width:2.26398993;stroke-linecap:butt;stroke-linejoin:round;stroke-miterlimit:10;stroke-opacity:1;stroke-dasharray:none"
               d="m 182.8,717.3 0,9.9 -17,0 0,8.2"
               inkscape:connector-curvature="0" /></g><path
             id="path282"
             style="fill:#657b83;fill-opacity:1;fill-rule:evenodd;stroke:none"
             d="m 165.8,748.5 -4.5,-13.6 9.1,0 -4.6,13.6 z"
             inkscape:connector-curvature="0" /><g
             id="g286"><path
               id="path288"
               style="fill:none;stroke:#657b83;stroke-width:2.26398993;stroke-linecap:butt;stroke-linejoin:round;stroke-miterlimit:10;stroke-opacity:1;stroke-dasharray:none"
               d="m 140.3,717.3 0,9.9 25.5,0 0,8.2"
               inkscape:connector-curvature="0" /></g><path
             id="path290"
             style="fill:#657b83;fill-opacity:1;fill-rule:evenodd;stroke:none"
             d="m 165.8,748.5 -4.5,-13.6 9.1,0 -4.6,13.6 z"
             inkscape:connector-curvature="0" /><g
             id="g294"><text
               id="text296"
               transform="matrix(1,0,0,-1,188.5,753.8)"><tspan
                 id="tspan298"
                 y="0"
                 x="0"
                 style="font-size:18px;font-variant:normal;font-weight:normal;writing-mode:lr-tb;fill:#dc322f;fill-opacity:1;fill-rule:nonzero;stroke:none;font-family:DejaVuSans;-inkscape-font-specification:DejaVuSans">✗</tspan></text>
</g><g
             id="g300"><text
               id="text302"
               transform="matrix(1,0,0,-1,75.1,796.3)"><tspan
                 id="tspan304"
                 y="0"
                 x="0"
                 style="font-size:18px;font-variant:normal;font-weight:normal;writing-mode:lr-tb;fill:#dc322f;fill-opacity:1;fill-rule:nonzero;stroke:none;font-family:DejaVuSans;-inkscape-font-specification:DejaVuSans">✗</tspan></text>
</g></g></g></g></g></svg>