<?xml version="1.0" encoding="UTF-8" standalone="no"?>
<!-- Created with Inkscape (http://www.inkscape.org/) -->

<svg
   xmlns:dc="http://purl.org/dc/elements/1.1/"
   xmlns:cc="http://creativecommons.org/ns#"
   xmlns:rdf="http://www.w3.org/1999/02/22-rdf-syntax-ns#"
   xmlns:svg="http://www.w3.org/2000/svg"
   xmlns="http://www.w3.org/2000/svg"
   xmlns:sodipodi="http://sodipodi.sourceforge.net/DTD/sodipodi-0.dtd"
   xmlns:inkscape="http://www.inkscape.org/namespaces/inkscape"
   id="svg2"
   version="1.1"
   inkscape:version="0.48.4 r9939"
   width="262.25"
   height="152.5"
   xml:space="preserve"
   sodipodi:docname="Schemas.pdf"><metadata
     id="metadata8"><rdf:RDF><cc:Work
         rdf:about=""><dc:format>image/svg+xml</dc:format><dc:type
           rdf:resource="http://purl.org/dc/dcmitype/StillImage" /><dc:title></dc:title></cc:Work></rdf:RDF></metadata><defs
     id="defs6"><clipPath
       clipPathUnits="userSpaceOnUse"
       id="clipPath16"><path
         d="m 0,0.1 595.2,0 0,841.8 L 0,841.9 0,0.1 z"
         clip-rule="evenodd"
         id="path18"
         inkscape:connector-curvature="0" /></clipPath></defs><sodipodi:namedview
     pagecolor="#ffffff"
     bordercolor="#666666"
     borderopacity="1"
     objecttolerance="10"
     gridtolerance="10"
     guidetolerance="10"
     inkscape:pageopacity="0"
     inkscape:pageshadow="2"
     inkscape:window-width="1920"
     inkscape:window-height="1025"
     id="namedview4"
     showgrid="false"
     fit-margin-top="0"
     fit-margin-left="0"
     fit-margin-right="0"
     fit-margin-bottom="0"
     inkscape:zoom="2.5368505"
     inkscape:cx="155.98633"
     inkscape:cy="57.375237"
     inkscape:window-x="0"
     inkscape:window-y="30"
     inkscape:window-maximized="1"
     inkscape:current-layer="g14" /><g
     id="g10"
     inkscape:groupmode="layer"
     inkscape:label="Schemas"
     transform="matrix(1.25,0,0,-1.25,-35.375,1017.125)"><g
       id="g12"><g
         id="g14"
         clip-path="url(#clipPath16)"><g
           id="g244" /><g
           id="g252" /><g
           id="g260" /><g
           id="g268" /><g
           id="g276" /><g
           id="g284" /><g
           id="g3273"><path
             id="path22"
             style="fill:#dc322f;fill-opacity:1;fill-rule:evenodd;stroke:none"
             d="m 109.1,793.8 c 7.3,0 12.8,-5.5 12.8,-12.7 0,-7.3 -5.5,-12.8 -12.8,-12.8 -7.2,0 -12.7,5.5 -12.7,12.8 0,7.2 5.5,12.7 12.7,12.7 z m -12.7,0 0,0 z m 25.5,-25.5 0,0 z"
             inkscape:connector-curvature="0" /><g
             id="g24"><text
               id="text26"
               transform="matrix(1,0,0,-1,101.7,776.9)"><tspan
                 id="tspan28"
                 y="0"
                 x="0"
                 style="font-size:18px;font-variant:normal;font-weight:normal;writing-mode:lr-tb;fill:#ffffff;fill-opacity:1;fill-rule:nonzero;stroke:none;font-family:Aller;-inkscape-font-specification:Aller">a</tspan></text>
</g><g
             id="g30"><text
               id="text32"
               transform="matrix(1,0,0,-1,111.1,770.9)"><tspan
                 id="tspan34"
                 y="0"
                 x="0"
                 style="font-size:10.39999962px;font-variant:normal;font-weight:normal;writing-mode:lr-tb;fill:#ffffff;fill-opacity:1;fill-rule:nonzero;stroke:none;font-family:Aller;-inkscape-font-specification:Aller">k</tspan></text>
</g><path
             id="path36"
             style="fill:#dc322f;fill-opacity:1;fill-rule:evenodd;stroke:none"
             d="m 49.6,813.7 c 7.2,0 12.8,-5.6 12.8,-12.8 0,-7.2 -5.6,-12.8 -12.8,-12.8 -7.2,0 -12.7,5.6 -12.7,12.8 0,7.2 5.5,12.8 12.7,12.8 z m -12.7,0 0,0 z m 25.5,-25.6 0,0 z"
             inkscape:connector-curvature="0" /><g
             id="g38"><text
               id="text40"
               transform="matrix(1,0,0,-1,43.4,796.7)"><tspan
                 id="tspan42"
                 y="0"
                 x="0"
                 style="font-size:18px;font-variant:normal;font-weight:normal;writing-mode:lr-tb;fill:#ffffff;fill-opacity:1;fill-rule:nonzero;stroke:none;font-family:Aller;-inkscape-font-specification:Aller">a</tspan></text>
</g><g
             id="g44"><text
               id="text46"
               transform="matrix(1,0,0,-1,52.8,790.8)"><tspan
                 id="tspan48"
                 y="0"
                 x="0"
                 style="font-size:10.39999962px;font-variant:normal;font-weight:normal;writing-mode:lr-tb;fill:#ffffff;fill-opacity:1;fill-rule:nonzero;stroke:none;font-family:Aller;-inkscape-font-specification:Aller">i</tspan></text>
</g><path
             id="path50"
             style="fill:#dc322f;fill-opacity:1;fill-rule:evenodd;stroke:none"
             d="m 49.6,774 c 7.2,0 12.8,-5.6 12.8,-12.8 0,-7.2 -5.6,-12.7 -12.8,-12.7 -7.2,0 -12.7,5.5 -12.7,12.7 0,7.2 5.5,12.8 12.7,12.8 z m -12.7,0 0,0 z m 25.5,-25.6 0,0 z"
             inkscape:connector-curvature="0" /><g
             id="g52"><text
               id="text54"
               transform="matrix(1,0,0,-1,43.4,757)"><tspan
                 id="tspan56"
                 y="0"
                 x="0"
                 style="font-size:18px;font-variant:normal;font-weight:normal;writing-mode:lr-tb;fill:#ffffff;fill-opacity:1;fill-rule:nonzero;stroke:none;font-family:Aller;-inkscape-font-specification:Aller">a</tspan></text>
</g><g
             id="g58"><text
               id="text60"
               transform="matrix(1,0,0,-1,52.8,751.1)"><tspan
                 id="tspan62"
                 y="0"
                 x="0"
                 style="font-size:10.39999962px;font-variant:normal;font-weight:normal;writing-mode:lr-tb;fill:#ffffff;fill-opacity:1;fill-rule:nonzero;stroke:none;font-family:Aller;-inkscape-font-specification:Aller">j</tspan></text>
</g><g
             id="g64"><path
               id="path66"
               style="fill:none;stroke:#657b83;stroke-width:2.26398993;stroke-linecap:butt;stroke-linejoin:round;stroke-miterlimit:10;stroke-opacity:1;stroke-dasharray:none"
               d="m 62.4,800.9 17,0 0,-19.8 4,0"
               inkscape:connector-curvature="0" /></g><path
             id="path68"
             style="fill:#657b83;fill-opacity:1;fill-rule:evenodd;stroke:none"
             d="m 96.4,781.1 -13.6,4.5 0,-9.1 13.6,4.6 z"
             inkscape:connector-curvature="0" /><g
             id="g70"><text
               id="text72"
               transform="matrix(1,0,0,-1,70,787.6)"><tspan
                 id="tspan74"
                 sodipodi:role="line"
                 y="0"
                 x="0 6.0960002"
                 style="font-size:12px;font-variant:normal;font-weight:normal;writing-mode:lr-tb;fill:#4a8e00;fill-opacity:1;fill-rule:nonzero;stroke:none;font-family:AllerDisplay;-inkscape-font-specification:AllerDisplay">F </tspan></text>
</g><g
             id="g76"><path
               id="path78"
               style="fill:none;stroke:#657b83;stroke-width:2.26398993;stroke-linecap:butt;stroke-linejoin:round;stroke-miterlimit:10;stroke-opacity:1;stroke-dasharray:none"
               d="m 62.4,761.2 17,0 0,19.9 4,0"
               inkscape:connector-curvature="0" /></g><path
             id="path80"
             style="fill:#657b83;fill-opacity:1;fill-rule:evenodd;stroke:none"
             d="m 96.4,781.1 -13.6,4.5 0,-9.1 13.6,4.6 z"
             inkscape:connector-curvature="0" /><g
             id="g82"><text
               id="text84"
               transform="matrix(1,0,0,-1,70,767.8)"><tspan
                 id="tspan86"
                 sodipodi:role="line"
                 y="0"
                 x="0 6.0960002"
                 style="font-size:12px;font-variant:normal;font-weight:normal;writing-mode:lr-tb;fill:#4a8e00;fill-opacity:1;fill-rule:nonzero;stroke:none;font-family:AllerDisplay;-inkscape-font-specification:AllerDisplay">F </tspan></text>
</g><path
             id="path88"
             style="fill:#dc322f;fill-opacity:1;fill-rule:evenodd;stroke:none"
             d="m 225.4,793.8 c 7.2,0 12.7,-5.5 12.7,-12.7 0,-7.3 -5.5,-12.8 -12.7,-12.8 -7.3,0 -12.8,5.5 -12.8,12.8 0,7.2 5.5,12.7 12.8,12.7 z m -12.8,0 0,0 z m 25.5,-25.5 0,0 z"
             inkscape:connector-curvature="0" /><g
             id="g90"><text
               id="text92"
               transform="matrix(1,0,0,-1,218,776.9)"><tspan
                 id="tspan94"
                 y="0"
                 x="0"
                 style="font-size:18px;font-variant:normal;font-weight:normal;writing-mode:lr-tb;fill:#ffffff;fill-opacity:1;fill-rule:nonzero;stroke:none;font-family:Aller;-inkscape-font-specification:Aller">a</tspan></text>
</g><g
             id="g96"><text
               id="text98"
               transform="matrix(1,0,0,-1,227.3,770.9)"><tspan
                 id="tspan100"
                 y="0"
                 x="0"
                 style="font-size:10.39999962px;font-variant:normal;font-weight:normal;writing-mode:lr-tb;fill:#ffffff;fill-opacity:1;fill-rule:nonzero;stroke:none;font-family:Aller;-inkscape-font-specification:Aller">k</tspan></text>
</g><path
             id="path102"
             style="fill:#dc322f;fill-opacity:1;fill-rule:evenodd;stroke:none"
             d="m 165.8,813.7 c 7.3,0 12.8,-5.6 12.8,-12.8 0,-7.2 -5.5,-12.8 -12.8,-12.8 -7.2,0 -12.7,5.6 -12.7,12.8 0,7.2 5.5,12.8 12.7,12.8 z m -12.7,0 0,0 z m 25.5,-25.6 0,0 z"
             inkscape:connector-curvature="0" /><g
             id="g104"><text
               id="text106"
               transform="matrix(1,0,0,-1,159.6,796.7)"><tspan
                 id="tspan108"
                 y="0"
                 x="0"
                 style="font-size:18px;font-variant:normal;font-weight:normal;writing-mode:lr-tb;fill:#ffffff;fill-opacity:1;fill-rule:nonzero;stroke:none;font-family:Aller;-inkscape-font-specification:Aller">a</tspan></text>
</g><g
             id="g110"><text
               id="text112"
               transform="matrix(1,0,0,-1,169,790.8)"><tspan
                 id="tspan114"
                 y="0"
                 x="0"
                 style="font-size:10.39999962px;font-variant:normal;font-weight:normal;writing-mode:lr-tb;fill:#ffffff;fill-opacity:1;fill-rule:nonzero;stroke:none;font-family:Aller;-inkscape-font-specification:Aller">i</tspan></text>
</g><path
             id="path116"
             style="fill:#dc322f;fill-opacity:1;fill-rule:evenodd;stroke:none"
             d="m 165.8,774 c 7.3,0 12.8,-5.6 12.8,-12.8 0,-7.2 -5.5,-12.7 -12.8,-12.7 -7.2,0 -12.7,5.5 -12.7,12.7 0,7.2 5.5,12.8 12.7,12.8 z m -12.7,0 0,0 z m 25.5,-25.6 0,0 z"
             inkscape:connector-curvature="0" /><g
             id="g118"><text
               id="text120"
               transform="matrix(1,0,0,-1,159.6,757)"><tspan
                 id="tspan122"
                 y="0"
                 x="0"
                 style="font-size:18px;font-variant:normal;font-weight:normal;writing-mode:lr-tb;fill:#ffffff;fill-opacity:1;fill-rule:nonzero;stroke:none;font-family:Aller;-inkscape-font-specification:Aller">a</tspan></text>
</g><g
             id="g124"><text
               id="text126"
               transform="matrix(1,0,0,-1,169,751.1)"><tspan
                 id="tspan128"
                 y="0"
                 x="0"
                 style="font-size:10.39999962px;font-variant:normal;font-weight:normal;writing-mode:lr-tb;fill:#ffffff;fill-opacity:1;fill-rule:nonzero;stroke:none;font-family:Aller;-inkscape-font-specification:Aller">j</tspan></text>
</g><g
             id="g130"><path
               id="path132"
               style="fill:none;stroke:#657b83;stroke-width:2.26398993;stroke-linecap:butt;stroke-linejoin:round;stroke-miterlimit:10;stroke-opacity:1;stroke-dasharray:none"
               d="m 178.6,800.9 17,0 0,-19.8 4,0"
               inkscape:connector-curvature="0" /></g><path
             id="path134"
             style="fill:#657b83;fill-opacity:1;fill-rule:evenodd;stroke:none"
             d="m 212.6,781.1 -13.6,4.5 0,-9.1 13.6,4.6 z"
             inkscape:connector-curvature="0" /><g
             id="g136"><text
               id="text138"
               transform="matrix(1,0,0,-1,186.2,787.6)"><tspan
                 id="tspan140"
                 sodipodi:role="line"
                 y="0"
                 x="0 6.0960002"
                 style="font-size:12px;font-variant:normal;font-weight:normal;writing-mode:lr-tb;fill:#4a8e00;fill-opacity:1;fill-rule:nonzero;stroke:none;font-family:AllerDisplay;-inkscape-font-specification:AllerDisplay">F </tspan></text>
</g><g
             id="g142"><path
               id="path144"
               style="fill:none;stroke:#657b83;stroke-width:2.26398993;stroke-linecap:butt;stroke-linejoin:round;stroke-miterlimit:10;stroke-opacity:1;stroke-dasharray:none"
               d="m 178.6,761.2 17,0 0,19.9 4,0"
               inkscape:connector-curvature="0" /></g><path
             id="path146"
             style="fill:#657b83;fill-opacity:1;fill-rule:evenodd;stroke:none"
             d="m 212.6,781.1 -13.6,4.5 0,-9.1 13.6,4.6 z"
             inkscape:connector-curvature="0" /><g
             id="g148"><text
               id="text150"
               transform="matrix(1,0,0,-1,186.2,767.8)"><tspan
                 id="tspan152"
                 sodipodi:role="line"
                 y="0"
                 x="0 6.0960002"
                 style="font-size:12px;font-variant:normal;font-weight:normal;writing-mode:lr-tb;fill:#4a8e00;fill-opacity:1;fill-rule:nonzero;stroke:none;font-family:AllerDisplay;-inkscape-font-specification:AllerDisplay">F </tspan></text>
</g><path
             id="path154"
             style="fill:#dc322f;fill-opacity:1;fill-rule:evenodd;stroke:none"
             d="m 41.1,717.3 c 7.2,0 12.8,-5.6 12.8,-12.8 0,-7.2 -5.6,-12.7 -12.8,-12.7 -7.2,0 -12.8,5.5 -12.8,12.7 0,7.2 5.6,12.8 12.8,12.8 z m -12.8,0 0,0 z m 25.6,-25.6 0,0 z"
             inkscape:connector-curvature="0" /><g
             id="g156"><text
               id="text158"
               transform="matrix(1,0,0,-1,32.6,700.3)"><tspan
                 id="tspan160"
                 y="0"
                 x="0"
                 style="font-size:18px;font-variant:normal;font-weight:normal;writing-mode:lr-tb;fill:#ffffff;fill-opacity:1;fill-rule:nonzero;stroke:none;font-family:Aller;-inkscape-font-specification:Aller">a</tspan></text>
</g><g
             id="g162"><text
               id="text164"
               transform="matrix(1,0,0,-1,41.9,694.4)"><tspan
                 id="tspan166"
                 y="0"
                 x="0"
                 style="font-size:10.39999962px;font-variant:normal;font-weight:normal;writing-mode:lr-tb;fill:#ffffff;fill-opacity:1;fill-rule:nonzero;stroke:none;font-family:Aller;-inkscape-font-specification:Aller">…</tspan></text>
</g><path
             id="path168"
             style="fill:#dc322f;fill-opacity:1;fill-rule:evenodd;stroke:none"
             d="m 60.9,717.3 c 7.3,0 12.8,-5.6 12.8,-12.8 0,-7.2 -5.5,-12.7 -12.8,-12.7 -7.2,0 -12.7,5.5 -12.7,12.7 0,7.2 5.5,12.8 12.7,12.8 z m -12.7,0 0,0 z m 25.5,-25.6 0,0 z"
             inkscape:connector-curvature="0" /><g
             id="g170"><text
               id="text172"
               transform="matrix(1,0,0,-1,52.4,700.3)"><tspan
                 id="tspan174"
                 y="0"
                 x="0"
                 style="font-size:18px;font-variant:normal;font-weight:normal;writing-mode:lr-tb;fill:#ffffff;fill-opacity:1;fill-rule:nonzero;stroke:none;font-family:Aller;-inkscape-font-specification:Aller">a</tspan></text>
</g><g
             id="g176"><text
               id="text178"
               transform="matrix(1,0,0,-1,61.8,694.4)"><tspan
                 id="tspan180"
                 y="0"
                 x="0"
                 style="font-size:10.39999962px;font-variant:normal;font-weight:normal;writing-mode:lr-tb;fill:#ffffff;fill-opacity:1;fill-rule:nonzero;stroke:none;font-family:Aller;-inkscape-font-specification:Aller">…</tspan></text>
</g><path
             id="path182"
             style="fill:#dc322f;fill-opacity:1;fill-rule:evenodd;stroke:none"
             d="m 83.6,717.3 c 7.3,0 12.8,-5.6 12.8,-12.8 0,-7.2 -5.5,-12.7 -12.8,-12.7 -7.2,0 -12.7,5.5 -12.7,12.7 0,7.2 5.5,12.8 12.7,12.8 z m -12.7,0 0,0 z m 25.5,-25.6 0,0 z"
             inkscape:connector-curvature="0" /><g
             id="g184"><text
               id="text186"
               transform="matrix(1,0,0,-1,75.1,700.3)"><tspan
                 id="tspan188"
                 y="0"
                 x="0"
                 style="font-size:18px;font-variant:normal;font-weight:normal;writing-mode:lr-tb;fill:#ffffff;fill-opacity:1;fill-rule:nonzero;stroke:none;font-family:Aller;-inkscape-font-specification:Aller">a</tspan></text>
</g><g
             id="g190"><text
               id="text192"
               transform="matrix(1,0,0,-1,84.4,694.4)"><tspan
                 id="tspan194"
                 y="0"
                 x="0"
                 style="font-size:10.39999962px;font-variant:normal;font-weight:normal;writing-mode:lr-tb;fill:#ffffff;fill-opacity:1;fill-rule:nonzero;stroke:none;font-family:Aller;-inkscape-font-specification:Aller">…</tspan></text>
</g><path
             id="path196"
             style="fill:#dc322f;fill-opacity:1;fill-rule:evenodd;stroke:none"
             d="m 140.3,717.3 c 7.2,0 12.8,-5.6 12.8,-12.8 0,-7.2 -5.6,-12.7 -12.8,-12.7 -7.2,0 -12.7,5.5 -12.7,12.7 0,7.2 5.5,12.8 12.7,12.8 z m -12.7,0 0,0 z m 25.5,-25.6 0,0 z"
             inkscape:connector-curvature="0" /><g
             id="g198"><text
               id="text200"
               transform="matrix(1,0,0,-1,131.8,700.3)"><tspan
                 id="tspan202"
                 y="0"
                 x="0"
                 style="font-size:18px;font-variant:normal;font-weight:normal;writing-mode:lr-tb;fill:#ffffff;fill-opacity:1;fill-rule:nonzero;stroke:none;font-family:Aller;-inkscape-font-specification:Aller">a</tspan></text>
</g><g
             id="g204"><text
               id="text206"
               transform="matrix(1,0,0,-1,141.1,694.4)"><tspan
                 id="tspan208"
                 y="0"
                 x="0"
                 style="font-size:10.39999962px;font-variant:normal;font-weight:normal;writing-mode:lr-tb;fill:#ffffff;fill-opacity:1;fill-rule:nonzero;stroke:none;font-family:Aller;-inkscape-font-specification:Aller">…</tspan></text>
</g><path
             id="path210"
             style="fill:#dc322f;fill-opacity:1;fill-rule:evenodd;stroke:none"
             d="m 160.2,717.3 c 7.2,0 12.7,-5.6 12.7,-12.8 0,-7.2 -5.5,-12.7 -12.7,-12.7 -7.3,0 -12.8,5.5 -12.8,12.7 0,7.2 5.5,12.8 12.8,12.8 z m -12.8,0 0,0 z m 25.5,-25.6 0,0 z"
             inkscape:connector-curvature="0" /><g
             id="g212"><text
               id="text214"
               transform="matrix(1,0,0,-1,151.6,700.3)"><tspan
                 id="tspan216"
                 y="0"
                 x="0"
                 style="font-size:18px;font-variant:normal;font-weight:normal;writing-mode:lr-tb;fill:#ffffff;fill-opacity:1;fill-rule:nonzero;stroke:none;font-family:Aller;-inkscape-font-specification:Aller">a</tspan></text>
</g><g
             id="g218"><text
               id="text220"
               transform="matrix(1,0,0,-1,161,694.4)"><tspan
                 id="tspan222"
                 y="0"
                 x="0"
                 style="font-size:10.39999962px;font-variant:normal;font-weight:normal;writing-mode:lr-tb;fill:#ffffff;fill-opacity:1;fill-rule:nonzero;stroke:none;font-family:Aller;-inkscape-font-specification:Aller">…</tspan></text>
</g><path
             id="path224"
             style="fill:#dc322f;fill-opacity:1;fill-rule:evenodd;stroke:none"
             d="m 182.8,717.3 c 7.3,0 12.8,-5.6 12.8,-12.8 0,-7.2 -5.5,-12.7 -12.8,-12.7 -7.2,0 -12.7,5.5 -12.7,12.7 0,7.2 5.5,12.8 12.7,12.8 z m -12.7,0 0,0 z m 25.5,-25.6 0,0 z"
             inkscape:connector-curvature="0" /><g
             id="g226"><text
               id="text228"
               transform="matrix(1,0,0,-1,174.3,700.3)"><tspan
                 id="tspan230"
                 y="0"
                 x="0"
                 style="font-size:18px;font-variant:normal;font-weight:normal;writing-mode:lr-tb;fill:#ffffff;fill-opacity:1;fill-rule:nonzero;stroke:none;font-family:Aller;-inkscape-font-specification:Aller">a</tspan></text>
</g><g
             id="g232"><text
               id="text234"
               transform="matrix(1,0,0,-1,183.7,694.4)"><tspan
                 id="tspan236"
                 y="0"
                 x="0"
                 style="font-size:10.39999962px;font-variant:normal;font-weight:normal;writing-mode:lr-tb;fill:#ffffff;fill-opacity:1;fill-rule:nonzero;stroke:none;font-family:Aller;-inkscape-font-specification:Aller">…</tspan></text>
</g><g
             id="g238"><path
               id="path240"
               style="fill:none;stroke:#657b83;stroke-width:2.26398993;stroke-linecap:butt;stroke-linejoin:round;stroke-miterlimit:10;stroke-opacity:1;stroke-dasharray:none"
               d="m 49.6,748.5 0,-11.4 34,0 0,-6.8"
               inkscape:connector-curvature="0" /></g><path
             id="path242"
             style="fill:#657b83;fill-opacity:1;fill-rule:evenodd;stroke:none"
             d="m 83.6,717.3 4.6,13.6 -9.1,0 4.5,-13.6 z"
             inkscape:connector-curvature="0" /><g
             id="g246"><path
               id="path248"
               style="fill:none;stroke:#657b83;stroke-width:2.26398993;stroke-linecap:butt;stroke-linejoin:round;stroke-miterlimit:10;stroke-opacity:1;stroke-dasharray:none"
               d="m 49.6,748.5 0,-11.4 11.3,0 0,-6.8"
               inkscape:connector-curvature="0" /></g><path
             id="path250"
             style="fill:#657b83;fill-opacity:1;fill-rule:evenodd;stroke:none"
             d="m 60.9,717.3 4.6,13.6 -9.1,0 4.5,-13.6 z"
             inkscape:connector-curvature="0" /><g
             id="g254"><path
               id="path256"
               style="fill:none;stroke:#657b83;stroke-width:2.26398993;stroke-linecap:butt;stroke-linejoin:round;stroke-miterlimit:10;stroke-opacity:1;stroke-dasharray:none"
               d="m 49.6,748.5 0,-11.4 -8.5,0 0,-6.8"
               inkscape:connector-curvature="0" /></g><path
             id="path258"
             style="fill:#657b83;fill-opacity:1;fill-rule:evenodd;stroke:none"
             d="m 41.1,717.3 4.5,13.6 -9,0 4.5,-13.6 z"
             inkscape:connector-curvature="0" /><g
             id="g262"><path
               id="path264"
               style="fill:none;stroke:#657b83;stroke-width:2.26398993;stroke-linecap:butt;stroke-linejoin:round;stroke-miterlimit:10;stroke-opacity:1;stroke-dasharray:none"
               d="m 160.2,717.3 0,9.9 5.6,0 0,8.2"
               inkscape:connector-curvature="0" /></g><path
             id="path266"
             style="fill:#657b83;fill-opacity:1;fill-rule:evenodd;stroke:none"
             d="m 165.8,748.5 -4.5,-13.6 9.1,0 -4.6,13.6 z"
             inkscape:connector-curvature="0" /><g
             id="g270"><path
               id="path272"
               style="fill:none;stroke:#657b83;stroke-width:2.26398993;stroke-linecap:butt;stroke-linejoin:round;stroke-miterlimit:10;stroke-opacity:1;stroke-dasharray:none"
               d="m 182.8,717.3 0,9.9 -17,0 0,8.2"
               inkscape:connector-curvature="0" /></g><path
             id="path274"
             style="fill:#657b83;fill-opacity:1;fill-rule:evenodd;stroke:none"
             d="m 165.8,748.5 -4.5,-13.6 9.1,0 -4.6,13.6 z"
             inkscape:connector-curvature="0" /><g
             id="g278"><path
               id="path280"
               style="fill:none;stroke:#657b83;stroke-width:2.26398993;stroke-linecap:butt;stroke-linejoin:round;stroke-miterlimit:10;stroke-opacity:1;stroke-dasharray:none"
               d="m 140.3,717.3 0,9.9 25.5,0 0,8.2"
               inkscape:connector-curvature="0" /></g><path
             id="path282"
             style="fill:#657b83;fill-opacity:1;fill-rule:evenodd;stroke:none"
             d="m 165.8,748.5 -4.5,-13.6 9.1,0 -4.6,13.6 z"
             inkscape:connector-curvature="0" /><g
             id="g286"><text
               id="text288"
               transform="matrix(1,0,0,-1,188.5,753.8)"><tspan
                 id="tspan290"
                 y="0"
                 x="0"
                 style="font-size:18px;font-variant:normal;font-weight:normal;writing-mode:lr-tb;fill:#dc322f;fill-opacity:1;fill-rule:nonzero;stroke:none;font-family:DejaVuSans;-inkscape-font-specification:DejaVuSans">✗</tspan></text>
</g><g
             id="g292"><text
               id="text294"
               transform="matrix(1,0,0,-1,72.3,793.5)"><tspan
                 id="tspan296"
                 y="0"
                 x="0"
                 style="font-size:18px;font-variant:normal;font-weight:normal;writing-mode:lr-tb;fill:#dc322f;fill-opacity:1;fill-rule:nonzero;stroke:none;font-family:DejaVuSans;-inkscape-font-specification:DejaVuSans">✗</tspan></text>
</g></g></g></g></g></svg>