<?xml version="1.0" encoding="UTF-8" standalone="no"?>
<!-- Created with Inkscape (http://www.inkscape.org/) -->

<svg
   xmlns:dc="http://purl.org/dc/elements/1.1/"
   xmlns:cc="http://creativecommons.org/ns#"
   xmlns:rdf="http://www.w3.org/1999/02/22-rdf-syntax-ns#"
   xmlns:svg="http://www.w3.org/2000/svg"
   xmlns="http://www.w3.org/2000/svg"
   xmlns:sodipodi="http://sodipodi.sourceforge.net/DTD/sodipodi-0.dtd"
   xmlns:inkscape="http://www.inkscape.org/namespaces/inkscape"
   id="svg2"
   version="1.1"
   inkscape:version="0.48.4 r9939"
   width="696.05768"
   height="317.625"
   xml:space="preserve"
   sodipodi:docname="example.pdf"><metadata
     id="metadata8"><rdf:RDF><cc:Work
         rdf:about=""><dc:format>image/svg+xml</dc:format><dc:type
           rdf:resource="http://purl.org/dc/dcmitype/StillImage" /><dc:title></dc:title></cc:Work></rdf:RDF></metadata><defs
     id="defs6"><clipPath
       clipPathUnits="userSpaceOnUse"
       id="clipPath16"><path
         d="m 0,0.1 595.2,0 0,841.8 L 0,841.9 0,0.1 z"
         clip-rule="evenodd"
         id="path18"
         inkscape:connector-curvature="0" /></clipPath><clipPath
       clipPathUnits="userSpaceOnUse"
       id="clipPath38"><path
         d="m 69.1,665.7 14.1,0 0,7.3 -14.1,0 0,-7.3 z"
         id="path40"
         inkscape:connector-curvature="0" /></clipPath><clipPath
       clipPathUnits="userSpaceOnUse"
       id="clipPath54"><path
         d="m 51.6,665.7 14.1,0 0,7.3 -14.1,0 0,-7.3 z"
         id="path56"
         inkscape:connector-curvature="0" /></clipPath></defs><sodipodi:namedview
     pagecolor="#ffffff"
     bordercolor="#666666"
     borderopacity="1"
     objecttolerance="10"
     gridtolerance="10"
     guidetolerance="10"
     inkscape:pageopacity="0"
     inkscape:pageshadow="2"
     inkscape:window-width="1920"
     inkscape:window-height="1055"
     id="namedview4"
     showgrid="false"
     fit-margin-left="5"
     fit-margin-top="5"
     fit-margin-bottom="5"
     fit-margin-right="5"
     inkscape:zoom="1.7938242"
     inkscape:cx="279.44118"
     inkscape:cy="569.71018"
     inkscape:window-x="0"
     inkscape:window-y="1050"
     inkscape:window-maximized="1"
     inkscape:current-layer="g14" /><g
     id="g10"
     inkscape:groupmode="layer"
     inkscape:label="example"
     transform="matrix(1.25,0,0,-1.25,-28.192313,685.0625)"><g
       id="g12"><g
         id="g14"
         clip-path="url(#clipPath16)"><g
           id="g216" /><g
           id="g320" /><g
           id="g472" /><g
           id="g3495"
           transform="translate(0,-275.25)"><path
             inkscape:connector-curvature="0"
             id="path148"
             style="fill:#fdf6e3;fill-opacity:1;fill-rule:evenodd;stroke:none"
             d="m 403.9,573.2 -171.5,0 0,246.1 343,0 0,-246.1 -171.5,0 z" /><g
             id="g150"><text
               id="text152"
               transform="matrix(1,0,0,-1,239.5,804.6)"><tspan
                 id="tspan154"
                 sodipodi:role="line"
                 y="0"
                 x="0 7.1999998"
                 style="font-size:12px;font-variant:normal;font-weight:bold;writing-mode:lr-tb;fill:#dc322f;fill-opacity:1;fill-rule:nonzero;stroke:none;font-family:DejaVuSansMono;-inkscape-font-specification:DejaVuSansMono-Bold">go</tspan></text>
</g><g
             id="g156"><text
               id="text158"
               transform="matrix(1,0,0,-1,253.9,804.6)"><tspan
                 id="tspan160"
                 sodipodi:role="line"
                 y="0"
                 x="0 7.1999998 14.4 21.6 28.799999 36 43.200001 50.400002 57.599998 64.800003 72 79.199997 86.400002 93.599998 100.8 108 115.2 122.4"
                 style="font-size:12px;font-variant:normal;font-weight:normal;writing-mode:lr-tb;fill:#000000;fill-opacity:1;fill-rule:nonzero;stroke:none;font-family:DejaVuSansMono;-inkscape-font-specification:DejaVuSansMono">(?movable, ?room) </tspan></text>
</g><g
             id="g162"><text
               id="text164"
               transform="matrix(1,0,0,-1,275,790.6)"><tspan
                 id="tspan166"
                 sodipodi:role="line"
                 y="0"
                 x="0 7.1999998 14.4 21.6 28.799999 36 43.200001 50.400002 57.599998"
                 style="font-size:12px;font-variant:normal;font-weight:normal;writing-mode:lr-tb;fill:#000000;fill-opacity:1;fill-rule:nonzero;stroke:none;font-family:DejaVuSansMono;-inkscape-font-specification:DejaVuSansMono">?movable </tspan></text>
</g><g
             id="g168"><text
               id="text170"
               transform="matrix(1,0,0,-1,339.8,790.6)"><tspan
                 id="tspan172"
                 sodipodi:role="line"
                 y="0"
                 x="0 7.1999998"
                 style="font-size:12px;font-variant:normal;font-weight:bold;writing-mode:lr-tb;fill:#657b83;fill-opacity:1;fill-rule:nonzero;stroke:none;font-family:DejaVuSansMono;-inkscape-font-specification:DejaVuSansMono-Bold">is</tspan></text>
</g><g
             id="g174"><text
               id="text176"
               transform="matrix(1,0,0,-1,361.4,790.6)"><tspan
                 id="tspan178"
                 sodipodi:role="line"
                 y="0"
                 x="0 7.1999998 14.4 21.6 28.799999 36 43.200001 50.400002 57.599998 64.800003 72 79.199997 86.400002 93.599998 100.8"
                 style="font-size:12px;font-variant:normal;font-weight:normal;writing-mode:lr-tb;fill:#000000;fill-opacity:1;fill-rule:nonzero;stroke:none;font-family:DejaVuSansMono;-inkscape-font-specification:DejaVuSansMono">Movable, ?room </tspan></text>
</g><g
             id="g180"><text
               id="text182"
               transform="matrix(1,0,0,-1,469.4,790.6)"><tspan
                 id="tspan184"
                 sodipodi:role="line"
                 y="0"
                 x="0 7.1999998"
                 style="font-size:12px;font-variant:normal;font-weight:bold;writing-mode:lr-tb;fill:#657b83;fill-opacity:1;fill-rule:nonzero;stroke:none;font-family:DejaVuSansMono;-inkscape-font-specification:DejaVuSansMono-Bold">is</tspan></text>
</g><g
             id="g186"><text
               id="text188"
               transform="matrix(1,0,0,-1,491,790.6)"><tspan
                 id="tspan190"
                 sodipodi:role="line"
                 y="0"
                 x="0 7.1999998 14.4 21.6"
                 style="font-size:12px;font-variant:normal;font-weight:normal;writing-mode:lr-tb;fill:#000000;fill-opacity:1;fill-rule:nonzero;stroke:none;font-family:DejaVuSansMono;-inkscape-font-specification:DejaVuSansMono">Room</tspan></text>
</g><g
             id="g192"><text
               id="text194"
               transform="matrix(1,0,0,-1,275,776.5)"><tspan
                 id="tspan196"
                 sodipodi:role="line"
                 y="0"
                 x="0 7.1999998 14.4"
                 style="font-size:12px;font-variant:normal;font-weight:normal;writing-mode:lr-tb;fill:#268bd2;fill-opacity:1;fill-rule:nonzero;stroke:none;font-family:DejaVuSansMono;-inkscape-font-specification:DejaVuSansMono">pre</tspan></text>
</g><g
             id="g198"><text
               id="text200"
               transform="matrix(1,0,0,-1,303.8,776.5)"><tspan
                 id="tspan202"
                 sodipodi:role="line"
                 y="0"
                 x="0 7.1999998 14.4 21.6 28.799999 36 43.200001 50.400002 57.599998"
                 style="font-size:12px;font-variant:normal;font-weight:normal;writing-mode:lr-tb;fill:#000000;fill-opacity:1;fill-rule:nonzero;stroke:none;font-family:DejaVuSansMono;-inkscape-font-specification:DejaVuSansMono">?movable </tspan></text>
</g><g
             id="g204"><text
               id="text206"
               transform="matrix(1,0,0,-1,368.6,776.5)"><tspan
                 id="tspan208"
                 sodipodi:role="line"
                 y="0"
                 x="0 7.1999998 14.4 21.6"
                 style="font-size:12px;font-variant:normal;font-weight:normal;writing-mode:lr-tb;fill:#4a8e00;fill-opacity:1;fill-rule:nonzero;stroke:none;font-family:DejaVuSansMono;-inkscape-font-specification:DejaVuSansMono">room</tspan></text>
</g><g
             id="g210"><text
               id="text212"
               transform="matrix(1,0,0,-1,404.6,776.5)"><tspan
                 id="tspan214"
                 sodipodi:role="line"
                 y="0"
                 x="0 7.1999998 14.4 21.6 28.799999 36 43.200001 50.400002 57.599998"
                 style="font-size:12px;font-variant:normal;font-weight:normal;writing-mode:lr-tb;fill:#000000;fill-opacity:1;fill-rule:nonzero;stroke:none;font-family:DejaVuSansMono;-inkscape-font-specification:DejaVuSansMono">!= ?room,</tspan></text>
</g><g
             id="g218"><text
               id="text220"
               transform="matrix(1,0,0,-1,303.8,762.4)"><tspan
                 id="tspan222"
                 sodipodi:role="line"
                 y="0"
                 x="0 7.1999998 14.4 21.6 28.799999 36 43.200001"
                 style="font-size:12px;font-variant:normal;font-weight:normal;writing-mode:lr-tb;fill:#000000;fill-opacity:1;fill-rule:nonzero;stroke:none;font-family:DejaVuSansMono;-inkscape-font-specification:DejaVuSansMono">?room !</tspan></text>
</g><g
             id="g224"><text
               id="text226"
               transform="matrix(1,0,0,-1,354.2,762.4)"><tspan
                 id="tspan228"
                 sodipodi:role="line"
                 y="0"
                 x="0 7.1999998 14.4 21.6 28.799999 36"
                 style="font-size:12px;font-variant:normal;font-weight:normal;writing-mode:lr-tb;fill:#4a8e00;fill-opacity:1;fill-rule:nonzero;stroke:none;font-family:DejaVuSansMono;-inkscape-font-specification:DejaVuSansMono">locked</tspan></text>
</g><g
             id="g230"><text
               id="text232"
               transform="matrix(1,0,0,-1,275,748.4)"><tspan
                 id="tspan234"
                 sodipodi:role="line"
                 y="0"
                 x="0 7.1999998 14.4"
                 style="font-size:12px;font-variant:normal;font-weight:normal;writing-mode:lr-tb;fill:#268bd2;fill-opacity:1;fill-rule:nonzero;stroke:none;font-family:DejaVuSansMono;-inkscape-font-specification:DejaVuSansMono">eff</tspan></text>
</g><g
             id="g236"><text
               id="text238"
               transform="matrix(1,0,0,-1,303.8,748.4)"><tspan
                 id="tspan240"
                 sodipodi:role="line"
                 y="0"
                 x="0 7.1999998 14.4 21.6 28.799999 36 43.200001 50.400002 57.599998"
                 style="font-size:12px;font-variant:normal;font-weight:normal;writing-mode:lr-tb;fill:#000000;fill-opacity:1;fill-rule:nonzero;stroke:none;font-family:DejaVuSansMono;-inkscape-font-specification:DejaVuSansMono">?movable </tspan></text>
</g><g
             id="g242"><text
               id="text244"
               transform="matrix(1,0,0,-1,368.6,748.4)"><tspan
                 id="tspan246"
                 sodipodi:role="line"
                 y="0"
                 x="0 7.1999998 14.4 21.6"
                 style="font-size:12px;font-variant:normal;font-weight:normal;writing-mode:lr-tb;fill:#4a8e00;fill-opacity:1;fill-rule:nonzero;stroke:none;font-family:DejaVuSansMono;-inkscape-font-specification:DejaVuSansMono">room</tspan></text>
</g><g
             id="g248"><text
               id="text250"
               transform="matrix(1,0,0,-1,404.6,748.4)"><tspan
                 id="tspan252"
                 sodipodi:role="line"
                 y="0"
                 x="0 7.1999998 14.4 21.6 28.799999"
                 style="font-size:12px;font-variant:normal;font-weight:normal;writing-mode:lr-tb;fill:#000000;fill-opacity:1;fill-rule:nonzero;stroke:none;font-family:DejaVuSansMono;-inkscape-font-specification:DejaVuSansMono">?room</tspan></text>
</g><g
             id="g254"><text
               id="text256"
               transform="matrix(1,0,0,-1,239.5,720.3)"><tspan
                 id="tspan258"
                 sodipodi:role="line"
                 y="0"
                 x="0 7.1999998 14.4 21.6"
                 style="font-size:12px;font-variant:normal;font-weight:bold;writing-mode:lr-tb;fill:#dc322f;fill-opacity:1;fill-rule:nonzero;stroke:none;font-family:DejaVuSansMono;-inkscape-font-specification:DejaVuSansMono-Bold">grab</tspan></text>
</g><g
             id="g260"><text
               id="text262"
               transform="matrix(1,0,0,-1,268.3,720.3)"><tspan
                 id="tspan264"
                 sodipodi:role="line"
                 y="0"
                 x="0 7.1999998 14.4 21.6 28.799999 36 43.200001 50.400002 57.599998 64.800003 72 79.199997 86.400002 93.599998 100.8 108 115.2 122.4 129.60001 136.8"
                 style="font-size:12px;font-variant:normal;font-weight:normal;writing-mode:lr-tb;fill:#000000;fill-opacity:1;fill-rule:nonzero;stroke:none;font-family:DejaVuSansMono;-inkscape-font-specification:DejaVuSansMono">(?graber, ?pickable)</tspan></text>
</g><g
             id="g266"><text
               id="text268"
               transform="matrix(1,0,0,-1,275,706.2)"><tspan
                 id="tspan270"
                 sodipodi:role="line"
                 y="0"
                 x="0 7.1999998 14.4 21.6 28.799999 36 43.200001 50.400002"
                 style="font-size:12px;font-variant:normal;font-weight:normal;writing-mode:lr-tb;fill:#000000;fill-opacity:1;fill-rule:nonzero;stroke:none;font-family:DejaVuSansMono;-inkscape-font-specification:DejaVuSansMono">?graber </tspan></text>
</g><g
             id="g272"><text
               id="text274"
               transform="matrix(1,0,0,-1,332.6,706.2)"><tspan
                 id="tspan276"
                 sodipodi:role="line"
                 y="0"
                 x="0 7.1999998"
                 style="font-size:12px;font-variant:normal;font-weight:bold;writing-mode:lr-tb;fill:#657b83;fill-opacity:1;fill-rule:nonzero;stroke:none;font-family:DejaVuSansMono;-inkscape-font-specification:DejaVuSansMono-Bold">is</tspan></text>
</g><g
             id="g278"><text
               id="text280"
               transform="matrix(1,0,0,-1,354.2,706.2)"><tspan
                 id="tspan282"
                 sodipodi:role="line"
                 y="0"
                 x="0 7.1999998 14.4 21.6 28.799999 36 43.200001 50.400002 57.599998 64.800003 72 79.199997 86.400002 93.599998 100.8 108 115.2 122.4"
                 style="font-size:12px;font-variant:normal;font-weight:normal;writing-mode:lr-tb;fill:#000000;fill-opacity:1;fill-rule:nonzero;stroke:none;font-family:DejaVuSansMono;-inkscape-font-specification:DejaVuSansMono">Graber, ?pickable </tspan></text>
</g><g
             id="g284"><text
               id="text286"
               transform="matrix(1,0,0,-1,483.8,706.2)"><tspan
                 id="tspan288"
                 sodipodi:role="line"
                 y="0"
                 x="0 7.1999998"
                 style="font-size:12px;font-variant:normal;font-weight:bold;writing-mode:lr-tb;fill:#657b83;fill-opacity:1;fill-rule:nonzero;stroke:none;font-family:DejaVuSansMono;-inkscape-font-specification:DejaVuSansMono-Bold">is</tspan></text>
</g><g
             id="g290"><text
               id="text292"
               transform="matrix(1,0,0,-1,505.4,706.2)"><tspan
                 id="tspan294"
                 sodipodi:role="line"
                 y="0"
                 x="0 7.1999998 14.4 21.6 28.799999 36 43.200001 50.400002"
                 style="font-size:12px;font-variant:normal;font-weight:normal;writing-mode:lr-tb;fill:#000000;fill-opacity:1;fill-rule:nonzero;stroke:none;font-family:DejaVuSansMono;-inkscape-font-specification:DejaVuSansMono">Pickable</tspan></text>
</g><g
             id="g296"><text
               id="text298"
               transform="matrix(1,0,0,-1,275,692.1)"><tspan
                 id="tspan300"
                 sodipodi:role="line"
                 y="0"
                 x="0 7.1999998 14.4"
                 style="font-size:12px;font-variant:normal;font-weight:normal;writing-mode:lr-tb;fill:#268bd2;fill-opacity:1;fill-rule:nonzero;stroke:none;font-family:DejaVuSansMono;-inkscape-font-specification:DejaVuSansMono">pre</tspan></text>
</g><g
             id="g302"><text
               id="text304"
               transform="matrix(1,0,0,-1,303.8,692.1)"><tspan
                 id="tspan306"
                 sodipodi:role="line"
                 y="0"
                 x="0 7.1999998 14.4 21.6 28.799999 36 43.200001 50.400002"
                 style="font-size:12px;font-variant:normal;font-weight:normal;writing-mode:lr-tb;fill:#000000;fill-opacity:1;fill-rule:nonzero;stroke:none;font-family:DejaVuSansMono;-inkscape-font-specification:DejaVuSansMono">?graber </tspan></text>
</g><g
             id="g308"><text
               id="text310"
               transform="matrix(1,0,0,-1,361.4,692.1)"><tspan
                 id="tspan312"
                 sodipodi:role="line"
                 y="0"
                 x="0 7.1999998 14.4 21.6 28.799999"
                 style="font-size:12px;font-variant:normal;font-weight:normal;writing-mode:lr-tb;fill:#4a8e00;fill-opacity:1;fill-rule:nonzero;stroke:none;font-family:DejaVuSansMono;-inkscape-font-specification:DejaVuSansMono">holds</tspan></text>
</g><g
             id="g314"><text
               id="text316"
               transform="matrix(1,0,0,-1,404.6,692.1)"><tspan
                 id="tspan318"
                 sodipodi:role="line"
                 y="0"
                 x="0 7.1999998 14.4 21.6 28.799999 36 43.200001 50.400002 57.599998"
                 style="font-size:12px;font-variant:normal;font-weight:normal;writing-mode:lr-tb;fill:#000000;fill-opacity:1;fill-rule:nonzero;stroke:none;font-family:DejaVuSansMono;-inkscape-font-specification:DejaVuSansMono">nothing, </tspan></text>
</g><g
             id="g322"><text
               id="text324"
               transform="matrix(1,0,0,-1,303.8,678.1)"><tspan
                 id="tspan326"
                 sodipodi:role="line"
                 y="0"
                 x="0 7.1999998 14.4 21.6 28.799999 36 43.200001 50.400002"
                 style="font-size:12px;font-variant:normal;font-weight:normal;writing-mode:lr-tb;fill:#000000;fill-opacity:1;fill-rule:nonzero;stroke:none;font-family:DejaVuSansMono;-inkscape-font-specification:DejaVuSansMono">?graber </tspan></text>
</g><g
             id="g328"><text
               id="text330"
               transform="matrix(1,0,0,-1,361.4,678.1)"><tspan
                 id="tspan332"
                 sodipodi:role="line"
                 y="0"
                 x="0 7.1999998 14.4 21.6"
                 style="font-size:12px;font-variant:normal;font-weight:normal;writing-mode:lr-tb;fill:#4a8e00;fill-opacity:1;fill-rule:nonzero;stroke:none;font-family:DejaVuSansMono;-inkscape-font-specification:DejaVuSansMono">room</tspan></text>
</g><g
             id="g334"><text
               id="text336"
               transform="matrix(1,0,0,-1,397.4,678.1)"><tspan
                 id="tspan338"
                 sodipodi:role="line"
                 y="0"
                 x="0 7.1999998 14.4 21.6 28.799999 36 43.200001 50.400002 57.599998 64.800003 72 79.199997"
                 style="font-size:12px;font-variant:normal;font-weight:normal;writing-mode:lr-tb;fill:#000000;fill-opacity:1;fill-rule:nonzero;stroke:none;font-family:DejaVuSansMono;-inkscape-font-specification:DejaVuSansMono">= ?pickable </tspan></text>
</g><g
             id="g340"><text
               id="text342"
               transform="matrix(1,0,0,-1,483.8,678.1)"><tspan
                 id="tspan344"
                 sodipodi:role="line"
                 y="0"
                 x="0 7.1999998 14.4 21.6"
                 style="font-size:12px;font-variant:normal;font-weight:normal;writing-mode:lr-tb;fill:#4a8e00;fill-opacity:1;fill-rule:nonzero;stroke:none;font-family:DejaVuSansMono;-inkscape-font-specification:DejaVuSansMono">room</tspan></text>
</g><g
             id="g346"><text
               id="text348"
               transform="matrix(1,0,0,-1,275,664)"><tspan
                 id="tspan350"
                 sodipodi:role="line"
                 y="0"
                 x="0 7.1999998 14.4"
                 style="font-size:12px;font-variant:normal;font-weight:normal;writing-mode:lr-tb;fill:#268bd2;fill-opacity:1;fill-rule:nonzero;stroke:none;font-family:DejaVuSansMono;-inkscape-font-specification:DejaVuSansMono">eff</tspan></text>
</g><g
             id="g352"><text
               id="text354"
               transform="matrix(1,0,0,-1,303.8,664)"><tspan
                 id="tspan356"
                 sodipodi:role="line"
                 y="0"
                 x="0 7.1999998 14.4 21.6 28.799999 36 43.200001 50.400002"
                 style="font-size:12px;font-variant:normal;font-weight:normal;writing-mode:lr-tb;fill:#000000;fill-opacity:1;fill-rule:nonzero;stroke:none;font-family:DejaVuSansMono;-inkscape-font-specification:DejaVuSansMono">?graber </tspan></text>
</g><g
             id="g358"><text
               id="text360"
               transform="matrix(1,0,0,-1,361.4,664)"><tspan
                 id="tspan362"
                 sodipodi:role="line"
                 y="0"
                 x="0 7.1999998 14.4 21.6 28.799999"
                 style="font-size:12px;font-variant:normal;font-weight:normal;writing-mode:lr-tb;fill:#4a8e00;fill-opacity:1;fill-rule:nonzero;stroke:none;font-family:DejaVuSansMono;-inkscape-font-specification:DejaVuSansMono">holds</tspan></text>
</g><g
             id="g364"><text
               id="text366"
               transform="matrix(1,0,0,-1,404.6,664)"><tspan
                 id="tspan368"
                 sodipodi:role="line"
                 y="0"
                 x="0 7.1999998 14.4 21.6 28.799999 36 43.200001 50.400002 57.599998"
                 style="font-size:12px;font-variant:normal;font-weight:normal;writing-mode:lr-tb;fill:#000000;fill-opacity:1;fill-rule:nonzero;stroke:none;font-family:DejaVuSansMono;-inkscape-font-specification:DejaVuSansMono">?pickable</tspan></text>
</g><g
             id="g370"><text
               id="text372"
               transform="matrix(1,0,0,-1,239.5,635.9)"><tspan
                 id="tspan374"
                 sodipodi:role="line"
                 y="0"
                 x="0 7.1999998 14.4 21.6 28.799999 36"
                 style="font-size:12px;font-variant:normal;font-weight:bold;writing-mode:lr-tb;fill:#dc322f;fill-opacity:1;fill-rule:nonzero;stroke:none;font-family:DejaVuSansMono;-inkscape-font-specification:DejaVuSansMono-Bold">unlock</tspan></text>
</g><g
             id="g376"><text
               id="text378"
               transform="matrix(1,0,0,-1,282.7,635.9)"><tspan
                 id="tspan380"
                 sodipodi:role="line"
                 y="0"
                 x="0 7.1999998 14.4 21.6 28.799999 36 43.200001 50.400002 57.599998 64.800003 72 79.199997 86.400002 93.599998 100.8 108"
                 style="font-size:12px;font-variant:normal;font-weight:normal;writing-mode:lr-tb;fill:#000000;fill-opacity:1;fill-rule:nonzero;stroke:none;font-family:DejaVuSansMono;-inkscape-font-specification:DejaVuSansMono">(?graber, ?room)</tspan></text>
</g><g
             id="g382"><text
               id="text384"
               transform="matrix(1,0,0,-1,275,621.8)"><tspan
                 id="tspan386"
                 sodipodi:role="line"
                 y="0"
                 x="0 7.1999998 14.4 21.6 28.799999 36 43.200001 50.400002"
                 style="font-size:12px;font-variant:normal;font-weight:normal;writing-mode:lr-tb;fill:#000000;fill-opacity:1;fill-rule:nonzero;stroke:none;font-family:DejaVuSansMono;-inkscape-font-specification:DejaVuSansMono">?graber </tspan></text>
</g><g
             id="g388"><text
               id="text390"
               transform="matrix(1,0,0,-1,332.6,621.8)"><tspan
                 id="tspan392"
                 sodipodi:role="line"
                 y="0"
                 x="0 7.1999998"
                 style="font-size:12px;font-variant:normal;font-weight:bold;writing-mode:lr-tb;fill:#657b83;fill-opacity:1;fill-rule:nonzero;stroke:none;font-family:DejaVuSansMono;-inkscape-font-specification:DejaVuSansMono-Bold">is</tspan></text>
</g><g
             id="g394"><text
               id="text396"
               transform="matrix(1,0,0,-1,354.2,621.8)"><tspan
                 id="tspan398"
                 sodipodi:role="line"
                 y="0"
                 x="0 7.1999998 14.4 21.6 28.799999 36 43.200001 50.400002 57.599998 64.800003 72 79.199997 86.400002 93.599998"
                 style="font-size:12px;font-variant:normal;font-weight:normal;writing-mode:lr-tb;fill:#000000;fill-opacity:1;fill-rule:nonzero;stroke:none;font-family:DejaVuSansMono;-inkscape-font-specification:DejaVuSansMono">Graber, ?room </tspan></text>
</g><g
             id="g400"><text
               id="text402"
               transform="matrix(1,0,0,-1,455,621.8)"><tspan
                 id="tspan404"
                 sodipodi:role="line"
                 y="0"
                 x="0 7.1999998"
                 style="font-size:12px;font-variant:normal;font-weight:bold;writing-mode:lr-tb;fill:#657b83;fill-opacity:1;fill-rule:nonzero;stroke:none;font-family:DejaVuSansMono;-inkscape-font-specification:DejaVuSansMono-Bold">is</tspan></text>
</g><g
             id="g406"><text
               id="text408"
               transform="matrix(1,0,0,-1,476.6,621.8)"><tspan
                 id="tspan410"
                 sodipodi:role="line"
                 y="0"
                 x="0 7.1999998 14.4 21.6"
                 style="font-size:12px;font-variant:normal;font-weight:normal;writing-mode:lr-tb;fill:#000000;fill-opacity:1;fill-rule:nonzero;stroke:none;font-family:DejaVuSansMono;-inkscape-font-specification:DejaVuSansMono">Room</tspan></text>
</g><g
             id="g412"><text
               id="text414"
               transform="matrix(1,0,0,-1,275,607.8)"><tspan
                 id="tspan416"
                 sodipodi:role="line"
                 y="0"
                 x="0 7.1999998 14.4"
                 style="font-size:12px;font-variant:normal;font-weight:normal;writing-mode:lr-tb;fill:#268bd2;fill-opacity:1;fill-rule:nonzero;stroke:none;font-family:DejaVuSansMono;-inkscape-font-specification:DejaVuSansMono">pre</tspan></text>
</g><g
             id="g418"><text
               id="text420"
               transform="matrix(1,0,0,-1,303.8,607.8)"><tspan
                 id="tspan422"
                 sodipodi:role="line"
                 y="0"
                 x="0 7.1999998 14.4 21.6 28.799999 36"
                 style="font-size:12px;font-variant:normal;font-weight:normal;writing-mode:lr-tb;fill:#000000;fill-opacity:1;fill-rule:nonzero;stroke:none;font-family:DejaVuSansMono;-inkscape-font-specification:DejaVuSansMono">?room </tspan></text>
</g><g
             id="g424"><text
               id="text426"
               transform="matrix(1,0,0,-1,347,607.8)"><tspan
                 id="tspan428"
                 sodipodi:role="line"
                 y="0"
                 x="0 7.1999998 14.4 21.6 28.799999 36"
                 style="font-size:12px;font-variant:normal;font-weight:normal;writing-mode:lr-tb;fill:#4a8e00;fill-opacity:1;fill-rule:nonzero;stroke:none;font-family:DejaVuSansMono;-inkscape-font-specification:DejaVuSansMono">locked</tspan></text>
</g><g
             id="g430"><text
               id="text432"
               transform="matrix(1,0,0,-1,390.2,607.8)"><tspan
                 id="tspan434"
                 sodipodi:role="line"
                 y="0"
                 x="0 7.1999998 14.4 21.6 28.799999 36 43.200001 50.400002 57.599998 64.800003"
                 style="font-size:12px;font-variant:normal;font-weight:normal;writing-mode:lr-tb;fill:#000000;fill-opacity:1;fill-rule:nonzero;stroke:none;font-family:DejaVuSansMono;-inkscape-font-specification:DejaVuSansMono">, ?graber </tspan></text>
</g><g
             id="g436"><text
               id="text438"
               transform="matrix(1,0,0,-1,462.2,607.8)"><tspan
                 id="tspan440"
                 sodipodi:role="line"
                 y="0"
                 x="0 7.1999998 14.4 21.6 28.799999"
                 style="font-size:12px;font-variant:normal;font-weight:normal;writing-mode:lr-tb;fill:#4a8e00;fill-opacity:1;fill-rule:nonzero;stroke:none;font-family:DejaVuSansMono;-inkscape-font-specification:DejaVuSansMono">holds</tspan></text>
</g><g
             id="g442"><text
               id="text444"
               transform="matrix(1,0,0,-1,505.4,607.8)"><tspan
                 id="tspan446"
                 sodipodi:role="line"
                 y="0"
                 x="0 7.1999998 14.4 21.6"
                 style="font-size:12px;font-variant:normal;font-weight:normal;writing-mode:lr-tb;fill:#000000;fill-opacity:1;fill-rule:nonzero;stroke:none;font-family:DejaVuSansMono;-inkscape-font-specification:DejaVuSansMono">keys</tspan></text>
</g><g
             id="g448"><text
               id="text450"
               transform="matrix(1,0,0,-1,275,593.7)"><tspan
                 id="tspan452"
                 sodipodi:role="line"
                 y="0"
                 x="0 7.1999998 14.4"
                 style="font-size:12px;font-variant:normal;font-weight:normal;writing-mode:lr-tb;fill:#268bd2;fill-opacity:1;fill-rule:nonzero;stroke:none;font-family:DejaVuSansMono;-inkscape-font-specification:DejaVuSansMono">eff</tspan></text>
</g><g
             id="g454"><text
               id="text456"
               transform="matrix(1,0,0,-1,303.8,593.7)"><tspan
                 id="tspan458"
                 sodipodi:role="line"
                 y="0"
                 x="0 7.1999998 14.4 21.6 28.799999 36 43.200001 50.400002"
                 style="font-size:12px;font-variant:normal;font-weight:normal;writing-mode:lr-tb;fill:#000000;fill-opacity:1;fill-rule:nonzero;stroke:none;font-family:DejaVuSansMono;-inkscape-font-specification:DejaVuSansMono">?graber </tspan></text>
</g><g
             id="g460"><text
               id="text462"
               transform="matrix(1,0,0,-1,361.4,593.7)"><tspan
                 id="tspan464"
                 sodipodi:role="line"
                 y="0"
                 x="0 7.1999998 14.4 21.6 28.799999"
                 style="font-size:12px;font-variant:normal;font-weight:normal;writing-mode:lr-tb;fill:#4a8e00;fill-opacity:1;fill-rule:nonzero;stroke:none;font-family:DejaVuSansMono;-inkscape-font-specification:DejaVuSansMono">holds</tspan></text>
</g><g
             id="g466"><text
               id="text468"
               transform="matrix(1,0,0,-1,404.6,593.7)"><tspan
                 id="tspan470"
                 sodipodi:role="line"
                 y="0"
                 x="0 7.1999998 14.4 21.6 28.799999 36 43.200001 50.400002 57.599998"
                 style="font-size:12px;font-variant:normal;font-weight:normal;writing-mode:lr-tb;fill:#000000;fill-opacity:1;fill-rule:nonzero;stroke:none;font-family:DejaVuSansMono;-inkscape-font-specification:DejaVuSansMono">nothing, </tspan></text>
</g><g
             id="g474"><text
               id="text476"
               transform="matrix(1,0,0,-1,303.8,579.7)"><tspan
                 id="tspan478"
                 sodipodi:role="line"
                 y="0"
                 x="0 7.1999998 14.4 21.6 28.799999 36"
                 style="font-size:12px;font-variant:normal;font-weight:normal;writing-mode:lr-tb;fill:#000000;fill-opacity:1;fill-rule:nonzero;stroke:none;font-family:DejaVuSansMono;-inkscape-font-specification:DejaVuSansMono">?room </tspan></text>
</g><g
             id="g480"><text
               id="text482"
               transform="matrix(1,0,0,-1,347,579.7)"><tspan
                 id="tspan484"
                 sodipodi:role="line"
                 y="0"
                 x="0 7.1999998 14.4 21.6 28.799999 36"
                 style="font-size:12px;font-variant:normal;font-weight:normal;writing-mode:lr-tb;fill:#4a8e00;fill-opacity:1;fill-rule:nonzero;stroke:none;font-family:DejaVuSansMono;-inkscape-font-specification:DejaVuSansMono">locked</tspan></text>
</g><g
             id="g486"><text
               id="text488"
               transform="matrix(1,0,0,-1,397.4,579.7)"><tspan
                 id="tspan490"
                 sodipodi:role="line"
                 y="0"
                 x="0 7.1999998 14.4 21.6 28.799999 36 43.200001"
                 style="font-size:12px;font-variant:normal;font-weight:normal;writing-mode:lr-tb;fill:#000000;fill-opacity:1;fill-rule:nonzero;stroke:none;font-family:DejaVuSansMono;-inkscape-font-specification:DejaVuSansMono">= false</tspan></text>
</g></g><g
           id="g498" /><g
           id="g506" /><g
           id="g3666"
           transform="translate(0,-279.3)"><path
             inkscape:connector-curvature="0"
             id="path22"
             style="fill:#657b83;fill-opacity:1;fill-rule:evenodd;stroke:none"
             d="m 67.4,684.5 c 1.3,0 2.3,1 2.3,2.3 l 0,5.9 c 0,1.3 -1,2.4 -2.3,2.4 -1.3,0 -2.4,-1.1 -2.4,-2.4 l 0,-5.9 c 0,-1.3 1.1,-2.3 2.4,-2.3 z" /><path
             inkscape:connector-curvature="0"
             id="path24"
             style="fill:#073642;fill-opacity:1;fill-rule:evenodd;stroke:none"
             d="m 71.6,694.8 c -0.5,-0.8 -1,-1.3 -1.8,-1.8 -0.8,-0.4 -1.5,-0.6 -2.4,-0.6 -0.9,0 -1.7,0.2 -2.4,0.6 -0.8,0.5 -1.4,1 -1.8,1.8 -0.5,0.8 -0.7,1.6 -0.7,2.4 0,0.9 0.2,1.7 0.7,2.4 0.4,0.8 1,1.4 1.8,1.8 0.7,0.5 1.5,0.7 2.4,0.7 0.9,0 1.6,-0.2 2.4,-0.7 0.8,-0.4 1.3,-1 1.8,-1.8 0.4,-0.7 0.6,-1.5 0.6,-2.4 0,-0.8 -0.2,-1.6 -0.6,-2.4 z" /><path
             inkscape:connector-curvature="0"
             id="path26"
             style="fill:#586e75;fill-opacity:1;fill-rule:evenodd;stroke:none"
             d="m 67.4,659.8 23.3,0 c 1.4,0 2.5,1.2 2.5,2.6 l 0,6.9 c 0,1.5 -1.1,2.6 -2.5,2.6 l -46.6,0 c -1.4,0 -2.5,-1.1 -2.5,-2.6 l 0,-6.9 c 0,-1.4 1.1,-2.6 2.5,-2.6 l 23.3,0 z" /><path
             inkscape:connector-curvature="0"
             id="path28"
             style="fill:#93a1a1;fill-opacity:1;fill-rule:evenodd;stroke:none"
             d="m 67.4,650.2 15.7,0 c 3.1,0 5.7,2.6 5.7,5.7 l 0,15.6 c 0,3.2 -2.6,5.7 -5.7,5.7 l -31.4,0 c -3.2,0 -5.7,-2.5 -5.7,-5.7 l 0,-15.6 c 0,-3.1 2.5,-5.7 5.7,-5.7 l 15.7,0 z" /><path
             inkscape:connector-curvature="0"
             id="path30"
             style="fill:#93a1a1;fill-opacity:1;fill-rule:evenodd;stroke:none"
             d="m 67.4,657.1 1.2,0 c 11.2,0 20.2,6.1 20.2,13.7 l 0,3.4 c 0,7.5 -9,13.7 -20.2,13.7 l -2.5,0 C 55,687.9 46,681.7 46,674.2 l 0,-3.4 c 0,-7.6 9,-13.7 20.1,-13.7 l 1.3,0 z" /><path
             inkscape:connector-curvature="0"
             id="path32"
             style="fill:#eee8d5;fill-opacity:1;fill-rule:evenodd;stroke:none"
             d="m 76.1,658.8 c -3.8,0 -7,3.2 -7,7.1 0,3.8 3.2,7 7,7 3.9,0 7.1,-3.2 7.1,-7 0,-3.9 -3.2,-7.1 -7.1,-7.1 z" /><g
             id="g34"><g
               id="g36" /><g
               id="g42"><g
                 style="opacity:0.27000002"
                 id="g44"
                 clip-path="url(#clipPath38)"><path
                   inkscape:connector-curvature="0"
                   id="path46"
                   style="fill:#ffffff;fill-opacity:1;fill-rule:evenodd;stroke:none"
                   d="m 69.1,665.9 c 0,3.8 3.1,7 7,7 3.9,0 7.1,-3.1 7.1,-7 0,0 0,-0.1 0,-0.1 l -7.1,0.1 -7,0 z" /></g></g></g><path
             inkscape:connector-curvature="0"
             id="path48"
             style="fill:#eee8d5;fill-opacity:1;fill-rule:evenodd;stroke:none"
             d="m 58.6,658.8 c -3.9,0 -7,3.2 -7,7.1 0,3.8 3.1,7 7,7 3.9,0 7.1,-3.2 7.1,-7 0,-3.9 -3.2,-7.1 -7.1,-7.1 z" /><g
             id="g50"><g
               id="g52" /><g
               id="g58"><g
                 style="opacity:0.27000002"
                 id="g60"
                 clip-path="url(#clipPath54)"><path
                   inkscape:connector-curvature="0"
                   id="path62"
                   style="fill:#ffffff;fill-opacity:1;fill-rule:evenodd;stroke:none"
                   d="m 51.6,665.9 c 0,3.8 3.1,7 7,7 3.9,0 7.1,-3.1 7.1,-7 0,0 0,-0.1 0,-0.1 l -7.1,0.1 -7,0 z" /></g></g></g><g
             id="g64"><path
               inkscape:connector-curvature="0"
               id="path66"
               style="fill:none;stroke:#839496;stroke-width:2.29229999;stroke-linecap:butt;stroke-linejoin:round;stroke-miterlimit:10;stroke-opacity:1;stroke-dasharray:none"
               d="m 125.5,618.1 -97.8,0 0,195.6 195.6,0 0,-195.6 -97.8,0 z" /></g><g
             id="g68"><path
               inkscape:connector-curvature="0"
               id="path70"
               style="fill:none;stroke:#839496;stroke-width:2.29229999;stroke-linecap:butt;stroke-linejoin:round;stroke-miterlimit:10;stroke-opacity:1;stroke-dasharray:none"
               d="m 109.9,708.8 0,-90.7" /></g><g
             id="g72"><path
               inkscape:connector-curvature="0"
               id="path74"
               style="fill:none;stroke:#839496;stroke-width:2.29229999;stroke-linecap:butt;stroke-linejoin:round;stroke-miterlimit:10;stroke-opacity:1;stroke-dasharray:none"
               d="m 75.9,749.8 147.4,-1.3" /></g><path
             inkscape:connector-curvature="0"
             id="path76"
             style="fill:#ffcc99;fill-opacity:1;fill-rule:evenodd;stroke:none"
             d="m 186.3,797.2 c 3.2,0 5.6,-2.3 5.6,-5.4 0,-3 -2.4,-5.4 -5.6,-5.4 -3.1,0 -5.5,2.4 -5.5,5.4 0,3.1 2.4,5.4 5.5,5.4 z m -5.5,0 0,0 z m 11.1,-10.8 0,0 z" /><g
             id="g78"><path
               inkscape:connector-curvature="0"
               id="path80"
               style="fill:none;stroke:#ff950e;stroke-width:2.29229999;stroke-linecap:butt;stroke-linejoin:round;stroke-miterlimit:10;stroke-opacity:1;stroke-dasharray:none"
               d="m 186.3,797.2 c 3.2,0 5.6,-2.3 5.6,-5.4 0,-3 -2.4,-5.4 -5.6,-5.4 -3.1,0 -5.5,2.4 -5.5,5.4 0,3.1 2.4,5.4 5.5,5.4 z" /></g><g
             id="g82"><path
               inkscape:connector-curvature="0"
               id="path84"
               style="fill:none;stroke:#ff950e;stroke-width:2.29229999;stroke-linecap:butt;stroke-linejoin:round;stroke-miterlimit:10;stroke-opacity:1;stroke-dasharray:none"
               d="m 180.8,797.2 0,0 z" /></g><g
             id="g86"><path
               inkscape:connector-curvature="0"
               id="path88"
               style="fill:none;stroke:#ff950e;stroke-width:2.29229999;stroke-linecap:butt;stroke-linejoin:round;stroke-miterlimit:10;stroke-opacity:1;stroke-dasharray:none"
               d="m 191.9,786.4 0,0 z" /></g><path
             inkscape:connector-curvature="0"
             id="path90"
             style="fill:#ff950e;fill-opacity:1;fill-rule:evenodd;stroke:none"
             d="m 196.3,754.2 -10,0 0,29 20,0 0,-29 -10,0 z" /><path
             inkscape:connector-curvature="0"
             id="path92"
             style="fill:#fdf6e3;fill-opacity:1;fill-rule:evenodd;stroke:none"
             d="m 196.3,791.9 10,0 0,-8.6 -20,0 0,8.6 10,0 z" /><path
             inkscape:connector-curvature="0"
             id="path94"
             style="fill:#ffcc99;fill-opacity:1;fill-rule:evenodd;stroke:none"
             d="m 189.1,754.2 -2.8,0 0,29 5.6,0 0,-29 -2.8,0 z" /><g
             id="g96"><path
               inkscape:connector-curvature="0"
               id="path98"
               style="fill:none;stroke:#ff950e;stroke-width:2.29229999;stroke-linecap:butt;stroke-linejoin:round;stroke-miterlimit:10;stroke-opacity:1;stroke-dasharray:none"
               d="m 196.3,791.9 0,14.2 9,-5.9 0,0" /></g><g
             id="g100"><text
               id="text102"
               transform="matrix(1,0,0,-1,29.8,627.6)"><tspan
                 id="tspan104"
                 sodipodi:role="line"
                 y="0"
                 x="0 10.206 20.591999 30.384001 40.265999 45.27 55.476002 65.952003"
                 style="font-size:18px;font-variant:normal;font-weight:normal;writing-mode:lr-tb;fill:#839496;fill-opacity:1;fill-rule:nonzero;stroke:none;font-family:AllerDisplay;-inkscape-font-specification:AllerDisplay">Corridor</tspan></text>
</g><g
             id="g106"><text
               id="text108"
               transform="matrix(1,0,0,-1,117,627.6)"><tspan
                 id="tspan110"
                 sodipodi:role="line"
                 y="0"
                 x="0 8.8739996 13.878 23.976 28.98 39.167999 48.762001 55.368 64.872002 75.348 85.734001"
                 style="font-size:18px;font-variant:normal;font-weight:normal;writing-mode:lr-tb;fill:#839496;fill-opacity:1;fill-rule:nonzero;stroke:none;font-family:AllerDisplay;-inkscape-font-specification:AllerDisplay">Living-room</tspan></text>
</g><g
             id="g112"><text
               id="text114"
               transform="matrix(1,0,0,-1,85.8,756.6)"><tspan
                 id="tspan116"
                 sodipodi:role="line"
                 y="0"
                 x="0 11.394 16.398001 25.398001 33.984001 44.765999 54.450001"
                 style="font-size:18px;font-variant:normal;font-weight:normal;writing-mode:lr-tb;fill:#839496;fill-opacity:1;fill-rule:nonzero;stroke:none;font-family:AllerDisplay;-inkscape-font-specification:AllerDisplay">Kitchen</tspan></text>
</g><g
             id="g118"><text
               id="text120"
               transform="matrix(1,0,0,-1,43.3,705.6)"><tspan
                 id="tspan122"
                 sodipodi:role="line"
                 y="0"
                 x="0 10.404 20.879999 31.482 41.958"
                 style="font-size:18px;font-variant:normal;font-weight:normal;writing-mode:lr-tb;fill:#839496;fill-opacity:1;fill-rule:nonzero;stroke:none;font-family:Aller;-inkscape-font-specification:Aller">Robot</tspan></text>
</g><g
             id="g124"><text
               id="text126"
               transform="matrix(1,0,0,-1,134,790.6)"><tspan
                 id="tspan128"
                 sodipodi:role="line"
                 y="0"
                 x="0 12.582 19.278 24.462 34.866001"
                 style="font-size:18px;font-variant:normal;font-weight:normal;writing-mode:lr-tb;fill:#ff950e;fill-opacity:1;fill-rule:nonzero;stroke:none;font-family:Aller;-inkscape-font-specification:Aller">Drink</tspan></text>
</g><path
             inkscape:connector-curvature="0"
             id="path130"
             style="fill:#839496;fill-opacity:1;fill-rule:evenodd;stroke:none"
             d="m 53.2,748.5 -25.5,0 0,11.3 51,0 0,-11.3 -25.5,0 z" /><path
             inkscape:connector-curvature="0"
             id="path132"
             style="fill:#ffffff;fill-opacity:1;fill-rule:evenodd;stroke:none"
             d="m 53.2,768.3 c 8,0 14.2,-6.2 14.2,-14.2 0,-8 -6.2,-14.1 -14.2,-14.1 -8,0 -14.2,6.1 -14.2,14.1 0,8 6.2,14.2 14.2,14.2 z m -14.2,0 0,0 z m 28.4,-28.4 0,0 z" /><path
             inkscape:connector-curvature="0"
             id="path134"
             style="fill:#839496;fill-opacity:1;fill-rule:evenodd;stroke:none"
             d="m 53.2,770.5 c -9,0 -16.3,-7.4 -16.3,-16.4 0,-9 7.3,-16.3 16.3,-16.3 9,0 16.3,7.3 16.3,16.3 0,9 -7.3,16.4 -16.3,16.4 l 0,0 z m -4.3,-25.2 c 2.5,9.3 0,0 2.5,9.3 -1.5,0.6 -2.6,2.2 -2.6,4 0,2.4 1.9,4.4 4.3,4.4 2.4,0 4.3,-2 4.3,-4.4 0,-1.6 -0.9,-3 -2.2,-3.8 2.5,-9.5 2.5,-9.5 2.5,-9.5 0,0 -8.5,0 -8.8,0 l 0,0 z" /><path
             inkscape:connector-curvature="0"
             id="path136"
             style="fill:#839496;fill-opacity:1;fill-rule:evenodd;stroke:none"
             d="m 53.2,737.5 c -9.2,0 -16.7,7.4 -16.7,16.6 0,9.2 7.5,16.7 16.7,16.7 9.2,0 16.7,-7.5 16.7,-16.7 0,-9.2 -7.5,-16.6 -16.7,-16.6 l 0,0 z m 0,32.6 c -8.8,0 -16,-7.2 -16,-16 0,-8.8 7.2,-16 16,-16 8.8,0 16,7.2 16,16 0,8.8 -7.2,16 -16,16 l 0,0 z m 4.9,-25.1 -9.7,0 2.7,9.4 c -1.7,0.8 -2.7,2.4 -2.7,4.2 0,2.6 2.1,4.7 4.7,4.7 2.6,0 4.7,-2.1 4.7,-4.7 0,-1.6 -0.9,-3.1 -2.2,-3.9 l 2.5,-9.7 0,0 z m -8.8,0.6 7.9,0 -2.4,9.4 0.2,0.1 c 1.3,0.7 2.1,2.1 2.1,3.5 0,2.2 -1.8,4 -4,4 -2.2,0 -4,-1.8 -4,-4 0,-1.6 1,-3.1 2.5,-3.7 l 0.3,-0.1 -2.6,-9.2 0,0 z" /><path
             inkscape:connector-curvature="0"
             id="path138"
             style="fill:#839496;fill-opacity:1;fill-rule:evenodd;stroke:none"
             d="m 164.7,686.7 c -1.3,0.3 -2.8,0.2 -4.1,-0.2 -4.3,-1.4 -6.6,-5.9 -5.2,-10.1 0.3,-0.9 0.8,-1.7 1.3,-2.4 l -2.6,-2.3 1.3,-3.7 -3.7,-1.2 1.3,-4.1 -2.6,-1.5 1.4,-4.4 4.3,1.4 7.6,12.7 c 0.1,0 0.1,0 0.2,0 -3.5,2.5 -5,7.2 -3.3,11.3 0.9,1.9 2.3,3.5 4.1,4.5 z" /><path
             inkscape:connector-curvature="0"
             id="path140"
             style="fill:#839496;fill-opacity:1;fill-rule:evenodd;stroke:none"
             d="m 169.3,686.6 c -3.1,0 -6.1,-1.8 -7.4,-4.9 -1.7,-4.1 0.2,-8.8 4.3,-10.5 0.8,-0.4 1.7,-0.6 2.6,-0.6 l 0.1,-3.4 3.6,-1.5 -1.4,-3.6 3.9,-1.6 -0.6,-3 4.4,-1.8 1.7,4.1 -4.7,14.1 c 0.3,0.5 0.7,1 0.9,1.6 1.7,4.1 -0.2,8.8 -4.3,10.5 -1,0.4 -2.1,0.6 -3.1,0.6 l 0,0 z m -1.1,-2.8 c 1.2,0 2.2,-1 2.2,-2.2 0,-1.2 -1,-2.2 -2.2,-2.2 -1.2,0 -2.2,1 -2.2,2.2 0,1.2 1,2.2 2.2,2.2 l 0,0 z" /><path
             inkscape:connector-curvature="0"
             id="path142"
             style="fill:#839496;fill-opacity:1;fill-rule:evenodd;stroke:none"
             d="m 171.7,686.7 c 0.2,5 -3.6,9.2 -8.6,9.5 -5,0.2 -9.3,-3.7 -9.5,-8.7 -0.1,-1.6 0.3,-3.2 1,-4.6 0.5,1 1.2,1.9 2,2.7 -0.2,0.6 -0.2,1.2 -0.2,1.8 0.2,3.5 3.1,6.1 6.6,6 3.4,-0.2 6.1,-3.1 5.9,-6.6 0,-1.5 -0.6,-2.8 -1.5,-3.9 -0.2,-0.1 -0.2,-0.2 -0.3,-0.3 -0.3,-0.7 0,-1.6 0.7,-1.9 0.6,-0.2 1.2,0 1.6,0.4 1.3,1.5 2.2,3.4 2.3,5.6 l 0,0 z" /><text
             id="text144"
             transform="matrix(1,0,0,-1,142.8,702.7)"><tspan
               id="tspan146"
               sodipodi:role="line"
               y="0"
               x="0 10.404 20.195999 29.700001"
               style="font-size:18px;font-variant:normal;font-weight:normal;writing-mode:lr-tb;fill:#839496;fill-opacity:1;fill-rule:nonzero;stroke:none;font-family:Aller;-inkscape-font-specification:Aller">Keys</tspan></text>
<path
             inkscape:connector-curvature="0"
             id="path492"
             style="fill:#839496;fill-opacity:1;fill-rule:evenodd;stroke:none"
             d="m 125.5,586.9 -97.8,0 0,31.2 195.6,0 0,-31.2 -97.8,0 z" /><g
             id="g494"><path
               inkscape:connector-curvature="0"
               id="path496"
               style="fill:none;stroke:#839496;stroke-width:2.29229999;stroke-linecap:butt;stroke-linejoin:round;stroke-miterlimit:10;stroke-opacity:1;stroke-dasharray:none"
               d="m 125.5,586.9 -97.8,0 0,31.2 195.6,0 0,-31.2 -97.8,0 z" /></g><g
             id="g500"><text
               id="text502"
               transform="matrix(1,0,0,-1,62.1,597)"><tspan
                 id="tspan504"
                 sodipodi:role="line"
                 y="0"
                 x="0 9 18 27 36 45 54 63 72 81 90"
                 style="font-size:15px;font-variant:normal;font-weight:normal;writing-mode:lr-tb;fill:#ffffff;fill-opacity:1;fill-rule:nonzero;stroke:none;font-family:DejaVuSansMono;-inkscape-font-specification:DejaVuSansMono">robot holds</tspan></text>
</g><g
             id="g508"><text
               id="text510"
               transform="matrix(1,0,0,-1,170.1,597)"><tspan
                 id="tspan512"
                 sodipodi:role="line"
                 y="0"
                 x="0 9 18 27 36"
                 style="font-size:15px;font-variant:normal;font-weight:normal;writing-mode:lr-tb;fill:#ffffff;fill-opacity:1;fill-rule:nonzero;stroke:none;font-family:DejaVuSansMono;-inkscape-font-specification:DejaVuSansMono">drink</tspan></text>
</g><g
             id="g514"><text
               id="text516"
               transform="matrix(1,0,0,-1,26.6,582.8)"><tspan
                 id="tspan518"
                 y="0"
                 x="0"
                 style="font-size:60px;font-variant:normal;font-weight:normal;writing-mode:lr-tb;fill:#dc322f;fill-opacity:1;fill-rule:nonzero;stroke:none;font-family:FreeSerif;-inkscape-font-specification:FreeSerif">⌖</tspan></text>
</g></g></g></g></g></svg>