<?xml version="1.0" encoding="UTF-8" standalone="no"?>
<!-- Created with Inkscape (http://www.inkscape.org/) -->

<svg
    xmlns:dc="http://purl.org/dc/elements/1.1/"
    xmlns:cc="http://creativecommons.org/ns#"
    xmlns:rdf="http://www.w3.org/1999/02/22-rdf-syntax-ns#"
    xmlns:svg="http://www.w3.org/2000/svg"
    xmlns="http://www.w3.org/2000/svg"
    xmlns:sodipodi="http://sodipodi.sourceforge.net/DTD/sodipodi-0.dtd"
    xmlns:inkscape="http://www.inkscape.org/namespaces/inkscape"
    id="svg2"
    version="1.1"
    inkscape:version="0.48.4 r9939"
    width="368.01251"
    height="145.46387"
    xml:space="preserve"
    sodipodi:docname="performance.svg"><metadata
    id="metadata8"><rdf:RDF><cc:Work
    rdf:about=""><dc:format>image/svg+xml</dc:format><dc:type
    rdf:resource="http://purl.org/dc/dcmitype/StillImage" /><dc:title /></cc:Work></rdf:RDF></metadata><defs
    id="defs6"><clipPath
    clipPathUnits="userSpaceOnUse"
    id="clipPath16"><path
    d="m 0,0.1 595.2,0 0,841.8 L 0,841.9 0,0.1 z"
    clip-rule="evenodd"
    id="path18"
    inkscape:connector-curvature="0" /></clipPath><clipPath
    clipPathUnits="userSpaceOnUse"
    id="clipPath24"><path
    d="m 56.7,771.2 481.8,0 0,14.1 -481.8,0 0,-14.1 z"
    clip-rule="evenodd"
    id="path26"
    inkscape:connector-curvature="0" /></clipPath><clipPath
    clipPathUnits="userSpaceOnUse"
    id="clipPath42"><path
    d="m 56.7,56.8 481.8,0 0,14.1 -481.8,0 0,-14.1 z"
    clip-rule="evenodd"
    id="path44"
    inkscape:connector-curvature="0" /></clipPath><clipPath
    clipPathUnits="userSpaceOnUse"
    id="clipPath66"><path
    d="m 56.6,610.4 256,0 0,153.5 -256,0 0,-153.5 z"
    clip-rule="evenodd"
    id="path68"
    inkscape:connector-curvature="0" /></clipPath></defs><sodipodi:namedview
    pagecolor="#ffffff"
    bordercolor="#666666"
    borderopacity="1"
    objecttolerance="10"
    gridtolerance="10"
    guidetolerance="10"
    inkscape:pageopacity="0"
    inkscape:pageshadow="2"
    inkscape:window-width="1920"
    inkscape:window-height="1025"
    id="namedview4"
    showgrid="false"
    fit-margin-top="0"
    fit-margin-left="42"
    fit-margin-right="42"
    fit-margin-bottom="0"
    inkscape:zoom="3.7191365"
    inkscape:cx="184.00624"
    inkscape:cy="72.731936"
    inkscape:window-x="0"
    inkscape:window-y="30"
    inkscape:window-maximized="1"
    inkscape:current-layer="g10" /><g
    id="g10"
    inkscape:groupmode="layer"
    inkscape:label="2015-11-22T09:27:13.605_class me.grea.antoine.soda.test.ScalabilityOfSoda"
    transform="matrix(1.25,0,0,-1.25,-529.55308,322.4777)"><g
    id="g12"><g
    id="g14"
    clip-path="url(#clipPath16)" /></g><g
    id="g62"><g
    id="g64"
    clip-path="url(#clipPath66)" /></g><g
    transform="translate(381.46246,-500.04784)"
    id="g3482"><g
    id="g3390"><g
    id="g70"><path
    inkscape:connector-curvature="0"
    d="m 199.7,672 -95.4,0 0,82.8 190.8,0 0,-82.8 -95.4,0 z"
    style="fill:none;stroke:none"
    id="path72" /></g><g
    id="g74"><path
    inkscape:connector-curvature="0"
    d="m 295.1,672 -190.8,0"
    style="fill:none;stroke:#93a1a1;stroke-width:0.56593001;stroke-linecap:butt;stroke-linejoin:round;stroke-miterlimit:10;stroke-opacity:1;stroke-dasharray:none"
    id="path76" /></g><g
    id="g78"><path
    inkscape:connector-curvature="0"
    d="m 295.1,699.6 -190.8,0"
    style="fill:none;stroke:#93a1a1;stroke-width:0.56593001;stroke-linecap:butt;stroke-linejoin:round;stroke-miterlimit:10;stroke-opacity:1;stroke-dasharray:none"
    id="path80" /></g><g
    id="g82"><path
    inkscape:connector-curvature="0"
    d="m 295.1,727.2 -190.8,0"
    style="fill:none;stroke:#93a1a1;stroke-width:0.56593001;stroke-linecap:butt;stroke-linejoin:round;stroke-miterlimit:10;stroke-opacity:1;stroke-dasharray:none"
    id="path84" /></g><g
    id="g86"><path
    inkscape:connector-curvature="0"
    d="m 295.1,754.8 -190.8,0"
    style="fill:none;stroke:#93a1a1;stroke-width:0.56593001;stroke-linecap:butt;stroke-linejoin:round;stroke-miterlimit:10;stroke-opacity:1;stroke-dasharray:none"
    id="path88" /></g><g
    id="g90"><path
    inkscape:connector-curvature="0"
    d="m 104.3,667.8 0,4.2"
    style="fill:none;stroke:#93a1a1;stroke-width:0.56593001;stroke-linecap:butt;stroke-linejoin:round;stroke-miterlimit:10;stroke-opacity:1;stroke-dasharray:none"
    id="path92" /></g><g
    id="g94"><path
    inkscape:connector-curvature="0"
    d="m 104.3,667.8 0,4.2"
    style="fill:none;stroke:#93a1a1;stroke-width:0.56593001;stroke-linecap:butt;stroke-linejoin:round;stroke-miterlimit:10;stroke-opacity:1;stroke-dasharray:none"
    id="path96" /></g><g
    id="g98"><path
    inkscape:connector-curvature="0"
    d="m 123.3,667.8 0,4.2"
    style="fill:none;stroke:#93a1a1;stroke-width:0.56593001;stroke-linecap:butt;stroke-linejoin:round;stroke-miterlimit:10;stroke-opacity:1;stroke-dasharray:none"
    id="path100" /></g><g
    id="g102"><path
    inkscape:connector-curvature="0"
    d="m 123.3,667.8 0,4.2"
    style="fill:none;stroke:#93a1a1;stroke-width:0.56593001;stroke-linecap:butt;stroke-linejoin:round;stroke-miterlimit:10;stroke-opacity:1;stroke-dasharray:none"
    id="path104" /></g><g
    id="g106"><path
    inkscape:connector-curvature="0"
    d="m 142.4,667.8 0,4.2"
    style="fill:none;stroke:#93a1a1;stroke-width:0.56593001;stroke-linecap:butt;stroke-linejoin:round;stroke-miterlimit:10;stroke-opacity:1;stroke-dasharray:none"
    id="path108" /></g><g
    id="g110"><path
    inkscape:connector-curvature="0"
    d="m 142.4,667.8 0,4.2"
    style="fill:none;stroke:#93a1a1;stroke-width:0.56593001;stroke-linecap:butt;stroke-linejoin:round;stroke-miterlimit:10;stroke-opacity:1;stroke-dasharray:none"
    id="path112" /></g><g
    id="g114"><path
    inkscape:connector-curvature="0"
    d="m 161.5,667.8 0,4.2"
    style="fill:none;stroke:#93a1a1;stroke-width:0.56593001;stroke-linecap:butt;stroke-linejoin:round;stroke-miterlimit:10;stroke-opacity:1;stroke-dasharray:none"
    id="path116" /></g><g
    id="g118"><path
    inkscape:connector-curvature="0"
    d="m 161.5,667.8 0,4.2"
    style="fill:none;stroke:#93a1a1;stroke-width:0.56593001;stroke-linecap:butt;stroke-linejoin:round;stroke-miterlimit:10;stroke-opacity:1;stroke-dasharray:none"
    id="path120" /></g><g
    id="g122"><path
    inkscape:connector-curvature="0"
    d="m 180.6,667.8 0,4.2"
    style="fill:none;stroke:#93a1a1;stroke-width:0.56593001;stroke-linecap:butt;stroke-linejoin:round;stroke-miterlimit:10;stroke-opacity:1;stroke-dasharray:none"
    id="path124" /></g><g
    id="g126"><path
    inkscape:connector-curvature="0"
    d="m 180.6,667.8 0,4.2"
    style="fill:none;stroke:#93a1a1;stroke-width:0.56593001;stroke-linecap:butt;stroke-linejoin:round;stroke-miterlimit:10;stroke-opacity:1;stroke-dasharray:none"
    id="path128" /></g><g
    id="g130"><path
    inkscape:connector-curvature="0"
    d="m 199.6,667.8 0,4.2"
    style="fill:none;stroke:#93a1a1;stroke-width:0.56593001;stroke-linecap:butt;stroke-linejoin:round;stroke-miterlimit:10;stroke-opacity:1;stroke-dasharray:none"
    id="path132" /></g><g
    id="g134"><path
    inkscape:connector-curvature="0"
    d="m 199.6,667.8 0,4.2"
    style="fill:none;stroke:#93a1a1;stroke-width:0.56593001;stroke-linecap:butt;stroke-linejoin:round;stroke-miterlimit:10;stroke-opacity:1;stroke-dasharray:none"
    id="path136" /></g><g
    id="g138"><path
    inkscape:connector-curvature="0"
    d="m 218.7,667.8 0,4.2"
    style="fill:none;stroke:#93a1a1;stroke-width:0.56593001;stroke-linecap:butt;stroke-linejoin:round;stroke-miterlimit:10;stroke-opacity:1;stroke-dasharray:none"
    id="path140" /></g><g
    id="g142"><path
    inkscape:connector-curvature="0"
    d="m 218.7,667.8 0,4.2"
    style="fill:none;stroke:#93a1a1;stroke-width:0.56593001;stroke-linecap:butt;stroke-linejoin:round;stroke-miterlimit:10;stroke-opacity:1;stroke-dasharray:none"
    id="path144" /></g><g
    id="g146"><path
    inkscape:connector-curvature="0"
    d="m 237.8,667.8 0,4.2"
    style="fill:none;stroke:#93a1a1;stroke-width:0.56593001;stroke-linecap:butt;stroke-linejoin:round;stroke-miterlimit:10;stroke-opacity:1;stroke-dasharray:none"
    id="path148" /></g><g
    id="g150"><path
    inkscape:connector-curvature="0"
    d="m 237.8,667.8 0,4.2"
    style="fill:none;stroke:#93a1a1;stroke-width:0.56593001;stroke-linecap:butt;stroke-linejoin:round;stroke-miterlimit:10;stroke-opacity:1;stroke-dasharray:none"
    id="path152" /></g><g
    id="g154"><path
    inkscape:connector-curvature="0"
    d="m 256.9,667.8 0,4.2"
    style="fill:none;stroke:#93a1a1;stroke-width:0.56593001;stroke-linecap:butt;stroke-linejoin:round;stroke-miterlimit:10;stroke-opacity:1;stroke-dasharray:none"
    id="path156" /></g><g
    id="g158"><path
    inkscape:connector-curvature="0"
    d="m 256.9,667.8 0,4.2"
    style="fill:none;stroke:#93a1a1;stroke-width:0.56593001;stroke-linecap:butt;stroke-linejoin:round;stroke-miterlimit:10;stroke-opacity:1;stroke-dasharray:none"
    id="path160" /></g><g
    id="g162"><path
    inkscape:connector-curvature="0"
    d="m 276,667.8 0,4.2"
    style="fill:none;stroke:#93a1a1;stroke-width:0.56593001;stroke-linecap:butt;stroke-linejoin:round;stroke-miterlimit:10;stroke-opacity:1;stroke-dasharray:none"
    id="path164" /></g><g
    id="g166"><path
    inkscape:connector-curvature="0"
    d="m 276,667.8 0,4.2"
    style="fill:none;stroke:#93a1a1;stroke-width:0.56593001;stroke-linecap:butt;stroke-linejoin:round;stroke-miterlimit:10;stroke-opacity:1;stroke-dasharray:none"
    id="path168" /></g><g
    id="g170"><path
    inkscape:connector-curvature="0"
    d="m 295.1,667.8 0,4.2"
    style="fill:none;stroke:#93a1a1;stroke-width:0.56593001;stroke-linecap:butt;stroke-linejoin:round;stroke-miterlimit:10;stroke-opacity:1;stroke-dasharray:none"
    id="path172" /></g><g
    id="g174"><path
    inkscape:connector-curvature="0"
    d="m 295.1,667.8 0,4.2"
    style="fill:none;stroke:#93a1a1;stroke-width:0.56593001;stroke-linecap:butt;stroke-linejoin:round;stroke-miterlimit:10;stroke-opacity:1;stroke-dasharray:none"
    id="path176" /></g><g
    id="g178"><path
    inkscape:connector-curvature="0"
    d="m 104.3,672 190.8,0"
    style="fill:none;stroke:#93a1a1;stroke-width:0.56593001;stroke-linecap:butt;stroke-linejoin:round;stroke-miterlimit:10;stroke-opacity:1;stroke-dasharray:none"
    id="path180" /></g><g
    id="g182"><path
    inkscape:connector-curvature="0"
    d="m 100,672 4.3,0"
    style="fill:none;stroke:#93a1a1;stroke-width:0.56593001;stroke-linecap:butt;stroke-linejoin:round;stroke-miterlimit:10;stroke-opacity:1;stroke-dasharray:none"
    id="path184" /></g><g
    id="g186"><path
    inkscape:connector-curvature="0"
    d="m 100,672 4.3,0"
    style="fill:none;stroke:#93a1a1;stroke-width:0.56593001;stroke-linecap:butt;stroke-linejoin:round;stroke-miterlimit:10;stroke-opacity:1;stroke-dasharray:none"
    id="path188" /></g><g
    id="g190"><path
    inkscape:connector-curvature="0"
    d="m 100,699.6 4.3,0"
    style="fill:none;stroke:#93a1a1;stroke-width:0.56593001;stroke-linecap:butt;stroke-linejoin:round;stroke-miterlimit:10;stroke-opacity:1;stroke-dasharray:none"
    id="path192" /></g><g
    id="g194"><path
    inkscape:connector-curvature="0"
    d="m 100,699.6 4.3,0"
    style="fill:none;stroke:#93a1a1;stroke-width:0.56593001;stroke-linecap:butt;stroke-linejoin:round;stroke-miterlimit:10;stroke-opacity:1;stroke-dasharray:none"
    id="path196" /></g><g
    id="g198"><path
    inkscape:connector-curvature="0"
    d="m 100,727.2 4.3,0"
    style="fill:none;stroke:#93a1a1;stroke-width:0.56593001;stroke-linecap:butt;stroke-linejoin:round;stroke-miterlimit:10;stroke-opacity:1;stroke-dasharray:none"
    id="path200" /></g><g
    id="g202"><path
    inkscape:connector-curvature="0"
    d="m 100,727.2 4.3,0"
    style="fill:none;stroke:#93a1a1;stroke-width:0.56593001;stroke-linecap:butt;stroke-linejoin:round;stroke-miterlimit:10;stroke-opacity:1;stroke-dasharray:none"
    id="path204" /></g><g
    id="g206"><path
    inkscape:connector-curvature="0"
    d="m 100,754.8 4.3,0"
    style="fill:none;stroke:#93a1a1;stroke-width:0.56593001;stroke-linecap:butt;stroke-linejoin:round;stroke-miterlimit:10;stroke-opacity:1;stroke-dasharray:none"
    id="path208" /></g><g
    id="g210"><path
    inkscape:connector-curvature="0"
    d="m 100,754.8 4.3,0"
    style="fill:none;stroke:#93a1a1;stroke-width:0.56593001;stroke-linecap:butt;stroke-linejoin:round;stroke-miterlimit:10;stroke-opacity:1;stroke-dasharray:none"
    id="path212" /></g><g
    id="g214"><path
    inkscape:connector-curvature="0"
    d="m 104.3,672 0,82.8"
    style="fill:none;stroke:#93a1a1;stroke-width:0.56593001;stroke-linecap:butt;stroke-linejoin:round;stroke-miterlimit:10;stroke-opacity:1;stroke-dasharray:none"
    id="path216" /></g><g
    id="g218"><path
    inkscape:connector-curvature="0"
    d="m 106.2,672.2 1.9,0.4 1.9,0.2 1.9,0.1 1.9,0 1.9,0.4 1.9,-0.4 1.9,0.3 1.9,0 1.9,0.6 1.9,0.1 1.9,0.3 2,0 1.9,0.5 1.9,0.1 1.9,0.4 1.9,0.1 1.9,0.4 1.9,0.2 1.9,0.6 1.9,0 1.9,0.6 1.9,0.2 1.9,0.9 2,0.2 1.9,0.7 1.9,0.3 1.9,0.9 1.9,0.2 1.9,1.1 1.9,0.3 1.9,1.3 1.9,-0.1 1.9,2.5 1.9,-0.7 1.9,-0.6 2,0.8 1.9,1.6 1.9,-0.5 1.9,0.8 1.9,0.1 1.9,1 1.9,0 1.9,0.1 1.9,0.6 1.9,1.1 1.9,-1.1 1.9,2.2 1.9,0.1 1.9,0.2 1.9,1.1 2,2 1.9,-1.3 1.9,3.2 1.9,-1.7 1.9,1.1 1.9,0.4 1.9,3.5 1.9,-1.9 1.9,2.7 1.9,-1 1.9,3.8 1.9,-2 2,1.4 1.9,0.5 1.9,4.2 1.9,-2.2 1.9,4.2 1.9,-2.3 1.9,2.9 1.9,-0.3 1.9,3.6 2,-1.9 1.9,3.3 1.9,-1.4 1.9,3.6 1.9,-0.7 1.9,3.9 1.9,-1.8 1.9,4.2 1.9,-1.8 1.9,5.7 1.9,-3.2 1.9,2.5 2,-0.2 1.9,3 1.9,0 1.9,2.3 1.9,0.7 1.9,2.4 1.9,3.7 1.9,-0.3 1.9,0.7 1.9,5.6 1.9,-3.1 1.9,11.2 2,-4.5 1.9,4.2 1.9,-0.5"
    style="fill:none;stroke:#268bd2;stroke-width:2.26374006;stroke-linecap:butt;stroke-linejoin:round;stroke-miterlimit:10;stroke-opacity:1;stroke-dasharray:none"
    id="path220" /></g></g><g
    id="g3355"><g
    id="g222"><text
    transform="matrix(1,0,0,-1,101.3,655.2)"
    id="text224"><tspan
    style="font-size:10px;font-variant:normal;font-weight:normal;writing-mode:lr-tb;fill:#657b83;fill-opacity:1;fill-rule:nonzero;stroke:none;font-family:AllerDisplay;-inkscape-font-specification:AllerDisplay"
    x="0"
    y="0"
    id="tspan226">0</tspan></text>
</g><g
    id="g228"><text
    transform="matrix(1,0,0,-1,118.1,655.2)"
    id="text230"><tspan
    style="font-size:10px;font-variant:normal;font-weight:normal;writing-mode:lr-tb;fill:#657b83;fill-opacity:1;fill-rule:nonzero;stroke:none;font-family:AllerDisplay;-inkscape-font-specification:AllerDisplay"
    x="0 4.5"
    y="0"
    sodipodi:role="line"
    id="tspan232">10</tspan></text>
</g><g
    id="g234"><text
    transform="matrix(1,0,0,-1,136.8,655.2)"
    id="text236"><tspan
    style="font-size:10px;font-variant:normal;font-weight:normal;writing-mode:lr-tb;fill:#657b83;fill-opacity:1;fill-rule:nonzero;stroke:none;font-family:AllerDisplay;-inkscape-font-specification:AllerDisplay"
    x="0 5.1999998"
    y="0"
    sodipodi:role="line"
    id="tspan238">20</tspan></text>
</g><g
    id="g240"><text
    transform="matrix(1,0,0,-1,155.8,655.2)"
    id="text242"><tspan
    style="font-size:10px;font-variant:normal;font-weight:normal;writing-mode:lr-tb;fill:#657b83;fill-opacity:1;fill-rule:nonzero;stroke:none;font-family:AllerDisplay;-inkscape-font-specification:AllerDisplay"
    x="0 5.1999998"
    y="0"
    sodipodi:role="line"
    id="tspan244">30</tspan></text>
</g><g
    id="g246"><text
    transform="matrix(1,0,0,-1,175,655.2)"
    id="text248"><tspan
    style="font-size:10px;font-variant:normal;font-weight:normal;writing-mode:lr-tb;fill:#657b83;fill-opacity:1;fill-rule:nonzero;stroke:none;font-family:AllerDisplay;-inkscape-font-specification:AllerDisplay"
    x="0 5.1999998"
    y="0"
    sodipodi:role="line"
    id="tspan250">40</tspan></text>
</g><g
    id="g252"><text
    transform="matrix(1,0,0,-1,194,655.2)"
    id="text254"><tspan
    style="font-size:10px;font-variant:normal;font-weight:normal;writing-mode:lr-tb;fill:#657b83;fill-opacity:1;fill-rule:nonzero;stroke:none;font-family:AllerDisplay;-inkscape-font-specification:AllerDisplay"
    x="0 5.3000002"
    y="0"
    sodipodi:role="line"
    id="tspan256">50</tspan></text>
</g><g
    id="g258"><text
    transform="matrix(1,0,0,-1,212.7,655.2)"
    id="text260"><tspan
    style="font-size:10px;font-variant:normal;font-weight:normal;writing-mode:lr-tb;fill:#657b83;fill-opacity:1;fill-rule:nonzero;stroke:none;font-family:AllerDisplay;-inkscape-font-specification:AllerDisplay"
    x="0 6.0900002"
    y="0"
    sodipodi:role="line"
    id="tspan262">60</tspan></text>
</g><g
    id="g264"><text
    transform="matrix(1,0,0,-1,232.6,655.2)"
    id="text266"><tspan
    style="font-size:10px;font-variant:normal;font-weight:normal;writing-mode:lr-tb;fill:#657b83;fill-opacity:1;fill-rule:nonzero;stroke:none;font-family:AllerDisplay;-inkscape-font-specification:AllerDisplay"
    x="0 4.5"
    y="0"
    sodipodi:role="line"
    id="tspan268">70</tspan></text>
</g><g
    id="g270"><text
    transform="matrix(1,0,0,-1,250.9,655.2)"
    id="text272"><tspan
    style="font-size:10px;font-variant:normal;font-weight:normal;writing-mode:lr-tb;fill:#657b83;fill-opacity:1;fill-rule:nonzero;stroke:none;font-family:AllerDisplay;-inkscape-font-specification:AllerDisplay"
    x="0 5.9899998"
    y="0"
    sodipodi:role="line"
    id="tspan274">80</tspan></text>
</g><g
    id="g276"><text
    transform="matrix(1,0,0,-1,270,655.2)"
    id="text278"><tspan
    style="font-size:10px;font-variant:normal;font-weight:normal;writing-mode:lr-tb;fill:#657b83;fill-opacity:1;fill-rule:nonzero;stroke:none;font-family:AllerDisplay;-inkscape-font-specification:AllerDisplay"
    x="0 5.9899998"
    y="0"
    sodipodi:role="line"
    id="tspan280">90</tspan></text>
</g><g
    id="g282"><text
    transform="matrix(1,0,0,-1,286.9,655.2)"
    id="text284"><tspan
    style="font-size:10px;font-variant:normal;font-weight:normal;writing-mode:lr-tb;fill:#657b83;fill-opacity:1;fill-rule:nonzero;stroke:none;font-family:AllerDisplay;-inkscape-font-specification:AllerDisplay"
    x="0 4.5 10.49"
    y="0"
    sodipodi:role="line"
    id="tspan286">100</tspan></text>
</g></g><g
    id="g3468"><g
    id="g288"><text
    transform="matrix(1,0,0,-1,91.2,668.6)"
    id="text290"><tspan
    style="font-size:10px;font-variant:normal;font-weight:normal;writing-mode:lr-tb;fill:#268bd2;fill-opacity:1;fill-rule:nonzero;stroke:none;font-family:AllerDisplay;-inkscape-font-specification:AllerDisplay"
    x="0"
    y="0"
    id="tspan292">0</tspan></text>
</g><g
    id="g294"><text
    transform="matrix(1,0,0,-1,91.9,696.2)"
    id="text296"><tspan
    style="font-size:10px;font-variant:normal;font-weight:normal;writing-mode:lr-tb;fill:#268bd2;fill-opacity:1;fill-rule:nonzero;stroke:none;font-family:AllerDisplay;-inkscape-font-specification:AllerDisplay"
    x="0"
    y="0"
    id="tspan298">1</tspan></text>
</g><g
    id="g300"><text
    transform="matrix(1,0,0,-1,91.9,723.9)"
    id="text302"><tspan
    style="font-size:10px;font-variant:normal;font-weight:normal;writing-mode:lr-tb;fill:#268bd2;fill-opacity:1;fill-rule:nonzero;stroke:none;font-family:AllerDisplay;-inkscape-font-specification:AllerDisplay"
    x="0"
    y="0"
    id="tspan304">2</tspan></text>
</g><g
    id="g306"><text
    transform="matrix(1,0,0,-1,91.9,751.5)"
    id="text308"><tspan
    style="font-size:10px;font-variant:normal;font-weight:normal;writing-mode:lr-tb;fill:#268bd2;fill-opacity:1;fill-rule:nonzero;stroke:none;font-family:AllerDisplay;-inkscape-font-specification:AllerDisplay"
    x="0"
    y="0"
    id="tspan310">3</tspan></text>
</g></g><g
    id="g312"
    transform="translate(-6.4,0)"><text
    y="-643.8999"
    x="84.500015"
    id="text314"
    transform="scale(1,-1)"><tspan
    y="-643.8999"
    x="84.500015"
    id="tspan316"
    sodipodi:role="line"
    style="font-size:9px;font-variant:normal;font-weight:300;writing-mode:lr-tb;fill:#000000;fill-opacity:1;fill-rule:nonzero;stroke:none;font-family:Aller;-inkscape-font-specification:Aller-Light">Problem difficulty (max number of actions and fluents)</tspan></text>
</g><g
    transform="translate(1.6,6.4)"
    id="g318"><text
    id="text320"
    transform="matrix(0,1,1,0,81.2,673.7)"><tspan
    id="tspan322"
    y="0"
    x="0"
    style="font-size:9px;font-variant:normal;font-weight:300;writing-mode:lr-tb;fill:#000000;fill-opacity:1;fill-rule:nonzero;stroke:none;font-family:Aller;-inkscape-font-specification:Aller-Light">S</tspan></text>
<text
    id="text324"
    transform="matrix(0,1,1,0,81.2,678.2)"><tspan
    id="tspan326"
    y="0"
    x="0"
    style="font-size:9px;font-variant:normal;font-weight:300;writing-mode:lr-tb;fill:#000000;fill-opacity:1;fill-rule:nonzero;stroke:none;font-family:Aller;-inkscape-font-specification:Aller-Light">o</tspan></text>
<text
    id="text328"
    transform="matrix(0,1,1,0,81.2,683.4)"><tspan
    id="tspan330"
    y="0"
    x="0"
    style="font-size:9px;font-variant:normal;font-weight:300;writing-mode:lr-tb;fill:#000000;fill-opacity:1;fill-rule:nonzero;stroke:none;font-family:Aller;-inkscape-font-specification:Aller-Light">l</tspan></text>
<text
    id="text332"
    transform="matrix(0,1,1,0,81.2,684.9)"><tspan
    id="tspan334"
    y="0"
    x="0"
    style="font-size:9px;font-variant:normal;font-weight:300;writing-mode:lr-tb;fill:#000000;fill-opacity:1;fill-rule:nonzero;stroke:none;font-family:Aller;-inkscape-font-specification:Aller-Light">v</tspan></text>
<text
    id="text336"
    transform="matrix(0,1,1,0,81.2,689.5)"><tspan
    id="tspan338"
    y="0"
    x="0"
    style="font-size:9px;font-variant:normal;font-weight:300;writing-mode:lr-tb;fill:#000000;fill-opacity:1;fill-rule:nonzero;stroke:none;font-family:Aller;-inkscape-font-specification:Aller-Light">i</tspan></text>
<text
    id="text340"
    transform="matrix(0,1,1,0,81.2,691.7)"><tspan
    id="tspan342"
    y="0"
    x="0"
    style="font-size:9px;font-variant:normal;font-weight:300;writing-mode:lr-tb;fill:#000000;fill-opacity:1;fill-rule:nonzero;stroke:none;font-family:Aller;-inkscape-font-specification:Aller-Light">n</tspan></text>
<text
    id="text344"
    transform="matrix(0,1,1,0,81.2,696.9)"><tspan
    id="tspan346"
    y="0"
    x="0"
    style="font-size:9px;font-variant:normal;font-weight:300;writing-mode:lr-tb;fill:#000000;fill-opacity:1;fill-rule:nonzero;stroke:none;font-family:Aller;-inkscape-font-specification:Aller-Light">g</tspan></text>
<text
    id="text348"
    transform="matrix(0,1,1,0,81.2,703.7)"><tspan
    id="tspan350"
    y="0"
    x="0"
    style="font-size:9px;font-variant:normal;font-weight:300;writing-mode:lr-tb;fill:#000000;fill-opacity:1;fill-rule:nonzero;stroke:none;font-family:Aller;-inkscape-font-specification:Aller-Light">t</tspan></text>
<text
    id="text352"
    transform="matrix(0,1,1,0,81.2,706.7)"><tspan
    id="tspan354"
    y="0"
    x="0"
    style="font-size:9px;font-variant:normal;font-weight:300;writing-mode:lr-tb;fill:#000000;fill-opacity:1;fill-rule:nonzero;stroke:none;font-family:Aller;-inkscape-font-specification:Aller-Light">i</tspan></text>
<text
    id="text356"
    transform="matrix(0,1,1,0,81.2,709)"><tspan
    id="tspan358"
    y="0"
    x="0"
    style="font-size:9px;font-variant:normal;font-weight:300;writing-mode:lr-tb;fill:#000000;fill-opacity:1;fill-rule:nonzero;stroke:none;font-family:Aller;-inkscape-font-specification:Aller-Light">m</tspan></text>
<text
    id="text360"
    transform="matrix(0,1,1,0,81.2,716.4)"><tspan
    id="tspan362"
    y="0"
    x="0"
    style="font-size:9px;font-variant:normal;font-weight:300;writing-mode:lr-tb;fill:#000000;fill-opacity:1;fill-rule:nonzero;stroke:none;font-family:Aller;-inkscape-font-specification:Aller-Light">e</tspan></text>
<text
    id="text364"
    transform="matrix(0,1,1,0,81.2,723.9)"><tspan
    id="tspan366"
    y="0"
    x="0"
    style="font-size:9px;font-variant:normal;font-weight:300;writing-mode:lr-tb;fill:#000000;fill-opacity:1;fill-rule:nonzero;stroke:none;font-family:Aller;-inkscape-font-specification:Aller-Light">(</tspan></text>
<text
    id="text368"
    transform="matrix(0,1,1,0,81.2,726.2)"><tspan
    id="tspan370"
    y="0"
    x="0"
    style="font-size:9px;font-variant:normal;font-weight:300;writing-mode:lr-tb;fill:#000000;fill-opacity:1;fill-rule:nonzero;stroke:none;font-family:Aller;-inkscape-font-specification:Aller-Light">m</tspan></text>
<text
    id="text372"
    transform="matrix(0,1,1,0,81.2,733.7)"><tspan
    id="tspan374"
    y="0"
    x="0"
    style="font-size:9px;font-variant:normal;font-weight:300;writing-mode:lr-tb;fill:#000000;fill-opacity:1;fill-rule:nonzero;stroke:none;font-family:Aller;-inkscape-font-specification:Aller-Light">s</tspan></text>
<text
    id="text376"
    transform="matrix(0,1,1,0,81.2,737.4)"><tspan
    id="tspan378"
    y="0"
    x="0"
    style="font-size:9px;font-variant:normal;font-weight:300;writing-mode:lr-tb;fill:#000000;fill-opacity:1;fill-rule:nonzero;stroke:none;font-family:Aller;-inkscape-font-specification:Aller-Light">)</tspan></text>
</g></g></g></svg>