<?xml version="1.0" encoding="UTF-8" standalone="no"?>
<!-- Created with Inkscape (http://www.inkscape.org/) -->

<svg
    xmlns:dc="http://purl.org/dc/elements/1.1/"
    xmlns:cc="http://creativecommons.org/ns#"
    xmlns:rdf="http://www.w3.org/1999/02/22-rdf-syntax-ns#"
    xmlns:svg="http://www.w3.org/2000/svg"
    xmlns="http://www.w3.org/2000/svg"
    xmlns:sodipodi="http://sodipodi.sourceforge.net/DTD/sodipodi-0.dtd"
    xmlns:inkscape="http://www.inkscape.org/namespaces/inkscape"
    id="svg2"
    version="1.1"
    inkscape:version="0.48.4 r9939"
    width="487.13437"
    height="226.75"
    xml:space="preserve"
    sodipodi:docname="proper.svg"><metadata
    id="metadata8"><rdf:RDF><cc:Work
    rdf:about=""><dc:format>image/svg+xml</dc:format><dc:type
    rdf:resource="http://purl.org/dc/dcmitype/StillImage" /><dc:title /></cc:Work></rdf:RDF></metadata><defs
    id="defs6"><clipPath
    clipPathUnits="userSpaceOnUse"
    id="clipPath16"><path
    d="m 0,0.1 595.2,0 0,841.8 L 0,841.9 0,0.1 z"
    clip-rule="evenodd"
    id="path18"
    inkscape:connector-curvature="0" /></clipPath></defs><sodipodi:namedview
    pagecolor="#ffffff"
    bordercolor="#666666"
    borderopacity="1"
    objecttolerance="10"
    gridtolerance="10"
    guidetolerance="10"
    inkscape:pageopacity="0"
    inkscape:pageshadow="2"
    inkscape:window-width="1360"
    inkscape:window-height="713"
    id="namedview4"
    showgrid="false"
    fit-margin-top="0"
    fit-margin-left="50"
    fit-margin-right="50"
    fit-margin-bottom="0"
    inkscape:zoom="0.89691211"
    inkscape:cx="229.59234"
    inkscape:cy="201.0566"
    inkscape:window-x="283"
    inkscape:window-y="30"
    inkscape:window-maximized="1"
    inkscape:current-layer="g14" /><g
    id="g10"
    inkscape:groupmode="layer"
    inkscape:label="Schemas"
    transform="matrix(1.25,0,0,-1.25,-84.625,995.75)"><g
    id="g12"><g
    id="g14"
    clip-path="url(#clipPath16)"><g
    id="g280" /><g
    id="g288" /><g
    id="g308" /><g
    id="g334" /><g
    id="g348" /><g
    id="g374" /><g
    id="g3357"><path
    id="path22"
    style="fill:#dc322f;fill-opacity:1;fill-rule:evenodd;stroke:none"
    d="m 296.2,796.6 c 7.2,0 12.8,-5.5 12.8,-12.7 0,-7.2 -5.6,-12.8 -12.8,-12.8 -7.2,0 -12.7,5.6 -12.7,12.8 0,7.2 5.5,12.7 12.7,12.7 z m -12.7,0 0,0 z m 25.5,-25.5 0,0 z"
    inkscape:connector-curvature="0" /><g
    id="g24"><text
    id="text26"
    transform="matrix(1,0,0,-1,290.9,777.7)"><tspan
    id="tspan28"
    y="0"
    x="0"
    style="font-size:18px;font-variant:normal;font-weight:normal;writing-mode:lr-tb;fill:#ffffff;fill-opacity:1;fill-rule:nonzero;stroke:none;font-family:Aller;-inkscape-font-specification:Aller">b</tspan></text>
</g><path
    id="path30"
    style="fill:#dc322f;fill-opacity:1;fill-rule:evenodd;stroke:none"
    d="m 386.9,745.6 c 7.3,0 12.8,-5.5 12.8,-12.7 0,-7.3 -5.5,-12.8 -12.8,-12.8 -7.2,0 -12.7,5.5 -12.7,12.8 0,7.2 5.5,12.7 12.7,12.7 z m -12.7,0 0,0 z m 25.5,-25.5 0,0 z"
    inkscape:connector-curvature="0" /><g
    id="g32"><text
    id="text34"
    transform="matrix(1,0,0,-1,383.7,726.7)"><tspan
    id="tspan36"
    y="0"
    x="0"
    style="font-size:18px;font-variant:normal;font-weight:normal;writing-mode:lr-tb;fill:#ffffff;fill-opacity:1;fill-rule:nonzero;stroke:none;font-family:Aller;-inkscape-font-specification:Aller">t</tspan></text>
</g><path
    id="path38"
    style="fill:#dc322f;fill-opacity:1;fill-rule:evenodd;stroke:none"
    d="m 287.7,640.7 c 7.2,0 12.8,-5.5 12.8,-12.7 0,-7.2 -5.6,-12.8 -12.8,-12.8 -7.2,0 -12.7,5.6 -12.7,12.8 0,7.2 5.5,12.7 12.7,12.7 z m -12.7,0 0,0 z m 25.5,-25.5 0,0 z"
    inkscape:connector-curvature="0" /><g
    id="g40"><text
    id="text42"
    transform="matrix(1,0,0,-1,283,621.8)"><tspan
    id="tspan44"
    y="0"
    x="0"
    style="font-size:18px;font-variant:normal;font-weight:normal;writing-mode:lr-tb;fill:#ffffff;fill-opacity:1;fill-rule:nonzero;stroke:none;font-family:Aller;-inkscape-font-specification:Aller">a</tspan></text>
</g><g
    id="g46"><path
    id="path48"
    style="fill:none;stroke:#dc322f;stroke-width:2.82999992;stroke-linecap:butt;stroke-linejoin:round;stroke-miterlimit:10;stroke-opacity:1;stroke-dasharray:none"
    d="m 387.6,698 c 0.7,0.1 1.4,0.2 2.2,0.2 1.9,0 3.8,-0.4 5.4,-1.2"
    inkscape:connector-curvature="0" /></g><g
    id="g50"><path
    id="path52"
    style="fill:none;stroke:#dc322f;stroke-width:2.82999992;stroke-linecap:butt;stroke-linejoin:round;stroke-miterlimit:10;stroke-opacity:1;stroke-dasharray:none"
    d="m 399.6,693.7 c 1.2,-1.4 2,-3.1 2.5,-5"
    inkscape:connector-curvature="0" /></g><g
    id="g54"><path
    id="path56"
    style="fill:none;stroke:#dc322f;stroke-width:2.82999992;stroke-linecap:butt;stroke-linejoin:round;stroke-miterlimit:10;stroke-opacity:1;stroke-dasharray:none"
    d="m 402.3,683.2 c -0.3,-1.9 -1,-3.7 -2,-5.2"
    inkscape:connector-curvature="0" /></g><g
    id="g58"><path
    id="path60"
    style="fill:none;stroke:#dc322f;stroke-width:2.82999992;stroke-linecap:butt;stroke-linejoin:round;stroke-miterlimit:10;stroke-opacity:1;stroke-dasharray:none"
    d="m 396.2,674.3 c -1.6,-0.9 -3.4,-1.4 -5.3,-1.6"
    inkscape:connector-curvature="0" /></g><g
    id="g62"><path
    id="path64"
    style="fill:none;stroke:#dc322f;stroke-width:2.82999992;stroke-linecap:butt;stroke-linejoin:round;stroke-miterlimit:10;stroke-opacity:1;stroke-dasharray:none"
    d="m 385.4,673.4 c -1.8,0.6 -3.4,1.6 -4.7,2.9"
    inkscape:connector-curvature="0" /></g><g
    id="g66"><path
    id="path68"
    style="fill:none;stroke:#dc322f;stroke-width:2.82999992;stroke-linecap:butt;stroke-linejoin:round;stroke-miterlimit:10;stroke-opacity:1;stroke-dasharray:none"
    d="m 377.7,681 c -0.4,1.4 -0.7,2.9 -0.7,4.4 0,0.4 0,0.8 0.1,1.1"
    inkscape:connector-curvature="0" /></g><g
    id="g70"><path
    id="path72"
    style="fill:none;stroke:#dc322f;stroke-width:2.82999992;stroke-linecap:butt;stroke-linejoin:round;stroke-miterlimit:10;stroke-opacity:1;stroke-dasharray:none"
    d="m 378.7,691.8 c 0.9,1.7 2.2,3.1 3.7,4.1"
    inkscape:connector-curvature="0" /></g><g
    id="g74"><text
    id="text76"
    transform="matrix(1,0,0,-1,383.6,679.2)"><tspan
    id="tspan78"
    y="0"
    x="0"
    style="font-size:18px;font-variant:normal;font-weight:normal;writing-mode:lr-tb;fill:#dc322f;fill-opacity:1;fill-rule:nonzero;stroke:none;font-family:Aller;-inkscape-font-specification:Aller">G</tspan></text>
</g><g
    id="g80"><path
    id="path82"
    style="fill:none;stroke:#268bd2;stroke-width:1.41499996;stroke-linecap:butt;stroke-linejoin:round;stroke-miterlimit:10;stroke-opacity:1;stroke-dasharray:none"
    d="m 360,672.7 50.9,0 5.8,-8.5 -5.8,-8.6 -50.9,0 5.8,8.6 -5.8,8.5 z"
    inkscape:connector-curvature="0" /></g><g
    id="g84"><path
    id="path86"
    style="fill:none;stroke:#268bd2;stroke-width:1.41499996;stroke-linecap:butt;stroke-linejoin:round;stroke-miterlimit:10;stroke-opacity:1;stroke-dasharray:none"
    d="m 360,672.7 0,0 z"
    inkscape:connector-curvature="0" /></g><g
    id="g88"><path
    id="path90"
    style="fill:none;stroke:#268bd2;stroke-width:1.41499996;stroke-linecap:butt;stroke-linejoin:round;stroke-miterlimit:10;stroke-opacity:1;stroke-dasharray:none"
    d="m 416.7,655.6 0,0 z"
    inkscape:connector-curvature="0" /></g><g
    id="g92"><text
    id="text94"
    transform="matrix(1,0,0,-1,362.8,673.7)"><tspan
    id="tspan96"
    sodipodi:role="line"
    y="0"
    x="0 4.1919999 8.3920002"
    style="font-size:8px;font-variant:normal;font-weight:normal;writing-mode:lr-tb;fill:#ffffff;fill-opacity:1;fill-rule:nonzero;stroke:#268bd2;stroke-width:0.25;stroke-linecap:butt;stroke-linejoin:miter;stroke-miterlimit:10;stroke-opacity:1;stroke-dasharray:none;font-family:AllerDisplay;-inkscape-font-specification:AllerDisplay">pre</tspan></text>
</g><path
    id="path98"
    style="fill:#4a8e00;fill-opacity:1;fill-rule:evenodd;stroke:none"
    d="m 372,658.5 -4.9,0 0,9.9 9.9,0 0,-9.9 -5,0 z"
    inkscape:connector-curvature="0" /><g
    id="g100"><text
    id="text102"
    transform="matrix(1,0,0,-1,368.8,659.4)"><tspan
    id="tspan104"
    y="0"
    x="0"
    style="font-size:12px;font-variant:normal;font-weight:normal;writing-mode:lr-tb;fill:#ffffff;fill-opacity:1;fill-rule:nonzero;stroke:none;font-family:AllerDisplay;-inkscape-font-specification:AllerDisplay">3</tspan></text>
</g><path
    id="path106"
    style="fill:#4a8e00;fill-opacity:1;fill-rule:evenodd;stroke:none"
    d="m 383.4,658.5 -5,0 0,9.9 9.9,0 0,-9.9 -4.9,0 z"
    inkscape:connector-curvature="0" /><g
    id="g108"><text
    id="text110"
    transform="matrix(1,0,0,-1,379.6,659.4)"><tspan
    id="tspan112"
    y="0"
    x="0"
    style="font-size:12px;font-variant:normal;font-weight:normal;writing-mode:lr-tb;fill:#ffffff;fill-opacity:1;fill-rule:nonzero;stroke:none;font-family:AllerDisplay;-inkscape-font-specification:AllerDisplay">4</tspan></text>
</g><path
    id="path114"
    style="fill:#4a8e00;fill-opacity:1;fill-rule:evenodd;stroke:none"
    d="m 394.7,658.5 -4.9,0 0,9.9 9.9,0 0,-9.9 -5,0 z"
    inkscape:connector-curvature="0" /><g
    id="g116"><text
    id="text118"
    transform="matrix(1,0,0,-1,389.3,659.4)"><tspan
    id="tspan120"
    sodipodi:role="line"
    y="0"
    x="0 4.4039998"
    style="font-size:12px;font-variant:normal;font-weight:normal;writing-mode:lr-tb;fill:#ffffff;fill-opacity:1;fill-rule:nonzero;stroke:none;font-family:AllerDisplay;-inkscape-font-specification:AllerDisplay">-5</tspan></text>
</g><path
    id="path122"
    style="fill:#4a8e00;fill-opacity:1;fill-rule:evenodd;stroke:none"
    d="m 406.1,658.5 -5,0 0,9.9 9.9,0 0,-9.9 -4.9,0 z"
    inkscape:connector-curvature="0" /><g
    id="g124"><text
    id="text126"
    transform="matrix(1,0,0,-1,402.5,659.4)"><tspan
    id="tspan128"
    y="0"
    x="0"
    style="font-size:12px;font-variant:normal;font-weight:normal;writing-mode:lr-tb;fill:#ffffff;fill-opacity:1;fill-rule:nonzero;stroke:none;font-family:AllerDisplay;-inkscape-font-specification:AllerDisplay">6</tspan></text>
</g><path
    id="path130"
    style="fill:#dc322f;fill-opacity:1;fill-rule:evenodd;stroke:none"
    d="m 163,715.9 c 7.2,0 12.7,-5.6 12.7,-12.8 0,-7.2 -5.5,-12.8 -12.7,-12.8 -7.2,0 -12.8,5.6 -12.8,12.8 0,7.2 5.6,12.8 12.8,12.8 z m -12.8,0 0,0 z m 25.6,-25.6 0,0 z"
    inkscape:connector-curvature="0" /><g
    id="g132"><text
    id="text134"
    transform="matrix(1,0,0,-1,157.8,696.9)"><tspan
    id="tspan136"
    y="0"
    x="0"
    style="font-size:18px;font-variant:normal;font-weight:normal;writing-mode:lr-tb;fill:#ffffff;fill-opacity:1;fill-rule:nonzero;stroke:none;font-family:Aller;-inkscape-font-specification:Aller">n</tspan></text>
</g><path
    id="path138"
    style="fill:#dc322f;fill-opacity:1;fill-rule:evenodd;stroke:none"
    d="m 120.5,715.9 c 7.2,0 12.7,-5.6 12.7,-12.8 0,-7.2 -5.5,-12.8 -12.7,-12.8 -7.3,0 -12.8,5.6 -12.8,12.8 0,7.2 5.5,12.8 12.8,12.8 z m -12.8,0 0,0 z m 25.6,-25.6 0,0 z"
    inkscape:connector-curvature="0" /><g
    id="g140"><text
    id="text142"
    transform="matrix(1,0,0,-1,117.8,696.9)"><tspan
    id="tspan144"
    y="0"
    x="0"
    style="font-size:18px;font-variant:normal;font-weight:normal;writing-mode:lr-tb;fill:#ffffff;fill-opacity:1;fill-rule:nonzero;stroke:none;font-family:Aller;-inkscape-font-specification:Aller">l</tspan></text>
</g><path
    id="path146"
    style="fill:#dc322f;fill-opacity:1;fill-rule:evenodd;stroke:none"
    d="m 222.5,715.9 c 7.2,0 12.8,-5.6 12.8,-12.8 0,-7.2 -5.6,-12.8 -12.8,-12.8 -7.2,0 -12.7,5.6 -12.7,12.8 0,7.2 5.5,12.8 12.7,12.8 z m -12.7,0 0,0 z m 25.5,-25.6 0,0 z"
    inkscape:connector-curvature="0" /><g
    id="g148"><text
    id="text150"
    transform="matrix(1,0,0,-1,218,696.9)"><tspan
    id="tspan152"
    y="0"
    x="0"
    style="font-size:18px;font-variant:normal;font-weight:normal;writing-mode:lr-tb;fill:#ffffff;fill-opacity:1;fill-rule:nonzero;stroke:none;font-family:Aller;-inkscape-font-specification:Aller">x</tspan></text>
</g><path
    id="path154"
    style="fill:#dc322f;fill-opacity:1;fill-rule:evenodd;stroke:none"
    d="m 350.1,640.7 c 7.2,0 12.7,-5.5 12.7,-12.7 0,-7.2 -5.5,-12.8 -12.7,-12.8 -7.2,0 -12.8,5.6 -12.8,12.8 0,7.2 5.6,12.7 12.8,12.7 z m -12.8,0 0,0 z m 25.6,-25.5 0,0 z"
    inkscape:connector-curvature="0" /><g
    id="g156"><text
    id="text158"
    transform="matrix(1,0,0,-1,345.8,621.8)"><tspan
    id="tspan160"
    y="0"
    x="0"
    style="font-size:18px;font-variant:normal;font-weight:normal;writing-mode:lr-tb;fill:#ffffff;fill-opacity:1;fill-rule:nonzero;stroke:none;font-family:Aller;-inkscape-font-specification:Aller">c</tspan></text>
</g><path
    id="path162"
    style="fill:#dc322f;fill-opacity:1;fill-rule:evenodd;stroke:none"
    d="m 222.5,640.7 c 7.2,0 12.8,-5.5 12.8,-12.7 0,-7.2 -5.6,-12.8 -12.8,-12.8 -7.2,0 -12.7,5.6 -12.7,12.8 0,7.2 5.5,12.7 12.7,12.7 z m -12.7,0 0,0 z m 25.5,-25.5 0,0 z"
    inkscape:connector-curvature="0" /><g
    id="g164"><text
    id="text166"
    transform="matrix(1,0,0,-1,215.5,621.8)"><tspan
    id="tspan168"
    y="0"
    x="0"
    style="font-size:18px;font-variant:normal;font-weight:normal;writing-mode:lr-tb;fill:#ffffff;fill-opacity:1;fill-rule:nonzero;stroke:none;font-family:Aller;-inkscape-font-specification:Aller">w</tspan></text>
</g><g
    id="g170"><path
    id="path172"
    style="fill:none;stroke:#657b83;stroke-width:2.26398993;stroke-linecap:butt;stroke-linejoin:round;stroke-miterlimit:10;stroke-opacity:1;stroke-dasharray:none"
    d="m 235.3,703.1 36.8,0 0,-26.2 74.9,0"
    inkscape:connector-curvature="0" /></g><path
    id="path174"
    style="fill:#657b83;fill-opacity:1;fill-rule:evenodd;stroke:none"
    d="m 360,676.9 -13.6,4.5 0,-9 13.6,4.5 z"
    inkscape:connector-curvature="0" /><g
    id="g176"><text
    id="text178"
    transform="matrix(1,0,0,-1,242.4,688.4)"><tspan
    id="tspan180"
    sodipodi:role="line"
    y="0"
    x="0 3.9960001"
    style="font-size:12px;font-variant:normal;font-weight:normal;writing-mode:lr-tb;fill:#4a8e00;fill-opacity:1;fill-rule:nonzero;stroke:none;font-family:AllerDisplay;-inkscape-font-specification:AllerDisplay">-2</tspan></text>
</g><g
    id="g182"><path
    id="path184"
    style="fill:none;stroke:#657b83;stroke-width:2.26398993;stroke-linecap:butt;stroke-linejoin:round;stroke-miterlimit:10;stroke-opacity:1;stroke-dasharray:none"
    d="m 287.7,640.7 0,36.2 59.3,0"
    inkscape:connector-curvature="0" /></g><path
    id="path186"
    style="fill:#657b83;fill-opacity:1;fill-rule:evenodd;stroke:none"
    d="m 360,676.9 -13.6,4.5 0,-9 13.6,4.5 z"
    inkscape:connector-curvature="0" /><g
    id="g188"><text
    id="text190"
    transform="matrix(1,0,0,-1,294.8,662.2)"><tspan
    id="tspan192"
    y="0"
    x="0"
    style="font-size:12px;font-variant:normal;font-weight:normal;writing-mode:lr-tb;fill:#4a8e00;fill-opacity:1;fill-rule:nonzero;stroke:none;font-family:AllerDisplay;-inkscape-font-specification:AllerDisplay">3</tspan></text>
</g><g
    id="g194"><path
    id="path196"
    style="fill:none;stroke:#657b83;stroke-width:2.26398993;stroke-linecap:butt;stroke-linejoin:round;stroke-miterlimit:10;stroke-opacity:1;stroke-dasharray:none"
    d="m 222.5,640.7 0,36.2 124.5,0"
    inkscape:connector-curvature="0" /></g><path
    id="path198"
    style="fill:#657b83;fill-opacity:1;fill-rule:evenodd;stroke:none"
    d="m 360,676.9 -13.6,4.5 0,-9 13.6,4.5 z"
    inkscape:connector-curvature="0" /><g
    id="g200"><text
    id="text202"
    transform="matrix(1,0,0,-1,229.6,654.7)"><tspan
    id="tspan204"
    y="0"
    x="0"
    style="font-size:12px;font-variant:normal;font-weight:normal;writing-mode:lr-tb;fill:#4a8e00;fill-opacity:1;fill-rule:nonzero;stroke:none;font-family:AllerDisplay;-inkscape-font-specification:AllerDisplay">3</tspan></text>
</g><g
    id="g206"><path
    id="path208"
    style="fill:none;stroke:#657b83;stroke-width:2.26398993;stroke-linecap:butt;stroke-linejoin:round;stroke-miterlimit:10;stroke-opacity:1;stroke-dasharray:none"
    d="m 309,783.9 25.1,0 0,-107 12.9,0"
    inkscape:connector-curvature="0" /></g><path
    id="path210"
    style="fill:#657b83;fill-opacity:1;fill-rule:evenodd;stroke:none"
    d="m 360,676.9 -13.6,4.5 0,-9 13.6,4.5 z"
    inkscape:connector-curvature="0" /><g
    id="g212"><text
    id="text214"
    transform="matrix(1,0,0,-1,316.8,683.5)"><tspan
    id="tspan216"
    y="0"
    x="0"
    style="font-size:12px;font-variant:normal;font-weight:normal;writing-mode:lr-tb;fill:#4a8e00;fill-opacity:1;fill-rule:nonzero;stroke:none;font-family:AllerDisplay;-inkscape-font-specification:AllerDisplay">4</tspan></text>
</g><path
    id="path218"
    style="fill:#dc322f;fill-opacity:1;fill-rule:evenodd;stroke:none"
    d="m 297,745.6 c 7.2,0 12.7,-5.5 12.7,-12.7 0,-7.3 -5.5,-12.8 -12.7,-12.8 -7.3,0 -12.8,5.5 -12.8,12.8 0,7.2 5.5,12.7 12.8,12.7 z m -12.8,0 0,0 z m 25.5,-25.5 0,0 z"
    inkscape:connector-curvature="0" /><g
    id="g220"><text
    id="text222"
    transform="matrix(1,0,0,-1,292.2,726.7)"><tspan
    id="tspan224"
    y="0"
    x="0"
    style="font-size:18px;font-variant:normal;font-weight:normal;writing-mode:lr-tb;fill:#ffffff;fill-opacity:1;fill-rule:nonzero;stroke:none;font-family:Aller;-inkscape-font-specification:Aller">v</tspan></text>
</g><g
    id="g226"><path
    id="path228"
    style="fill:none;stroke:#657b83;stroke-width:2.26398993;stroke-linecap:butt;stroke-linejoin:round;stroke-miterlimit:10;stroke-opacity:1;stroke-dasharray:none"
    d="m 297,720.1 0,-43.2 50,0"
    inkscape:connector-curvature="0" /></g><path
    id="path230"
    style="fill:#657b83;fill-opacity:1;fill-rule:evenodd;stroke:none"
    d="m 360,676.9 -13.6,4.5 0,-9 13.6,4.5 z"
    inkscape:connector-curvature="0" /><g
    id="g232"><text
    id="text234"
    transform="matrix(1,0,0,-1,324.7,726)"><tspan
    id="tspan236"
    y="0"
    x="0"
    style="font-size:12px;font-variant:normal;font-weight:normal;writing-mode:lr-tb;fill:#4a8e00;fill-opacity:1;fill-rule:nonzero;stroke:none;font-family:AllerDisplay;-inkscape-font-specification:AllerDisplay">4</tspan></text>
</g><g
    id="g238"><path
    id="path240"
    style="fill:none;stroke:#657b83;stroke-width:2.26398993;stroke-linecap:butt;stroke-linejoin:round;stroke-miterlimit:10;stroke-opacity:1;stroke-dasharray:none"
    d="m 386.9,720.1 0,-10.3 0.1,0"
    inkscape:connector-curvature="0" /></g><path
    id="path242"
    style="fill:#657b83;fill-opacity:1;fill-rule:evenodd;stroke:none"
    d="m 388.3,698.2 3,14 -9,-1 6,-13 z"
    inkscape:connector-curvature="0" /><g
    id="g244"><text
    id="text246"
    transform="matrix(1,0,0,-1,369.9,704.7)"><tspan
    id="tspan248"
    sodipodi:role="line"
    y="0"
    x="0 4.4879999"
    style="font-size:12px;font-variant:normal;font-weight:normal;writing-mode:lr-tb;fill:#4a8e00;fill-opacity:1;fill-rule:nonzero;stroke:none;font-family:AllerDisplay;-inkscape-font-specification:AllerDisplay">-5</tspan></text>
</g><g
    id="g250"><path
    id="path252"
    style="fill:none;stroke:#657b83;stroke-width:2.26398993;stroke-linecap:butt;stroke-linejoin:round;stroke-miterlimit:10;stroke-opacity:1;stroke-dasharray:none"
    d="m 362.8,628 25.5,0 0,14.6"
    inkscape:connector-curvature="0" /></g><path
    id="path254"
    style="fill:#657b83;fill-opacity:1;fill-rule:evenodd;stroke:none"
    d="m 388.3,655.7 -4.5,-13.7 9.1,0 -4.6,13.7 z"
    inkscape:connector-curvature="0" /><g
    id="g256"><text
    id="text258"
    transform="matrix(1,0,0,-1,374.1,634.5)"><tspan
    id="tspan260"
    y="0"
    x="0"
    style="font-size:12px;font-variant:normal;font-weight:normal;writing-mode:lr-tb;fill:#4a8e00;fill-opacity:1;fill-rule:nonzero;stroke:none;font-family:AllerDisplay;-inkscape-font-specification:AllerDisplay">6</tspan></text>
</g><g
    id="g262"><path
    id="path264"
    style="fill:none;stroke:#657b83;stroke-width:2.26398993;stroke-linecap:butt;stroke-linejoin:round;stroke-miterlimit:10;stroke-opacity:1;stroke-dasharray:none"
    d="m 175.7,703.1 21.1,0"
    inkscape:connector-curvature="0" /></g><path
    id="path266"
    style="fill:#657b83;fill-opacity:1;fill-rule:evenodd;stroke:none"
    d="m 209.8,703.1 -13.6,4.5 0,-9 13.6,4.5 z"
    inkscape:connector-curvature="0" /><g
    id="g268"><text
    id="text270"
    transform="matrix(1,0,0,-1,189.5,681.3)"><tspan
    id="tspan272"
    y="0"
    x="0"
    style="font-size:12px;font-variant:normal;font-weight:normal;writing-mode:lr-tb;fill:#4a8e00;fill-opacity:1;fill-rule:nonzero;stroke:none;font-family:AllerDisplay;-inkscape-font-specification:AllerDisplay">7</tspan></text>
</g><g
    id="g274"><path
    id="path276"
    style="fill:none;stroke:#657b83;stroke-width:2.26398993;stroke-linecap:butt;stroke-linejoin:round;stroke-miterlimit:10;stroke-opacity:1;stroke-dasharray:none"
    d="m 120.5,715.9 0,18.4 42.5,0 0,-5.4"
    inkscape:connector-curvature="0" /></g><path
    id="path278"
    style="fill:#657b83;fill-opacity:1;fill-rule:evenodd;stroke:none"
    d="m 163,715.9 4.5,13.6 -9,0 4.5,-13.6 z"
    inkscape:connector-curvature="0" /><g
    id="g282"><text
    id="text284"
    transform="matrix(1,0,0,-1,125.3,721)"><tspan
    id="tspan286"
    sodipodi:role="line"
    y="0"
    x="0 5.4959998 9.0959997 11.7 16.104"
    style="font-size:12px;font-variant:normal;font-weight:normal;writing-mode:lr-tb;fill:#4a8e00;fill-opacity:1;fill-rule:nonzero;stroke:none;font-family:AllerDisplay;-inkscape-font-specification:AllerDisplay">7, -8</tspan></text>
</g><g
    id="g290"><path
    id="path292"
    style="fill:none;stroke:#657b83;stroke-width:2.26398993;stroke-linecap:butt;stroke-linejoin:round;stroke-miterlimit:10;stroke-opacity:1;stroke-dasharray:none"
    d="m 163,690.3 0,-18.4 -42.5,0 0,5.4"
    inkscape:connector-curvature="0" /></g><path
    id="path294"
    style="fill:#657b83;fill-opacity:1;fill-rule:evenodd;stroke:none"
    d="m 120.5,690.3 -4.6,-13.6 9.1,0 -4.5,13.6 z"
    inkscape:connector-curvature="0" /><g
    id="g296"><text
    id="text298"
    transform="matrix(1,0,0,-1,124,677.1)"><tspan
    id="tspan300"
    sodipodi:role="line"
    y="0"
    x="0 4.1040001 9.5039997 13.104 15.792"
    style="font-size:12px;font-variant:normal;font-weight:normal;writing-mode:lr-tb;fill:#4a8e00;fill-opacity:1;fill-rule:nonzero;stroke:none;font-family:AllerDisplay;-inkscape-font-specification:AllerDisplay">-7, 8</tspan></text>
</g><g
    id="g302"><path
    id="path304"
    style="fill:none;stroke:#657b83;stroke-width:2.26398993;stroke-linecap:butt;stroke-linejoin:round;stroke-miterlimit:10;stroke-opacity:1;stroke-dasharray:none"
    d="m 222.5,715.9 0,68 48,0"
    inkscape:connector-curvature="0" /></g><path
    id="path306"
    style="fill:#657b83;fill-opacity:1;fill-rule:evenodd;stroke:none"
    d="m 283.5,783.9 -13.6,4.5 0,-9 13.6,4.5 z"
    inkscape:connector-curvature="0" /><g
    id="g310"><text
    id="text312"
    transform="matrix(1,0,0,-1,234.9,769.2)"><tspan
    id="tspan314"
    y="0"
    x="0"
    style="font-size:12px;font-variant:normal;font-weight:normal;writing-mode:lr-tb;fill:#4a8e00;fill-opacity:1;fill-rule:nonzero;stroke:none;font-family:AllerDisplay;-inkscape-font-specification:AllerDisplay">2</tspan></text>
</g><g
    id="g316"><path
    id="path318"
    style="fill:none;stroke:#657b83;stroke-width:2.26398993;stroke-linecap:butt;stroke-linejoin:round;stroke-miterlimit:10;stroke-opacity:1;stroke-dasharray:none"
    d="m 296.2,771.1 0,-12.8 0.5,0"
    inkscape:connector-curvature="0" /></g><path
    id="path320"
    style="fill:#657b83;fill-opacity:1;fill-rule:evenodd;stroke:none"
    d="m 297,745.6 3.7,13.9 -9,-0.6 5.3,-13.3 z"
    inkscape:connector-curvature="0" /><g
    id="g322"><text
    id="text324"
    transform="matrix(1,0,0,-1,283.5,754.3)"><tspan
    id="tspan326"
    sodipodi:role="line"
    y="0"
    x="0 7.5840001"
    style="font-size:12px;font-variant:normal;font-weight:normal;writing-mode:lr-tb;fill:#4a8e00;fill-opacity:1;fill-rule:nonzero;stroke:none;font-family:AllerDisplay;-inkscape-font-specification:AllerDisplay">4 </tspan></text>
</g><g
    id="g328"><path
    id="path330"
    style="fill:none;stroke:#657b83;stroke-width:2.26398993;stroke-linecap:butt;stroke-linejoin:round;stroke-miterlimit:10;stroke-opacity:1;stroke-dasharray:none"
    d="m 287.9,741.9 -17.9,0 0,-18.1 4.9,0"
    inkscape:connector-curvature="0" /></g><path
    id="path332"
    style="fill:#657b83;fill-opacity:1;fill-rule:evenodd;stroke:none"
    d="m 287.9,723.8 -13.6,4.6 0,-9.1 13.6,4.5 z"
    inkscape:connector-curvature="0" /><g
    id="g336"><text
    id="text338"
    transform="matrix(1,0,0,-1,275.2,728.8)"><tspan
    id="tspan340"
    sodipodi:role="line"
    y="0"
    x="0 7.5840001"
    style="font-size:12px;font-variant:normal;font-weight:normal;writing-mode:lr-tb;fill:#4a8e00;fill-opacity:1;fill-rule:nonzero;stroke:none;font-family:AllerDisplay;-inkscape-font-specification:AllerDisplay">4 </tspan></text>
</g><g
    id="g342"><path
    id="path344"
    style="fill:none;stroke:#657b83;stroke-width:2.26398993;stroke-linecap:butt;stroke-linejoin:round;stroke-miterlimit:10;stroke-opacity:1;stroke-dasharray:none"
    d="m 309,783.9 77.9,0 0,-25.3"
    inkscape:connector-curvature="0" /></g><path
    id="path346"
    style="fill:#657b83;fill-opacity:1;fill-rule:evenodd;stroke:none"
    d="m 386.9,745.6 4.6,13.6 -9.1,0 4.5,-13.6 z"
    inkscape:connector-curvature="0" /><g
    id="g350"><text
    id="text352"
    transform="matrix(1,0,0,-1,372.3,760.7)"><tspan
    id="tspan354"
    y="0"
    x="0"
    style="font-size:12px;font-variant:normal;font-weight:normal;writing-mode:lr-tb;fill:#4a8e00;fill-opacity:1;fill-rule:nonzero;stroke:none;font-family:AllerDisplay;-inkscape-font-specification:AllerDisplay">4</tspan></text>
</g><g
    id="g356"><path
    id="path358"
    style="fill:none;stroke:#657b83;stroke-width:2.26398993;stroke-linecap:butt;stroke-linejoin:round;stroke-miterlimit:10;stroke-opacity:1;stroke-dasharray:none"
    d="m 309.7,732.9 51.5,0"
    inkscape:connector-curvature="0" /></g><path
    id="path360"
    style="fill:#657b83;fill-opacity:1;fill-rule:evenodd;stroke:none"
    d="m 374.2,732.9 -13.6,4.5 0,-9.1 13.6,4.6 z"
    inkscape:connector-curvature="0" /><g
    id="g362"><text
    id="text364"
    transform="matrix(1,0,0,-1,316.8,774.8)"><tspan
    id="tspan366"
    sodipodi:role="line"
    y="0"
    x="0 7.5840001"
    style="font-size:12px;font-variant:normal;font-weight:normal;writing-mode:lr-tb;fill:#4a8e00;fill-opacity:1;fill-rule:nonzero;stroke:none;font-family:AllerDisplay;-inkscape-font-specification:AllerDisplay">4 </tspan></text>
</g><g
    id="g368"><path
    id="path370"
    style="fill:none;stroke:#657b83;stroke-width:2.26398993;stroke-linecap:butt;stroke-linejoin:round;stroke-miterlimit:10;stroke-opacity:1;stroke-dasharray:none"
    d="m 300.5,628 23.8,0"
    inkscape:connector-curvature="0" /></g><path
    id="path372"
    style="fill:#657b83;fill-opacity:1;fill-rule:evenodd;stroke:none"
    d="m 337.3,628 -13.6,4.5 0,-9.1 13.6,4.6 z"
    inkscape:connector-curvature="0" /><g
    id="g376"><text
    id="text378"
    transform="matrix(1,0,0,-1,312.8,631)"><tspan
    id="tspan380"
    y="0"
    x="0"
    style="font-size:12px;font-variant:normal;font-weight:normal;writing-mode:lr-tb;fill:#4a8e00;fill-opacity:1;fill-rule:nonzero;stroke:none;font-family:AllerDisplay;-inkscape-font-specification:AllerDisplay">5</tspan></text>
</g></g></g></g></g></svg>