<?xml version="1.0" encoding="UTF-8" standalone="no"?>
<svg
   xmlns:dc="http://purl.org/dc/elements/1.1/"
   xmlns:cc="http://creativecommons.org/ns#"
   xmlns:rdf="http://www.w3.org/1999/02/22-rdf-syntax-ns#"
   xmlns:svg="http://www.w3.org/2000/svg"
   xmlns="http://www.w3.org/2000/svg"
   version="1.1"
   id="svg2"
   viewBox="0 0 90.905526 37.086612"
   height="10.466666mm"
   width="25.65556mm">
  <defs
     id="defs4" />
  <metadata
     id="metadata7">
    <rdf:RDF>
      <cc:Work
         rdf:about="">
        <dc:format>image/svg+xml</dc:format>
        <dc:type
           rdf:resource="http://purl.org/dc/dcmitype/StillImage" />
        <dc:title></dc:title>
      </cc:Work>
    </rdf:RDF>
  </metadata>
  <g
     transform="translate(-67.795876,-240.78818)"
     id="layer1">
    <g
       id="text3336-5-0-4-7-9"
       style="font-style:normal;font-variant:normal;font-weight:500;font-stretch:normal;font-size:40px;line-height:125%;font-family:Ubuntu;-inkscape-font-specification:'Ubuntu Medium';letter-spacing:0px;word-spacing:0px;fill:#dc322f;fill-opacity:1;stroke:none;stroke-width:1px;stroke-linecap:butt;stroke-linejoin:miter;stroke-opacity:1">
      <g
         transform="matrix(0.94593061,0,0,0.94593061,3.8572671,14.83294)"
         id="g3478">
        <path
           d="m 80.179182,270.25668 q 2.24,0 3.4,-0.24 l 0,-5.36 q -0.4,-0.12 -1.16,-0.24 -0.76,-0.12 -1.68,-0.12 -0.8,0 -1.64,0.12 -0.8,0.12 -1.48,0.44 -0.64,0.32 -1.04,0.92 -0.4,0.56 -0.4,1.44 0,1.72 1.08,2.4 1.08,0.64 2.92,0.64 z m -0.4,-18.04 q 2.4,0 4.04,0.6 1.64,0.6 2.6,1.68 1,1.08 1.4,2.64 0.44,1.52 0.44,3.36 l 0,12.68 q -1.12,0.24 -3.4,0.56 -2.24,0.36 -5.08,0.36 -1.88,0 -3.44,-0.36 -1.56,-0.36 -2.68,-1.16 -1.08,-0.8 -1.72,-2.08 -0.6,-1.28 -0.6,-3.16 0,-1.8 0.68,-3.04 0.72,-1.24 1.92,-2 1.2,-0.8 2.76,-1.12 1.6,-0.36 3.32,-0.36 0.8,0 1.68,0.12 0.88,0.08 1.88,0.32 l 0,-0.8 q 0,-0.84 -0.2,-1.6 -0.2,-0.76 -0.72,-1.32 -0.48,-0.6 -1.32,-0.92 -0.8,-0.32 -2.04,-0.32 -1.68,0 -3.08,0.24 -1.4,0.24 -2.28,0.56 l -0.6,-3.92 q 0.92,-0.32 2.68,-0.64 1.76,-0.32 3.76,-0.32 z"
           style="letter-spacing:-1.5px;fill:#dc322f"
           id="path3468" />
        <path
           d="m 103.45203,263.13668 q 0,-3.08 -1.24,-4.88 -1.2,-1.8 -3.839999,-1.8 -1.2,0 -2.28,0.36 -1.04,0.36 -1.68,0.8 l 0,12.04 q 0.52,0.12 1.32,0.24 0.84,0.08 2,0.08 2.679999,0 4.199999,-1.8 1.52,-1.84 1.52,-5.04 z m 4.96,0.08 q 0,2.52 -0.76,4.56 -0.72,2 -2.12,3.44 -1.36,1.44 -3.32,2.2 -1.96,0.76 -4.439999,0.76 -2.4,0 -4.6,-0.36 -2.16,-0.36 -3.6,-0.8 l 0,-29.6 4.84,-0.8 0,10.84 q 0.84,-0.44 2.04,-0.8 1.24,-0.36 2.720003,-0.36 2.199996,0 3.919996,0.8 1.76,0.76 2.92,2.2 1.16,1.44 1.76,3.48 0.64,2 0.64,4.44 z"
           style="letter-spacing:-1.5px;fill:#dc322f"
           id="path3470" />
        <path
           d="m 132.28348,263.05219 q 0,4.6997 -3.2959,7.98339 -3.28369,3.2959 -7.9834,3.2959 -4.69971,0 -7.9956,-3.2959 -3.2837,-3.28369 -3.2837,-7.98339 0,-4.69971 3.2837,-7.9834 3.29589,-3.2959 7.9956,-3.2959 4.69971,0 7.9834,3.2959 3.2959,3.28369 3.2959,7.9834 z m -2.36817,2.07519 0,-4.19922 -17.82226,0 0,4.19922 17.82226,0 z"
           style="font-size:25px;letter-spacing:-1.5px;fill:#dc322f"
           id="path3472" />
        <path
           d="m 145.51633,257.09668 c -0.4,-0.13333 -0.96,-0.26667 -1.68,-0.4 -0.69333,-0.16 -1.50667,-0.24 -2.44,-0.24 -0.53333,0 -1.10667,0.0533 -1.72,0.16 -0.58667,0.10667 -1,0.2 -1.24,0.28 l 0,16.76 -4.84,0 0,-19.92 c 0.93333,-0.34667 2.09333,-0.66667 3.48,-0.96 1.41333,-0.32 2.97333,-0.48 4.68,-0.48 0.32,0 0.69333,0.0267 1.12,0.08 0.91696,0.0621 1.80996,0.24104 2.63893,0.43548 z"
           style="letter-spacing:-1.5px;fill:#dc322f"
           id="path3474" />
        <path
           d="m 146.82918,247.21668 4.84,-0.8 0,6.32 7.44,0 0,4.04 -7.44,0 0,8.52 q 0,2.52 0.8,3.6 0.8,1.08 2.72,1.08 1.32,0 2.32,-0.28 1.04,-0.28 1.64,-0.52 l 0.8,3.84 q -0.84,0.36 -2.2,0.72 -1.36,0.4 -3.2,0.4 -2.24,0 -3.76,-0.6 -1.48,-0.6 -2.36,-1.72 -0.88,-1.16 -1.24,-2.76 -0.36,-1.64 -0.36,-3.72 l 0,-18.12 z"
           style="letter-spacing:-1.5px;fill:#dc322f"
           id="path3476" />
      </g>
    </g>
    <text
       id="text3434"
       y="288.68689"
       x="88.893425"
       style="font-style:normal;font-weight:normal;font-size:40px;line-height:125%;font-family:sans-serif;letter-spacing:0px;word-spacing:0px;fill:#000000;fill-opacity:1;stroke:none;stroke-width:1px;stroke-linecap:butt;stroke-linejoin:miter;stroke-opacity:1"
       xml:space="preserve"><tspan
         y="288.68689"
         x="88.893425"
         id="tspan3436" /></text>
  </g>
</svg>
