<?xml version="1.0" encoding="UTF-8" standalone="no"?>
<svg
   xmlns:dc="http://purl.org/dc/elements/1.1/"
   xmlns:cc="http://creativecommons.org/ns#"
   xmlns:rdf="http://www.w3.org/1999/02/22-rdf-syntax-ns#"
   xmlns:svg="http://www.w3.org/2000/svg"
   xmlns="http://www.w3.org/2000/svg"
   xmlns:sodipodi="http://sodipodi.sourceforge.net/DTD/sodipodi-0.dtd"
   xmlns:inkscape="http://www.inkscape.org/namespaces/inkscape"
   viewBox="0 0 22.133858 17"
   height="17"
   width="22.133858"
   version="1.1"
   id="svg2"
   inkscape:version="0.91 r13725"
   sodipodi:docname="heart-mini.svg">
  <sodipodi:namedview
     pagecolor="#ffffff"
     bordercolor="#666666"
     borderopacity="1"
     objecttolerance="10"
     gridtolerance="10"
     guidetolerance="10"
     inkscape:pageopacity="0"
     inkscape:pageshadow="2"
     inkscape:window-width="1920"
     inkscape:window-height="1017"
     id="namedview9"
     showgrid="false"
     fit-margin-top="8"
     fit-margin-left="1"
     fit-margin-right="1"
     fit-margin-bottom="1"
     inkscape:zoom="3.4915254"
     inkscape:cx="56.050217"
     inkscape:cy="-78.415442"
     inkscape:window-x="0"
     inkscape:window-y="30"
     inkscape:window-maximized="1"
     inkscape:current-layer="g4296" />
  <metadata
     id="metadata8">
    <rdf:RDF>
      <cc:Work
         rdf:about="">
        <dc:format>image/svg+xml</dc:format>
        <dc:type
           rdf:resource="http://purl.org/dc/dcmitype/StillImage" />
        <dc:title></dc:title>
      </cc:Work>
    </rdf:RDF>
  </metadata>
  <defs
     id="defs6">
    <marker
       inkscape:stockid="EmptyTriangleOutM"
       orient="auto"
       refY="0"
       refX="0"
       id="EmptyTriangleOutM"
       style="overflow:visible"
       inkscape:isstock="true">
      <path
         id="path4314"
         d="m 5.77,0 -8.65,5 0,-10 8.65,5 z"
         style="fill:#ffffff;fill-rule:evenodd;stroke:#d33682;stroke-width:1pt;stroke-opacity:1"
         transform="matrix(0.4,0,0,0.4,-1.8,0)"
         inkscape:connector-curvature="0" />
    </marker>
  </defs>
  <g
     transform="translate(-835.96531,-829.23509)"
     id="g4279">
    <g
       transform="translate(4.4204448,-3.4197843)"
       id="g4296">
      <g
         id="g4152"
         transform="matrix(0.04695947,0,0,0.04695947,793.449,808.80249)">
        <text
           sodipodi:linespacing="125%"
           id="text4292"
           y="802.77441"
           x="954.78717"
           style="font-style:normal;font-weight:normal;font-size:132.77786255px;line-height:125%;font-family:sans-serif;letter-spacing:0px;word-spacing:0px;fill:#073642;fill-opacity:1;stroke:none;stroke-width:1px;stroke-linecap:butt;stroke-linejoin:miter;stroke-opacity:1"
           xml:space="preserve"><tspan
             style="font-style:normal;font-variant:normal;font-weight:normal;font-stretch:normal;font-family:Pacifico;-inkscape-font-specification:Pacifico;fill:#d33682"
             y="802.77441"
             x="954.78717"
             id="tspan4294">heart</tspan></text>
        <path
           inkscape:connector-curvature="0"
           id="path4138"
           d="m 888.38959,800.67106 c -25.0739,-11.68797 -42.7634,-28.01099 -50.7878,-46.86433 -3.7783,-8.87726 -5.6197,-18.85158 -4.9055,-26.57166 0.5603,-6.05629 1.6173,-10.01444 3.9752,-14.88634 5.3696,-11.0945 15.0622,-18.32899 26.843,-20.03548 2.6887,-0.38946 8.5163,-0.16754 11.1831,0.42588 6.0169,1.33883 11.6282,4.29255 16.0683,8.45814 0.4979,0.46711 0.9915,0.85039 1.0969,0.85173 0.1054,10e-4 0.8692,-0.62331 1.6974,-1.38811 1.8702,-1.72718 5.5777,-4.20249 8.0625,-5.38302 4.3477,-2.06561 8.0855,-2.95414 13.1299,-3.12123 5.9982,-0.19867 10.4803,0.73455 15.7315,3.27548 3.6048,1.74429 8.3125,5.27539 10.5362,7.90284 0.614,0.7255 1.3013,1.52277 1.5272,1.77172 1.0979,1.20937 3.2636,4.70093 4.4582,7.18755 2.877,5.98832 4.0745,11.32435 4.0711,18.13991 0,5.04231 -0.4501,8.61055 -1.72,13.71172 -2.477,9.94986 -7.6276,19.70885 -14.8709,28.17611 -1.911,2.23405 -6.5527,6.96016 -8.5237,8.6789 -0.8067,0.7034 -1.6723,1.46803 -1.9237,1.69916 -1.268,1.16599 -6.4819,5.08666 -9.2833,6.98074 -5.6453,3.81696 -9.7135,6.15779 -16.9484,9.75197 -5.8098,2.88621 -5.8661,2.89361 -9.4172,1.23832 z m 6.1838,-8.52654 c 14.852,-7.21037 27.184,-16.64376 35.6769,-27.29091 5.1845,-6.49973 9.3242,-14.70187 11.3326,-22.45402 1.148,-4.43109 1.4356,-6.76629 1.4433,-11.71942 0.01,-5.5817 -0.4561,-8.27603 -2.1859,-12.67359 -3.0061,-7.64211 -9.1033,-13.82201 -16.1814,-16.40083 -3.4577,-1.25976 -4.7895,-1.47432 -8.9984,-1.44977 -3.615,0.0211 -3.9955,0.0657 -6.3014,0.73791 -4.2029,1.22535 -8.4591,3.6564 -11.1057,6.34336 l -1.0834,1.10002 1.4252,2.11888 c 2.7611,4.10467 4.5926,8.12453 5.8118,12.75566 0.5246,1.99306 0.597,2.70877 0.6062,5.99732 0.01,3.36664 -0.044,3.89935 -0.5419,5.41219 -2.105,6.39348 -8.4881,10.38807 -14.721,9.21249 -5.2572,-0.99155 -9.3592,-4.84275 -10.756,-10.0984 -0.444,-1.67065 -0.4415,-6.80416 0,-9.13453 0.8417,-4.39856 3.2764,-9.99337 6.1659,-14.16846 l 1.4828,-2.14262 -1.3355,-1.22228 c -3.4687,-3.17477 -7.2499,-5.22508 -11.796,-6.39623 -2.9018,-0.74753 -8.5799,-0.75016 -11.4417,-0.005 -5.0686,1.31925 -8.9291,3.53946 -12.6106,7.2525 -5.9181,5.96877 -8.8119,13.40348 -8.8223,22.6657 -0.012,10.318 3.3018,20.39188 9.9873,30.36507 1.5798,2.35662 4.4523,5.99644 6.2068,7.86483 0.6429,0.6846 1.5095,1.63939 1.9258,2.12174 1.1147,1.2917 6.6296,6.16011 9.4059,8.30332 3.9418,3.04295 8.3412,5.95847 13.6594,9.05213 1.4813,0.86166 9.7205,5.16914 9.9179,5.18511 0.04,0.003 1.3134,-0.59609 2.829,-1.33188 z m -0.598,-56.61849 c 1.2805,-0.61986 2.4898,-2.06077 2.9061,-3.46259 1.0343,-3.48273 -0.3915,-9.53049 -3.4884,-14.7962 -1.5307,-2.60278 -1.4324,-2.54137 -2.2218,-1.38841 -1.5498,2.26336 -2.9734,5.3537 -3.9514,8.5777 -0.42,1.38446 -0.5161,2.23971 -0.5212,4.63944 -0.01,2.58509 0.053,3.05229 0.48,3.85031 1.4505,2.70804 4.2986,3.78907 6.7967,2.57975 z"
           style="fill:#d33682" />
        <path
           sodipodi:nodetypes="czcc"
           inkscape:connector-curvature="0"
           id="path4145"
           d="m 890.35548,797.11103 c 0,0 42.29014,25.91094 104.53885,34.36893 62.24867,8.45799 258.33977,-2.29126 258.33977,-2.29126 l 0,0"
           style="fill:none;fill-rule:evenodd;stroke:#d33682;stroke-width:8;stroke-linecap:butt;stroke-linejoin:miter;stroke-miterlimit:4;stroke-dasharray:16, 8;stroke-dashoffset:0;stroke-opacity:1;marker-end:url(#EmptyTriangleOutM)" />
      </g>
    </g>
  </g>
</svg>
