<?xml version="1.0" encoding="UTF-8" standalone="no"?>
<!-- Created with Inkscape (http://www.inkscape.org/) -->

<svg
   xmlns:dc="http://purl.org/dc/elements/1.1/"
   xmlns:cc="http://creativecommons.org/ns#"
   xmlns:rdf="http://www.w3.org/1999/02/22-rdf-syntax-ns#"
   xmlns:svg="http://www.w3.org/2000/svg"
   xmlns="http://www.w3.org/2000/svg"
   xmlns:sodipodi="http://sodipodi.sourceforge.net/DTD/sodipodi-0.dtd"
   xmlns:inkscape="http://www.inkscape.org/namespaces/inkscape"
   height="96"
   width="96"
   viewBox="0 0 25.399998 25.4"
   version="1.1"
   id="svg3641"
   inkscape:version="0.91 r13725"
   sodipodi:docname="color_icon.svg">
  <defs
     id="defs3645">
    <clipPath
       clipPathUnits="userSpaceOnUse"
       id="clipPath4253">
      <g
         transform="matrix(-2.8406094,-2.8406094,2.8406094,-2.8406094,-56.376726,1377.1728)"
         id="g4255"
         style="font-style:normal;font-weight:normal;font-size:37.49999619px;line-height:125%;font-family:sans-serif;letter-spacing:0px;word-spacing:0px;opacity:0.11400003;fill:#000000;fill-opacity:1;stroke:none;stroke-width:1px;stroke-linecap:butt;stroke-linejoin:miter;stroke-opacity:1">
        <path
           inkscape:connector-curvature="0"
           id="path4258"
           style="font-style:normal;font-variant:normal;font-weight:900;font-stretch:normal;font-family:and;-inkscape-font-specification:'and Heavy';fill:#000000;fill-opacity:1"
           d="m 305.53961,348.62178 c -2.8125,0 -5.0625,-2.2125 -5.0625,-5.3625 0,-3.1125 2.2875,-5.3625 5.0625,-5.3625 2.7375,0 5.0625,2.25 5.0625,5.3625 0,3.15 -2.25,5.3625 -5.0625,5.3625 z m 0,4.3875 c 5.4,0 9.8625,-4.1625 9.8625,-9.75 0,-5.4375 -4.425,-9.75 -9.8625,-9.75 -5.4375,0 -9.8625,4.3125 -9.8625,9.75 0,5.5875 4.4625,9.75 9.8625,9.75 z" />
      </g>
    </clipPath>
  </defs>
  <sodipodi:namedview
     pagecolor="#ffffff"
     bordercolor="#666666"
     borderopacity="1"
     objecttolerance="10"
     gridtolerance="10"
     guidetolerance="10"
     inkscape:pageopacity="0"
     inkscape:pageshadow="2"
     inkscape:window-width="1920"
     inkscape:window-height="1047"
     id="namedview3643"
     showgrid="false"
     fit-margin-top="4"
     fit-margin-left="4"
     fit-margin-right="4"
     fit-margin-bottom="4"
     inkscape:zoom="4"
     inkscape:cx="63.259889"
     inkscape:cy="32.069655"
     inkscape:window-x="0"
     inkscape:window-y="1050"
     inkscape:window-maximized="1"
     inkscape:current-layer="svg3641"
     units="px"
     showguides="false" />
  <metadata
     id="metadata3639">
    <rdf:RDF>
      <cc:Work
         rdf:about="">
        <dc:format>image/svg+xml</dc:format>
        <dc:type
           rdf:resource="http://purl.org/dc/dcmitype/StillImage" />
        <dc:title />
      </cc:Work>
    </rdf:RDF>
  </metadata>
  <g
     transform="matrix(0.30717896,0,0,0.30717896,-76.755973,-98.559296)"
     id="g4452">
    <path
       style="opacity:1;fill:#2aa198;fill-opacity:1;stroke:none;stroke-width:1;stroke-linecap:round;stroke-linejoin:round;stroke-miterlimit:4;stroke-dasharray:none;stroke-opacity:1"
       d="m 291.21873,323.02897 c -7.12662,0 -13.81496,1.85243 -19.59961,5.09583 -2.74362,9.22098 -2.99926,18.58551 0,28.13781 2.38505,-9.32851 10.30958,-15.60791 19.59961,-15.60791 9.17714,0 17.19532,6.29654 19.59961,15.64636 l 0,-28.17626 c -5.78465,-3.2434 -12.47299,-5.09583 -19.59961,-5.09583 z"
       id="rect4168"
       inkscape:connector-curvature="0"
       sodipodi:nodetypes="sccsccs" />
    <path
       style="font-style:normal;font-variant:normal;font-weight:900;font-stretch:normal;font-size:medium;line-height:125%;font-family:and;-inkscape-font-specification:'and Heavy';letter-spacing:0px;word-spacing:0px;fill:#268bd2;fill-opacity:1;stroke:none;stroke-width:1px;stroke-linecap:butt;stroke-linejoin:miter;stroke-opacity:1"
       d="M 59.810547,4.0332031 39.080078,24.763672 C 41.838759,23.614693 44.851312,22.988281 48,22.988281 c 12.768061,0 23.611328,10.494613 23.611328,25.011719 0,3.872983 -0.734492,7.43742 -2.048828,10.59375 L 92.337891,35.818359 C 88.006443,20.225481 75.559457,8.1268004 59.810547,4.0332031 Z"
       transform="matrix(0.86133284,0,0,0.86133284,249.87379,320.85302)"
       id="path4171"
       inkscape:connector-curvature="0"
       sodipodi:nodetypes="ccssccc" />
    <path
       style="opacity:1;fill:#6c71c4;fill-opacity:1;stroke:none;stroke-width:1;stroke-linecap:round;stroke-linejoin:round;stroke-miterlimit:4;stroke-dasharray:none;stroke-opacity:1"
       d="m 299.76243,342.59745 c 6.88619,3.3006 11.79382,10.53844 11.79382,19.59961 0,9.14669 -4.72414,16.32252 -11.60888,19.59961 l 25.7373,0 c 3.26993,-5.68913 5.15441,-12.34164 5.15441,-19.59961 0,-7.17396 -1.92797,-13.85419 -5.27709,-19.59961 z"
       id="rect4166"
       inkscape:connector-curvature="0"
       sodipodi:nodetypes="csccscc" />
    <path
       id="path4411"
       d="m 309.64463,352.90446 c 1.22025,2.76975 1.91162,5.90223 1.91162,9.2926 0,12.65427 -9.03907,21.54236 -20.33752,21.54236 -2.71006,0 -5.28816,-0.51647 -7.64465,-1.46851 l 17.82165,17.81982 c 13.55637,-3.45694 24.35074,-13.70757 28.05359,-27.38159 z"
       style="opacity:1;fill:#d33682;fill-opacity:1;stroke:none;stroke-width:1;stroke-linecap:round;stroke-linejoin:round;stroke-miterlimit:4;stroke-dasharray:none;stroke-opacity:1"
       inkscape:connector-curvature="0"
       sodipodi:nodetypes="csscccc" />
    <path
       id="path4413"
       d="m 271.61912,368.22306 0,28.13598 c 5.79971,3.20155 12.49417,5.00611 19.59961,5.00611 7.10544,0 13.7999,-1.80456 19.59961,-5.00611 l 0,-28.13598 c -2.36605,9.35813 -10.19757,15.51636 -19.59961,15.51636 -9.40204,0 -17.23357,-6.15823 -19.59961,-15.51636 z"
       style="opacity:1;fill:#dc322f;fill-opacity:1;stroke:none;stroke-width:1;stroke-linecap:round;stroke-linejoin:round;stroke-miterlimit:4;stroke-dasharray:none;stroke-opacity:1"
       inkscape:connector-curvature="0"
       sodipodi:nodetypes="ccsccsc" />
    <path
       id="path4175"
       transform="matrix(0.86133284,0,0,0.86133284,249.87379,320.85302)"
       d="M 15.039062,43.054688 3.6171875,60.226562 C 7.920197,76.086033 20.441802,87.9741 36.166016,91.990234 L 56.833984,71.322266 C 54.108965,72.417145 51.130953,73.011719 48,73.011719 34.882133,73.011719 24.388672,62.692021 24.388672,48 c 0,-3.898137 -10.725629,-1.752586 -9.34961,-4.945312 z"
       style="font-style:normal;font-variant:normal;font-weight:900;font-stretch:normal;font-size:medium;line-height:125%;font-family:and;-inkscape-font-specification:'and Heavy';letter-spacing:0px;word-spacing:0px;fill:#cb4b16;fill-opacity:1;stroke:none;stroke-width:1px;stroke-linecap:butt;stroke-linejoin:miter;stroke-opacity:1"
       inkscape:connector-curvature="0"
       sodipodi:nodetypes="ccccssc" />
    <path
       sodipodi:nodetypes="cccscc"
       style="opacity:1;fill:#859900;fill-opacity:1;stroke:none;stroke-width:1;stroke-linecap:round;stroke-linejoin:round;stroke-miterlimit:4;stroke-dasharray:none;stroke-opacity:1"
       d="m 271.61912,328.12663 c -8.99027,5.04155 -15.78403,13.4599 -18.59436,23.59497 3.8959,10.60799 12.50693,13.98611 19.63623,19.63623 -1.14135,-2.72726 -1.77978,-5.81047 -1.77978,-9.16077 0,-2.08394 0.26085,-4.06881 0.73791,-5.93445 z"
       id="rect4172"
       inkscape:connector-curvature="0" />
    <path
       sodipodi:nodetypes="cccccc"
       inkscape:connector-curvature="0"
       id="path4417"
       d="m 253.02476,351.72194 c -2.7872,9.98805 -1.4695,21.08495 3.72803,30.07507 l 25.7373,0 c -4.77929,-2.24219 -8.48622,-6.51837 -10.23376,-11.47888 0.37964,0.85609 0.50365,1.25116 -0.19084,0.44453 -6.34683,-6.34671 -12.6943,-12.69497 -19.04073,-19.04072 z"
       style="opacity:1;fill:#b58900;fill-opacity:1;stroke:none;stroke-width:1;stroke-linecap:round;stroke-linejoin:round;stroke-miterlimit:4;stroke-dasharray:none;stroke-opacity:1" />
  </g>
</svg>
