<?xml version="1.0" encoding="UTF-8" standalone="no"?>
<!-- Created with Inkscape (http://www.inkscape.org/) -->

<svg
   xmlns:dc="http://purl.org/dc/elements/1.1/"
   xmlns:cc="http://creativecommons.org/ns#"
   xmlns:rdf="http://www.w3.org/1999/02/22-rdf-syntax-ns#"
   xmlns:svg="http://www.w3.org/2000/svg"
   xmlns="http://www.w3.org/2000/svg"
   xmlns:sodipodi="http://sodipodi.sourceforge.net/DTD/sodipodi-0.dtd"
   xmlns:inkscape="http://www.inkscape.org/namespaces/inkscape"
   id="svg2"
   version="1.1"
   inkscape:version="0.48.4 r9939"
   width="128"
   height="15.800277"
   xml:space="preserve"
   sodipodi:docname="logo-arc2.svg"><metadata
     id="metadata8"><rdf:RDF><cc:Work
         rdf:about=""><dc:format>image/svg+xml</dc:format><dc:type
           rdf:resource="http://purl.org/dc/dcmitype/StillImage" /><dc:title /></cc:Work></rdf:RDF></metadata><defs
     id="defs6"><clipPath
       clipPathUnits="userSpaceOnUse"
       id="clipPath16"><path
         d="m 0,114.388 744.307,0 L 744.307,0 0,0 0,114.388 z"
         id="path18"
         inkscape:connector-curvature="0" /></clipPath><clipPath
       clipPathUnits="userSpaceOnUse"
       id="clipPath26"><path
         d="m -432.984,136.39 867.055,0 0,-272.506 -867.055,0 0,272.506 z"
         id="path28"
         inkscape:connector-curvature="0" /></clipPath><clipPath
       clipPathUnits="userSpaceOnUse"
       id="clipPath216"><path
         d="m -221.417,58.1094 22.787,0 0,-22.7862 -22.787,0 0,22.7862 z"
         id="path218"
         inkscape:connector-curvature="0" /></clipPath><clipPath
       clipPathUnits="userSpaceOnUse"
       id="clipPath232"><path
         d="m -221.417,28.6279 22.787,0 0,-22.78659 -22.787,0 0,22.78659 z"
         id="path234"
         inkscape:connector-curvature="0" /></clipPath><clipPath
       clipPathUnits="userSpaceOnUse"
       id="clipPath252"><path
         d="m -377.641,22.1953 22.783,0 0,-22.800479 -22.783,0 0,22.800479 z"
         id="path254"
         inkscape:connector-curvature="0" /></clipPath><clipPath
       clipPathUnits="userSpaceOnUse"
       id="clipPath268"><path
         d="m -355.402,5.08789 22.795,0 0,-22.79449 -22.795,0 0,22.79449 z"
         id="path270"
         inkscape:connector-curvature="0" /></clipPath><clipPath
       clipPathUnits="userSpaceOnUse"
       id="clipPath284"><path
         d="m -327.146,0.25 22.786,0 0,-22.7692 -22.786,0 0,22.7692 z"
         id="path286"
         inkscape:connector-curvature="0" /></clipPath><clipPath
       clipPathUnits="userSpaceOnUse"
       id="clipPath300"><path
         d="m -298.908,5.22754 22.786,0 0,-22.78564 -22.786,0 0,22.78564 z"
         id="path302"
         inkscape:connector-curvature="0" /></clipPath><clipPath
       clipPathUnits="userSpaceOnUse"
       id="clipPath320"><path
         d="m 1.54004,-62.7983 22.78616,0 0,-22.7691 -22.78616,0 0,22.7691 z"
         id="path322"
         inkscape:connector-curvature="0" /></clipPath><clipPath
       clipPathUnits="userSpaceOnUse"
       id="clipPath336"><path
         d="m -82.2307,-61.9741 22.78,0 0,-22.7949 -22.78,0 0,22.7949 z"
         id="path338"
         inkscape:connector-curvature="0" /></clipPath><clipPath
       clipPathUnits="userSpaceOnUse"
       id="clipPath352"><path
         d="m -26.0357,-72.9829 22.78915,0 0,-22.7899 -22.78915,0 0,22.7899 z"
         id="path354"
         inkscape:connector-curvature="0" /></clipPath><clipPath
       clipPathUnits="userSpaceOnUse"
       id="clipPath368"><path
         d="m -55.3891,-73.543 22.7949,0 0,-22.7794 -22.7949,0 0,22.7794 z"
         id="path370"
         inkscape:connector-curvature="0" /></clipPath><clipPath
       clipPathUnits="userSpaceOnUse"
       id="clipPath392"><path
         d="m -221.417,86.8428 22.787,0 0,-22.7866 -22.787,0 0,22.7866 z"
         id="path394"
         inkscape:connector-curvature="0" /></clipPath><clipPath
       clipPathUnits="userSpaceOnUse"
       id="clipPath416"><path
         d="m 0,114.388 744.307,0 L 744.307,0 0,0 0,114.388 z"
         id="path418"
         inkscape:connector-curvature="0" /></clipPath><clipPath
       clipPathUnits="userSpaceOnUse"
       id="clipPath506"><path
         d="m 0,114.388 744.307,0 L 744.307,0 0,0 0,114.388 z"
         id="path508"
         inkscape:connector-curvature="0" /></clipPath><clipPath
       clipPathUnits="userSpaceOnUse"
       id="clipPath516"><path
         d="m -36.6934,36.6934 73.3868,0 0,-73.3868 -73.3868,0 0,73.3868 z"
         id="path518"
         inkscape:connector-curvature="0" /></clipPath></defs><sodipodi:namedview
     pagecolor="#ffffff"
     bordercolor="#666666"
     borderopacity="1"
     objecttolerance="10"
     gridtolerance="10"
     guidetolerance="10"
     inkscape:pageopacity="0"
     inkscape:pageshadow="2"
     inkscape:window-width="1920"
     inkscape:window-height="1052"
     id="namedview4"
     showgrid="false"
     inkscape:zoom="10.74967"
     inkscape:cx="78.22366"
     inkscape:cy="-6.0944277"
     inkscape:window-x="0"
     inkscape:window-y="1050"
     inkscape:window-maximized="1"
     inkscape:current-layer="g10"
     fit-margin-top="0"
     fit-margin-left="0"
     fit-margin-right="0"
     fit-margin-bottom="0" /><g
     id="g10"
     inkscape:groupmode="layer"
     inkscape:label="logo-arc2-cmjn"
     transform="matrix(1.25,0,0,-1.25,-28.735686,39.693471)"><g
       id="g3280"
       transform="matrix(0.16508252,0,0,0.16508252,19.193541,15.959077)"><g
         id="g12"><g
           clip-path="url(#clipPath16)"
           id="g14"><g
             transform="matrix(0.3988037,0,0,-0.3988037,175.50879,57.27002)"
             id="g20"><g
               id="g22"><g
                 clip-path="url(#clipPath26)"
                 id="g24"><g
                   transform="translate(121.937,-64.8408)"
                   id="g30"><path
                     id="path32"
                     style="fill:#401454;fill-opacity:1;fill-rule:nonzero;stroke:none"
                     d="M 0,0 C 1.039,0 2.011,-0.117 2.919,-0.354 3.829,-0.59 4.671,-0.872 5.448,-1.203 5.755,-1.32 5.974,-1.327 6.105,-1.22 6.233,-1.114 6.321,-1.003 6.37,-0.884 L 7.113,0.814 C 7.278,1.144 7.33,1.363 7.271,1.468 7.211,1.575 7.099,1.687 6.936,1.806 5.801,2.49 4.56,2.932 3.202,3.133 1.845,3.332 0.566,3.432 -0.637,3.432 c -1.674,0 -3.173,-0.247 -4.494,-0.743 -1.321,-0.495 -2.44,-1.25 -3.361,-2.263 -0.919,-1.016 -1.623,-2.302 -2.105,-3.858 -0.484,-1.556 -0.728,-3.409 -0.728,-5.555 0,-1.982 0.267,-3.774 0.798,-5.378 0.53,-1.604 1.274,-2.978 2.229,-4.122 0.956,-1.145 2.112,-2.029 3.469,-2.655 1.356,-0.624 2.846,-0.936 4.474,-0.936 0.992,0 2.036,0.087 3.134,0.264 1.097,0.177 2.245,0.571 3.448,1.185 0.143,0.071 0.242,0.172 0.301,0.301 0.058,0.13 0.016,0.324 -0.123,0.584 l -0.886,1.841 c -0.096,0.165 -0.182,0.276 -0.265,0.336 -0.083,0.059 -0.23,0.041 -0.441,-0.055 -0.732,-0.305 -1.523,-0.553 -2.372,-0.742 -0.848,-0.188 -1.734,-0.282 -2.652,-0.282 -1.3,0 -2.415,0.277 -3.344,0.83 -0.933,0.555 -1.693,1.286 -2.284,2.194 -0.589,0.909 -1.025,1.941 -1.308,3.098 -0.285,1.154 -0.424,2.333 -0.424,3.537 0,1.203 0.116,2.346 0.353,3.433 0.236,1.084 0.642,2.04 1.22,2.865 0.578,0.826 1.351,1.481 2.318,1.963 C -2.714,-0.241 -1.488,0 0,0"
                     inkscape:connector-curvature="0" /></g><g
                   transform="translate(151.4111,-74.147)"
                   id="g34"><path
                     id="path36"
                     style="fill:#401454;fill-opacity:1;fill-rule:nonzero;stroke:none"
                     d="m 0,0 c 0,-1.226 -0.094,-2.417 -0.284,-3.572 -0.189,-1.157 -0.531,-2.172 -1.026,-3.045 -0.494,-0.871 -1.185,-1.574 -2.069,-2.105 -0.883,-0.531 -2.034,-0.796 -3.45,-0.796 -1.202,0 -2.248,0.248 -3.131,0.744 -0.884,0.495 -1.616,1.167 -2.193,2.017 -0.581,0.848 -1.016,1.846 -1.31,2.989 -0.296,1.145 -0.442,2.354 -0.442,3.627 0,1.44 0.113,2.748 0.333,3.927 0.227,1.18 0.603,2.189 1.134,3.026 0.532,0.837 1.239,1.486 2.124,1.946 0.884,0.459 1.987,0.689 3.309,0.689 1.343,0 2.466,-0.264 3.36,-0.795 0.896,-0.53 1.616,-1.232 2.16,-2.106 0.54,-0.873 0.924,-1.875 1.15,-3.007 C -0.112,2.407 0,1.227 0,0 m 3.715,-0.141 c 0,4.152 -0.906,7.337 -2.726,9.553 -1.815,2.218 -4.491,3.326 -8.031,3.326 -3.466,0 -6.091,-1.066 -7.872,-3.201 -1.78,-2.135 -2.673,-5.314 -2.673,-9.537 0,-2.051 0.275,-3.874 0.815,-5.466 0.542,-1.593 1.29,-2.93 2.247,-4.016 0.953,-1.084 2.083,-1.911 3.379,-2.477 1.296,-0.565 2.702,-0.849 4.211,-0.849 1.745,0 3.279,0.289 4.6,0.867 1.32,0.578 2.429,1.415 3.324,2.512 0.898,1.097 1.576,2.423 2.036,3.981 0.459,1.556 0.69,3.326 0.69,5.307"
                     inkscape:connector-curvature="0" /></g><g
                   transform="translate(181.6284,-80.0557)"
                   id="g38"><path
                     id="path40"
                     style="fill:#401454;fill-opacity:1;fill-rule:nonzero;stroke:none"
                     d="M 0,0 -0.212,0 -2.234,5.273 -5.638,13.8 c -0.237,0.614 -0.479,1.026 -0.727,1.239 -0.249,0.211 -0.68,0.317 -1.295,0.317 l -1.345,0 c -0.618,0 -1.046,-0.106 -1.297,-0.317 -0.247,-0.213 -0.489,-0.625 -0.727,-1.239 l -3.439,-8.387 -1.988,-4.988 -0.211,0 0,17.09 c 0,0.331 -0.058,0.537 -0.174,0.619 -0.118,0.083 -0.328,0.124 -0.631,0.124 l -1.857,0 c -0.255,0 -0.455,-0.041 -0.594,-0.124 -0.141,-0.082 -0.21,-0.288 -0.21,-0.619 l 0,-22.114 c 0,-0.615 0.129,-1.092 0.388,-1.433 0.26,-0.342 0.764,-0.514 1.52,-0.514 l 1.093,0 c 0.543,0 0.968,0.095 1.272,0.284 0.308,0.188 0.589,0.602 0.85,1.237 l 4.558,11.535 2.049,5.379 0.14,0 2.013,-5.272 4.595,-11.642 c 0.259,-0.635 0.541,-1.049 0.848,-1.237 0.304,-0.189 0.729,-0.284 1.271,-0.284 l 1.096,0 c 0.753,0 1.259,0.172 1.52,0.514 0.256,0.341 0.386,0.818 0.386,1.433 l 0,22.114 c 0,0.331 -0.058,0.537 -0.175,0.619 -0.116,0.083 -0.326,0.124 -0.629,0.124 l -1.856,0 C 0.548,18.258 0.35,18.217 0.209,18.134 0.07,18.052 0,17.846 0,17.515 L 0,0 z"
                     inkscape:connector-curvature="0" /></g><g
                   transform="translate(212.3398,-80.0557)"
                   id="g42"><path
                     id="path44"
                     style="fill:#401454;fill-opacity:1;fill-rule:nonzero;stroke:none"
                     d="m 0,0 -0.213,0 -2.02,5.273 -3.404,8.527 c -0.235,0.614 -0.479,1.026 -0.729,1.239 -0.244,0.211 -0.678,0.317 -1.293,0.317 l -1.347,0 c -0.616,0 -1.048,-0.106 -1.294,-0.317 -0.249,-0.213 -0.492,-0.625 -0.727,-1.239 l -3.439,-8.387 -1.986,-4.988 -0.213,0 0,17.09 c 0,0.331 -0.06,0.537 -0.175,0.619 -0.118,0.083 -0.328,0.124 -0.631,0.124 l -1.856,0 c -0.256,0 -0.456,-0.041 -0.594,-0.124 -0.142,-0.082 -0.212,-0.288 -0.212,-0.619 l 0,-22.114 c 0,-0.615 0.129,-1.092 0.388,-1.433 0.259,-0.342 0.767,-0.514 1.52,-0.514 l 1.097,0 c 0.54,0 0.963,0.095 1.271,0.284 0.305,0.188 0.587,0.602 0.846,1.237 l 4.559,11.535 2.049,5.379 0.14,0 2.015,-5.272 4.592,-11.642 c 0.26,-0.635 0.545,-1.049 0.848,-1.237 0.307,-0.189 0.732,-0.284 1.273,-0.284 l 1.096,0 c 0.752,0 1.259,0.172 1.519,0.514 0.258,0.341 0.388,0.818 0.388,1.433 l 0,22.114 c 0,0.331 -0.058,0.537 -0.174,0.619 -0.119,0.083 -0.329,0.124 -0.63,0.124 l -1.859,0 C 0.548,18.258 0.351,18.217 0.21,18.134 0.069,18.052 0,17.846 0,17.515 L 0,0 z"
                     inkscape:connector-curvature="0" /></g><g
                   transform="translate(222.8848,-85.8228)"
                   id="g46"><path
                     id="path48"
                     style="fill:#401454;fill-opacity:1;fill-rule:nonzero;stroke:none"
                     d="m 0,0 c 0,-0.33 0.07,-0.536 0.213,-0.619 0.141,-0.083 0.342,-0.124 0.601,-0.124 l 2.122,0 c 0.308,0 0.519,0.041 0.637,0.124 C 3.692,-0.536 3.751,-0.33 3.751,0 l 0,13.127 c 0,1.367 0.088,2.555 0.265,3.557 0.176,1.002 0.518,1.839 1.027,2.512 0.506,0.672 1.237,1.173 2.193,1.504 0.955,0.329 2.211,0.494 3.768,0.494 0.401,0 0.979,-0.017 1.733,-0.052 0.755,-0.035 1.617,-0.148 2.585,-0.336 L 15.322,0 c 0,-0.33 0.07,-0.536 0.21,-0.619 0.142,-0.083 0.342,-0.124 0.602,-0.124 l 2.123,0 c 0.307,0 0.496,0.041 0.567,0.124 0.071,0.083 0.106,0.289 0.106,0.619 l 0,20.593 c 0,0.945 -0.206,1.711 -0.619,2.3 -0.413,0.59 -1.173,0.979 -2.284,1.167 -0.896,0.142 -1.802,0.242 -2.723,0.3 -0.919,0.061 -1.758,0.09 -2.512,0.09 -1.958,0 -3.622,-0.189 -4.99,-0.566 C 4.434,23.506 3.326,22.882 2.477,22.009 1.628,21.136 1.007,19.98 0.619,18.541 0.231,17.101 0.036,15.321 0.036,13.198 L 0,0 z"
                     inkscape:connector-curvature="0" /></g><g
                   transform="translate(264.7783,-85.8589)"
                   id="g50"><path
                     id="path52"
                     style="fill:#401454;fill-opacity:1;fill-rule:nonzero;stroke:none"
                     d="m 0,0 c 0,-0.329 0.07,-0.536 0.213,-0.619 0.142,-0.082 0.343,-0.124 0.602,-0.124 l 1.945,0 c 0.308,0 0.519,0.042 0.637,0.124 0.119,0.083 0.177,0.29 0.177,0.619 l 0,22.116 c 0,0.66 -0.136,1.149 -0.406,1.467 -0.271,0.319 -0.774,0.478 -1.504,0.478 l -1.061,0 c -0.567,0 -0.98,-0.118 -1.241,-0.354 -0.259,-0.235 -0.554,-0.625 -0.883,-1.168 l -7.784,-12.985 -2.902,-5.025 -0.105,0 0,18.789 c 0,0.331 -0.06,0.537 -0.179,0.619 -0.118,0.083 -0.328,0.124 -0.635,0.124 l -1.947,0 c -0.259,0 -0.46,-0.041 -0.602,-0.124 -0.141,-0.082 -0.212,-0.288 -0.212,-0.619 l 0,-22.114 c 0,-0.66 0.136,-1.15 0.407,-1.468 0.272,-0.319 0.772,-0.479 1.504,-0.479 l 1.062,0 c 0.567,0 0.976,0.119 1.236,0.354 0.261,0.236 0.557,0.625 0.885,1.167 L -3.114,13.623 -0.106,18.79 0,18.79 0,0 z"
                     inkscape:connector-curvature="0" /></g><g
                   transform="translate(285.4775,-77.438)"
                   id="g54"><path
                     id="path56"
                     style="fill:#401454;fill-opacity:1;fill-rule:nonzero;stroke:none"
                     d="m 0,0 -1.594,-5.024 -0.174,0 -1.487,4.848 -2.158,7.006 7.571,0 L 0,0 z M 5.838,15.64 C 5.578,15.64 5.379,15.617 5.236,15.57 5.095,15.523 4.978,15.357 4.881,15.073 L 3.22,10.05 l -9.589,0 -1.662,5.023 c -0.071,0.191 -0.168,0.332 -0.283,0.426 -0.12,0.095 -0.306,0.141 -0.568,0.141 l -2.724,0 c -0.259,0 -0.423,-0.076 -0.496,-0.23 -0.071,-0.152 -0.071,-0.323 0,-0.512 l 7.855,-22.541 c 0.212,-0.613 0.449,-1.019 0.708,-1.22 0.259,-0.2 0.697,-0.312 1.309,-0.336 l 1.17,0 c 0.707,0 1.189,0.113 1.447,0.336 0.26,0.225 0.486,0.632 0.675,1.22 l 7.89,22.541 c 0.069,0.189 0.069,0.36 0,0.512 -0.069,0.154 -0.224,0.23 -0.459,0.23 l -2.655,0 z"
                     inkscape:connector-curvature="0" /></g><g
                   transform="translate(299.417,-85.8228)"
                   id="g58"><path
                     id="path60"
                     style="fill:#401454;fill-opacity:1;fill-rule:nonzero;stroke:none"
                     d="m 0,0 c 0,-0.33 0.072,-0.536 0.213,-0.619 0.143,-0.083 0.342,-0.124 0.602,-0.124 l 2.124,0 c 0.307,0 0.517,0.041 0.636,0.124 C 3.692,-0.536 3.754,-0.33 3.754,0 l 0,13.127 c 0,1.367 0.088,2.555 0.261,3.557 0.181,1.002 0.522,1.839 1.029,2.512 0.507,0.672 1.239,1.173 2.192,1.504 0.957,0.329 2.212,0.494 3.77,0.494 0.401,0 0.978,-0.017 1.733,-0.052 0.756,-0.035 1.618,-0.148 2.585,-0.336 L 15.324,0 c 0,-0.33 0.07,-0.536 0.211,-0.619 0.14,-0.083 0.342,-0.124 0.602,-0.124 l 2.123,0 c 0.308,0 0.494,0.041 0.567,0.124 0.069,0.083 0.106,0.289 0.106,0.619 l 0,20.593 c 0,0.945 -0.208,1.711 -0.621,2.3 -0.411,0.59 -1.174,0.979 -2.281,1.167 -0.897,0.142 -1.805,0.242 -2.724,0.3 -0.922,0.061 -1.759,0.09 -2.513,0.09 -1.958,0 -3.622,-0.189 -4.989,-0.566 C 4.437,23.506 3.327,22.882 2.478,22.009 1.629,21.136 1.009,19.98 0.622,18.541 0.232,17.101 0.039,15.321 0.039,13.198 L 0,0 z"
                     inkscape:connector-curvature="0" /></g><g
                   transform="translate(330.6279,-83.3457)"
                   id="g62"><path
                     id="path64"
                     style="fill:#401454;fill-opacity:1;fill-rule:nonzero;stroke:none"
                     d="m 0,0 -6.76,0 c -0.26,0 -0.418,-0.047 -0.477,-0.142 -0.061,-0.094 -0.087,-0.248 -0.087,-0.46 l 0,-1.982 c 0,-0.212 0.026,-0.372 0.087,-0.478 0.059,-0.106 0.217,-0.158 0.477,-0.158 l 17.443,0 c 0.26,0 0.42,0.052 0.48,0.158 0.057,0.106 0.087,0.266 0.087,0.478 l 0,1.982 c 0,0.212 -0.03,0.366 -0.087,0.46 C 11.103,-0.047 10.943,0 10.683,0 l -6.935,0 0,20.805 c 0,0.331 -0.058,0.537 -0.177,0.619 -0.117,0.083 -0.33,0.124 -0.635,0.124 l -2.123,0 c -0.26,0 -0.462,-0.041 -0.601,-0.124 C 0.07,21.342 0,21.136 0,20.805 L 0,0 z"
                     inkscape:connector-curvature="0" /></g><g
                   transform="translate(353.6963,-89.3623)"
                   id="g66"><path
                     id="path68"
                     style="fill:#401454;fill-opacity:1;fill-rule:nonzero;stroke:none"
                     d="m 0,0 c -0.118,-0.141 -0.172,-0.259 -0.158,-0.353 0.011,-0.095 0.109,-0.211 0.301,-0.353 l 5.094,-3.752 c 0.117,-0.093 0.235,-0.152 0.354,-0.176 0.116,-0.023 0.259,0.059 0.423,0.247 l 1.627,2.265 c 0.144,0.142 0.194,0.266 0.161,0.371 -0.036,0.106 -0.113,0.185 -0.232,0.23 L 1.558,1.169 C 1.323,1.264 1.143,1.292 1.025,1.257 0.909,1.222 0.79,1.145 0.673,1.027 L 0,0 z m 9.872,26.751 c 0,0.26 -0.041,0.459 -0.125,0.602 -0.082,0.141 -0.287,0.211 -0.62,0.211 l -9.835,0 c -1.204,0 -2.2,-0.17 -2.99,-0.512 -0.791,-0.341 -1.421,-0.796 -1.894,-1.364 -0.471,-0.566 -0.801,-1.226 -0.989,-1.98 -0.19,-0.755 -0.284,-1.544 -0.284,-2.371 l 0,-12.313 c 0,-0.825 0.112,-1.616 0.336,-2.371 0.224,-0.754 0.583,-1.42 1.08,-1.999 0.495,-0.578 1.132,-1.038 1.909,-1.38 0.78,-0.341 1.724,-0.513 2.832,-0.513 l 9.696,0 c 0.328,0 0.535,0.07 0.619,0.213 0.081,0.14 0.122,0.341 0.122,0.601 l 0,1.697 c 0,0.309 -0.041,0.514 -0.122,0.62 -0.084,0.106 -0.291,0.16 -0.619,0.16 l -9.696,0 c -0.895,0 -1.54,0.194 -1.929,0.584 -0.39,0.388 -0.584,1.008 -0.584,1.858 l 0,4.352 11.039,0 c 0.308,0 0.503,0.058 0.585,0.176 0.082,0.119 0.123,0.33 0.123,0.637 l 0,1.486 c 0,0.26 -0.041,0.46 -0.123,0.602 -0.082,0.142 -0.277,0.211 -0.585,0.211 l -11.039,0 0,5.874 c 0,0.709 0.194,1.287 0.584,1.734 0.389,0.449 1.034,0.673 1.929,0.673 l 9.835,0 c 0.333,0 0.538,0.059 0.62,0.176 0.084,0.119 0.125,0.333 0.125,0.638 l 0,1.698 z"
                     inkscape:connector-curvature="0" /></g><g
                   transform="translate(386.1421,-68.521)"
                   id="g70"><path
                     id="path72"
                     style="fill:#401454;fill-opacity:1;fill-rule:nonzero;stroke:none"
                     d="m 0,0 c 0,1.227 -0.228,2.289 -0.69,3.185 -0.46,0.896 -1.084,1.633 -1.873,2.211 -0.793,0.58 -1.713,1.008 -2.763,1.292 -1.049,0.284 -2.163,0.424 -3.342,0.424 -1.462,0 -2.996,-0.123 -4.602,-0.37 -1.602,-0.249 -3.112,-0.726 -4.528,-1.434 -0.283,-0.118 -0.342,-0.365 -0.178,-0.744 l 0.958,-2.157 c 0.14,-0.283 0.352,-0.366 0.636,-0.248 2.549,1.109 4.906,1.662 7.079,1.662 1.978,0 3.4,-0.336 4.26,-1.008 0.862,-0.672 1.293,-1.561 1.293,-2.671 0,-0.566 -0.12,-1.067 -0.353,-1.504 -0.239,-0.435 -0.585,-0.838 -1.045,-1.203 -0.459,-0.365 -1.026,-0.707 -1.698,-1.027 -0.672,-0.318 -1.457,-0.654 -2.352,-1.007 -1.323,-0.518 -2.478,-1.027 -3.47,-1.523 -0.991,-0.495 -1.822,-1.024 -2.495,-1.592 -0.67,-0.565 -1.178,-1.189 -1.521,-1.873 -0.341,-0.685 -0.512,-1.475 -0.512,-2.372 0,-1.957 0.649,-3.532 1.946,-4.724 1.298,-1.191 3.231,-1.787 5.802,-1.787 0.593,0 1.227,0.031 1.91,0.089 0.685,0.059 1.364,0.147 2.036,0.265 0.671,0.119 1.329,0.266 1.965,0.443 0.635,0.177 1.226,0.384 1.77,0.618 0.282,0.141 0.364,0.343 0.246,0.602 l -0.814,2.265 c -0.071,0.189 -0.141,0.295 -0.211,0.318 -0.072,0.024 -0.167,0.012 -0.284,-0.035 -1.203,-0.425 -2.391,-0.737 -3.555,-0.938 -1.169,-0.2 -2.235,-0.301 -3.203,-0.301 -1.345,0 -2.336,0.284 -2.973,0.849 -0.635,0.567 -0.954,1.252 -0.954,2.052 0,0.52 0.123,0.974 0.371,1.364 0.249,0.389 0.63,0.76 1.151,1.113 0.517,0.355 1.167,0.709 1.943,1.063 0.78,0.353 1.699,0.755 2.761,1.202 0.897,0.377 1.782,0.774 2.653,1.186 0.873,0.413 1.652,0.902 2.335,1.467 0.685,0.567 1.241,1.239 1.665,2.019 C -0.213,-2.051 0,-1.108 0,0"
                     inkscape:connector-curvature="0" /></g><g
                   transform="translate(127.7974,-24.7437)"
                   id="g74"><path
                     id="path76"
                     style="fill:#401454;fill-opacity:1;fill-rule:nonzero;stroke:none"
                     d="m 0,0 c 0,-1.25 -0.125,-2.424 -0.372,-3.522 -0.249,-1.095 -0.662,-2.051 -1.239,-2.864 -0.58,-0.815 -1.357,-1.457 -2.337,-1.928 -0.976,-0.472 -2.186,-0.709 -3.625,-0.709 l -4.493,0 0,18.189 4.599,0 c 1.438,0 2.636,-0.231 3.591,-0.691 C -2.919,8.014 -2.152,7.376 -1.573,6.564 -0.998,5.751 -0.591,4.783 -0.355,3.661 -0.119,2.542 0,1.323 0,0 m -13.872,12.491 c -0.686,0 -1.173,-0.148 -1.467,-0.443 -0.295,-0.294 -0.443,-0.783 -0.443,-1.467 l 0,-20.984 c 0,-0.682 0.148,-1.173 0.443,-1.468 0.294,-0.294 0.781,-0.443 1.467,-0.443 l 6.475,-0.035 c 1.839,0 3.449,0.284 4.83,0.85 1.381,0.565 2.542,1.385 3.487,2.459 0.941,1.074 1.652,2.37 2.122,3.892 0.473,1.521 0.707,3.214 0.707,5.078 0,1.84 -0.211,3.532 -0.636,5.076 -0.426,1.546 -1.078,2.873 -1.964,3.982 -0.884,1.108 -2.006,1.969 -3.361,2.582 -1.357,0.615 -2.968,0.921 -4.829,0.921 l -6.831,0 z"
                     inkscape:connector-curvature="0" /></g><g
                   transform="translate(154.5278,-12.4648)"
                   id="g78"><path
                     id="path80"
                     style="fill:#401454;fill-opacity:1;fill-rule:nonzero;stroke:none"
                     d="m 0,0 c -0.083,0.141 -0.288,0.212 -0.619,0.212 l -9.837,0 c -1.201,0 -2.197,-0.172 -2.988,-0.513 -0.792,-0.342 -1.422,-0.796 -1.892,-1.362 -0.473,-0.566 -0.803,-1.227 -0.993,-1.982 -0.187,-0.755 -0.283,-1.544 -0.283,-2.371 l 0,-12.313 c 0,-0.825 0.111,-1.616 0.336,-2.37 0.224,-0.756 0.584,-1.422 1.078,-2 0.496,-0.577 1.134,-1.038 1.91,-1.38 0.781,-0.342 1.724,-0.514 2.832,-0.514 l 9.696,0 c 0.33,0 0.537,0.072 0.619,0.214 0.082,0.14 0.123,0.342 0.123,0.601 l 0,1.698 c 0,0.307 -0.041,0.514 -0.123,0.62 -0.082,0.106 -0.289,0.158 -0.619,0.158 l -9.696,0 c -0.896,0 -1.539,0.195 -1.929,0.585 -0.387,0.388 -0.582,1.007 -0.582,1.858 l 0,4.351 11.038,0 c 0.308,0 0.504,0.06 0.584,0.176 0.083,0.119 0.126,0.332 0.126,0.638 l 0,1.486 c 0,0.26 -0.043,0.46 -0.126,0.602 -0.08,0.142 -0.276,0.213 -0.584,0.213 l -11.038,0 0,5.873 c 0,0.707 0.195,1.286 0.582,1.734 0.39,0.449 1.033,0.673 1.929,0.673 l 9.837,0 c 0.331,0 0.536,0.058 0.619,0.176 0.084,0.117 0.125,0.331 0.125,0.637 l 0,1.698 C 0.125,-0.342 0.084,-0.142 0,0"
                     inkscape:connector-curvature="0" /></g><g
                   transform="translate(189.0005,-29.8745)"
                   id="g82"><path
                     id="path84"
                     style="fill:#401454;fill-opacity:1;fill-rule:nonzero;stroke:none"
                     d="m 0,0 c 0,-0.376 -0.054,-0.79 -0.162,-1.239 -0.104,-0.446 -0.317,-0.866 -0.634,-1.255 -0.318,-0.388 -0.761,-0.714 -1.327,-0.973 -0.567,-0.259 -1.308,-0.388 -2.23,-0.388 l -5.874,0 0,7.818 5.592,0 c 0.848,0 1.562,-0.105 2.139,-0.319 0.578,-0.211 1.057,-0.501 1.433,-0.866 0.379,-0.365 0.649,-0.79 0.815,-1.275 C -0.082,1.021 0,0.52 0,0 m -14.012,-5.307 c 0,-0.683 0.146,-1.173 0.443,-1.468 0.295,-0.294 0.782,-0.443 1.467,-0.443 l 8.14,0 c 1.132,0 2.162,0.172 3.094,0.512 0.932,0.344 1.734,0.827 2.405,1.452 0.674,0.625 1.198,1.376 1.576,2.247 0.377,0.872 0.566,1.828 0.566,2.866 0,1.414 -0.353,2.642 -1.062,3.68 -0.706,1.037 -1.65,1.793 -2.83,2.265 l 0,0.176 C 0.284,6.122 0.69,6.304 1.008,6.528 1.326,6.754 1.596,7.012 1.822,7.307 2.045,7.602 2.228,7.926 2.37,8.281 2.512,8.634 2.642,9.024 2.758,9.448 l 2.054,7.467 c 0.047,0.116 0.052,0.264 0.018,0.441 -0.037,0.176 -0.207,0.266 -0.513,0.266 l -2.655,0 C 1.545,17.622 1.415,17.598 1.273,17.551 1.131,17.503 1.024,17.362 0.957,17.126 L -0.85,10.438 C -1.227,9.118 -1.822,8.233 -2.635,7.785 -3.451,7.337 -4.437,7.113 -5.592,7.113 l -4.669,0 0,9.765 c 0,0.332 -0.059,0.537 -0.177,0.619 -0.118,0.084 -0.332,0.125 -0.636,0.125 l -2.125,0 c -0.258,0 -0.46,-0.041 -0.6,-0.125 -0.144,-0.082 -0.213,-0.287 -0.213,-0.619 l 0,-22.185 z"
                     inkscape:connector-curvature="0" /></g><g
                   transform="translate(215.7671,-12.4648)"
                   id="g86"><path
                     id="path88"
                     style="fill:#401454;fill-opacity:1;fill-rule:nonzero;stroke:none"
                     d="m 0,0 c -0.083,0.141 -0.288,0.212 -0.62,0.212 l -9.837,0 c -1.202,0 -2.199,-0.172 -2.989,-0.513 -0.791,-0.342 -1.421,-0.796 -1.894,-1.362 -0.47,-0.566 -0.801,-1.227 -0.989,-1.982 -0.188,-0.755 -0.283,-1.544 -0.283,-2.371 l 0,-12.313 c 0,-0.825 0.112,-1.616 0.334,-2.37 0.225,-0.756 0.586,-1.422 1.081,-2 0.495,-0.577 1.131,-1.038 1.91,-1.38 0.78,-0.342 1.724,-0.514 2.83,-0.514 l 9.697,0 c 0.329,0 0.535,0.072 0.62,0.214 0.079,0.14 0.121,0.342 0.121,0.601 l 0,1.698 c 0,0.307 -0.042,0.514 -0.121,0.62 -0.085,0.106 -0.291,0.158 -0.62,0.158 l -9.697,0 c -0.895,0 -1.538,0.195 -1.928,0.585 -0.388,0.388 -0.582,1.007 -0.582,1.858 l 0,4.351 11.038,0 c 0.308,0 0.504,0.06 0.586,0.176 0.082,0.119 0.122,0.332 0.122,0.638 l 0,1.486 c 0,0.26 -0.04,0.46 -0.122,0.602 -0.082,0.142 -0.278,0.213 -0.586,0.213 l -11.038,0 0,5.873 c 0,0.707 0.194,1.286 0.582,1.734 0.39,0.449 1.033,0.673 1.928,0.673 l 9.837,0 c 0.332,0 0.537,0.058 0.62,0.176 0.083,0.117 0.124,0.331 0.124,0.637 l 0,1.698 C 0.124,-0.342 0.083,-0.142 0,0"
                     inkscape:connector-curvature="0" /></g><g
                   transform="translate(232.3447,-15.2954)"
                   id="g90"><path
                     id="path92"
                     style="fill:#401454;fill-opacity:1;fill-rule:nonzero;stroke:none"
                     d="m 0,0 c 1.037,0 2.013,-0.119 2.919,-0.355 0.907,-0.236 1.752,-0.518 2.528,-0.848 0.307,-0.118 0.526,-0.125 0.656,-0.018 0.131,0.106 0.218,0.218 0.266,0.336 L 7.112,0.813 C 7.275,1.143 7.33,1.362 7.271,1.468 7.213,1.575 7.1,1.686 6.935,1.804 5.801,2.488 4.559,2.931 3.201,3.131 c -1.356,0.2 -2.635,0.3 -3.837,0.3 -1.676,0 -3.174,-0.247 -4.496,-0.743 -1.32,-0.495 -2.44,-1.25 -3.36,-2.264 -0.919,-1.015 -1.623,-2.3 -2.105,-3.857 -0.486,-1.557 -0.727,-3.408 -0.727,-5.556 0,-1.98 0.266,-3.774 0.797,-5.378 0.531,-1.604 1.273,-2.977 2.23,-4.122 0.954,-1.143 2.109,-2.027 3.466,-2.654 1.356,-0.624 2.849,-0.937 4.477,-0.937 0.992,0 2.034,0.088 3.131,0.266 1.098,0.175 2.246,0.571 3.45,1.185 0.142,0.071 0.241,0.171 0.3,0.301 0.06,0.129 0.019,0.324 -0.123,0.584 l -0.886,1.839 c -0.093,0.165 -0.18,0.279 -0.263,0.337 -0.084,0.059 -0.232,0.042 -0.445,-0.053 -0.729,-0.307 -1.519,-0.555 -2.369,-0.742 -0.85,-0.19 -1.733,-0.285 -2.654,-0.285 -1.298,0 -2.411,0.277 -3.343,0.832 -0.933,0.554 -1.691,1.286 -2.282,2.194 -0.589,0.907 -1.027,1.94 -1.311,3.095 -0.284,1.158 -0.423,2.336 -0.423,3.538 0,1.203 0.118,2.349 0.354,3.434 0.235,1.084 0.641,2.04 1.221,2.866 0.578,0.824 1.351,1.479 2.317,1.963 C -2.714,-0.242 -1.487,0 0,0"
                     inkscape:connector-curvature="0" /></g><g
                   transform="translate(260.5103,-36.2788)"
                   id="g94"><path
                     id="path96"
                     style="fill:#401454;fill-opacity:1;fill-rule:nonzero;stroke:none"
                     d="m 0,0 c 0,-0.33 0.069,-0.535 0.212,-0.619 0.141,-0.083 0.341,-0.124 0.603,-0.124 l 2.049,0 c 0.307,0 0.52,0.041 0.638,0.124 C 3.621,-0.535 3.679,-0.33 3.679,0 l 0,23.282 c 0,0.332 -0.058,0.537 -0.177,0.619 -0.118,0.084 -0.331,0.125 -0.638,0.125 l -2.049,0 C 0.553,24.026 0.353,23.985 0.212,23.901 0.069,23.819 0,23.614 0,23.282 l 0,-10.72 -11.889,0 0,10.72 c 0,0.332 -0.06,0.537 -0.178,0.619 -0.117,0.084 -0.329,0.125 -0.637,0.125 l -2.051,0 c -0.259,0 -0.461,-0.041 -0.601,-0.125 -0.144,-0.082 -0.212,-0.287 -0.212,-0.619 l 0,-23.282 c 0,-0.33 0.068,-0.535 0.212,-0.619 0.14,-0.083 0.342,-0.124 0.601,-0.124 l 2.051,0 c 0.308,0 0.52,0.041 0.637,0.124 0.118,0.084 0.178,0.289 0.178,0.619 l 0,9.414 L 0,9.414 0,0 z"
                     inkscape:connector-curvature="0" /></g><g
                   transform="translate(287.8789,-12.4648)"
                   id="g98"><path
                     id="path100"
                     style="fill:#401454;fill-opacity:1;fill-rule:nonzero;stroke:none"
                     d="m 0,0 c -0.085,0.141 -0.291,0.212 -0.622,0.212 l -9.834,0 c -1.203,0 -2.2,-0.172 -2.99,-0.513 -0.789,-0.342 -1.423,-0.796 -1.894,-1.362 -0.473,-0.566 -0.8,-1.227 -0.991,-1.982 -0.189,-0.755 -0.283,-1.544 -0.283,-2.371 l 0,-12.313 c 0,-0.825 0.112,-1.616 0.338,-2.37 0.221,-0.756 0.582,-1.422 1.078,-2 0.495,-0.577 1.133,-1.038 1.91,-1.38 0.777,-0.342 1.721,-0.514 2.832,-0.514 l 9.693,0 c 0.331,0 0.536,0.072 0.619,0.214 0.083,0.14 0.123,0.342 0.123,0.601 l 0,1.698 c 0,0.307 -0.04,0.514 -0.123,0.62 -0.083,0.106 -0.288,0.158 -0.619,0.158 l -9.693,0 c -0.899,0 -1.539,0.195 -1.93,0.585 -0.387,0.388 -0.583,1.007 -0.583,1.858 l 0,4.351 11.039,0 c 0.306,0 0.501,0.06 0.585,0.176 0.081,0.119 0.124,0.332 0.124,0.638 l 0,1.486 c 0,0.26 -0.043,0.46 -0.124,0.602 -0.084,0.142 -0.279,0.213 -0.585,0.213 l -11.039,0 0,5.873 c 0,0.707 0.196,1.286 0.583,1.734 0.391,0.449 1.031,0.673 1.93,0.673 l 9.834,0 c 0.331,0 0.537,0.058 0.622,0.176 0.081,0.117 0.123,0.331 0.123,0.637 l 0,1.698 C 0.123,-0.342 0.081,-0.142 0,0"
                     inkscape:connector-curvature="0" /></g><g
                   transform="translate(307.853,-29.8745)"
                   id="g102"><path
                     id="path104"
                     style="fill:#401454;fill-opacity:1;fill-rule:nonzero;stroke:none"
                     d="m 0,0 c 0,-0.376 -0.056,-0.79 -0.161,-1.239 -0.106,-0.446 -0.317,-0.866 -0.634,-1.255 -0.321,-0.388 -0.764,-0.714 -1.33,-0.973 -0.565,-0.259 -1.309,-0.388 -2.229,-0.388 l -5.873,0 0,7.818 5.59,0 c 0.849,0 1.562,-0.105 2.142,-0.319 0.578,-0.211 1.054,-0.501 1.432,-0.866 0.378,-0.365 0.649,-0.79 0.812,-1.275 C -0.084,1.021 0,0.52 0,0 m -14.014,-5.307 c 0,-0.683 0.146,-1.173 0.443,-1.468 0.296,-0.294 0.784,-0.443 1.467,-0.443 l 8.14,0 c 1.132,0 2.163,0.172 3.096,0.512 0.93,0.344 1.733,0.827 2.406,1.452 0.674,0.625 1.195,1.376 1.576,2.247 0.376,0.872 0.562,1.828 0.562,2.866 0,1.414 -0.35,2.642 -1.057,3.68 -0.707,1.037 -1.653,1.793 -2.833,2.265 l 0,0.176 c 0.495,0.142 0.903,0.324 1.222,0.548 0.319,0.226 0.589,0.484 0.814,0.779 0.222,0.295 0.406,0.619 0.546,0.974 0.145,0.353 0.272,0.743 0.39,1.167 l 2.053,7.467 c 0.046,0.116 0.052,0.264 0.019,0.441 -0.038,0.176 -0.21,0.266 -0.514,0.266 l -2.654,0 C 1.543,17.622 1.415,17.598 1.271,17.551 1.131,17.503 1.026,17.362 0.954,17.126 L -0.852,10.438 C -1.227,9.118 -1.824,8.233 -2.636,7.785 -3.453,7.337 -4.438,7.113 -5.592,7.113 l -4.671,0 0,9.765 c 0,0.332 -0.059,0.537 -0.175,0.619 -0.12,0.084 -0.331,0.125 -0.638,0.125 l -2.124,0 c -0.259,0 -0.459,-0.041 -0.601,-0.125 -0.14,-0.082 -0.213,-0.287 -0.213,-0.619 l 0,-22.185 z"
                     inkscape:connector-curvature="0" /></g><g
                   transform="translate(328.6191,-15.2954)"
                   id="g106"><path
                     id="path108"
                     style="fill:#401454;fill-opacity:1;fill-rule:nonzero;stroke:none"
                     d="m 0,0 c 1.041,0 2.016,-0.119 2.923,-0.355 0.907,-0.236 1.75,-0.518 2.529,-0.848 0.305,-0.118 0.524,-0.125 0.654,-0.018 0.129,0.106 0.219,0.218 0.265,0.336 L 7.114,0.813 C 7.279,1.143 7.334,1.362 7.276,1.468 7.215,1.575 7.102,1.686 6.937,1.804 5.805,2.488 4.561,2.931 3.204,3.131 c -1.357,0.2 -2.635,0.3 -3.839,0.3 -1.674,0 -3.171,-0.247 -4.494,-0.743 -1.321,-0.495 -2.44,-1.25 -3.36,-2.264 -0.919,-1.015 -1.623,-2.3 -2.104,-3.857 -0.486,-1.557 -0.728,-3.408 -0.728,-5.556 0,-1.98 0.265,-3.774 0.796,-5.378 0.533,-1.604 1.274,-2.977 2.232,-4.122 0.954,-1.143 2.108,-2.027 3.465,-2.654 1.357,-0.624 2.849,-0.937 4.478,-0.937 0.991,0 2.033,0.088 3.131,0.266 1.096,0.175 2.245,0.571 3.448,1.185 0.142,0.071 0.243,0.171 0.301,0.301 0.061,0.129 0.019,0.324 -0.124,0.584 l -0.884,1.839 c -0.095,0.165 -0.182,0.279 -0.264,0.337 -0.085,0.059 -0.232,0.042 -0.442,-0.053 -0.733,-0.307 -1.523,-0.555 -2.371,-0.742 -0.85,-0.19 -1.734,-0.285 -2.655,-0.285 -1.297,0 -2.411,0.277 -3.343,0.832 -0.933,0.554 -1.692,1.286 -2.283,2.194 -0.588,0.907 -1.026,1.94 -1.309,3.095 -0.285,1.158 -0.424,2.336 -0.424,3.538 0,1.203 0.118,2.349 0.353,3.434 0.236,1.084 0.643,2.04 1.223,2.866 0.577,0.824 1.35,1.479 2.317,1.963 C -2.711,-0.242 -1.483,0 0,0"
                     inkscape:connector-curvature="0" /></g><g
                   transform="translate(356.7881,-36.2788)"
                   id="g110"><path
                     id="path112"
                     style="fill:#401454;fill-opacity:1;fill-rule:nonzero;stroke:none"
                     d="m 0,0 c 0,-0.33 0.069,-0.535 0.212,-0.619 0.141,-0.083 0.341,-0.124 0.602,-0.124 l 2.05,0 c 0.308,0 0.519,0.041 0.637,0.124 C 3.618,-0.535 3.679,-0.33 3.679,0 l 0,23.282 c 0,0.332 -0.061,0.537 -0.178,0.619 -0.118,0.084 -0.329,0.125 -0.637,0.125 l -2.05,0 C 0.553,24.026 0.353,23.985 0.212,23.901 0.069,23.819 0,23.614 0,23.282 l 0,-10.72 -11.892,0 0,10.72 c 0,0.332 -0.057,0.537 -0.175,0.619 -0.118,0.084 -0.33,0.125 -0.637,0.125 l -2.051,0 c -0.26,0 -0.462,-0.041 -0.602,-0.125 -0.143,-0.082 -0.211,-0.287 -0.211,-0.619 l 0,-23.282 c 0,-0.33 0.068,-0.535 0.211,-0.619 0.14,-0.083 0.342,-0.124 0.602,-0.124 l 2.051,0 c 0.307,0 0.519,0.041 0.637,0.124 0.118,0.084 0.175,0.289 0.175,0.619 l 0,9.414 L 0,9.414 0,0 z"
                     inkscape:connector-curvature="0" /></g><g
                   transform="translate(384.1543,-12.4648)"
                   id="g114"><path
                     id="path116"
                     style="fill:#401454;fill-opacity:1;fill-rule:nonzero;stroke:none"
                     d="m 0,0 c -0.082,0.141 -0.289,0.212 -0.618,0.212 l -9.836,0 c -1.203,0 -2.201,-0.172 -2.991,-0.513 -0.789,-0.342 -1.422,-0.796 -1.893,-1.362 -0.473,-0.566 -0.802,-1.227 -0.992,-1.982 -0.188,-0.755 -0.282,-1.544 -0.282,-2.371 l 0,-12.313 c 0,-0.825 0.112,-1.616 0.338,-2.37 0.222,-0.756 0.582,-1.422 1.078,-2 0.495,-0.577 1.133,-1.038 1.911,-1.38 0.777,-0.342 1.72,-0.514 2.831,-0.514 l 9.693,0 c 0.332,0 0.536,0.072 0.618,0.214 0.084,0.14 0.125,0.342 0.125,0.601 l 0,1.698 c 0,0.307 -0.041,0.514 -0.125,0.62 -0.082,0.106 -0.286,0.158 -0.618,0.158 l -9.693,0 c -0.9,0 -1.54,0.195 -1.929,0.585 -0.389,0.388 -0.584,1.007 -0.584,1.858 l 0,4.351 11.039,0 c 0.306,0 0.501,0.06 0.584,0.176 0.083,0.119 0.126,0.332 0.126,0.638 l 0,1.486 c 0,0.26 -0.043,0.46 -0.126,0.602 -0.083,0.142 -0.278,0.213 -0.584,0.213 l -11.039,0 0,5.873 c 0,0.707 0.195,1.286 0.584,1.734 0.389,0.449 1.029,0.673 1.929,0.673 l 9.836,0 c 0.329,0 0.536,0.058 0.618,0.176 0.083,0.117 0.124,0.331 0.124,0.637 l 0,1.698 C 0.124,-0.342 0.083,-0.142 0,0"
                     inkscape:connector-curvature="0" /></g><g
                   transform="translate(121.8965,21.6201)"
                   id="g118"><path
                     id="path120"
                     style="fill:#401454;fill-opacity:1;fill-rule:nonzero;stroke:none"
                     d="m 0,0 -1.593,-5.025 -0.176,0 -1.487,4.847 -2.159,7.007 7.573,0 L 0,0 z m 5.837,15.638 c -0.259,0 -0.459,-0.021 -0.601,-0.07 C 5.094,15.521 4.978,15.357 4.883,15.072 l -1.663,-5.024 -9.589,0 -1.663,5.024 c -0.071,0.191 -0.166,0.331 -0.283,0.424 -0.12,0.096 -0.307,0.142 -0.567,0.142 l -2.723,0 c -0.26,0 -0.425,-0.075 -0.497,-0.229 -0.072,-0.152 -0.072,-0.324 0,-0.514 l 7.854,-22.538 c 0.213,-0.613 0.448,-1.02 0.708,-1.22 0.26,-0.201 0.697,-0.314 1.31,-0.337 l 1.169,0 c 0.708,0 1.188,0.111 1.449,0.337 0.26,0.223 0.484,0.631 0.674,1.22 l 7.891,22.538 c 0.067,0.19 0.067,0.362 0,0.514 -0.071,0.154 -0.226,0.229 -0.461,0.229 l -2.655,0 z"
                     inkscape:connector-curvature="0" /></g><g
                   transform="translate(146.4873,34.2163)"
                   id="g122"><path
                     id="path124"
                     style="fill:#401454;fill-opacity:1;fill-rule:nonzero;stroke:none"
                     d="m 0,0 c 1.039,0 2.013,-0.118 2.92,-0.353 0.908,-0.236 1.752,-0.52 2.53,-0.85 0.306,-0.118 0.525,-0.124 0.654,-0.018 0.13,0.105 0.219,0.219 0.267,0.337 L 7.112,0.813 C 7.275,1.144 7.331,1.362 7.273,1.467 7.213,1.575 7.101,1.688 6.934,1.804 5.804,2.489 4.56,2.931 3.202,3.131 c -1.357,0.201 -2.635,0.3 -3.838,0.3 -1.675,0 -3.172,-0.246 -4.494,-0.742 -1.32,-0.496 -2.441,-1.25 -3.36,-2.265 -0.92,-1.013 -1.625,-2.3 -2.107,-3.856 -0.485,-1.558 -0.725,-3.408 -0.725,-5.556 0,-1.981 0.263,-3.774 0.796,-5.377 0.53,-1.604 1.274,-2.978 2.229,-4.123 0.955,-1.144 2.109,-2.028 3.467,-2.654 1.357,-0.625 2.848,-0.938 4.476,-0.938 0.992,0 2.036,0.089 3.131,0.266 1.099,0.176 2.246,0.572 3.45,1.185 0.144,0.072 0.244,0.172 0.3,0.301 0.06,0.129 0.02,0.324 -0.124,0.584 l -0.883,1.839 c -0.095,0.165 -0.182,0.278 -0.264,0.337 -0.086,0.06 -0.233,0.042 -0.443,-0.053 -0.732,-0.306 -1.522,-0.553 -2.37,-0.743 -0.85,-0.189 -1.735,-0.283 -2.656,-0.283 -1.297,0 -2.411,0.277 -3.342,0.831 -0.934,0.554 -1.692,1.286 -2.284,2.194 -0.587,0.908 -1.024,1.94 -1.308,3.096 -0.284,1.156 -0.424,2.336 -0.424,3.538 0,1.203 0.117,2.348 0.354,3.433 0.236,1.086 0.641,2.04 1.223,2.866 0.575,0.826 1.349,1.48 2.315,1.963 C -2.712,-0.242 -1.486,0 0,0"
                     inkscape:connector-curvature="0" /></g><g
                   transform="translate(169.1323,21.6201)"
                   id="g126"><path
                     id="path128"
                     style="fill:#401454;fill-opacity:1;fill-rule:nonzero;stroke:none"
                     d="m 0,0 -1.593,-5.025 -0.176,0 -1.487,4.847 -2.157,7.007 7.572,0 L 0,0 z M 5.839,15.638 C 5.58,15.638 5.378,15.617 5.237,15.568 5.095,15.521 4.976,15.357 4.883,15.072 l -1.663,-5.024 -9.588,0 -1.665,5.024 c -0.067,0.191 -0.164,0.331 -0.281,0.424 -0.12,0.096 -0.308,0.142 -0.567,0.142 l -2.724,0 c -0.26,0 -0.425,-0.075 -0.496,-0.229 -0.071,-0.152 -0.071,-0.324 0,-0.514 l 7.854,-22.538 c 0.212,-0.613 0.448,-1.02 0.706,-1.22 0.262,-0.201 0.699,-0.314 1.312,-0.337 l 1.168,0 c 0.709,0 1.19,0.111 1.45,0.337 0.259,0.223 0.484,0.631 0.672,1.22 l 7.891,22.538 c 0.07,0.19 0.07,0.362 0,0.514 -0.07,0.154 -0.224,0.229 -0.459,0.229 l -2.654,0 z"
                     inkscape:connector-curvature="0" /></g><g
                   transform="translate(198.8906,24.77)"
                   id="g130"><path
                     id="path132"
                     style="fill:#401454;fill-opacity:1;fill-rule:nonzero;stroke:none"
                     d="m 0,0 c 0,-1.251 -0.124,-2.425 -0.372,-3.522 -0.247,-1.096 -0.659,-2.052 -1.237,-2.867 -0.58,-0.813 -1.357,-1.455 -2.336,-1.927 -0.98,-0.473 -2.191,-0.708 -3.628,-0.708 l -4.493,0 0,18.188 4.601,0 c 1.435,0 2.636,-0.231 3.591,-0.691 0.956,-0.46 1.721,-1.097 2.299,-1.911 0.578,-0.813 0.984,-1.78 1.22,-2.901 C -0.12,2.541 0,1.321 0,0 m -13.87,12.488 c -0.684,0 -1.176,-0.146 -1.469,-0.443 -0.294,-0.293 -0.441,-0.782 -0.441,-1.466 l 0,-20.982 c 0,-0.685 0.147,-1.174 0.441,-1.47 0.293,-0.294 0.785,-0.441 1.469,-0.441 l 6.475,-0.036 c 1.838,0 3.45,0.283 4.829,0.849 1.381,0.566 2.542,1.386 3.486,2.459 0.943,1.074 1.65,2.37 2.122,3.893 0.472,1.521 0.707,3.213 0.707,5.077 0,1.84 -0.21,3.532 -0.635,5.077 -0.425,1.546 -1.079,2.872 -1.965,3.982 -0.885,1.109 -2.004,1.969 -3.359,2.582 -1.358,0.614 -2.968,0.919 -4.83,0.919 l -6.83,0 z"
                     inkscape:connector-curvature="0" /></g><g
                   transform="translate(215.875,9.6953)"
                   id="g134"><path
                     id="path136"
                     style="fill:#401454;fill-opacity:1;fill-rule:nonzero;stroke:none"
                     d="m 0,0 c -0.12,-0.142 -0.171,-0.258 -0.161,-0.354 0.013,-0.093 0.113,-0.212 0.301,-0.354 l 5.095,-3.751 c 0.117,-0.094 0.236,-0.152 0.356,-0.176 0.117,-0.023 0.256,0.059 0.423,0.248 l 1.628,2.264 c 0.14,0.141 0.196,0.266 0.161,0.372 -0.037,0.105 -0.114,0.182 -0.233,0.23 L 1.555,1.167 C 1.318,1.263 1.143,1.292 1.025,1.256 0.906,1.221 0.79,1.144 0.672,1.027 L 0,0 z m 9.871,26.749 c 0,0.261 -0.041,0.461 -0.124,0.603 -0.082,0.141 -0.29,0.211 -0.619,0.211 l -9.836,0 c -1.202,0 -2.201,-0.17 -2.991,-0.511 -0.789,-0.343 -1.423,-0.798 -1.892,-1.365 -0.473,-0.564 -0.803,-1.225 -0.992,-1.981 -0.189,-0.754 -0.281,-1.543 -0.281,-2.37 l 0,-12.314 c 0,-0.825 0.111,-1.614 0.336,-2.371 0.221,-0.754 0.582,-1.419 1.078,-1.998 0.495,-0.578 1.133,-1.038 1.911,-1.38 0.777,-0.341 1.721,-0.513 2.831,-0.513 l 9.695,0 c 0.329,0 0.536,0.071 0.617,0.213 0.084,0.141 0.126,0.341 0.126,0.601 l 0,1.698 C 9.73,5.58 9.688,5.786 9.604,5.891 9.523,5.997 9.316,6.051 8.987,6.051 l -9.695,0 c -0.897,0 -1.539,0.195 -1.93,0.584 -0.388,0.388 -0.583,1.009 -0.583,1.857 l 0,4.352 11.039,0 c 0.306,0 0.501,0.059 0.585,0.177 0.082,0.118 0.125,0.331 0.125,0.637 l 0,1.486 c 0,0.261 -0.043,0.461 -0.125,0.601 -0.084,0.141 -0.279,0.213 -0.585,0.213 l -11.039,0 0,5.874 c 0,0.707 0.195,1.286 0.583,1.734 0.391,0.448 1.033,0.672 1.93,0.672 l 9.836,0 c 0.329,0 0.537,0.059 0.619,0.177 0.083,0.118 0.124,0.331 0.124,0.637 l 0,1.697 z"
                     inkscape:connector-curvature="0" /></g><g
                   transform="translate(251.7148,19.001)"
                   id="g138"><path
                     id="path140"
                     style="fill:#401454;fill-opacity:1;fill-rule:nonzero;stroke:none"
                     d="M 0,0 -0.211,0 -2.23,5.273 -5.637,13.8 c -0.235,0.614 -0.476,1.026 -0.726,1.238 -0.248,0.212 -0.681,0.318 -1.294,0.318 l -1.349,0 c -0.615,0 -1.046,-0.106 -1.294,-0.318 -0.246,-0.212 -0.489,-0.624 -0.725,-1.238 l -3.44,-8.386 -1.987,-4.99 -0.211,0 0,17.09 c 0,0.332 -0.061,0.538 -0.176,0.621 -0.116,0.081 -0.327,0.122 -0.629,0.122 l -1.858,0 c -0.258,0 -0.456,-0.041 -0.595,-0.122 -0.142,-0.083 -0.21,-0.289 -0.21,-0.621 l 0,-22.113 c 0,-0.614 0.13,-1.092 0.39,-1.433 0.256,-0.342 0.763,-0.513 1.517,-0.513 l 1.096,0 c 0.541,0 0.966,0.094 1.271,0.283 0.305,0.188 0.59,0.601 0.85,1.238 l 4.555,11.534 2.053,5.379 0.138,0 2.014,-5.272 4.594,-11.641 c 0.26,-0.637 0.541,-1.05 0.847,-1.238 0.307,-0.189 0.731,-0.283 1.272,-0.283 l 1.098,0 c 0.751,0 1.257,0.171 1.516,0.513 0.26,0.341 0.39,0.819 0.39,1.433 l 0,22.113 c 0,0.332 -0.059,0.538 -0.175,0.621 -0.119,0.081 -0.327,0.122 -0.631,0.122 l -1.856,0 C 0.55,18.257 0.353,18.216 0.212,18.135 0.072,18.052 0,17.846 0,17.514 L 0,0 z"
                     inkscape:connector-curvature="0" /></g><g
                   transform="translate(262.6851,13.2334)"
                   id="g142"><path
                     id="path144"
                     style="fill:#401454;fill-opacity:1;fill-rule:nonzero;stroke:none"
                     d="m 0,0 c 0,-0.33 0.07,-0.537 0.214,-0.619 0.141,-0.083 0.34,-0.124 0.602,-0.124 l 2.052,0 c 0.306,0 0.518,0.041 0.635,0.124 C 3.622,-0.537 3.68,-0.33 3.68,0 l 0,23.282 c 0,0.332 -0.058,0.537 -0.177,0.62 -0.117,0.081 -0.329,0.123 -0.635,0.123 l -2.052,0 C 0.554,24.025 0.355,23.983 0.214,23.902 0.07,23.819 0,23.614 0,23.282 L 0,0 z"
                     inkscape:connector-curvature="0" /></g><g
                   transform="translate(282.748,42.249)"
                   id="g146"><path
                     id="path148"
                     style="fill:#401454;fill-opacity:1;fill-rule:nonzero;stroke:none"
                     d="m 0,0 c -0.259,0 -0.417,-0.053 -0.478,-0.161 -0.06,-0.105 -0.088,-0.263 -0.088,-0.477 l 0,-1.805 c 0,-0.235 0.028,-0.4 0.088,-0.495 C -0.417,-3.032 -0.259,-3.08 0,-3.08 l 4.034,0 c 0.943,0 1.843,0.06 2.708,0.179 0.859,0.116 1.662,0.275 2.404,0.476 0.746,0.2 1.397,0.431 1.965,0.691 0.565,0.258 1.026,0.518 1.38,0.779 0.189,0.14 0.305,0.271 0.353,0.388 0.048,0.118 0.013,0.271 -0.107,0.459 L 11.854,1.344 C 11.618,1.791 11.265,1.887 10.793,1.627 9.848,1.085 8.709,0.677 7.379,0.407 6.044,0.134 4.612,0 3.078,0 L 0,0 z m 7.925,-17.339 c 0,-1.226 -0.093,-2.417 -0.282,-3.574 -0.189,-1.154 -0.531,-2.17 -1.027,-3.042 -0.495,-0.873 -1.185,-1.576 -2.069,-2.106 -0.884,-0.531 -2.035,-0.797 -3.451,-0.797 -1.203,0 -2.245,0.248 -3.13,0.744 -0.886,0.496 -1.618,1.167 -2.195,2.016 -0.578,0.85 -1.015,1.847 -1.309,2.991 -0.295,1.145 -0.441,2.354 -0.441,3.628 0,1.439 0.111,2.747 0.335,3.926 0.224,1.181 0.602,2.188 1.132,3.027 0.532,0.837 1.239,1.485 2.124,1.946 0.883,0.459 1.988,0.688 3.309,0.688 1.345,0 2.463,-0.265 3.361,-0.795 0.895,-0.53 1.615,-1.232 2.159,-2.105 0.542,-0.873 0.924,-1.876 1.148,-3.008 0.224,-1.134 0.336,-2.312 0.336,-3.539 m 3.716,-0.14 c 0,4.15 -0.907,7.336 -2.725,9.553 -1.816,2.218 -4.494,3.324 -8.03,3.324 -3.469,0 -6.092,-1.065 -7.873,-3.201 -1.781,-2.134 -2.673,-5.313 -2.673,-9.536 0,-2.051 0.271,-3.875 0.814,-5.466 0.543,-1.593 1.292,-2.931 2.246,-4.016 0.956,-1.086 2.082,-1.91 3.379,-2.478 1.3,-0.565 2.702,-0.849 4.212,-0.849 1.746,0 3.277,0.29 4.599,0.868 1.321,0.577 2.431,1.415 3.326,2.512 0.896,1.096 1.577,2.423 2.035,3.979 0.461,1.559 0.69,3.328 0.69,5.31"
                     inkscape:connector-curvature="0" /></g><g
                   transform="translate(300.7227,13.2334)"
                   id="g150"><path
                     id="path152"
                     style="fill:#401454;fill-opacity:1;fill-rule:nonzero;stroke:none"
                     d="m 0,0 c 0,-0.33 0.071,-0.537 0.211,-0.619 0.143,-0.083 0.343,-0.124 0.601,-0.124 l 2.124,0 c 0.307,0 0.52,0.041 0.638,0.124 C 3.691,-0.537 3.752,-0.33 3.752,0 l 0,13.127 c 0,1.369 0.086,2.555 0.263,3.557 0.179,1.002 0.52,1.84 1.026,2.512 0.508,0.671 1.239,1.173 2.194,1.504 0.956,0.331 2.212,0.495 3.769,0.495 0.401,0 0.978,-0.018 1.735,-0.053 0.754,-0.036 1.615,-0.147 2.582,-0.336 L 15.321,0 c 0,-0.33 0.07,-0.537 0.213,-0.619 0.14,-0.083 0.342,-0.124 0.601,-0.124 l 2.124,0 c 0.306,0 0.495,0.041 0.566,0.124 0.07,0.082 0.105,0.289 0.105,0.619 l 0,20.593 c 0,0.945 -0.207,1.711 -0.62,2.301 -0.412,0.589 -1.173,0.979 -2.281,1.167 -0.898,0.142 -1.804,0.242 -2.724,0.3 -0.923,0.059 -1.76,0.091 -2.513,0.091 -1.958,0 -3.622,-0.19 -4.989,-0.569 C 4.434,23.507 3.324,22.881 2.478,22.01 1.625,21.138 1.008,19.981 0.617,18.542 0.228,17.103 0.036,15.321 0.036,13.198 L 0,0 z"
                     inkscape:connector-curvature="0" /></g><g
                   transform="translate(343.3408,37.0474)"
                   id="g154"><path
                     id="path156"
                     style="fill:#401454;fill-opacity:1;fill-rule:nonzero;stroke:none"
                     d="m 0,0 c -0.082,0.141 -0.289,0.211 -0.618,0.211 l -9.837,0 c -1.203,0 -2.202,-0.17 -2.992,-0.511 -0.788,-0.343 -1.421,-0.798 -1.892,-1.365 -0.472,-0.564 -0.8,-1.225 -0.99,-1.981 -0.191,-0.754 -0.281,-1.543 -0.281,-2.37 l 0,-12.314 c 0,-0.825 0.109,-1.614 0.334,-2.371 0.225,-0.754 0.585,-1.419 1.081,-1.998 0.494,-0.578 1.13,-1.038 1.91,-1.38 0.776,-0.341 1.72,-0.513 2.83,-0.513 l 9.695,0 c 0.329,0 0.534,0.071 0.618,0.213 0.084,0.141 0.125,0.341 0.125,0.601 l 0,1.698 c 0,0.308 -0.041,0.514 -0.125,0.619 -0.084,0.106 -0.289,0.16 -0.618,0.16 l -9.695,0 c -0.897,0 -1.539,0.195 -1.929,0.584 -0.389,0.388 -0.583,1.009 -0.583,1.857 l 0,4.352 11.04,0 c 0.305,0 0.5,0.059 0.584,0.177 0.082,0.118 0.123,0.331 0.123,0.637 l 0,1.486 c 0,0.261 -0.041,0.461 -0.123,0.601 -0.084,0.141 -0.279,0.213 -0.584,0.213 l -11.04,0 0,5.874 c 0,0.707 0.194,1.286 0.583,1.734 0.39,0.448 1.032,0.672 1.929,0.672 l 9.837,0 c 0.329,0 0.536,0.059 0.618,0.177 0.082,0.118 0.124,0.331 0.124,0.637 l 0,1.697 C 0.124,-0.342 0.082,-0.142 0,0"
                     inkscape:connector-curvature="0" /></g><g
                   transform="translate(62.4727,-86.5659)"
                   id="g158"><path
                     id="path160"
                     style="fill:none;stroke:#401454;stroke-width:4.99399996;stroke-linecap:round;stroke-linejoin:round;stroke-miterlimit:4;stroke-opacity:1;stroke-dasharray:none"
                     d="M 0,0 0,0"
                     inkscape:connector-curvature="0" /></g><g
                   transform="translate(62.4727,-74.1426)"
                   id="g162"><path
                     id="path164"
                     style="fill:none;stroke:#401454;stroke-width:4.99399996;stroke-linecap:round;stroke-linejoin:round;stroke-miterlimit:4;stroke-opacity:1;stroke-dasharray:0, 12.423;stroke-dashoffset:0"
                     d="M 0,0 0,155.289"
                     inkscape:connector-curvature="0" /></g><g
                   transform="translate(62.4727,87.3579)"
                   id="g166"><path
                     id="path168"
                     style="fill:none;stroke:#401454;stroke-width:4.99399996;stroke-linecap:round;stroke-linejoin:round;stroke-miterlimit:4;stroke-opacity:1;stroke-dasharray:none"
                     d="M 0,0 0,0"
                     inkscape:connector-curvature="0" /></g><g
                   transform="translate(303.71,82.2568)"
                   id="g170"><path
                     id="path172"
                     style="fill:#89639e;fill-opacity:1;fill-rule:nonzero;stroke:none"
                     d="M 0,0 -1.237,3.76 C 2.106,5.047 5.552,5.291 8.481,4.797 L 9.692,0.807 C 6.865,1.936 1.186,0.988 0,0 m 7.531,-13.208 c 1.694,0 4.501,0.872 5.913,1.564 l 1.078,-3.517 c -0.653,-0.202 -1.47,-0.465 -1.47,-0.465 -1.391,-0.386 -2.97,-0.805 -5.733,-0.805 -3.679,0 -7.958,1.612 -7.958,6.199 0,3.515 2.954,4.819 5.57,5.79 1.978,0.726 4.574,0.998 5.742,1.987 l 1.272,-4.214 C 11.08,-7.068 10.172,-7.361 9.355,-7.605 7.459,-8.181 4.259,-8.807 4.259,-10.608 c 0,-1.892 1.022,-2.6 3.272,-2.6"
                     inkscape:connector-curvature="0" /></g><g
                   transform="translate(285.7969,74.5537)"
                   id="g174"><path
                     id="path176"
                     style="fill:#89639e;fill-opacity:1;fill-rule:nonzero;stroke:none"
                     d="m 0,0 c 0.27,-3.409 2.045,-5.651 4.805,-5.651 3.341,0 4.128,2.94 4.267,5.651 l 0.011,0.241 -9.108,0 L 0,0 z m 0,3.779 -0.015,-0.222 14.113,0 C 14.05,-4.775 10.952,-8.652 4.373,-8.652 c -5.768,0 -9.501,4.254 -9.501,10.829 0,6.759 3.918,10.627 10.718,10.627 2.757,0 4.971,-0.498 6.963,-1.582 L 13.007,7.277 C 11.27,8.225 8.977,9.237 6.271,9.237 2.724,9.237 0.24,7.144 0,3.779"
                     inkscape:connector-curvature="0" /></g><g
                   transform="translate(266.7617,83.3164)"
                   id="g178"><path
                     id="path180"
                     style="fill:#89639e;fill-opacity:1;fill-rule:nonzero;stroke:none"
                     d="m 0,0 c -3.577,0 -4.849,-3.732 -4.849,-6.928 0,-3.283 1.545,-6.693 4.919,-6.693 3.375,0 4.569,3.398 4.569,6.693 C 4.639,-3.57 3.421,0 0,0 m 1.875,-17.611 c -2.864,0 -5.374,1.129 -6.702,3.343 l -0.058,0.107 -0.016,0 0,-2.96 -5.24,0 0,29.003 5.476,0 0,-10.905 0.38,0 0.066,0.072 c 2.026,2.462 4.072,2.809 5.972,2.809 7.829,0 8.455,-7.559 8.455,-10.81 0,-3.186 -0.606,-10.659 -8.333,-10.659"
                     inkscape:connector-curvature="0" /></g><path
                   id="path182"
                   style="fill:#89639e;fill-opacity:1;fill-rule:nonzero;stroke:none"
                   d="m 246.179,86.759 5.276,0 0,-31.254 -5.276,0 0,31.254 z"
                   inkscape:connector-curvature="0" /><g
                   transform="translate(218.9058,68.9473)"
                   id="g184"><path
                     id="path186"
                     style="fill:#89639e;fill-opacity:1;fill-rule:nonzero;stroke:none"
                     d="M 0,0 C 1.04,0 2.673,0.633 3.777,1.802 L 4.77,-1.39 c -1.466,-1.017 -3.693,-1.655 -6.05,-1.655 -5.774,0 -9.495,4.253 -9.495,10.828 0,5.96 3.536,10.524 9.565,10.596 l 1.069,-3.134 C -3.74,14.952 -5.356,12.564 -5.585,9.556 l -0.019,-0.215 7.138,0 1.061,-3.493 -8.137,0 0.02,-0.232 C -5.268,2.664 -3.538,0 0,0"
                     inkscape:connector-curvature="0" /></g><g
                   transform="translate(148.1523,65.8262)"
                   id="g188"><path
                     id="path190"
                     style="fill:#89639e;fill-opacity:1;fill-rule:nonzero;stroke:none"
                     d="m 0,0 c -2.682,0 -5.395,1.179 -6.799,3.237 l -0.057,0.089 -0.018,0 0,-13.624 -5.214,0 0,31.274 5.214,0 0,-10.024 c 0,-3.444 1.325,-7.302 5.007,-7.302 3.733,0 3.314,3.909 3.314,6.384 l 0,10.942 5.178,0 0,-12.985 C 6.625,2.914 4.388,0 0,0"
                     inkscape:connector-curvature="0" /></g><g
                   transform="translate(128.4976,76.5073)"
                   id="g192"><path
                     id="path194"
                     style="fill:#89639e;fill-opacity:1;fill-rule:nonzero;stroke:none"
                     d="m 0,0 c -1.392,-3.173 -3.591,-3.413 -4.99,-3.429 3.944,-0.202 6.764,-4.247 6.764,-7.438 0,-7.041 -5.925,-8.745 -11.683,-8.133 l -1.168,3.85 c 2.799,-0.595 7.367,-0.796 7.367,4.505 0,2.977 -1.069,5.082 -4.092,5.082 l -2.218,0 0.439,-2.379 -3.673,0 -5.503,18.237 5.761,0 2.244,-11.973 2.064,0 c 2.803,0 3.121,1.559 3.985,3.899 l 2.591,8.074 6.095,0 L 0,0 z"
                     inkscape:connector-curvature="0" /></g><g
                   transform="translate(196.999,65.7871)"
                   id="g196"><path
                     id="path198"
                     style="fill:#89639e;fill-opacity:1;fill-rule:nonzero;stroke:none"
                     d="m 0,0 c -2.988,0 -5.502,1.023 -7.077,3.245 l -0.062,0.077 0,-2.841 -5.008,0 0,20.491 5.293,0 0,-10.029 c 0,-3.445 1.321,-7.277 4.99,-7.277 3.723,0 3.308,3.881 3.308,6.342 l 0,10.964 5.259,0 0,-12.99 C 6.703,2.903 4.38,0 0,0"
                     inkscape:connector-curvature="0" /></g><g
                   transform="translate(230.7236,55.5386)"
                   id="g200"><path
                     id="path202"
                     style="fill:#89639e;fill-opacity:1;fill-rule:nonzero;stroke:none"
                     d="m 0,0 -2.347,0 -1.405,4.708 5.465,14.554 -6.839,0 -1.044,3.475 9.205,0 3.208,8.527 6.058,0 L 0,0 z"
                     inkscape:connector-curvature="0" /></g><g
                   transform="translate(173.1182,56.042)"
                   id="g204"><path
                     id="path206"
                     style="fill:#89639e;fill-opacity:1;fill-rule:nonzero;stroke:none"
                     d="m 0,0 2.514,5.922 -3.552,0 -1.997,-4.106 -2.157,4.106 -3.446,0 L -5.931,0 0,0 z"
                     inkscape:connector-curvature="0" /></g><g
                   transform="translate(170.0024,83.9478)"
                   id="g208"><path
                     id="path210"
                     style="fill:#89639e;fill-opacity:1;fill-rule:nonzero;stroke:none"
                     d="m 0,0 c -4.489,0 -5.165,-5.109 -5.165,-8.152 0,-3.369 1.613,-7.031 5.165,-7.031 3.603,0 5.202,3.543 5.202,7.031 C 5.202,-5.109 4.523,0 0,0 m 0,-18.316 c -6.402,0 -10.721,4.355 -10.721,10.875 0,6.32 4.319,10.58 10.721,10.58 6.432,0 10.756,-4.26 10.756,-10.58 0,-6.52 -4.324,-10.875 -10.756,-10.875"
                     inkscape:connector-curvature="0" /></g><g
                   id="g212"><g
                     id="g214" /><g
                     id="g220"><g
                       id="g222"
                       clip-path="url(#clipPath216)"
                       style="opacity:0.80000299"><g
                         id="g224"
                         transform="translate(-221.417,46.7163)"><path
                           id="path226"
                           style="fill:#401454;fill-opacity:1;fill-rule:nonzero;stroke:none"
                           d="m 0,0 c 0,-6.292 5.102,-11.393 11.394,-11.393 6.293,0 11.393,5.101 11.393,11.393 0,6.293 -5.1,11.393 -11.393,11.393 C 5.102,11.393 0,6.293 0,0"
                           inkscape:connector-curvature="0" /></g></g></g></g><g
                   id="g228"><g
                     id="g230" /><g
                     id="g236"><g
                       id="g238"
                       clip-path="url(#clipPath232)"
                       style="opacity:0.89999402"><g
                         id="g240"
                         transform="translate(-221.417,17.2344)"><path
                           id="path242"
                           style="fill:#401454;fill-opacity:1;fill-rule:nonzero;stroke:none"
                           d="m 0,0 c 0,-6.293 5.102,-11.393 11.394,-11.393 6.293,0 11.393,5.1 11.393,11.393 0,6.292 -5.1,11.393 -11.393,11.393 C 5.102,11.393 0,6.292 0,0"
                           inkscape:connector-curvature="0" /></g></g></g></g><g
                   transform="translate(-248.2324,-38.063)"
                   id="g244"><path
                     id="path246"
                     style="fill:#401454;fill-opacity:1;fill-rule:nonzero;stroke:none"
                     d="m 0,0 c -1.095,-37.523 -24.341,-58.146 -65.761,-58.146 -17.843,0 -35.323,4.848 -50.55,14.02 -5.391,3.247 -7.129,10.248 -3.881,15.639 3.248,5.387 10.247,7.127 15.638,3.88 11.678,-7.035 25.093,-10.753 38.793,-10.753 37.914,0 43.027,19.287 43.027,38.154 l 0,100.399 c -17.821,7.324 -53.792,12.443 -74.296,0.737 -9.821,-5.606 -14.395,-14.171 -14.395,-26.953 0,-6.293 -5.101,-11.393 -11.393,-11.393 -6.293,0 -11.394,5.1 -11.394,11.393 0,20.912 8.951,37.075 25.884,46.742 12.528,7.152 28.004,9.868 43.346,9.868 24.158,0 47.981,-6.735 59.432,-13.496 l 5.602,-3.305 0,-115.745 C 0.052,0.689 0.031,0.342 0,0"
                     inkscape:connector-curvature="0" /></g><g
                   id="g248"><g
                     id="g250" /><g
                     id="g256"><g
                       id="g258"
                       clip-path="url(#clipPath252)"
                       style="opacity:0.89999402"><g
                         id="g260"
                         transform="translate(-371.4912,20.9155)"><path
                           id="path262"
                           style="fill:#401454;fill-opacity:1;fill-rule:nonzero;stroke:none"
                           d="m 0,0 c -5.574,-2.893 -7.765,-9.763 -4.874,-15.354 2.893,-5.592 9.764,-7.783 15.354,-4.891 5.592,2.892 7.766,9.763 4.873,15.354 C 13.339,-0.964 9.359,1.28 5.241,1.28 3.47,1.28 1.682,0.858 0,0"
                           inkscape:connector-curvature="0" /></g></g></g></g><g
                   id="g264"><g
                     id="g266" /><g
                     id="g272"><g
                       id="g274"
                       clip-path="url(#clipPath268)"
                       style="opacity:0.80000299"><g
                         id="g276"
                         transform="translate(-354.7524,-2.5195)"><path
                           id="path278"
                           style="fill:#401454;fill-opacity:1;fill-rule:nonzero;stroke:none"
                           d="m 0,0 c -2.086,-5.924 1.017,-12.445 6.958,-14.53 5.926,-2.104 12.446,1.016 14.532,6.94 C 23.592,-1.647 20.473,4.855 14.548,6.958 13.286,7.396 12.007,7.607 10.744,7.607 6.047,7.607 1.665,4.68 0,0"
                           inkscape:connector-curvature="0" /></g></g></g></g><g
                   id="g280"><g
                     id="g282" /><g
                     id="g288"><g
                       id="g290"
                       clip-path="url(#clipPath284)"
                       style="opacity:0.69999701"><g
                         id="g292"
                         transform="translate(-327.1455,-11.1084)"><path
                           id="path294"
                           style="fill:#401454;fill-opacity:1;fill-rule:nonzero;stroke:none"
                           d="m 0,0 c -0.018,-6.292 5.083,-11.411 11.375,-11.411 6.292,-0.035 11.411,5.066 11.411,11.358 0.035,6.293 -5.065,11.393 -11.357,11.411 l -0.019,0 C 5.117,11.358 0.018,6.292 0,0"
                           inkscape:connector-curvature="0" /></g></g></g></g><g
                   id="g296"><g
                     id="g298" /><g
                     id="g304"><g
                       id="g306"
                       clip-path="url(#clipPath300)"
                       style="opacity:0.60000598"><g
                         id="g308"
                         transform="translate(-287.5146,5.2275)"><path
                           id="path310"
                           style="fill:#401454;fill-opacity:1;fill-rule:nonzero;stroke:none"
                           d="m 0,0 c -2.998,0 -5.924,-1.209 -8.046,-3.348 -2.12,-2.103 -3.347,-5.048 -3.347,-8.045 0,-2.998 1.227,-5.942 3.347,-8.063 2.104,-2.121 5.048,-3.33 8.046,-3.33 2.997,0 5.941,1.209 8.063,3.33 2.12,2.121 3.33,5.065 3.33,8.063 0,2.997 -1.21,5.924 -3.33,8.045 C 5.941,-1.209 2.997,0 0,0"
                           inkscape:connector-curvature="0" /></g></g></g></g><g
                   transform="translate(-32.7275,95.6748)"
                   id="g312"><path
                     id="path314"
                     style="fill:#401454;fill-opacity:1;fill-rule:nonzero;stroke:none"
                     d="m 0,0 c -14.663,0 -30.071,-3.1 -43.498,-12.31 -22.373,-15.344 -33.718,-43.701 -33.718,-84.281 0,-21.393 3.507,-39.167 10.72,-54.337 2.701,-5.683 9.501,-8.1 15.181,-5.397 5.683,2.701 8.099,9.499 5.397,15.181 -5.727,12.046 -8.511,26.619 -8.511,44.553 0,32.616 8.014,54.65 23.819,65.49 23.983,16.449 61.299,4.041 72.165,-0.155 5.87,-2.265 12.466,0.655 14.732,6.525 2.267,5.87 -0.655,12.465 -6.524,14.732 C 39.667,-6.101 20.567,-0.001 0,0"
                     inkscape:connector-curvature="0" /></g><g
                   id="g316"><g
                     id="g318" /><g
                     id="g324"><g
                       id="g326"
                       clip-path="url(#clipPath320)"
                       style="opacity:0.60000598"><g
                         id="g328"
                         transform="translate(12.9326,-62.7983)"><path
                           id="path330"
                           style="fill:#401454;fill-opacity:1;fill-rule:nonzero;stroke:none"
                           d="m 0,0 c -2.997,0 -5.941,-1.21 -8.062,-3.331 -2.122,-2.121 -3.331,-5.048 -3.331,-8.045 0,-2.998 1.209,-5.942 3.331,-8.063 2.121,-2.121 5.065,-3.33 8.062,-3.33 2.998,0 5.926,1.209 8.046,3.33 2.121,2.121 3.348,5.048 3.348,8.063 0,2.997 -1.227,5.924 -3.348,8.045 C 5.942,-1.21 2.998,0 0,0"
                           inkscape:connector-curvature="0" /></g></g></g></g><g
                   id="g332"><g
                     id="g334" /><g
                     id="g340"><g
                       id="g342"
                       clip-path="url(#clipPath336)"
                       style="opacity:0.89999402"><g
                         id="g344"
                         transform="translate(-79.8428,-66.4097)"><path
                           id="path346"
                           style="fill:#401454;fill-opacity:1;fill-rule:nonzero;stroke:none"
                           d="m 0,0 c -3.856,-4.977 -2.945,-12.129 2.033,-15.986 4.979,-3.838 12.13,-2.927 15.986,2.052 3.838,4.978 2.926,12.129 -2.051,15.985 C 13.899,3.646 11.445,4.436 9.009,4.436 5.608,4.436 2.244,2.91 0,0"
                           inkscape:connector-curvature="0" /></g></g></g></g><g
                   id="g348"><g
                     id="g350" /><g
                     id="g356"><g
                       id="g358"
                       clip-path="url(#clipPath352)"
                       style="opacity:0.69999701"><g
                         id="g360"
                         transform="translate(-16.812,-73.1929)"><path
                           id="path362"
                           style="fill:#401454;fill-opacity:1;fill-rule:nonzero;stroke:none"
                           d="m 0,0 0,0 c -6.188,-1.209 -10.219,-7.186 -9.009,-13.356 1.191,-6.188 7.186,-10.219 13.356,-9.01 6.17,1.192 10.201,7.187 9.01,13.357 C 12.287,-3.576 7.519,0.21 2.191,0.21 1.456,0.21 0.736,0.14 0,0"
                           inkscape:connector-curvature="0" /></g></g></g></g><g
                   id="g364"><g
                     id="g366" /><g
                     id="g372"><g
                       id="g374"
                       clip-path="url(#clipPath368)"
                       style="opacity:0.80000299"><g
                         id="g376"
                         transform="translate(-55.2163,-82.9727)"><path
                           id="path378"
                           style="fill:#401454;fill-opacity:1;fill-rule:nonzero;stroke:none"
                           d="m 0,0 c -1.087,-6.206 3.068,-12.112 9.272,-13.181 6.206,-1.07 12.095,3.067 13.183,9.272 C 23.523,2.295 19.369,8.185 13.164,9.271 12.515,9.376 11.849,9.43 11.201,9.43 5.767,9.43 0.965,5.538 0,0"
                           inkscape:connector-curvature="0" /></g></g></g></g><g
                   transform="translate(-88.9395,-38.9604)"
                   id="g380"><path
                     id="path382"
                     style="fill:#401454;fill-opacity:1;fill-rule:nonzero;stroke:none"
                     d="m 0,0 c -2.997,0 -5.926,-1.227 -8.046,-3.348 -2.121,-2.121 -3.347,-5.048 -3.347,-8.045 0,-3.015 1.226,-5.942 3.347,-8.063 2.12,-2.121 5.049,-3.33 8.046,-3.33 2.998,0 5.941,1.209 8.063,3.33 2.121,2.121 3.33,5.048 3.33,8.063 0,2.997 -1.209,5.924 -3.33,8.045 C 5.941,-1.227 2.998,0 0,0"
                     inkscape:connector-curvature="0" /></g><g
                   transform="translate(-114.8076,-82.1895)"
                   id="g384"><path
                     id="path386"
                     style="fill:#401454;fill-opacity:1;fill-rule:nonzero;stroke:none"
                     d="m 0,0 c -15.227,-9.172 -32.707,-14.02 -50.55,-14.02 -17.843,0 -35.323,4.848 -50.551,14.02 -3.52,2.12 -5.468,5.843 -5.502,9.671 -0.001,0.03 -0.012,0.059 -0.012,0.088 l 0,60.18 c 0,6.292 5.101,11.393 11.393,11.393 6.293,0 11.393,-5.101 11.393,-11.393 l 0,-53.398 c 10.307,-5.083 21.684,-7.774 33.279,-7.774 13.7,0 27.115,3.718 38.791,10.753 1.84,1.108 3.867,1.635 5.868,1.635 3.865,0 7.632,-1.967 9.771,-5.516 C 7.127,10.249 5.39,3.248 0,0"
                     inkscape:connector-curvature="0" /></g><g
                   id="g388"><g
                     id="g390" /><g
                     id="g396"><g
                       id="g398"
                       clip-path="url(#clipPath392)"
                       style="opacity:0.69999701"><g
                         id="g400"
                         transform="translate(-221.417,75.4492)"><path
                           id="path402"
                           style="fill:#401454;fill-opacity:1;fill-rule:nonzero;stroke:none"
                           d="m 0,0 c 0,-6.291 5.102,-11.393 11.394,-11.393 6.293,0 11.393,5.102 11.393,11.393 0,6.293 -5.1,11.394 -11.393,11.394 C 5.102,11.394 0,6.293 0,0"
                           inkscape:connector-curvature="0" /></g></g></g></g></g></g></g></g></g><g
         transform="translate(404.6855,65.0513)"
         id="g404"><path
           id="path406"
           style="fill:none;stroke:#ffffff;stroke-width:2.79999995;stroke-linecap:round;stroke-linejoin:miter;stroke-miterlimit:10;stroke-opacity:1;stroke-dasharray:none"
           d="M 0,0 0,-30.734"
           inkscape:connector-curvature="0" /></g><g
         transform="translate(377.6699,72.4888)"
         id="g408"><path
           id="path410"
           style="fill:none;stroke:#ffffff;stroke-width:2.79999995;stroke-linecap:round;stroke-linejoin:round;stroke-miterlimit:4;stroke-opacity:1;stroke-dasharray:none"
           d="M 0,0 0,0"
           inkscape:connector-curvature="0" /></g><g
         id="g412"><g
           clip-path="url(#clipPath416)"
           id="g414"><g
             transform="translate(373.0195,71.4839)"
             id="g420"><path
               id="path422"
               style="fill:none;stroke:#ffffff;stroke-width:2.79999995;stroke-linecap:round;stroke-linejoin:round;stroke-miterlimit:4;stroke-opacity:1;stroke-dasharray:0, 4.788;stroke-dashoffset:0"
               d="M 0,0 C -4.675,-1.985 -8.147,-6.286 -9.581,-7.092"
               inkscape:connector-curvature="0" /></g><g
             transform="translate(362.4199,62.4966)"
             id="g424"><path
               id="path426"
               style="fill:none;stroke:#ffffff;stroke-width:2.79999995;stroke-linecap:round;stroke-linejoin:round;stroke-miterlimit:4;stroke-opacity:1;stroke-dasharray:none"
               d="M 0,0 0,0"
               inkscape:connector-curvature="0" /></g><g
             transform="translate(383.2637,86.9634)"
             id="g428"><path
               id="path430"
               style="fill:none;stroke:#ffffff;stroke-width:2.79999995;stroke-linecap:round;stroke-linejoin:round;stroke-miterlimit:4;stroke-opacity:1;stroke-dasharray:none"
               d="M 0,0 0,0"
               inkscape:connector-curvature="0" /></g><g
             transform="translate(378.4902,84.7563)"
             id="g432"><path
               id="path434"
               style="fill:none;stroke:#ffffff;stroke-width:2.79999995;stroke-linecap:round;stroke-linejoin:round;stroke-miterlimit:4;stroke-opacity:1;stroke-dasharray:0, 5.418;stroke-dashoffset:0"
               d="m 0,0 c -0.926,-1.09 -1.484,-2.502 -1.484,-4.047 0,-1.304 0.397,-2.515 1.078,-3.517"
               inkscape:connector-curvature="0" /></g><g
             transform="translate(380.0371,75.3423)"
             id="g436"><path
               id="path438"
               style="fill:none;stroke:#ffffff;stroke-width:2.79999995;stroke-linecap:round;stroke-linejoin:round;stroke-miterlimit:4;stroke-opacity:1;stroke-dasharray:none"
               d="M 0,0 0,0"
               inkscape:connector-curvature="0" /></g><g
             transform="translate(374.4355,29.6626)"
             id="g440"><path
               id="path442"
               style="fill:none;stroke:#ffffff;stroke-width:2.79999995;stroke-linecap:round;stroke-linejoin:miter;stroke-miterlimit:10;stroke-opacity:1;stroke-dasharray:none"
               d="m 0,0 c 0,0 4.129,-0.719 4.129,1.977 0,5.043 -0.617,23.275 4.309,23.275 4.402,0 3.457,-18.416 3.457,-23.275 0,-2.571 4.128,-1.979 4.128,-1.979"
               inkscape:connector-curvature="0" /></g><g
             transform="translate(390.6738,33.9927)"
             id="g444"><path
               id="path446"
               style="fill:none;stroke:#ffffff;stroke-width:2.79999995;stroke-linecap:round;stroke-linejoin:round;stroke-miterlimit:4;stroke-opacity:1;stroke-dasharray:none"
               d="M 0,0 0,0"
               inkscape:connector-curvature="0" /></g><g
             transform="translate(391.0195,39.2227)"
             id="g448"><path
               id="path450"
               style="fill:none;stroke:#ffffff;stroke-width:2.79999995;stroke-linecap:round;stroke-linejoin:round;stroke-miterlimit:4;stroke-opacity:1;stroke-dasharray:0, 5.244;stroke-dashoffset:0"
               d="M 0,0 C 0.155,8.45 -1.22,18.527 -1.753,23.524"
               inkscape:connector-curvature="0" /></g><g
             transform="translate(389.0605,65.356)"
             id="g452"><path
               id="path454"
               style="fill:none;stroke:#ffffff;stroke-width:2.79999995;stroke-linecap:round;stroke-linejoin:round;stroke-miterlimit:4;stroke-opacity:1;stroke-dasharray:none"
               d="M 0,0 0,0"
               inkscape:connector-curvature="0" /></g><g
             transform="translate(383.2637,86.9634)"
             id="g456"><path
               id="path458"
               style="fill:none;stroke:#ffffff;stroke-width:2.79999995;stroke-linecap:round;stroke-linejoin:miter;stroke-miterlimit:10;stroke-opacity:1;stroke-dasharray:none"
               d="m 0,0 c 3.457,0 6.258,-2.795 6.258,-6.254 0,-2.297 -1.231,-4.307 -3.074,-5.391 -0.856,-0.503 -0.746,-1.873 -0.7,-2.83 l 3.106,0 c 6.117,0 9.738,-7.437 15.832,-7.437"
               inkscape:connector-curvature="0" /></g><g
             transform="translate(376.0371,65.2603)"
             id="g460"><path
               id="path462"
               style="fill:none;stroke:#ffffff;stroke-width:2.79999995;stroke-linecap:round;stroke-linejoin:round;stroke-miterlimit:4;stroke-opacity:1;stroke-dasharray:none"
               d="M 0,0 0,0"
               inkscape:connector-curvature="0" /></g><g
             transform="translate(375.5332,60.0264)"
             id="g464"><path
               id="path466"
               style="fill:none;stroke:#ffffff;stroke-width:2.79999995;stroke-linecap:round;stroke-linejoin:round;stroke-miterlimit:4;stroke-opacity:1;stroke-dasharray:0, 5.261;stroke-dashoffset:0"
               d="M 0,0 C -0.697,-6.022 -1.846,-15.702 -1.602,-23.6"
               inkscape:connector-curvature="0" /></g><g
             transform="translate(374.0723,33.7974)"
             id="g468"><path
               id="path470"
               style="fill:none;stroke:#ffffff;stroke-width:2.79999995;stroke-linecap:round;stroke-linejoin:round;stroke-miterlimit:4;stroke-opacity:1;stroke-dasharray:none"
               d="M 0,0 0,0"
               inkscape:connector-curvature="0" /></g><g
             transform="translate(389.0605,65.356)"
             id="g472"><path
               id="path474"
               style="fill:none;stroke:#ffffff;stroke-width:2.79999995;stroke-linecap:round;stroke-linejoin:round;stroke-miterlimit:4;stroke-opacity:1;stroke-dasharray:none"
               d="M 0,0 0,0"
               inkscape:connector-curvature="0" /></g><g
             transform="translate(392.8262,64.9624)"
             id="g476"><path
               id="path478"
               style="fill:none;stroke:#ffffff;stroke-width:2.79999995;stroke-linecap:round;stroke-linejoin:round;stroke-miterlimit:4;stroke-opacity:1;stroke-dasharray:0, 4.456;stroke-dashoffset:0"
               d="M 0,0 C 1.836,-0.945 4.049,-2.266 5.932,-3.088"
               inkscape:connector-curvature="0" /></g><g
             transform="translate(400.8691,61.1743)"
             id="g480"><path
               id="path482"
               style="fill:none;stroke:#ffffff;stroke-width:2.79999995;stroke-linecap:round;stroke-linejoin:round;stroke-miterlimit:4;stroke-opacity:1;stroke-dasharray:none"
               d="M 0,0 0,0"
               inkscape:connector-curvature="0" /></g><g
             transform="translate(362.4199,62.4966)"
             id="g484"><path
               id="path486"
               style="fill:none;stroke:#ffffff;stroke-width:2.79999995;stroke-linecap:round;stroke-linejoin:round;stroke-miterlimit:4;stroke-opacity:1;stroke-dasharray:none"
               d="M 0,0 0,0"
               inkscape:connector-curvature="0" /></g><g
             transform="translate(367.2549,62.2173)"
             id="g488"><path
               id="path490"
               style="fill:none;stroke:#ffffff;stroke-width:2.79999995;stroke-linecap:round;stroke-linejoin:round;stroke-miterlimit:4;stroke-opacity:1;stroke-dasharray:0, 5.323;stroke-dashoffset:0"
               d="M 0,0 C 2.329,1.091 5.128,3.236 6.931,3.952"
               inkscape:connector-curvature="0" /></g><g
             transform="translate(376.0371,65.2603)"
             id="g492"><path
               id="path494"
               style="fill:none;stroke:#ffffff;stroke-width:2.79999995;stroke-linecap:round;stroke-linejoin:round;stroke-miterlimit:4;stroke-opacity:1;stroke-dasharray:none"
               d="M 0,0 0,0"
               inkscape:connector-curvature="0" /></g></g></g><text
         id="text496"
         transform="matrix(1,0,0,-1,436.7788,62.2158)"><tspan
           id="tspan498"
           sodipodi:role="line"
           y="0"
           x="0 16.1056 31.718399 46.032001 58.7104 65.340797 77.929604 91.324799 97.596802 113.008 126.4032 132.6752 147.2128 153.8432"
           style="font-size:22.39999962px;font-variant:normal;font-weight:600;font-stretch:normal;writing-mode:lr-tb;fill:#935bb3;fill-opacity:1;fill-rule:nonzero;stroke:none;font-family:PF BeauSans Pro SemiBold;-inkscape-font-specification:PFBeauSansPro-SemiBold">QUALIT DE VIE</tspan><tspan
           id="tspan500"
           sodipodi:role="line"
           y="26.947201"
           x="0.89600003 14.2912 26.879999 33.152 47.689602 54.32 67.715202 74.345596 87.024002 99.7024 106.3328 119.4592 132.5856 145.9808 164.752 178.1472 194.20799"
           style="font-size:22.39999962px;font-variant:normal;font-weight:600;font-stretch:normal;writing-mode:lr-tb;fill:#935bb3;fill-opacity:1;fill-rule:nonzero;stroke:none;font-family:PF BeauSans Pro SemiBold;-inkscape-font-specification:PFBeauSansPro-SemiBold">ET VIEILLISSEMENT</tspan></text>
<g
         id="g502"><g
           clip-path="url(#clipPath506)"
           id="g504"><g
             transform="matrix(1,0,0,-1,383.25977,57.268066)"
             id="g510"><g
               id="g512"><g
                 clip-path="url(#clipPath516)"
                 id="g514"><g
                   transform="translate(36.6934,-0.002)"
                   id="g520"><path
                     id="path522"
                     style="fill:#935bb3;fill-opacity:1;fill-rule:nonzero;stroke:none"
                     d="m 0,0 c 0,20.268 -16.426,36.695 -36.691,36.695 -20.27,0 -36.696,-16.427 -36.696,-36.695 0,-20.266 16.426,-36.691 36.696,-36.691 C -16.426,-36.691 0,-20.266 0,0"
                     inkscape:connector-curvature="0" /></g><g
                   transform="translate(21.4238,-7.7813)"
                   id="g524"><path
                     id="path526"
                     style="fill:none;stroke:#ffffff;stroke-width:2.79999995;stroke-linecap:round;stroke-linejoin:miter;stroke-miterlimit:10;stroke-opacity:1;stroke-dasharray:none"
                     d="M 0,0 0,30.734"
                     inkscape:connector-curvature="0" /></g><g
                   transform="translate(-5.5918,-15.2188)"
                   id="g528"><path
                     id="path530"
                     style="fill:none;stroke:#ffffff;stroke-width:2.79999995;stroke-linecap:round;stroke-linejoin:round;stroke-miterlimit:4;stroke-opacity:1;stroke-dasharray:none"
                     d="M 0,0 0,0"
                     inkscape:connector-curvature="0" /></g><g
                   transform="translate(-10.2422,-14.2139)"
                   id="g532"><path
                     id="path534"
                     style="fill:none;stroke:#ffffff;stroke-width:2.79999995;stroke-linecap:round;stroke-linejoin:round;stroke-miterlimit:4;stroke-opacity:1;stroke-dasharray:0, 4.788;stroke-dashoffset:0"
                     d="M 0,0 C -4.675,1.985 -8.147,6.286 -9.581,7.092"
                     inkscape:connector-curvature="0" /></g><g
                   transform="translate(-20.8418,-5.2266)"
                   id="g536"><path
                     id="path538"
                     style="fill:none;stroke:#ffffff;stroke-width:2.79999995;stroke-linecap:round;stroke-linejoin:round;stroke-miterlimit:4;stroke-opacity:1;stroke-dasharray:none"
                     d="M 0,0 0,0"
                     inkscape:connector-curvature="0" /></g><g
                   transform="translate(0.002,-29.6934)"
                   id="g540"><path
                     id="path542"
                     style="fill:none;stroke:#ffffff;stroke-width:2.79999995;stroke-linecap:round;stroke-linejoin:round;stroke-miterlimit:4;stroke-opacity:1;stroke-dasharray:none"
                     d="M 0,0 0,0"
                     inkscape:connector-curvature="0" /></g><g
                   transform="translate(-4.7715,-27.4863)"
                   id="g544"><path
                     id="path546"
                     style="fill:none;stroke:#ffffff;stroke-width:2.79999995;stroke-linecap:round;stroke-linejoin:round;stroke-miterlimit:4;stroke-opacity:1;stroke-dasharray:0, 5.418;stroke-dashoffset:0"
                     d="m 0,0 c -0.926,1.09 -1.484,2.502 -1.484,4.047 0,1.304 0.397,2.515 1.078,3.517"
                     inkscape:connector-curvature="0" /></g><g
                   transform="translate(-3.2246,-18.0723)"
                   id="g548"><path
                     id="path550"
                     style="fill:none;stroke:#ffffff;stroke-width:2.79999995;stroke-linecap:round;stroke-linejoin:round;stroke-miterlimit:4;stroke-opacity:1;stroke-dasharray:none"
                     d="M 0,0 0,0"
                     inkscape:connector-curvature="0" /></g><g
                   transform="translate(-8.8262,27.6074)"
                   id="g552"><path
                     id="path554"
                     style="fill:none;stroke:#ffffff;stroke-width:2.79999995;stroke-linecap:round;stroke-linejoin:miter;stroke-miterlimit:10;stroke-opacity:1;stroke-dasharray:none"
                     d="m 0,0 c 0,0 4.129,0.719 4.129,-1.976 0,-5.043 -0.617,-23.276 4.309,-23.276 4.402,0 3.457,18.416 3.457,23.276 0,2.57 4.128,1.978 4.128,1.978"
                     inkscape:connector-curvature="0" /></g><g
                   transform="translate(7.4121,23.2773)"
                   id="g556"><path
                     id="path558"
                     style="fill:none;stroke:#ffffff;stroke-width:2.79999995;stroke-linecap:round;stroke-linejoin:round;stroke-miterlimit:4;stroke-opacity:1;stroke-dasharray:none"
                     d="M 0,0 0,0"
                     inkscape:connector-curvature="0" /></g><g
                   transform="translate(7.7578,18.0474)"
                   id="g560"><path
                     id="path562"
                     style="fill:none;stroke:#ffffff;stroke-width:2.79999995;stroke-linecap:round;stroke-linejoin:round;stroke-miterlimit:4;stroke-opacity:1;stroke-dasharray:0, 5.244;stroke-dashoffset:0"
                     d="M 0,0 C 0.155,-8.45 -1.22,-18.527 -1.753,-23.524"
                     inkscape:connector-curvature="0" /></g><g
                   transform="translate(5.7988,-8.0859)"
                   id="g564"><path
                     id="path566"
                     style="fill:none;stroke:#ffffff;stroke-width:2.79999995;stroke-linecap:round;stroke-linejoin:round;stroke-miterlimit:4;stroke-opacity:1;stroke-dasharray:none"
                     d="M 0,0 0,0"
                     inkscape:connector-curvature="0" /></g><g
                   transform="translate(0.002,-29.6934)"
                   id="g568"><path
                     id="path570"
                     style="fill:none;stroke:#ffffff;stroke-width:2.79999995;stroke-linecap:round;stroke-linejoin:miter;stroke-miterlimit:10;stroke-opacity:1;stroke-dasharray:none"
                     d="m 0,0 c 3.457,0 6.258,2.795 6.258,6.254 0,2.297 -1.231,4.307 -3.074,5.391 -0.856,0.503 -0.746,1.873 -0.7,2.83 l 3.106,0 c 6.117,0 9.738,7.437 15.832,7.437"
                     inkscape:connector-curvature="0" /></g><g
                   transform="translate(-7.2246,-7.9902)"
                   id="g572"><path
                     id="path574"
                     style="fill:none;stroke:#ffffff;stroke-width:2.79999995;stroke-linecap:round;stroke-linejoin:round;stroke-miterlimit:4;stroke-opacity:1;stroke-dasharray:none"
                     d="M 0,0 0,0"
                     inkscape:connector-curvature="0" /></g><g
                   transform="translate(-7.7285,-2.7563)"
                   id="g576"><path
                     id="path578"
                     style="fill:none;stroke:#ffffff;stroke-width:2.79999995;stroke-linecap:round;stroke-linejoin:round;stroke-miterlimit:4;stroke-opacity:1;stroke-dasharray:0, 5.261;stroke-dashoffset:0"
                     d="M 0,0 C -0.697,6.022 -1.846,15.702 -1.602,23.6"
                     inkscape:connector-curvature="0" /></g><g
                   transform="translate(-9.1895,23.4727)"
                   id="g580"><path
                     id="path582"
                     style="fill:none;stroke:#ffffff;stroke-width:2.79999995;stroke-linecap:round;stroke-linejoin:round;stroke-miterlimit:4;stroke-opacity:1;stroke-dasharray:none"
                     d="M 0,0 0,0"
                     inkscape:connector-curvature="0" /></g><g
                   transform="translate(5.7988,-8.0859)"
                   id="g584"><path
                     id="path586"
                     style="fill:none;stroke:#ffffff;stroke-width:2.79999995;stroke-linecap:round;stroke-linejoin:round;stroke-miterlimit:4;stroke-opacity:1;stroke-dasharray:none"
                     d="M 0,0 0,0"
                     inkscape:connector-curvature="0" /></g><g
                   transform="translate(9.7559,-6.7285)"
                   id="g588"><path
                     id="path590"
                     style="fill:none;stroke:#ffffff;stroke-width:2.79999995;stroke-linecap:round;stroke-linejoin:round;stroke-miterlimit:4;stroke-opacity:1;stroke-dasharray:0, 4.223;stroke-dashoffset:0"
                     d="M 0,0 C 1.712,0.936 3.563,2.096 5.752,2.587"
                     inkscape:connector-curvature="0" /></g><g
                   transform="translate(17.6074,-3.9043)"
                   id="g592"><path
                     id="path594"
                     style="fill:none;stroke:#ffffff;stroke-width:2.79999995;stroke-linecap:round;stroke-linejoin:round;stroke-miterlimit:4;stroke-opacity:1;stroke-dasharray:none"
                     d="M 0,0 0,0"
                     inkscape:connector-curvature="0" /></g><g
                   transform="translate(-20.8418,-5.2266)"
                   id="g596"><path
                     id="path598"
                     style="fill:none;stroke:#ffffff;stroke-width:2.79999995;stroke-linecap:round;stroke-linejoin:round;stroke-miterlimit:4;stroke-opacity:1;stroke-dasharray:none"
                     d="M 0,0 0,0"
                     inkscape:connector-curvature="0" /></g><g
                   transform="translate(-16.3525,-4.752)"
                   id="g600"><path
                     id="path602"
                     style="fill:none;stroke:#ffffff;stroke-width:2.79999995;stroke-linecap:round;stroke-linejoin:round;stroke-miterlimit:4;stroke-opacity:1;stroke-dasharray:0, 4.935;stroke-dashoffset:0"
                     d="M 0,0 C 2.385,-0.884 4.611,-2.546 6.696,-3.146"
                     inkscape:connector-curvature="0" /></g><g
                   transform="translate(-7.2246,-7.9902)"
                   id="g604"><path
                     id="path606"
                     style="fill:none;stroke:#ffffff;stroke-width:2.79999995;stroke-linecap:round;stroke-linejoin:round;stroke-miterlimit:4;stroke-opacity:1;stroke-dasharray:none"
                     d="M 0,0 0,0"
                     inkscape:connector-curvature="0" /></g></g></g></g></g></g></g></g></svg>