<?xml version="1.0" encoding="UTF-8" standalone="no"?>
<svg
   xmlns:dc="http://purl.org/dc/elements/1.1/"
   xmlns:cc="http://creativecommons.org/ns#"
   xmlns:rdf="http://www.w3.org/1999/02/22-rdf-syntax-ns#"
   xmlns:svg="http://www.w3.org/2000/svg"
   xmlns="http://www.w3.org/2000/svg"
   xmlns:sodipodi="http://sodipodi.sourceforge.net/DTD/sodipodi-0.dtd"
   xmlns:inkscape="http://www.inkscape.org/namespaces/inkscape"
   width="133mm"
   height="49mm"
   viewBox="0 0 13300 4900"
   version="1.1"
   stroke-width="28.222"
   stroke-linejoin="round"
   xml:space="preserve"
   id="svg2"
   inkscape:version="0.91 r13725"
   sodipodi:docname="quality-speed.svg"><metadata
     id="metadata394"><rdf:RDF><cc:Work
         rdf:about=""><dc:format>image/svg+xml</dc:format><dc:type
           rdf:resource="http://purl.org/dc/dcmitype/StillImage" /></cc:Work></rdf:RDF></metadata><defs
     id="defs392" /><sodipodi:namedview
     pagecolor="#ffffff"
     bordercolor="#666666"
     borderopacity="1"
     objecttolerance="10"
     gridtolerance="10"
     guidetolerance="10"
     inkscape:pageopacity="0"
     inkscape:pageshadow="2"
     inkscape:window-width="1920"
     inkscape:window-height="1047"
     id="namedview390"
     showgrid="false"
     inkscape:zoom="1.7485046"
     inkscape:cx="109.36652"
     inkscape:cy="42.504831"
     inkscape:window-x="0"
     inkscape:window-y="1080"
     inkscape:window-maximized="1"
     inkscape:current-layer="svg2" /><path
     fill="rgb(253,246,227)"
     stroke="none"
     d="M 6664,4914 L 0,4914 0,0 13328,0 13328,4914 6664,4914 Z"
     id="path4" /><path
     fill="none"
     stroke="rgb(179,179,179)"
     stroke-linejoin="round"
     d="M 5898,4076 L 1653,4076 1653,494 10143,494 10143,4076 5898,4076 Z"
     id="path6" /><path
     fill="none"
     stroke="rgb(179,179,179)"
     stroke-linejoin="round"
     d="M 1653,493 L 1653,4075"
     id="path8" /><path
     fill="none"
     stroke="rgb(179,179,179)"
     stroke-linejoin="round"
     d="M 2424,493 L 2424,4075"
     id="path10" /><path
     fill="none"
     stroke="rgb(179,179,179)"
     stroke-linejoin="round"
     d="M 3196,493 L 3196,4075"
     id="path12" /><path
     fill="none"
     stroke="rgb(179,179,179)"
     stroke-linejoin="round"
     d="M 3968,493 L 3968,4075"
     id="path14" /><path
     fill="none"
     stroke="rgb(179,179,179)"
     stroke-linejoin="round"
     d="M 4740,493 L 4740,4075"
     id="path16" /><path
     fill="none"
     stroke="rgb(179,179,179)"
     stroke-linejoin="round"
     d="M 5512,493 L 5512,4075"
     id="path18" /><path
     fill="none"
     stroke="rgb(179,179,179)"
     stroke-linejoin="round"
     d="M 6284,493 L 6284,4075"
     id="path20" /><path
     fill="none"
     stroke="rgb(179,179,179)"
     stroke-linejoin="round"
     d="M 7055,493 L 7055,4075"
     id="path22" /><path
     fill="none"
     stroke="rgb(179,179,179)"
     stroke-linejoin="round"
     d="M 7827,493 L 7827,4075"
     id="path24" /><path
     fill="none"
     stroke="rgb(179,179,179)"
     stroke-linejoin="round"
     d="M 8599,493 L 8599,4075"
     id="path26" /><path
     fill="none"
     stroke="rgb(179,179,179)"
     stroke-linejoin="round"
     d="M 9371,493 L 9371,4075"
     id="path28" /><path
     fill="none"
     stroke="rgb(179,179,179)"
     stroke-linejoin="round"
     d="M 10143,493 L 10143,4075"
     id="path30" /><path
     fill="none"
     stroke="rgb(238,232,213)"
     stroke-linejoin="round"
     d="M 2038,493 L 2038,4075"
     id="path32" /><path
     fill="none"
     stroke="rgb(238,232,213)"
     stroke-linejoin="round"
     d="M 2810,493 L 2810,4075"
     id="path34" /><path
     fill="none"
     stroke="rgb(238,232,213)"
     stroke-linejoin="round"
     d="M 3582,493 L 3582,4075"
     id="path36" /><path
     fill="none"
     stroke="rgb(238,232,213)"
     stroke-linejoin="round"
     d="M 4354,493 L 4354,4075"
     id="path38" /><path
     fill="none"
     stroke="rgb(238,232,213)"
     stroke-linejoin="round"
     d="M 5126,493 L 5126,4075"
     id="path40" /><path
     fill="none"
     stroke="rgb(238,232,213)"
     stroke-linejoin="round"
     d="M 5898,493 L 5898,4075"
     id="path42" /><path
     fill="none"
     stroke="rgb(238,232,213)"
     stroke-linejoin="round"
     d="M 6669,493 L 6669,4075"
     id="path44" /><path
     fill="none"
     stroke="rgb(238,232,213)"
     stroke-linejoin="round"
     d="M 7441,493 L 7441,4075"
     id="path46" /><path
     fill="none"
     stroke="rgb(238,232,213)"
     stroke-linejoin="round"
     d="M 8213,493 L 8213,4075"
     id="path48" /><path
     fill="none"
     stroke="rgb(238,232,213)"
     stroke-linejoin="round"
     d="M 8985,493 L 8985,4075"
     id="path50" /><path
     fill="none"
     stroke="rgb(238,232,213)"
     stroke-linejoin="round"
     d="M 9757,493 L 9757,4075"
     id="path52" /><path
     fill="none"
     stroke="rgb(147,161,161)"
     stroke-linejoin="round"
     d="M 10143,4075 L 1653,4075"
     id="path54" /><path
     fill="none"
     stroke="rgb(147,161,161)"
     stroke-linejoin="round"
     d="M 10143,3358 L 1653,3358"
     id="path56" /><path
     fill="none"
     stroke="rgb(147,161,161)"
     stroke-linejoin="round"
     d="M 10143,2641 L 1653,2641"
     id="path58" /><path
     fill="none"
     stroke="rgb(147,161,161)"
     stroke-linejoin="round"
     d="M 10143,1926 L 1653,1926"
     id="path60" /><path
     fill="none"
     stroke="rgb(147,161,161)"
     stroke-linejoin="round"
     d="M 10143,1209 L 1653,1209"
     id="path62" /><path
     fill="none"
     stroke="rgb(147,161,161)"
     stroke-linejoin="round"
     d="M 10143,493 L 1653,493"
     id="path64" /><path
     fill="none"
     stroke="rgb(238,232,213)"
     stroke-linejoin="round"
     d="M 10143,3716 L 1653,3716"
     id="path66" /><path
     fill="none"
     stroke="rgb(238,232,213)"
     stroke-linejoin="round"
     d="M 10143,3000 L 1653,3000"
     id="path68" /><path
     fill="none"
     stroke="rgb(238,232,213)"
     stroke-linejoin="round"
     d="M 10143,2284 L 1653,2284"
     id="path70" /><path
     fill="none"
     stroke="rgb(238,232,213)"
     stroke-linejoin="round"
     d="M 10143,1567 L 1653,1567"
     id="path72" /><path
     fill="none"
     stroke="rgb(238,232,213)"
     stroke-linejoin="round"
     d="M 10143,851 L 1653,851"
     id="path74" /><path
     fill="none"
     stroke="rgb(179,179,179)"
     stroke-linejoin="round"
     d="M 1653,4225 L 1653,4075"
     id="path76" /><path
     fill="none"
     stroke="rgb(179,179,179)"
     stroke-linejoin="round"
     d="M 1653,4225 L 1653,4075"
     id="path78" /><path
     fill="none"
     stroke="rgb(179,179,179)"
     stroke-linejoin="round"
     d="M 2424,4225 L 2424,4075"
     id="path80" /><path
     fill="none"
     stroke="rgb(179,179,179)"
     stroke-linejoin="round"
     d="M 2424,4225 L 2424,4075"
     id="path82" /><path
     fill="none"
     stroke="rgb(179,179,179)"
     stroke-linejoin="round"
     d="M 3196,4225 L 3196,4075"
     id="path84" /><path
     fill="none"
     stroke="rgb(179,179,179)"
     stroke-linejoin="round"
     d="M 3196,4225 L 3196,4075"
     id="path86" /><path
     fill="none"
     stroke="rgb(179,179,179)"
     stroke-linejoin="round"
     d="M 3968,4225 L 3968,4075"
     id="path88" /><path
     fill="none"
     stroke="rgb(179,179,179)"
     stroke-linejoin="round"
     d="M 3968,4225 L 3968,4075"
     id="path90" /><path
     fill="none"
     stroke="rgb(179,179,179)"
     stroke-linejoin="round"
     d="M 4740,4225 L 4740,4075"
     id="path92" /><path
     fill="none"
     stroke="rgb(179,179,179)"
     stroke-linejoin="round"
     d="M 4740,4225 L 4740,4075"
     id="path94" /><path
     fill="none"
     stroke="rgb(179,179,179)"
     stroke-linejoin="round"
     d="M 5512,4225 L 5512,4075"
     id="path96" /><path
     fill="none"
     stroke="rgb(179,179,179)"
     stroke-linejoin="round"
     d="M 5512,4225 L 5512,4075"
     id="path98" /><path
     fill="none"
     stroke="rgb(179,179,179)"
     stroke-linejoin="round"
     d="M 6284,4225 L 6284,4075"
     id="path100" /><path
     fill="none"
     stroke="rgb(179,179,179)"
     stroke-linejoin="round"
     d="M 6284,4225 L 6284,4075"
     id="path102" /><path
     fill="none"
     stroke="rgb(179,179,179)"
     stroke-linejoin="round"
     d="M 7055,4225 L 7055,4075"
     id="path104" /><path
     fill="none"
     stroke="rgb(179,179,179)"
     stroke-linejoin="round"
     d="M 7055,4225 L 7055,4075"
     id="path106" /><path
     fill="none"
     stroke="rgb(179,179,179)"
     stroke-linejoin="round"
     d="M 7827,4225 L 7827,4075"
     id="path108" /><path
     fill="none"
     stroke="rgb(179,179,179)"
     stroke-linejoin="round"
     d="M 7827,4225 L 7827,4075"
     id="path110" /><path
     fill="none"
     stroke="rgb(179,179,179)"
     stroke-linejoin="round"
     d="M 8599,4225 L 8599,4075"
     id="path112" /><path
     fill="none"
     stroke="rgb(179,179,179)"
     stroke-linejoin="round"
     d="M 8599,4225 L 8599,4075"
     id="path114" /><path
     fill="none"
     stroke="rgb(179,179,179)"
     stroke-linejoin="round"
     d="M 9371,4225 L 9371,4075"
     id="path116" /><path
     fill="none"
     stroke="rgb(179,179,179)"
     stroke-linejoin="round"
     d="M 9371,4225 L 9371,4075"
     id="path118" /><path
     fill="none"
     stroke="rgb(179,179,179)"
     stroke-linejoin="round"
     d="M 10143,4225 L 10143,4075"
     id="path120" /><path
     fill="none"
     stroke="rgb(179,179,179)"
     stroke-linejoin="round"
     d="M 10143,4225 L 10143,4075"
     id="path122" /><path
     fill="none"
     stroke="rgb(179,179,179)"
     stroke-linejoin="round"
     d="M 1653,4075 L 10143,4075"
     id="path124" /><path
     fill="none"
     stroke="rgb(179,179,179)"
     stroke-linejoin="round"
     d="M 1503,4075 L 1653,4075"
     id="path126" /><path
     fill="none"
     stroke="rgb(179,179,179)"
     stroke-linejoin="round"
     d="M 1503,4075 L 1653,4075"
     id="path128" /><path
     fill="none"
     stroke="rgb(179,179,179)"
     stroke-linejoin="round"
     d="M 1503,3358 L 1653,3358"
     id="path130" /><path
     fill="none"
     stroke="rgb(179,179,179)"
     stroke-linejoin="round"
     d="M 1503,3358 L 1653,3358"
     id="path132" /><path
     fill="none"
     stroke="rgb(179,179,179)"
     stroke-linejoin="round"
     d="M 1503,2641 L 1653,2641"
     id="path134" /><path
     fill="none"
     stroke="rgb(179,179,179)"
     stroke-linejoin="round"
     d="M 1503,2641 L 1653,2641"
     id="path136" /><path
     fill="none"
     stroke="rgb(179,179,179)"
     stroke-linejoin="round"
     d="M 1503,1926 L 1653,1926"
     id="path138" /><path
     fill="none"
     stroke="rgb(179,179,179)"
     stroke-linejoin="round"
     d="M 1503,1926 L 1653,1926"
     id="path140" /><path
     fill="none"
     stroke="rgb(179,179,179)"
     stroke-linejoin="round"
     d="M 1503,1209 L 1653,1209"
     id="path142" /><path
     fill="none"
     stroke="rgb(179,179,179)"
     stroke-linejoin="round"
     d="M 1503,1209 L 1653,1209"
     id="path144" /><path
     fill="none"
     stroke="rgb(179,179,179)"
     stroke-linejoin="round"
     d="M 1503,493 L 1653,493"
     id="path146" /><path
     fill="none"
     stroke="rgb(179,179,179)"
     stroke-linejoin="round"
     d="M 1503,493 L 1653,493"
     id="path148" /><path
     fill="none"
     stroke="rgb(179,179,179)"
     stroke-linejoin="round"
     d="M 1653,4075 L 1653,493"
     id="path150" /><path
     fill="rgb(133,153,0)"
     stroke="none"
     d="M 4118,293 L 4118,465 3949,368 3934,395 4103,493 3934,590 3949,617 4118,520 4118,693 4149,693 4149,520 4318,617 4334,590 4165,493 4334,395 4318,368 4149,465 4149,293 4118,293 Z"
     id="path152" /><path
     fill="none"
     stroke="rgb(211,54,130)"
     stroke-width="20"
     stroke-linejoin="round"
     d="M 3663,493 L 4251,493 4839,493"
     id="path178" /><path
     fill="none"
     stroke="rgb(133,153,0)"
     stroke-width="20"
     stroke-linejoin="round"
     stroke-dasharray="27,27,27,27"
     d="M 3627,493 L 4134,493 4641,493"
     id="path156" /><path
     fill="none"
     stroke="rgb(133,153,0)"
     stroke-width="20"
     stroke-linejoin="round"
     stroke-dasharray="27,27,27,27"
     d="M 3627,593 L 3627,393"
     id="path158" /><path
     fill="none"
     stroke="rgb(133,153,0)"
     stroke-width="20"
     stroke-linejoin="round"
     stroke-dasharray="27,27,27,27"
     d="M 4641,393 L 4641,593"
     id="path160" /><path
     fill="rgb(38,139,210)"
     stroke="none"
     d="M 8342,493 L 8342,484 8341,475 8340,466 8339,458 8337,449 8335,441 8333,432 8330,424 8327,416 8323,408 8319,400 8315,393 8311,385 8306,378 8301,371 8295,364 8289,357 8283,351 8277,345 8271,339 8264,334 8257,329 8249,324 8242,319 8234,315 8227,311 8219,308 8210,305 8202,302 8194,299 8185,297 8177,296 8168,294 8159,293 8151,293 8142,293 8133,293 8125,293 8116,294 8107,296 8099,297 8090,299 8082,302 8074,305 8065,308 8057,311 8050,315 8042,319 8035,324 8027,329 8020,334 8013,339 8007,345 8001,351 7995,357 7989,364 7983,371 7978,378 7973,385 7969,393 7965,400 7961,408 7957,416 7954,424 7951,432 7949,441 7947,449 7945,458 7944,466 7943,475 7942,484 7942,493 7942,501 7943,510 7944,519 7945,527 7947,536 7949,544 7951,553 7954,561 7957,569 7961,577 7965,585 7969,593 7973,600 7978,607 7983,614 7989,621 7995,628 8001,634 8007,640 8013,646 8020,651 8027,656 8035,661 8042,666 8050,670 8057,674 8065,677 8074,680 8082,683 8090,686 8099,688 8107,689 8116,691 8125,692 8133,692 8142,693 8151,692 8159,692 8168,691 8177,689 8185,688 8194,686 8202,683 8210,680 8219,677 8227,674 8234,670 8242,666 8249,661 8257,656 8264,651 8271,646 8277,640 8283,634 8289,628 8295,621 8301,614 8306,607 8311,600 8315,593 8319,585 8323,577 8327,569 8330,561 8333,553 8335,544 8337,536 8339,527 8340,519 8341,510 8342,501 8342,493 Z"
     id="path162" /><path
     fill="none"
     stroke="rgb(38,139,210)"
     stroke-linejoin="round"
     d="M 8342,493 L 8342,484 8341,475 8340,466 8339,458 8337,449 8335,441 8333,432 8330,424 8327,416 8323,408 8319,400 8315,393 8311,385 8306,378 8301,371 8295,364 8289,357 8283,351 8277,345 8271,339 8264,334 8257,329 8249,324 8242,319 8234,315 8227,311 8219,308 8210,305 8202,302 8194,299 8185,297 8177,296 8168,294 8159,293 8151,293 8142,293 8133,293 8125,293 8116,294 8107,296 8099,297 8090,299 8082,302 8074,305 8065,308 8057,311 8050,315 8042,319 8035,324 8027,329 8020,334 8013,339 8007,345 8001,351 7995,357 7989,364 7983,371 7978,378 7973,385 7969,393 7965,400 7961,408 7957,416 7954,424 7951,432 7949,441 7947,449 7945,458 7944,466 7943,475 7942,484 7942,493 7942,501 7943,510 7944,519 7945,527 7947,536 7949,544 7951,553 7954,561 7957,569 7961,577 7965,585 7969,593 7973,600 7978,607 7983,614 7989,621 7995,628 8001,634 8007,640 8013,646 8020,651 8027,656 8035,661 8042,666 8050,670 8057,674 8065,677 8074,680 8082,683 8090,686 8099,688 8107,689 8116,691 8125,692 8133,692 8142,693 8151,692 8159,692 8168,691 8177,689 8185,688 8194,686 8202,683 8210,680 8219,677 8227,674 8234,670 8242,666 8249,661 8257,656 8264,651 8271,646 8277,640 8283,634 8289,628 8295,621 8301,614 8306,607 8311,600 8315,593 8319,585 8323,577 8327,569 8330,561 8333,553 8335,544 8337,536 8339,527 8340,519 8341,510 8342,501 8342,493 Z"
     id="path164" /><path
     fill="none"
     stroke="rgb(38,139,210)"
     stroke-width="20"
     stroke-linejoin="round"
     d="M 6647,493 L 8142,493 9638,493"
     id="path166" /><path
     fill="none"
     stroke="rgb(38,139,210)"
     stroke-width="20"
     stroke-linejoin="round"
     d="M 6647,593 L 6647,393"
     id="path168" /><path
     fill="none"
     stroke="rgb(38,139,210)"
     stroke-width="20"
     stroke-linejoin="round"
     d="M 9638,393 L 9638,593"
     id="path170" /><path
     fill="none"
     stroke="rgb(133,153,0)"
     stroke-linejoin="round"
     d="M 4118,293 L 4118,465 3949,368 3934,395 4103,493 3934,590 3949,617 4118,520 4118,693 4149,693 4149,520 4318,617 4334,590 4165,493 4334,395 4318,368 4149,465 4149,293 4118,293 Z"
     id="path154" /><path
     fill="rgb(211,54,130)"
     stroke="none"
     d="M 4151,293 C 4188,293 4217,314 4238,356 4245,373 4249,385 4250,394 L 4251,394 C 4257,365 4268,341 4285,322 4305,303 4327,293 4351,293 4389,293 4419,313 4442,353 4448,368 4451,382 4451,395 4451,439 4432,482 4394,523 L 4251,693 4249,693 4096,508 C 4066,472 4051,434 4051,395 4051,357 4069,327 4105,305 4120,297 4135,293 4151,293 L 4151,293 Z"
     id="path172" /><path
     fill="rgb(211,54,130)"
     stroke="none"
     d="M 3684,770 C 3721,770 3750,791 3771,833 3778,849 3782,862 3783,871 L 3784,871 C 3790,842 3801,818 3818,799 3838,779 3860,770 3884,770 3922,770 3952,790 3975,830 3981,845 3984,859 3984,872 3984,916 3965,959 3927,1000 L 3784,1170 3782,1170 3629,985 C 3599,948 3584,911 3584,872 3584,834 3602,804 3638,782 3653,774 3668,770 3684,770 L 3684,770 Z"
     id="path174" /><path
     fill="rgb(211,54,130)"
     stroke="none"
     d="M 2656,1248 C 2693,1248 2722,1269 2743,1311 2750,1327 2754,1340 2755,1349 L 2756,1349 C 2762,1320 2773,1296 2790,1277 2810,1257 2832,1248 2856,1248 2894,1248 2924,1268 2947,1308 2953,1323 2956,1337 2956,1350 2956,1394 2937,1437 2899,1477 L 2756,1648 2754,1648 2601,1463 C 2571,1426 2556,1389 2556,1350 2556,1312 2574,1282 2610,1260 2625,1252 2641,1248 2656,1248 L 2656,1248 Z"
     id="path176" /><path
     fill="none"
     stroke="rgb(211,54,130)"
     stroke-width="20"
     stroke-linejoin="round"
     d="M 3663,593 L 3663,393"
     id="path180" /><path
     fill="none"
     stroke="rgb(211,54,130)"
     stroke-width="20"
     stroke-linejoin="round"
     d="M 4839,393 L 4839,593"
     id="path182" /><path
     fill="none"
     stroke="rgb(211,54,130)"
     stroke-width="20"
     stroke-linejoin="round"
     d="M 3290,970 L 3784,970 4279,970"
     id="path184" /><path
     fill="none"
     stroke="rgb(211,54,130)"
     stroke-width="20"
     stroke-linejoin="round"
     d="M 3290,1070 L 3290,870"
     id="path186" /><path
     fill="none"
     stroke="rgb(211,54,130)"
     stroke-width="20"
     stroke-linejoin="round"
     d="M 4279,870 L 4279,1070"
     id="path188" /><path
     fill="none"
     stroke="rgb(211,54,130)"
     stroke-width="20"
     stroke-linejoin="round"
     d="M 2451,1448 L 2756,1448 3060,1448"
     id="path190" /><path
     fill="none"
     stroke="rgb(211,54,130)"
     stroke-width="20"
     stroke-linejoin="round"
     d="M 2451,1548 L 2451,1348"
     id="path192" /><path
     fill="none"
     stroke="rgb(211,54,130)"
     stroke-width="20"
     stroke-linejoin="round"
     d="M 3060,1348 L 3060,1548"
     id="path194" /><text
     class="TextShape"
     id="text196"
     style="fill:#073642;"><tspan
       class="TextParagraph"
       font-family="Aller Display"
       font-size="423px"
       font-weight="400"
       id="tspan198"
       style="fill:#073642;"><tspan
         class="TextPosition"
         x="1520"
         y="4722"
         id="tspan200"
         style="fill:#073642;"><tspan
           fill="rgb(88,110,117)"
           stroke="none"
           id="tspan202"
           style="fill:#073642;">0</tspan></tspan></tspan></text>
<text
     class="TextShape"
     id="text204"
     style="fill:#073642;"><tspan
       class="TextParagraph"
       font-family="Aller Display"
       font-size="423px"
       font-weight="400"
       id="tspan206"
       style="fill:#073642;"><tspan
         class="TextPosition"
         x="2305"
         y="4722"
         id="tspan208"
         style="fill:#073642;"><tspan
           fill="rgb(88,110,117)"
           stroke="none"
           id="tspan210"
           style="fill:#073642;">1</tspan></tspan></tspan></text>
<text
     class="TextShape"
     id="text212"
     style="fill:#073642;"><tspan
       class="TextParagraph"
       font-family="Aller Display"
       font-size="423px"
       font-weight="400"
       id="tspan214"
       style="fill:#073642;"><tspan
         class="TextPosition"
         x="3090"
         y="4722"
         id="tspan216"
         style="fill:#073642;"><tspan
           fill="rgb(88,110,117)"
           stroke="none"
           id="tspan218"
           style="fill:#073642;">2</tspan></tspan></tspan></text>
<text
     class="TextShape"
     id="text220"
     style="fill:#073642;"><tspan
       class="TextParagraph"
       font-family="Aller Display"
       font-size="423px"
       font-weight="400"
       id="tspan222"
       style="fill:#073642;"><tspan
         class="TextPosition"
         x="3849"
         y="4722"
         id="tspan224"
         style="fill:#073642;"><tspan
           fill="rgb(88,110,117)"
           stroke="none"
           id="tspan226"
           style="fill:#073642;">3</tspan></tspan></tspan></text>
<text
     class="TextShape"
     id="text228"
     style="fill:#073642;"><tspan
       class="TextParagraph"
       font-family="Aller Display"
       font-size="423px"
       font-weight="400"
       id="tspan230"
       style="fill:#073642;"><tspan
         class="TextPosition"
         x="4607"
         y="4722"
         id="tspan232"
         style="fill:#073642;"><tspan
           fill="rgb(88,110,117)"
           stroke="none"
           id="tspan234"
           style="fill:#073642;">4</tspan></tspan></tspan></text>
<text
     class="TextShape"
     id="text236"
     style="fill:#073642;"><tspan
       class="TextParagraph"
       font-family="Aller Display"
       font-size="423px"
       font-weight="400"
       id="tspan238"
       style="fill:#073642;"><tspan
         class="TextPosition"
         x="5393"
         y="4722"
         id="tspan240"
         style="fill:#073642;"><tspan
           fill="rgb(88,110,117)"
           stroke="none"
           id="tspan242"
           style="fill:#073642;">5</tspan></tspan></tspan></text>
<text
     class="TextShape"
     id="text244"
     style="fill:#073642;"><tspan
       class="TextParagraph"
       font-family="Aller Display"
       font-size="423px"
       font-weight="400"
       id="tspan246"
       style="fill:#073642;"><tspan
         class="TextPosition"
         x="6151"
         y="4722"
         id="tspan248"
         style="fill:#073642;"><tspan
           fill="rgb(88,110,117)"
           stroke="none"
           id="tspan250"
           style="fill:#073642;">6</tspan></tspan></tspan></text>
<text
     class="TextShape"
     id="text252"
     style="fill:#073642;"><tspan
       class="TextParagraph"
       font-family="Aller Display"
       font-size="423px"
       font-weight="400"
       id="tspan254"
       style="fill:#073642;"><tspan
         class="TextPosition"
         x="6937"
         y="4722"
         id="tspan256"
         style="fill:#073642;"><tspan
           fill="rgb(88,110,117)"
           stroke="none"
           id="tspan258"
           style="fill:#073642;">7</tspan></tspan></tspan></text>
<text
     class="TextShape"
     id="text260"
     style="fill:#073642;"><tspan
       class="TextParagraph"
       font-family="Aller Display"
       font-size="423px"
       font-weight="400"
       id="tspan262"
       style="fill:#073642;"><tspan
         class="TextPosition"
         x="7709"
         y="4722"
         id="tspan264"
         style="fill:#073642;"><tspan
           fill="rgb(88,110,117)"
           stroke="none"
           id="tspan266"
           style="fill:#073642;">8</tspan></tspan></tspan></text>
<text
     class="TextShape"
     id="text268"
     style="fill:#073642;"><tspan
       class="TextParagraph"
       font-family="Aller Display"
       font-size="423px"
       font-weight="400"
       id="tspan270"
       style="fill:#073642;"><tspan
         class="TextPosition"
         x="8467"
         y="4722"
         id="tspan272"
         style="fill:#073642;"><tspan
           fill="rgb(88,110,117)"
           stroke="none"
           id="tspan274"
           style="fill:#073642;">9</tspan></tspan></tspan></text>
<text
     class="TextShape"
     id="text276"
     style="fill:#073642;"><tspan
       class="TextParagraph"
       font-family="Aller Display"
       font-size="423px"
       font-weight="400"
       id="tspan278"
       style="fill:#073642;"><tspan
         class="TextPosition"
         x="9134"
         y="4722"
         id="tspan280"
         style="fill:#073642;"><tspan
           fill="rgb(88,110,117)"
           stroke="none"
           id="tspan282"
           style="fill:#073642;">10</tspan></tspan></tspan></text>
<text
     class="TextShape"
     id="text284"
     style="fill:#073642;"><tspan
       class="TextParagraph"
       font-family="Aller Display"
       font-size="423px"
       font-weight="400"
       id="tspan286"
       style="fill:#073642;"><tspan
         class="TextPosition"
         x="9906"
         y="4722"
         id="tspan288"
         style="fill:#073642;"><tspan
           fill="rgb(88,110,117)"
           stroke="none"
           id="tspan290"
           style="fill:#073642;">11</tspan></tspan></tspan></text>
<text
     class="TextShape"
     id="text292"
     style="fill:#073642;"><tspan
       class="TextParagraph"
       font-family="Aller Display"
       font-size="353px"
       font-weight="400"
       id="tspan294"
       style="fill:#073642;"><tspan
         class="TextPosition"
         x="847"
         y="4196"
         id="tspan296"
         style="fill:#073642;"><tspan
           fill="rgb(131,148,150)"
           stroke="none"
           id="tspan298"
           style="fill:#073642;">0%</tspan></tspan></tspan></text>
<text
     class="TextShape"
     id="text300"
     style="fill:#073642;"><tspan
       class="TextParagraph"
       font-family="Aller Display"
       font-size="353px"
       font-weight="400"
       id="tspan302"
       style="fill:#073642;"><tspan
         class="TextPosition"
         x="662"
         y="3479"
         id="tspan304"
         style="fill:#073642;"><tspan
           fill="rgb(131,148,150)"
           stroke="none"
           id="tspan306"
           style="fill:#073642;">20%</tspan></tspan></tspan></text>
<text
     class="TextShape"
     id="text308"
     style="fill:#073642;"><tspan
       class="TextParagraph"
       font-family="Aller Display"
       font-size="353px"
       font-weight="400"
       id="tspan310"
       style="fill:#073642;"><tspan
         class="TextPosition"
         x="662"
         y="2762"
         id="tspan312"
         style="fill:#073642;"><tspan
           fill="rgb(131,148,150)"
           stroke="none"
           id="tspan314"
           style="fill:#073642;">40%</tspan></tspan></tspan></text>
<text
     class="TextShape"
     id="text316"
     style="fill:#073642;"><tspan
       class="TextParagraph"
       font-family="Aller Display"
       font-size="353px"
       font-weight="400"
       id="tspan318"
       style="fill:#073642;"><tspan
         class="TextPosition"
         x="636"
         y="2046"
         id="tspan320"
         style="fill:#073642;"><tspan
           fill="rgb(131,148,150)"
           stroke="none"
           id="tspan322"
           style="fill:#073642;">60%</tspan></tspan></tspan></text>
<text
     class="TextShape"
     id="text324"
     style="fill:#073642;"><tspan
       class="TextParagraph"
       font-family="Aller Display"
       font-size="353px"
       font-weight="400"
       id="tspan326"
       style="fill:#073642;"><tspan
         class="TextPosition"
         x="636"
         y="1329"
         id="tspan328"
         style="fill:#073642;"><tspan
           fill="rgb(131,148,150)"
           stroke="none"
           id="tspan330"
           style="fill:#073642;">80%</tspan></tspan></tspan></text>
<text
     class="TextShape"
     id="text332"
     style="fill:#073642;"><tspan
       class="TextParagraph"
       font-family="Aller Display"
       font-size="353px"
       font-weight="400"
       id="tspan334"
       style="fill:#073642;"><tspan
         class="TextPosition"
         x="477"
         y="613"
         id="tspan336"
         style="fill:#073642;"><tspan
           fill="rgb(131,148,150)"
           stroke="none"
           id="tspan338"
           style="fill:#073642;">100%</tspan></tspan></tspan></text>
<g
     id="g4605"
     transform="translate(51.831697,264.37028)"><g
       id="g4574"><path
         d="m 10547.123,2236.4133 -1,-7 0,-6 -1,-7 -1,-6 -1,-7 -2,-6 -1,-6 -2,-6 -3,-6 -2,-6 -3,-6 -3,-5 -4,-6 -3,-5 -4,-6 -4,-5 -4,-4 -5,-5 -5,-5 -4,-4 -5,-4 -6,-4 -5,-3 -5,-4 -6,-3 -6,-3 -6,-2 -6,-3 -6,-2 -6,-1 -6,-2 -7,-1 -6,-1 -7,-1 -6,0 -6,0 -7,0 -6,0 -7,1 -6,1 -7,1 -6,2 -6,1 -6,2 -6,3 -6,2 -6,3 -5,3 -6,4 -5,3 -6,4 -5,4 -4,4 -5,5 -5,5 -4,4 -4,5 -4,6 -3,5 -4,5 -3,6 -3,6 -2,6 -3,6 -2,6 -1,6 -2,6 -1,7 -1,6 -1,7 0,6 0,7 0,6 0,6 1,7 1,6 1,7 2,6 1,6 2,6 3,6 2,6 3,6 3,6 4,5 3,5 4,6 4,5 4,4 5,5 5,5 4,4 5,4 6,4 5,3 5,4 6,3 6,3 6,2 6,3 6,2 6,1 6,2 7,1 6,1 7,1 6,0 7,1 6,-1 6,0 7,-1 6,-1 7,-1 6,-2 6,-1 6,-2 6,-3 6,-2 6,-3 6,-3 5,-4 5,-3 6,-4 5,-4 4,-4 5,-5 5,-5 4,-4 4,-5 4,-6 3,-5 4,-5 3,-6 3,-6 2,-6 3,-6 2,-6 1,-6 2,-6 1,-7 1,-6 1,-7 0,-6 1,-6 z"
         id="path342"
         inkscape:connector-curvature="0"
         style="fill:#268bd2;stroke:none" /><path
         d="m 10547.123,2236.4133 -1,-7 0,-6 -1,-7 -1,-6 -1,-7 -2,-6 -1,-6 -2,-6 -3,-6 -2,-6 -3,-6 -3,-5 -4,-6 -3,-5 -4,-6 -4,-5 -4,-4 -5,-5 -5,-5 -4,-4 -5,-4 -6,-4 -5,-3 -5,-4 -6,-3 -6,-3 -6,-2 -6,-3 -6,-2 -6,-1 -6,-2 -7,-1 -6,-1 -7,-1 -6,0 -6,0 -7,0 -6,0 -7,1 -6,1 -7,1 -6,2 -6,1 -6,2 -6,3 -6,2 -6,3 -5,3 -6,4 -5,3 -6,4 -5,4 -4,4 -5,5 -5,5 -4,4 -4,5 -4,6 -3,5 -4,5 -3,6 -3,6 -2,6 -3,6 -2,6 -1,6 -2,6 -1,7 -1,6 -1,7 0,6 0,7 0,6 0,6 1,7 1,6 1,7 2,6 1,6 2,6 3,6 2,6 3,6 3,6 4,5 3,5 4,6 4,5 4,4 5,5 5,5 4,4 5,4 6,4 5,3 5,4 6,3 6,3 6,2 6,3 6,2 6,1 6,2 7,1 6,1 7,1 6,0 7,1 6,-1 6,0 7,-1 6,-1 7,-1 6,-2 6,-1 6,-2 6,-3 6,-2 6,-3 6,-3 5,-4 5,-3 6,-4 5,-4 4,-4 5,-5 5,-5 4,-4 4,-5 4,-6 3,-5 4,-5 3,-6 3,-6 2,-6 3,-6 2,-6 1,-6 2,-6 1,-7 1,-6 1,-7 0,-6 1,-6 z"
         id="path344"
         inkscape:connector-curvature="0"
         style="fill:none;stroke:#268bd2;stroke-linejoin:round" /><text
         class="TextShape"
         id="text358"
         x="-410.87711"
         y="11.413254"><tspan
           class="TextParagraph"
           font-size="494px"
           font-weight="400"
           id="tspan360"
           style="font-weight:400;font-size:494px;font-family:'Aller Light'"><tspan
             class="TextPosition"
             x="10655.123"
             y="2407.4133"
             id="tspan362"><tspan
               id="tspan364"
               style="fill:#002b36;stroke:none">HiPOP</tspan></tspan></tspan></text>
</g></g><g
     id="g4614"
     transform="translate(-359.04579,112.8889)"><path
       id="path346"
       d="m 10798,3341 0,127 -125,-72 -11,20 124,73 -124,72 11,20 125,-72 0,128 23,0 0,-128 125,72 12,-20 -125,-72 125,-73 -12,-20 -125,72 0,-127 -23,0 z"
       inkscape:connector-curvature="0"
       style="fill:#859900;stroke:none" /><path
       id="path348"
       d="m 10798,3341 0,127 -125,-72 -11,20 124,73 -124,72 11,20 125,-72 0,128 23,0 0,-128 125,72 12,-20 -125,-72 125,-73 -12,-20 -125,72 0,-127 -23,0 z"
       inkscape:connector-curvature="0"
       style="fill:none;stroke:#859900;stroke-linejoin:round" /><text
       id="text366"
       class="TextShape"><tspan
         id="tspan368"
         font-weight="400"
         font-size="494px"
         class="TextParagraph"
         style="font-weight:400;font-size:494px;font-family:'Aller Light'"><tspan
           id="tspan370"
           y="3660"
           x="11066"
           class="TextPosition"><tspan
             id="tspan372"
             style="fill:#002b36;stroke:none">POP</tspan></tspan></tspan></text>
</g><text
     class="TextShape"
     id="text374"><tspan
       class="TextParagraph"
       font-family="Aller"
       font-size="353px"
       font-weight="400"
       id="tspan376"><tspan
         class="TextPosition"
         x="10405"
         y="4729"
         id="tspan378"><tspan
           fill="rgb(7,54,66)"
           stroke="none"
           id="tspan380">Running time (ms)</tspan></tspan></tspan></text>
<text
     class="TextShape"
     transform="matrix(0,-1,1,0,0,0)"
     id="text382"
     x="-4545.665"
     y="-4496.6816"><tspan
       class="TextParagraph"
       font-size="353px"
       font-weight="400"
       id="tspan384"
       style="font-weight:400;font-size:353px;font-family:Aller"><tspan
         class="TextPosition"
         x="-4121.665"
         y="351.31824"
         id="tspan386"><tspan
           id="tspan388"
           style="fill:#073642;stroke:none">Quality (providing fluents)</tspan></tspan></tspan></text>
<text
     xml:space="preserve"
     style="font-style:normal;font-weight:normal;font-size:443.98999023px;line-height:125%;font-family:sans-serif;letter-spacing:0px;word-spacing:0px;fill:#073642;fill-opacity:1;stroke:none;stroke-width:1px;stroke-linecap:butt;stroke-linejoin:miter;stroke-opacity:1"
     x="13235.085"
     y="-305.81067"
     id="text4675"
     sodipodi:linespacing="125%"><tspan
       sodipodi:role="line"
       id="tspan4677"
       x="13235.085"
       y="-305.81067"
       style="font-style:normal;font-variant:normal;font-weight:normal;font-stretch:normal;font-size:443.98999023px;font-family:'Aller Display';-inkscape-font-specification:'Aller Display';fill:#073642" /><tspan
       sodipodi:role="line"
       x="13235.085"
       y="249.1768"
       id="tspan4679"
       style="font-style:normal;font-variant:normal;font-weight:normal;font-stretch:normal;font-size:443.98999023px;font-family:'Aller Display';-inkscape-font-specification:'Aller Display';text-align:end;text-anchor:end;fill:#073642" /><tspan
       sodipodi:role="line"
       x="13235.085"
       y="804.16431"
       id="tspan4681"
       style="font-style:normal;font-variant:normal;font-weight:normal;font-stretch:normal;font-size:443.98999023px;font-family:'Aller Display';-inkscape-font-specification:'Aller Display';text-align:end;text-anchor:end;fill:#073642">1,429<tspan
   id="tspan4841"
   style="font-size:443.98999023px;text-align:end;text-anchor:end;fill:#93a1a1">±0,39</tspan><tspan
   style="font-style:normal;font-variant:normal;font-weight:normal;font-stretch:normal;font-size:443.98999023px;font-family:Aller;-inkscape-font-specification:Aller;text-align:end;text-anchor:end"
   id="tspan4699"> ms</tspan></tspan><tspan
       sodipodi:role="line"
       x="13235.085"
       y="1360.585"
       style="font-style:normal;font-variant:normal;font-weight:normal;font-stretch:normal;font-size:443.98999023px;font-family:'Aller Display';-inkscape-font-specification:'Aller Display';text-align:end;text-anchor:end;fill:#073642"
       id="tspan4697">2,761<tspan
   id="tspan4843"
   style="font-size:443.98999023px;text-align:end;text-anchor:end;fill:#93a1a1">±0,64</tspan><tspan
   style="font-style:normal;font-variant:normal;font-weight:normal;font-stretch:normal;font-size:443.98999023px;font-family:Aller;-inkscape-font-specification:Aller;text-align:end;text-anchor:end"
   id="tspan4701"> ms</tspan></tspan><tspan
       sodipodi:role="line"
       x="13235.085"
       y="1917.0057"
       style="font-style:normal;font-variant:normal;font-weight:normal;font-stretch:normal;font-size:443.98999023px;font-family:'Aller Display';-inkscape-font-specification:'Aller Display';text-align:end;text-anchor:end;fill:#073642"
       id="tspan4695">3,366<tspan
   id="tspan4845"
   style="font-size:443.98999023px;text-align:end;text-anchor:end;fill:#93a1a1">±0,76</tspan><tspan
   style="font-style:normal;font-variant:normal;font-weight:normal;font-stretch:normal;font-size:443.98999023px;font-family:Aller;-inkscape-font-specification:Aller;text-align:end;text-anchor:end"
   id="tspan4703"> ms</tspan></tspan></text>
<text
     xml:space="preserve"
     style="font-style:normal;font-weight:normal;font-size:443.98999023px;line-height:125%;font-family:sans-serif;letter-spacing:0px;word-spacing:0px;fill:#073642;fill-opacity:1;stroke:none;stroke-width:1px;stroke-linecap:butt;stroke-linejoin:miter;stroke-opacity:1"
     x="10272.416"
     y="1928.2694"
     id="text4675-8"
     sodipodi:linespacing="125%"><tspan
       sodipodi:role="line"
       id="tspan4677-2"
       x="10272.416"
       y="1928.2694"
       style="font-style:normal;font-variant:normal;font-weight:normal;font-stretch:normal;font-size:443.98999023px;font-family:'Aller Display';-inkscape-font-specification:'Aller Display';fill:#073642" /><tspan
       sodipodi:role="line"
       x="10272.416"
       y="2483.2568"
       id="tspan4679-2"
       style="font-style:normal;font-variant:normal;font-weight:normal;font-stretch:normal;font-size:443.98999023px;font-family:'Aller Display';-inkscape-font-specification:'Aller Display';fill:#073642" /><tspan
       sodipodi:role="line"
       x="10272.416"
       y="3038.2441"
       style="font-style:normal;font-variant:normal;font-weight:normal;font-stretch:normal;font-size:443.98999023px;font-family:'Aller Display';-inkscape-font-specification:'Aller Display';fill:#073642"
       id="tspan4695-4">8,408<tspan
   style="font-size:443.98999023px;fill:#93a1a1"
   id="tspan4781">±1,93</tspan><tspan
   style="font-style:normal;font-variant:normal;font-weight:normal;font-stretch:normal;font-size:443.98999023px;font-family:Aller;-inkscape-font-specification:Aller"
   id="tspan4699-4"> ms</tspan></tspan></text>
<text
     xml:space="preserve"
     style="font-style:normal;font-weight:normal;font-size:443.98999023px;line-height:125%;font-family:sans-serif;letter-spacing:0px;word-spacing:0px;fill:#073642;fill-opacity:1;stroke:none;stroke-width:1px;stroke-linecap:butt;stroke-linejoin:miter;stroke-opacity:1"
     x="10284.403"
     y="3040.9521"
     id="text4675-84"
     sodipodi:linespacing="125%"><tspan
       sodipodi:role="line"
       id="tspan4677-25"
       x="10284.403"
       y="3040.9521"
       style="font-style:normal;font-variant:normal;font-weight:normal;font-stretch:normal;font-size:443.98999023px;font-family:'Aller Display';-inkscape-font-specification:'Aller Display';fill:#073642" /><tspan
       sodipodi:role="line"
       x="10284.403"
       y="3595.9397"
       id="tspan4679-4"
       style="font-style:normal;font-variant:normal;font-weight:normal;font-stretch:normal;font-size:443.98999023px;font-family:'Aller Display';-inkscape-font-specification:'Aller Display';fill:#073642" /><tspan
       sodipodi:role="line"
       x="10284.403"
       y="4150.9268"
       style="font-style:normal;font-variant:normal;font-weight:normal;font-stretch:normal;font-size:443.98999023px;font-family:'Aller Display';-inkscape-font-specification:'Aller Display';fill:#073642"
       id="tspan4695-2">3,214<tspan
   style="font-size:443.98999023px;fill:#93a1a1"
   id="tspan4792">±0,66</tspan><tspan
   style="font-style:normal;font-variant:normal;font-weight:normal;font-stretch:normal;font-size:443.98999023px;font-family:Aller;-inkscape-font-specification:Aller"
   id="tspan4699-5"> ms</tspan></tspan></text>
<g
     id="g4595"
     transform="translate(37.720697,-282.22225)"><text
       y="-433.70361"
       x="-410.87711"
       id="text350"
       class="TextShape"
       style="fill:#002b36"><tspan
         style="font-weight:400;font-size:494px;font-family:'Aller Light';fill:#002b36"
         id="tspan352"
         font-weight="400"
         font-size="494px"
         class="TextParagraph"><tspan
           id="tspan354"
           y="697.29639"
           x="10655.123"
           class="TextPosition"
           style="fill:#002b36"><tspan
             style="fill:#002b36;stroke:none"
             id="tspan356">HEART</tspan></tspan></tspan></text>
<g
       id="g4590"><path
         d="m 10326.123,378.29637 c 27,0 48,15 64,46 5,13 8,22 8,29 l 1,0 c 5,-22 13,-40 26,-54 14,-14 30,-21 48,-21 28,0 51,15 68,44 4,11 6,22 6,31 0,33 -14,65 -42,95 l -106,126 -1,0 -113,-137 c -23,-27 -34,-55 -34,-84 0,-28 14,-50 40,-66 11,-6 23,-9 35,-9 l 0,0 z"
         id="path340"
         inkscape:connector-curvature="0"
         style="fill:#d33682;stroke:none" /><text
         sodipodi:linespacing="125%"
         id="text4580-2-0-0"
         y="588.10315"
         x="10282.737"
         style="font-style:normal;font-weight:normal;font-size:237.71838379px;line-height:125%;font-family:sans-serif;letter-spacing:0px;word-spacing:0px;fill:#000000;fill-opacity:1;stroke:none;stroke-width:1px;stroke-linecap:butt;stroke-linejoin:miter;stroke-opacity:1"
         xml:space="preserve"><tspan
           style="font-style:normal;font-variant:normal;font-weight:normal;font-stretch:normal;font-family:'Aller Display';-inkscape-font-specification:'Aller Display';fill:#fdf6e3"
           y="588.10315"
           x="10282.737"
           id="tspan4582-0-8-3"
           sodipodi:role="line">lv</tspan></text>
</g></g><text
     sodipodi:linespacing="125%"
     id="text4580-2-0-0-3"
     y="601.39056"
     x="4151.2808"
     style="font-style:normal;font-weight:normal;font-size:333.50933838px;line-height:125%;font-family:sans-serif;letter-spacing:0px;word-spacing:0px;fill:#000000;fill-opacity:1;stroke:none;stroke-width:1px;stroke-linecap:butt;stroke-linejoin:miter;stroke-opacity:1"
     xml:space="preserve"><tspan
       style="font-style:normal;font-variant:normal;font-weight:normal;font-stretch:normal;font-family:'Aller Display';-inkscape-font-specification:'Aller Display';fill:#fdf6e3"
       y="601.39056"
       x="4151.2808"
       id="tspan4582-0-8-3-6"
       sodipodi:role="line">0</tspan></text>
<text
     sodipodi:linespacing="125%"
     id="text4580-2-0-0-3-7"
     y="1079.0575"
     x="3692.4517"
     style="font-style:normal;font-weight:normal;font-size:333.50933838px;line-height:125%;font-family:sans-serif;letter-spacing:0px;word-spacing:0px;fill:#000000;fill-opacity:1;stroke:none;stroke-width:1px;stroke-linecap:butt;stroke-linejoin:miter;stroke-opacity:1"
     xml:space="preserve"><tspan
       style="font-style:normal;font-variant:normal;font-weight:normal;font-stretch:normal;font-family:'Aller Display';-inkscape-font-specification:'Aller Display';fill:#fdf6e3"
       y="1079.0575"
       x="3692.4517"
       id="tspan4582-0-8-3-6-5"
       sodipodi:role="line">1</tspan></text>
<text
     sodipodi:linespacing="125%"
     id="text4580-2-0-0-3-3"
     y="1558.3916"
     x="2671.7888"
     style="font-style:normal;font-weight:normal;font-size:333.50933838px;line-height:125%;font-family:sans-serif;letter-spacing:0px;word-spacing:0px;fill:#000000;fill-opacity:1;stroke:none;stroke-width:1px;stroke-linecap:butt;stroke-linejoin:miter;stroke-opacity:1"
     xml:space="preserve"><tspan
       style="font-style:normal;font-variant:normal;font-weight:normal;font-stretch:normal;font-family:'Aller Display';-inkscape-font-specification:'Aller Display';fill:#fdf6e3"
       y="1558.3916"
       x="2671.7888"
       id="tspan4582-0-8-3-6-56"
       sodipodi:role="line">2</tspan></text>
</svg>