<?xml version="1.0" encoding="UTF-8" standalone="no"?>
<svg
   xmlns:dc="http://purl.org/dc/elements/1.1/"
   xmlns:cc="http://creativecommons.org/ns#"
   xmlns:rdf="http://www.w3.org/1999/02/22-rdf-syntax-ns#"
   xmlns:svg="http://www.w3.org/2000/svg"
   xmlns="http://www.w3.org/2000/svg"
   xmlns:sodipodi="http://sodipodi.sourceforge.net/DTD/sodipodi-0.dtd"
   xmlns:inkscape="http://www.inkscape.org/namespaces/inkscape"
   width="155.07378mm"
   height="72.749992mm"
   viewBox="0 0 15507.378 7274.9992"
   version="1.1"
   xml:space="preserve"
   id="svg2"
   inkscape:version="0.91 r13725"
   sodipodi:docname="quality-speed.svg"
   style="stroke-width:28.22200012;stroke-linejoin:round"><metadata
     id="metadata452"><rdf:RDF><cc:Work
         rdf:about=""><dc:format>image/svg+xml</dc:format><dc:type
           rdf:resource="http://purl.org/dc/dcmitype/StillImage" /><dc:title></dc:title></cc:Work></rdf:RDF></metadata><defs
     id="defs450" /><sodipodi:namedview
     pagecolor="#ffffff"
     bordercolor="#666666"
     borderopacity="1"
     objecttolerance="10"
     gridtolerance="10"
     guidetolerance="10"
     inkscape:pageopacity="0"
     inkscape:pageshadow="2"
     inkscape:window-width="1920"
     inkscape:window-height="1047"
     id="namedview448"
     showgrid="false"
     inkscape:zoom="1.4812172"
     inkscape:cx="94.713301"
     inkscape:cy="78.530746"
     inkscape:window-x="0"
     inkscape:window-y="1080"
     inkscape:window-maximized="1"
     inkscape:current-layer="svg2"
     fit-margin-top="0"
     fit-margin-left="0"
     fit-margin-right="0"
     fit-margin-bottom="0" /><path
     d="M 7754.1833,7274.9996 0,7274.9996 0,-4.3063696e-4 l 15507.378,0 0,7275.00003063696 -7753.1947,0 z"
     id="path4"
     inkscape:connector-curvature="0"
     style="fill:#fdf6e3;stroke:none" /><path
     d="m 6806,6455.9996 -5135,0 0,-5723.00003 10270,0 0,5723.00003 -5135,0 z"
     id="path6"
     inkscape:connector-curvature="0"
     style="fill:none;stroke:#b3b3b3;stroke-linejoin:round" /><path
     d="m 1671,731.99957 0,5723.00003"
     id="path8"
     inkscape:connector-curvature="0"
     style="fill:none;stroke:#b3b3b3;stroke-linejoin:round" /><path
     d="m 2604,731.99957 0,5723.00003"
     id="path10"
     inkscape:connector-curvature="0"
     style="fill:none;stroke:#b3b3b3;stroke-linejoin:round" /><path
     d="m 3538,731.99957 0,5723.00003"
     id="path12"
     inkscape:connector-curvature="0"
     style="fill:none;stroke:#b3b3b3;stroke-linejoin:round" /><path
     d="m 4472,731.99957 0,5723.00003"
     id="path14"
     inkscape:connector-curvature="0"
     style="fill:none;stroke:#b3b3b3;stroke-linejoin:round" /><path
     d="m 5405,731.99957 0,5723.00003"
     id="path16"
     inkscape:connector-curvature="0"
     style="fill:none;stroke:#b3b3b3;stroke-linejoin:round" /><path
     d="m 6339,731.99957 0,5723.00003"
     id="path18"
     inkscape:connector-curvature="0"
     style="fill:none;stroke:#b3b3b3;stroke-linejoin:round" /><path
     d="m 7273,731.99957 0,5723.00003"
     id="path20"
     inkscape:connector-curvature="0"
     style="fill:none;stroke:#b3b3b3;stroke-linejoin:round" /><path
     d="m 8206,731.99957 0,5723.00003"
     id="path22"
     inkscape:connector-curvature="0"
     style="fill:none;stroke:#b3b3b3;stroke-linejoin:round" /><path
     d="m 9139,731.99957 0,5723.00003"
     id="path24"
     inkscape:connector-curvature="0"
     style="fill:none;stroke:#b3b3b3;stroke-linejoin:round" /><path
     d="m 10073,731.99957 0,5723.00003"
     id="path26"
     inkscape:connector-curvature="0"
     style="fill:none;stroke:#b3b3b3;stroke-linejoin:round" /><path
     d="m 11007,731.99957 0,5723.00003"
     id="path28"
     inkscape:connector-curvature="0"
     style="fill:none;stroke:#b3b3b3;stroke-linejoin:round" /><path
     d="m 11940,731.99957 0,5723.00003"
     id="path30"
     inkscape:connector-curvature="0"
     style="fill:none;stroke:#b3b3b3;stroke-linejoin:round" /><path
     d="m 11940,6454.9996 -10269,0"
     id="path32"
     inkscape:connector-curvature="0"
     style="fill:none;stroke:#93a1a1;stroke-linejoin:round" /><path
     d="m 11940,5881.9996 -10269,0"
     id="path34"
     inkscape:connector-curvature="0"
     style="fill:none;stroke:#93a1a1;stroke-linejoin:round" /><path
     d="m 11940,5309.9996 -10269,0"
     id="path36"
     inkscape:connector-curvature="0"
     style="fill:none;stroke:#93a1a1;stroke-linejoin:round" /><path
     d="m 11940,4736.9996 -10269,0"
     id="path38"
     inkscape:connector-curvature="0"
     style="fill:none;stroke:#93a1a1;stroke-linejoin:round" /><path
     d="m 11940,4164.9996 -10269,0"
     id="path40"
     inkscape:connector-curvature="0"
     style="fill:none;stroke:#93a1a1;stroke-linejoin:round" /><path
     d="m 11940,3593.9996 -10269,0"
     id="path42"
     inkscape:connector-curvature="0"
     style="fill:none;stroke:#93a1a1;stroke-linejoin:round" /><path
     d="m 11940,3020.9996 -10269,0"
     id="path44"
     inkscape:connector-curvature="0"
     style="fill:none;stroke:#93a1a1;stroke-linejoin:round" /><path
     d="m 11940,2448.9996 -10269,0"
     id="path46"
     inkscape:connector-curvature="0"
     style="fill:none;stroke:#93a1a1;stroke-linejoin:round" /><path
     d="m 11940,1875.9996 -10269,0"
     id="path48"
     inkscape:connector-curvature="0"
     style="fill:none;stroke:#93a1a1;stroke-linejoin:round" /><path
     d="m 11940,1303.9996 -10269,0"
     id="path50"
     inkscape:connector-curvature="0"
     style="fill:none;stroke:#93a1a1;stroke-linejoin:round" /><path
     d="m 11940,731.99957 -10269,0"
     id="path52"
     inkscape:connector-curvature="0"
     style="fill:none;stroke:#93a1a1;stroke-linejoin:round" /><path
     d="m 11940,6167.9996 -10269,0"
     id="path54"
     inkscape:connector-curvature="0"
     style="fill:none;stroke:#eee8d5;stroke-linejoin:round" /><path
     d="m 11940,5595.9996 -10269,0"
     id="path56"
     inkscape:connector-curvature="0"
     style="fill:none;stroke:#eee8d5;stroke-linejoin:round" /><path
     d="m 11940,5023.9996 -10269,0"
     id="path58"
     inkscape:connector-curvature="0"
     style="fill:none;stroke:#eee8d5;stroke-linejoin:round" /><path
     d="m 11940,4450.9996 -10269,0"
     id="path60"
     inkscape:connector-curvature="0"
     style="fill:none;stroke:#eee8d5;stroke-linejoin:round" /><path
     d="m 11940,3878.9996 -10269,0"
     id="path62"
     inkscape:connector-curvature="0"
     style="fill:none;stroke:#eee8d5;stroke-linejoin:round" /><path
     d="m 11940,3306.9996 -10269,0"
     id="path64"
     inkscape:connector-curvature="0"
     style="fill:none;stroke:#eee8d5;stroke-linejoin:round" /><path
     d="m 11940,2734.9996 -10269,0"
     id="path66"
     inkscape:connector-curvature="0"
     style="fill:none;stroke:#eee8d5;stroke-linejoin:round" /><path
     d="m 11940,2162.9996 -10269,0"
     id="path68"
     inkscape:connector-curvature="0"
     style="fill:none;stroke:#eee8d5;stroke-linejoin:round" /><path
     d="m 11940,1589.9996 -10269,0"
     id="path70"
     inkscape:connector-curvature="0"
     style="fill:none;stroke:#eee8d5;stroke-linejoin:round" /><path
     d="m 11940,1017.9996 -10269,0"
     id="path72"
     inkscape:connector-curvature="0"
     style="fill:none;stroke:#eee8d5;stroke-linejoin:round" /><path
     d="m 1671,6604.9996 0,-150"
     id="path74"
     inkscape:connector-curvature="0"
     style="fill:none;stroke:#b3b3b3;stroke-linejoin:round" /><path
     d="m 1671,6604.9996 0,-150"
     id="path76"
     inkscape:connector-curvature="0"
     style="fill:none;stroke:#b3b3b3;stroke-linejoin:round" /><path
     d="m 2604,6604.9996 0,-150"
     id="path78"
     inkscape:connector-curvature="0"
     style="fill:none;stroke:#b3b3b3;stroke-linejoin:round" /><path
     d="m 2604,6604.9996 0,-150"
     id="path80"
     inkscape:connector-curvature="0"
     style="fill:none;stroke:#b3b3b3;stroke-linejoin:round" /><path
     d="m 3538,6604.9996 0,-150"
     id="path82"
     inkscape:connector-curvature="0"
     style="fill:none;stroke:#b3b3b3;stroke-linejoin:round" /><path
     d="m 3538,6604.9996 0,-150"
     id="path84"
     inkscape:connector-curvature="0"
     style="fill:none;stroke:#b3b3b3;stroke-linejoin:round" /><path
     d="m 4472,6604.9996 0,-150"
     id="path86"
     inkscape:connector-curvature="0"
     style="fill:none;stroke:#b3b3b3;stroke-linejoin:round" /><path
     d="m 4472,6604.9996 0,-150"
     id="path88"
     inkscape:connector-curvature="0"
     style="fill:none;stroke:#b3b3b3;stroke-linejoin:round" /><path
     d="m 5405,6604.9996 0,-150"
     id="path90"
     inkscape:connector-curvature="0"
     style="fill:none;stroke:#b3b3b3;stroke-linejoin:round" /><path
     d="m 5405,6604.9996 0,-150"
     id="path92"
     inkscape:connector-curvature="0"
     style="fill:none;stroke:#b3b3b3;stroke-linejoin:round" /><path
     d="m 6339,6604.9996 0,-150"
     id="path94"
     inkscape:connector-curvature="0"
     style="fill:none;stroke:#b3b3b3;stroke-linejoin:round" /><path
     d="m 6339,6604.9996 0,-150"
     id="path96"
     inkscape:connector-curvature="0"
     style="fill:none;stroke:#b3b3b3;stroke-linejoin:round" /><path
     d="m 7273,6604.9996 0,-150"
     id="path98"
     inkscape:connector-curvature="0"
     style="fill:none;stroke:#b3b3b3;stroke-linejoin:round" /><path
     d="m 7273,6604.9996 0,-150"
     id="path100"
     inkscape:connector-curvature="0"
     style="fill:none;stroke:#b3b3b3;stroke-linejoin:round" /><path
     d="m 8206,6604.9996 0,-150"
     id="path102"
     inkscape:connector-curvature="0"
     style="fill:none;stroke:#b3b3b3;stroke-linejoin:round" /><path
     d="m 8206,6604.9996 0,-150"
     id="path104"
     inkscape:connector-curvature="0"
     style="fill:none;stroke:#b3b3b3;stroke-linejoin:round" /><path
     d="m 9139,6604.9996 0,-150"
     id="path106"
     inkscape:connector-curvature="0"
     style="fill:none;stroke:#b3b3b3;stroke-linejoin:round" /><path
     d="m 9139,6604.9996 0,-150"
     id="path108"
     inkscape:connector-curvature="0"
     style="fill:none;stroke:#b3b3b3;stroke-linejoin:round" /><path
     d="m 10073,6604.9996 0,-150"
     id="path110"
     inkscape:connector-curvature="0"
     style="fill:none;stroke:#b3b3b3;stroke-linejoin:round" /><path
     d="m 10073,6604.9996 0,-150"
     id="path112"
     inkscape:connector-curvature="0"
     style="fill:none;stroke:#b3b3b3;stroke-linejoin:round" /><path
     d="m 11007,6604.9996 0,-150"
     id="path114"
     inkscape:connector-curvature="0"
     style="fill:none;stroke:#b3b3b3;stroke-linejoin:round" /><path
     d="m 11007,6604.9996 0,-150"
     id="path116"
     inkscape:connector-curvature="0"
     style="fill:none;stroke:#b3b3b3;stroke-linejoin:round" /><path
     d="m 11940,6604.9996 0,-150"
     id="path118"
     inkscape:connector-curvature="0"
     style="fill:none;stroke:#b3b3b3;stroke-linejoin:round" /><path
     d="m 11940,6604.9996 0,-150"
     id="path120"
     inkscape:connector-curvature="0"
     style="fill:none;stroke:#b3b3b3;stroke-linejoin:round" /><path
     d="m 1671,6454.9996 10269,0"
     id="path122"
     inkscape:connector-curvature="0"
     style="fill:none;stroke:#b3b3b3;stroke-linejoin:round" /><path
     d="m 1521,6454.9996 150,0"
     id="path124"
     inkscape:connector-curvature="0"
     style="fill:none;stroke:#b3b3b3;stroke-linejoin:round" /><path
     d="m 1521,6454.9996 150,0"
     id="path126"
     inkscape:connector-curvature="0"
     style="fill:none;stroke:#b3b3b3;stroke-linejoin:round" /><path
     d="m 1521,5881.9996 150,0"
     id="path128"
     inkscape:connector-curvature="0"
     style="fill:none;stroke:#b3b3b3;stroke-linejoin:round" /><path
     d="m 1521,5881.9996 150,0"
     id="path130"
     inkscape:connector-curvature="0"
     style="fill:none;stroke:#b3b3b3;stroke-linejoin:round" /><path
     d="m 1521,5309.9996 150,0"
     id="path132"
     inkscape:connector-curvature="0"
     style="fill:none;stroke:#b3b3b3;stroke-linejoin:round" /><path
     d="m 1521,5309.9996 150,0"
     id="path134"
     inkscape:connector-curvature="0"
     style="fill:none;stroke:#b3b3b3;stroke-linejoin:round" /><path
     d="m 1521,4736.9996 150,0"
     id="path136"
     inkscape:connector-curvature="0"
     style="fill:none;stroke:#b3b3b3;stroke-linejoin:round" /><path
     d="m 1521,4736.9996 150,0"
     id="path138"
     inkscape:connector-curvature="0"
     style="fill:none;stroke:#b3b3b3;stroke-linejoin:round" /><path
     d="m 1521,4164.9996 150,0"
     id="path140"
     inkscape:connector-curvature="0"
     style="fill:none;stroke:#b3b3b3;stroke-linejoin:round" /><path
     d="m 1521,4164.9996 150,0"
     id="path142"
     inkscape:connector-curvature="0"
     style="fill:none;stroke:#b3b3b3;stroke-linejoin:round" /><path
     d="m 1521,3593.9996 150,0"
     id="path144"
     inkscape:connector-curvature="0"
     style="fill:none;stroke:#b3b3b3;stroke-linejoin:round" /><path
     d="m 1521,3593.9996 150,0"
     id="path146"
     inkscape:connector-curvature="0"
     style="fill:none;stroke:#b3b3b3;stroke-linejoin:round" /><path
     d="m 1521,3020.9996 150,0"
     id="path148"
     inkscape:connector-curvature="0"
     style="fill:none;stroke:#b3b3b3;stroke-linejoin:round" /><path
     d="m 1521,3020.9996 150,0"
     id="path150"
     inkscape:connector-curvature="0"
     style="fill:none;stroke:#b3b3b3;stroke-linejoin:round" /><path
     d="m 1521,2448.9996 150,0"
     id="path152"
     inkscape:connector-curvature="0"
     style="fill:none;stroke:#b3b3b3;stroke-linejoin:round" /><path
     d="m 1521,2448.9996 150,0"
     id="path154"
     inkscape:connector-curvature="0"
     style="fill:none;stroke:#b3b3b3;stroke-linejoin:round" /><path
     d="m 1521,1875.9996 150,0"
     id="path156"
     inkscape:connector-curvature="0"
     style="fill:none;stroke:#b3b3b3;stroke-linejoin:round" /><path
     d="m 1521,1875.9996 150,0"
     id="path158"
     inkscape:connector-curvature="0"
     style="fill:none;stroke:#b3b3b3;stroke-linejoin:round" /><path
     d="m 1521,1303.9996 150,0"
     id="path160"
     inkscape:connector-curvature="0"
     style="fill:none;stroke:#b3b3b3;stroke-linejoin:round" /><path
     d="m 1521,1303.9996 150,0"
     id="path162"
     inkscape:connector-curvature="0"
     style="fill:none;stroke:#b3b3b3;stroke-linejoin:round" /><path
     d="m 1521,731.99957 150,0"
     id="path164"
     inkscape:connector-curvature="0"
     style="fill:none;stroke:#b3b3b3;stroke-linejoin:round" /><path
     d="m 1521,731.99957 150,0"
     id="path166"
     inkscape:connector-curvature="0"
     style="fill:none;stroke:#b3b3b3;stroke-linejoin:round" /><path
     d="m 1671,6454.9996 0,-5723.00003"
     id="path168"
     inkscape:connector-curvature="0"
     style="fill:none;stroke:#b3b3b3;stroke-linejoin:round" /><path
     d="m 4102,731.99957 711,0 712,0"
     id="path196"
     inkscape:connector-curvature="0"
     style="fill:none;stroke:#d33682;stroke-width:20;stroke-linejoin:round" /><path
     d="m 4662,606.99957 0,108 -105,-61 -10,17 105,61 -105,60 10,17 105,-61 0,109 20,0 0,-109 105,61 10,-17 -105,-60 105,-61 -10,-17 -105,61 0,-108 -20,0 z"
     id="path170"
     inkscape:connector-curvature="0"
     style="fill:#859900;stroke:none" /><path
     d="m 4662,606.99957 0,108 -105,-61 -10,17 105,61 -105,60 10,17 105,-61 0,109 20,0 0,-109 105,61 10,-17 -105,-60 105,-61 -10,-17 -105,61 0,-108 -20,0 z"
     id="path172"
     inkscape:connector-curvature="0"
     style="fill:none;stroke:#859900;stroke-linejoin:round" /><path
     d="m 4059,731.99957 613,0 613,0"
     id="path174"
     inkscape:connector-curvature="0"
     style="fill:none;stroke:#859900;stroke-width:20;stroke-linejoin:round;stroke-dasharray:39, 39" /><path
     d="m 4059,831.99957 0,-200"
     id="path176"
     inkscape:connector-curvature="0"
     style="fill:none;stroke:#859900;stroke-width:20;stroke-linejoin:round;stroke-dasharray:39, 39" /><path
     d="m 5285,631.99957 0,200"
     id="path178"
     inkscape:connector-curvature="0"
     style="fill:none;stroke:#859900;stroke-width:20;stroke-linejoin:round;stroke-dasharray:39, 39" /><path
     d="m 9646,731.99957 -1,-6 0,-5 0,-6 -1,-5 -1,-6 -2,-5 -1,-5 -2,-5 -2,-5 -2,-5 -3,-5 -2,-5 -3,-5 -3,-4 -3,-5 -4,-4 -3,-4 -4,-4 -4,-4 -4,-3 -4,-4 -5,-3 -4,-3 -5,-3 -5,-2 -5,-3 -5,-2 -5,-2 -5,-2 -5,-1 -5,-2 -6,-1 -5,0 -5,-1 -6,0 -5,0 -6,0 -5,0 -6,1 -5,0 -5,1 -6,2 -5,1 -5,2 -5,2 -5,2 -5,3 -5,2 -5,3 -4,3 -4,3 -5,4 -4,3 -4,4 -4,4 -3,4 -4,4 -3,5 -3,4 -3,5 -2,5 -3,5 -2,5 -2,5 -2,5 -1,5 -1,5 -1,6 -1,5 -1,6 0,5 0,6 0,5 0,5 1,6 1,5 1,6 1,5 1,5 2,5 2,5 2,5 3,5 2,5 3,5 3,4 3,5 4,4 3,4 4,4 4,4 4,3 5,4 4,3 4,3 5,3 5,2 5,3 5,2 5,2 5,2 5,1 6,2 5,1 5,0 6,1 5,0 6,1 5,-1 6,0 5,-1 5,0 6,-1 5,-2 5,-1 5,-2 5,-2 5,-2 5,-3 5,-2 5,-3 4,-3 5,-3 4,-4 4,-3 4,-4 4,-4 3,-4 4,-4 3,-5 3,-4 3,-5 2,-5 3,-5 2,-5 2,-5 2,-5 1,-5 2,-5 1,-6 1,-5 0,-6 0,-5 1,-5 z"
     id="path180"
     inkscape:connector-curvature="0"
     style="fill:#268bd2;stroke:none" /><path
     d="m 9646,731.99957 -1,-6 0,-5 0,-6 -1,-5 -1,-6 -2,-5 -1,-5 -2,-5 -2,-5 -2,-5 -3,-5 -2,-5 -3,-5 -3,-4 -3,-5 -4,-4 -3,-4 -4,-4 -4,-4 -4,-3 -4,-4 -5,-3 -4,-3 -5,-3 -5,-2 -5,-3 -5,-2 -5,-2 -5,-2 -5,-1 -5,-2 -6,-1 -5,0 -5,-1 -6,0 -5,0 -6,0 -5,0 -6,1 -5,0 -5,1 -6,2 -5,1 -5,2 -5,2 -5,2 -5,3 -5,2 -5,3 -4,3 -4,3 -5,4 -4,3 -4,4 -4,4 -3,4 -4,4 -3,5 -3,4 -3,5 -2,5 -3,5 -2,5 -2,5 -2,5 -1,5 -1,5 -1,6 -1,5 -1,6 0,5 0,6 0,5 0,5 1,6 1,5 1,6 1,5 1,5 2,5 2,5 2,5 3,5 2,5 3,5 3,4 3,5 4,4 3,4 4,4 4,4 4,3 5,4 4,3 4,3 5,3 5,2 5,3 5,2 5,2 5,2 5,1 6,2 5,1 5,0 6,1 5,0 6,1 5,-1 6,0 5,-1 5,0 6,-1 5,-2 5,-1 5,-2 5,-2 5,-2 5,-3 5,-2 5,-3 4,-3 5,-3 4,-4 4,-3 4,-4 4,-4 3,-4 4,-4 3,-5 3,-4 3,-5 2,-5 3,-5 2,-5 2,-5 2,-5 1,-5 2,-5 1,-6 1,-5 0,-6 0,-5 1,-5 z"
     id="path182"
     inkscape:connector-curvature="0"
     style="fill:none;stroke:#268bd2;stroke-linejoin:round" /><path
     d="m 7712,731.99957 1809,0 1809,0"
     id="path184"
     inkscape:connector-curvature="0"
     style="fill:none;stroke:#268bd2;stroke-width:20;stroke-linejoin:round" /><path
     d="m 7712,831.99957 0,-200"
     id="path186"
     inkscape:connector-curvature="0"
     style="fill:none;stroke:#268bd2;stroke-width:20;stroke-linejoin:round" /><path
     d="m 11330,631.99957 0,200"
     id="path188"
     inkscape:connector-curvature="0"
     style="fill:none;stroke:#268bd2;stroke-width:20;stroke-linejoin:round" /><path
     d="m 4750,606.99957 c 23,0 42,13 55,39 4,11 7,19 7,24 l 1,0 c 4,-18 11,-33 21,-45 12,-12 26,-18 41,-18 24,0 43,12 57,37 4,10 6,18 6,27 0,28 -12,54 -36,79 l -89,107 -1,0 -96,-116 c -19,-22 -28,-46 -28,-70 0,-24 11,-43 33,-57 10,-5 20,-7 29,-7 l 0,0 z"
     id="path190"
     inkscape:connector-curvature="0"
     style="fill:#d33682;stroke:none" /><path
     d="m 4187,1369.9996 c 22,0 41,13 54,39 4,11 7,19 7,24 l 1,0 c 4,-18 11,-33 21,-45 12,-12 26,-18 41,-18 24,0 43,12 57,37 4,10 6,18 6,26 0,28 -12,55 -36,80 l -89,107 -1,0 -96,-116 c -19,-23 -28,-46 -28,-71 0,-23 11,-42 34,-56 9,-5 19,-7 29,-7 l 0,0 z"
     id="path192"
     inkscape:connector-curvature="0"
     style="fill:#d33682;stroke:none" /><path
     d="m 2943,2132.9996 c 23,0 41,13 54,39 4,10 7,18 7,24 l 1,0 c 4,-18 11,-33 21,-45 12,-12 26,-18 42,-18 23,0 42,12 56,37 4,10 6,18 6,26 0,28 -12,55 -35,80 l -90,107 -1,0 -96,-116 c -19,-23 -28,-46 -28,-71 0,-23 11,-42 34,-56 9,-5 19,-7 29,-7 l 0,0 z"
     id="path194"
     inkscape:connector-curvature="0"
     style="fill:#d33682;stroke:none" /><path
     d="m 4102,831.99957 0,-200"
     id="path198"
     inkscape:connector-curvature="0"
     style="fill:none;stroke:#d33682;stroke-width:20;stroke-linejoin:round" /><path
     d="m 5525,631.99957 0,200"
     id="path200"
     inkscape:connector-curvature="0"
     style="fill:none;stroke:#d33682;stroke-width:20;stroke-linejoin:round" /><path
     d="m 3651,1494.9996 598,0 598,0"
     id="path202"
     inkscape:connector-curvature="0"
     style="fill:none;stroke:#d33682;stroke-width:20;stroke-linejoin:round" /><path
     d="m 3651,1594.9996 0,-200"
     id="path204"
     inkscape:connector-curvature="0"
     style="fill:none;stroke:#d33682;stroke-width:20;stroke-linejoin:round" /><path
     d="m 4847,1394.9996 0,200"
     id="path206"
     inkscape:connector-curvature="0"
     style="fill:none;stroke:#d33682;stroke-width:20;stroke-linejoin:round" /><path
     d="m 2637,2257.9996 368,0 369,0"
     id="path208"
     inkscape:connector-curvature="0"
     style="fill:none;stroke:#d33682;stroke-width:20;stroke-linejoin:round" /><path
     d="m 2637,2357.9996 0,-200"
     id="path210"
     inkscape:connector-curvature="0"
     style="fill:none;stroke:#d33682;stroke-width:20;stroke-linejoin:round" /><path
     d="m 3374,2157.9996 0,200"
     id="path212"
     inkscape:connector-curvature="0"
     style="fill:none;stroke:#d33682;stroke-width:20;stroke-linejoin:round" /><text
     class="TextShape"
     id="text214"
     y="-0.00043063695"><tspan
       class="TextParagraph"
       font-size="423px"
       font-weight="400"
       id="tspan216"
       style="font-weight:400;font-size:423px;font-family:'Aller Display'"><tspan
         class="TextPosition"
         x="1538"
         y="7101.9995"
         id="tspan218"><tspan
           id="tspan220"
           style="fill:#586e75;stroke:none">0</tspan></tspan></tspan></text>
<text
     class="TextShape"
     id="text222"
     y="-0.00043063695"><tspan
       class="TextParagraph"
       font-size="423px"
       font-weight="400"
       id="tspan224"
       style="font-weight:400;font-size:423px;font-family:'Aller Display'"><tspan
         class="TextPosition"
         x="2485"
         y="7101.9995"
         id="tspan226"><tspan
           id="tspan228"
           style="fill:#586e75;stroke:none">1</tspan></tspan></tspan></text>
<text
     class="TextShape"
     id="text230"
     y="-0.00043063695"><tspan
       class="TextParagraph"
       font-size="423px"
       font-weight="400"
       id="tspan232"
       style="font-weight:400;font-size:423px;font-family:'Aller Display'"><tspan
         class="TextPosition"
         x="3432"
         y="7101.9995"
         id="tspan234"><tspan
           id="tspan236"
           style="fill:#586e75;stroke:none">2</tspan></tspan></tspan></text>
<text
     class="TextShape"
     id="text238"
     y="-0.00043063695"><tspan
       class="TextParagraph"
       font-size="423px"
       font-weight="400"
       id="tspan240"
       style="font-weight:400;font-size:423px;font-family:'Aller Display'"><tspan
         class="TextPosition"
         x="4353"
         y="7101.9995"
         id="tspan242"><tspan
           id="tspan244"
           style="fill:#586e75;stroke:none">3</tspan></tspan></tspan></text>
<text
     class="TextShape"
     id="text246"
     y="-0.00043063695"><tspan
       class="TextParagraph"
       font-size="423px"
       font-weight="400"
       id="tspan248"
       style="font-weight:400;font-size:423px;font-family:'Aller Display'"><tspan
         class="TextPosition"
         x="5272"
         y="7101.9995"
         id="tspan250"><tspan
           id="tspan252"
           style="fill:#586e75;stroke:none">4</tspan></tspan></tspan></text>
<text
     class="TextShape"
     id="text254"
     y="-0.00043063695"><tspan
       class="TextParagraph"
       font-size="423px"
       font-weight="400"
       id="tspan256"
       style="font-weight:400;font-size:423px;font-family:'Aller Display'"><tspan
         class="TextPosition"
         x="6220"
         y="7101.9995"
         id="tspan258"><tspan
           id="tspan260"
           style="fill:#586e75;stroke:none">5</tspan></tspan></tspan></text>
<text
     class="TextShape"
     id="text262"
     y="-0.00043063695"><tspan
       class="TextParagraph"
       font-size="423px"
       font-weight="400"
       id="tspan264"
       style="font-weight:400;font-size:423px;font-family:'Aller Display'"><tspan
         class="TextPosition"
         x="7140"
         y="7101.9995"
         id="tspan266"><tspan
           id="tspan268"
           style="fill:#586e75;stroke:none">6</tspan></tspan></tspan></text>
<text
     class="TextShape"
     id="text270"
     y="-0.00043063695"><tspan
       class="TextParagraph"
       font-size="423px"
       font-weight="400"
       id="tspan272"
       style="font-weight:400;font-size:423px;font-family:'Aller Display'"><tspan
         class="TextPosition"
         x="8088"
         y="7101.9995"
         id="tspan274"><tspan
           id="tspan276"
           style="fill:#586e75;stroke:none">7</tspan></tspan></tspan></text>
<text
     class="TextShape"
     id="text278"
     y="-0.00043063695"><tspan
       class="TextParagraph"
       font-size="423px"
       font-weight="400"
       id="tspan280"
       style="font-weight:400;font-size:423px;font-family:'Aller Display'"><tspan
         class="TextPosition"
         x="9021"
         y="7101.9995"
         id="tspan282"><tspan
           id="tspan284"
           style="fill:#586e75;stroke:none">8</tspan></tspan></tspan></text>
<text
     class="TextShape"
     id="text286"
     y="-0.00043063695"><tspan
       class="TextParagraph"
       font-size="423px"
       font-weight="400"
       id="tspan288"
       style="font-weight:400;font-size:423px;font-family:'Aller Display'"><tspan
         class="TextPosition"
         x="9941"
         y="7101.9995"
         id="tspan290"><tspan
           id="tspan292"
           style="fill:#586e75;stroke:none">9</tspan></tspan></tspan></text>
<text
     class="TextShape"
     id="text294"
     y="-0.00043063695"><tspan
       class="TextParagraph"
       font-size="423px"
       font-weight="400"
       id="tspan296"
       style="font-weight:400;font-size:423px;font-family:'Aller Display'"><tspan
         class="TextPosition"
         x="10770"
         y="7101.9995"
         id="tspan298"><tspan
           id="tspan300"
           style="fill:#586e75;stroke:none">10</tspan></tspan></tspan></text>
<text
     class="TextShape"
     id="text302"
     y="-0.00043063695"><tspan
       class="TextParagraph"
       font-size="423px"
       font-weight="400"
       id="tspan304"
       style="font-weight:400;font-size:423px;font-family:'Aller Display'"><tspan
         class="TextPosition"
         x="11703"
         y="7101.9995"
         id="tspan306"><tspan
           id="tspan308"
           style="fill:#586e75;stroke:none">11</tspan></tspan></tspan></text>
<text
     class="TextShape"
     id="text310"
     style="fill:#073642"
     y="-0.00043063695"><tspan
       class="TextParagraph"
       font-size="353px"
       font-weight="400"
       id="tspan312"
       style="font-weight:400;font-size:353px;font-family:'Aller Display';fill:#073642"><tspan
         class="TextPosition"
         x="865"
         y="6575.9995"
         id="tspan314"
         style="fill:#073642"><tspan
           id="tspan316"
           style="fill:#073642;stroke:none">0%</tspan></tspan></tspan></text>
<text
     class="TextShape"
     id="text318"
     style="fill:#073642"
     y="-0.00043063695"><tspan
       class="TextParagraph"
       font-size="353px"
       font-weight="400"
       id="tspan320"
       style="font-weight:400;font-size:353px;font-family:'Aller Display';fill:#073642"><tspan
         class="TextPosition"
         x="707"
         y="6002.9995"
         id="tspan322"
         style="fill:#073642"><tspan
           id="tspan324"
           style="fill:#073642;stroke:none">10%</tspan></tspan></tspan></text>
<text
     class="TextShape"
     id="text326"
     style="fill:#073642"
     y="-0.00043063695"><tspan
       class="TextParagraph"
       font-size="353px"
       font-weight="400"
       id="tspan328"
       style="font-weight:400;font-size:353px;font-family:'Aller Display';fill:#073642"><tspan
         class="TextPosition"
         x="680"
         y="5430.9995"
         id="tspan330"
         style="fill:#073642"><tspan
           id="tspan332"
           style="fill:#073642;stroke:none">20%</tspan></tspan></tspan></text>
<text
     class="TextShape"
     id="text334"
     style="fill:#073642"
     y="-0.00043063695"><tspan
       class="TextParagraph"
       font-size="353px"
       font-weight="400"
       id="tspan336"
       style="font-weight:400;font-size:353px;font-family:'Aller Display';fill:#073642"><tspan
         class="TextPosition"
         x="680"
         y="4857.9995"
         id="tspan338"
         style="fill:#073642"><tspan
           id="tspan340"
           style="fill:#073642;stroke:none">30%</tspan></tspan></tspan></text>
<text
     class="TextShape"
     id="text342"
     style="fill:#073642"
     y="-0.00043063695"><tspan
       class="TextParagraph"
       font-size="353px"
       font-weight="400"
       id="tspan344"
       style="font-weight:400;font-size:353px;font-family:'Aller Display';fill:#073642"><tspan
         class="TextPosition"
         x="680"
         y="4285.9995"
         id="tspan346"
         style="fill:#073642"><tspan
           id="tspan348"
           style="fill:#073642;stroke:none">40%</tspan></tspan></tspan></text>
<text
     class="TextShape"
     id="text350"
     style="fill:#073642"
     y="-0.00043063695"><tspan
       class="TextParagraph"
       font-size="353px"
       font-weight="400"
       id="tspan352"
       style="font-weight:400;font-size:353px;font-family:'Aller Display';fill:#073642"><tspan
         class="TextPosition"
         x="680"
         y="3713.9995"
         id="tspan354"
         style="fill:#073642"><tspan
           id="tspan356"
           style="fill:#073642;stroke:none">50%</tspan></tspan></tspan></text>
<text
     class="TextShape"
     id="text358"
     style="fill:#073642"
     y="-0.00043063695"><tspan
       class="TextParagraph"
       font-size="353px"
       font-weight="400"
       id="tspan360"
       style="font-weight:400;font-size:353px;font-family:'Aller Display';fill:#073642"><tspan
         class="TextPosition"
         x="654"
         y="3140.9995"
         id="tspan362"
         style="fill:#073642"><tspan
           id="tspan364"
           style="fill:#073642;stroke:none">60%</tspan></tspan></tspan></text>
<text
     class="TextShape"
     id="text366"
     style="fill:#073642"
     y="-0.00043063695"><tspan
       class="TextParagraph"
       font-size="353px"
       font-weight="400"
       id="tspan368"
       style="font-weight:400;font-size:353px;font-family:'Aller Display';fill:#073642"><tspan
         class="TextPosition"
         x="707"
         y="2568.9995"
         id="tspan370"
         style="fill:#073642"><tspan
           id="tspan372"
           style="fill:#073642;stroke:none">70%</tspan></tspan></tspan></text>
<text
     class="TextShape"
     id="text374"
     style="fill:#073642"
     y="-0.00043063695"><tspan
       class="TextParagraph"
       font-size="353px"
       font-weight="400"
       id="tspan376"
       style="font-weight:400;font-size:353px;font-family:'Aller Display';fill:#073642"><tspan
         class="TextPosition"
         x="654"
         y="1995.9995"
         id="tspan378"
         style="fill:#073642"><tspan
           id="tspan380"
           style="fill:#073642;stroke:none">80%</tspan></tspan></tspan></text>
<text
     class="TextShape"
     id="text382"
     style="fill:#073642"
     y="-0.00043063695"><tspan
       class="TextParagraph"
       font-size="353px"
       font-weight="400"
       id="tspan384"
       style="font-weight:400;font-size:353px;font-family:'Aller Display';fill:#073642"><tspan
         class="TextPosition"
         x="654"
         y="1423.9995"
         id="tspan386"
         style="fill:#073642"><tspan
           id="tspan388"
           style="fill:#073642;stroke:none">90%</tspan></tspan></tspan></text>
<text
     class="TextShape"
     id="text390"
     style="fill:#073642"
     y="-0.00043063695"><tspan
       class="TextParagraph"
       font-size="353px"
       font-weight="400"
       id="tspan392"
       style="font-weight:400;font-size:353px;font-family:'Aller Display';fill:#073642"><tspan
         class="TextPosition"
         x="495"
         y="851.99957"
         id="tspan394"
         style="fill:#073642"><tspan
           id="tspan396"
           style="fill:#073642;stroke:none">100%</tspan></tspan></tspan></text>
<text
     class="TextShape"
     id="text432"
     y="-0.00043063695"><tspan
       class="TextParagraph"
       font-size="353px"
       font-weight="400"
       id="tspan434"
       style="font-weight:400;font-size:353px;font-family:Aller"><tspan
         class="TextPosition"
         x="12490"
         y="7089.9995"
         id="tspan436"><tspan
           id="tspan438"
           style="fill:#073642;stroke:none">Running time (ms)</tspan></tspan></tspan></text>
<text
     class="TextShape"
     transform="matrix(0,-1,1,0,0,0)"
     id="text440"
     x="-6346.9995"
     y="-5497"><tspan
       class="TextParagraph"
       font-size="353px"
       font-weight="400"
       id="tspan442"
       style="font-weight:400;font-size:353px;font-family:Aller"><tspan
         class="TextPosition"
         x="-5921.9995"
         y="425"
         id="tspan444"><tspan
           id="tspan446"
           style="fill:#073642;stroke:none">Quality (providing fluents)</tspan></tspan></tspan></text>
<text
     xml:space="preserve"
     style="font-style:normal;font-weight:normal;font-size:202.40228271px;line-height:125%;font-family:sans-serif;letter-spacing:0px;word-spacing:0px;fill:#000000;fill-opacity:1;stroke:none;stroke-width:1px;stroke-linecap:butt;stroke-linejoin:miter;stroke-opacity:1"
     x="4193.4404"
     y="1561.1851"
     id="text4580"
     sodipodi:linespacing="125%"><tspan
       sodipodi:role="line"
       id="tspan4582"
       x="4193.4404"
       y="1561.1851"
       style="font-style:normal;font-variant:normal;font-weight:normal;font-stretch:normal;font-family:'Aller Display';-inkscape-font-specification:'Aller Display';fill:#fdf6e3">1</tspan></text>
<text
     xml:space="preserve"
     style="font-style:normal;font-weight:normal;font-size:202.40229797px;line-height:125%;font-family:sans-serif;letter-spacing:0px;word-spacing:0px;fill:#000000;fill-opacity:1;stroke:none;stroke-width:1px;stroke-linecap:butt;stroke-linejoin:miter;stroke-opacity:1"
     x="2953.8933"
     y="2324.9946"
     id="text4580-2"
     sodipodi:linespacing="125%"><tspan
       sodipodi:role="line"
       id="tspan4582-0"
       x="2953.8933"
       y="2324.9946"
       style="font-style:normal;font-variant:normal;font-weight:normal;font-stretch:normal;font-family:'Aller Display';-inkscape-font-specification:'Aller Display';fill:#fdf6e3">2</tspan></text>
<text
     xml:space="preserve"
     style="font-style:normal;font-weight:normal;font-size:202.40229797px;line-height:125%;font-family:sans-serif;letter-spacing:0px;word-spacing:0px;fill:#000000;fill-opacity:1;stroke:none;stroke-width:1px;stroke-linecap:butt;stroke-linejoin:miter;stroke-opacity:1"
     x="4752.4819"
     y="797.78033"
     id="text4580-2-0"
     sodipodi:linespacing="125%"><tspan
       sodipodi:role="line"
       id="tspan4582-0-8"
       x="4752.4819"
       y="797.78033"
       style="font-style:normal;font-variant:normal;font-weight:normal;font-stretch:normal;font-family:'Aller Display';-inkscape-font-specification:'Aller Display';fill:#fdf6e3">0</tspan></text>
<text
     class="TextShape"
     id="text408"
     x="-56.444447"
     y="-620.88898"><tspan
       style="font-weight:400;font-size:494px;font-family:'Aller Light'"
       class="TextParagraph"
       font-size="494px"
       font-weight="400"
       id="tspan410"><tspan
         class="TextPosition"
         x="12461.556"
         y="1045.1108"
         id="tspan412"><tspan
           style="fill:#002b36;stroke:none"
           id="tspan414">HEART</tspan></tspan></tspan></text>
<g
     id="g4890"
     transform="translate(0,-620.88938)"><path
       id="path398"
       d="m 12132.556,1347.0004 c 27,0 48,15 64,46 5,13 8,22 9,29 l 0,0 c 5,-22 13,-40 26,-54 14,-14 30,-21 48,-21 28,0 51,15 68,44 4,11 6,22 6,31 0,33 -14,65 -42,95 l -106,126 -1,0 -113,-137 c -23,-27 -34,-55 -34,-84 0,-28 14,-50 40,-66 11,-6 23,-9 35,-9 l 0,0 z"
       inkscape:connector-curvature="0"
       style="fill:#d33682;stroke:none" /><text
       sodipodi:linespacing="125%"
       id="text4580-2-0-0"
       y="1547.625"
       x="12106.461"
       style="font-style:normal;font-weight:normal;font-size:202.40229797px;line-height:125%;font-family:sans-serif;letter-spacing:0px;word-spacing:0px;fill:#000000;fill-opacity:1;stroke:none;stroke-width:1px;stroke-linecap:butt;stroke-linejoin:miter;stroke-opacity:1"
       xml:space="preserve"><tspan
         style="font-style:normal;font-variant:normal;font-weight:normal;font-stretch:normal;font-family:'Aller Display';-inkscape-font-specification:'Aller Display';fill:#fdf6e3"
         y="1547.625"
         x="12106.461"
         id="tspan4582-0-8-3"
         sodipodi:role="line">lv</tspan></text>
</g><text
     xml:space="preserve"
     style="font-style:normal;font-weight:normal;font-size:493.88891602px;line-height:125%;font-family:sans-serif;letter-spacing:0px;word-spacing:0px;fill:#073642;fill-opacity:1;stroke:none;stroke-width:1px;stroke-linecap:butt;stroke-linejoin:miter;stroke-opacity:1"
     x="15384.207"
     y="281.2352"
     id="text4675"
     sodipodi:linespacing="125%"><tspan
       sodipodi:role="line"
       id="tspan4677"
       x="15384.207"
       y="281.2352"
       style="font-style:normal;font-variant:normal;font-weight:normal;font-stretch:normal;font-size:493.88891602px;font-family:'Aller Display';-inkscape-font-specification:'Aller Display';fill:#073642" /><tspan
       sodipodi:role="line"
       x="15384.207"
       y="898.59631"
       id="tspan4679"
       style="font-style:normal;font-variant:normal;font-weight:normal;font-stretch:normal;font-size:493.88891602px;font-family:'Aller Display';-inkscape-font-specification:'Aller Display';text-align:end;text-anchor:end;fill:#073642" /><tspan
       sodipodi:role="line"
       x="15384.207"
       y="1515.9574"
       id="tspan4681"
       style="font-style:normal;font-variant:normal;font-weight:normal;font-stretch:normal;font-size:493.88891602px;font-family:'Aller Display';-inkscape-font-specification:'Aller Display';text-align:end;text-anchor:end;fill:#073642">1,429<tspan
   id="tspan4841"
   style="font-size:493.88891602px;text-align:end;text-anchor:end;fill:#93a1a1">±0,39</tspan><tspan
   style="font-style:normal;font-variant:normal;font-weight:normal;font-stretch:normal;font-size:493.88891602px;font-family:Aller;-inkscape-font-specification:Aller;text-align:end;text-anchor:end"
   id="tspan4699"> ms</tspan></tspan><tspan
       sodipodi:role="line"
       x="15384.207"
       y="2134.9128"
       style="font-style:normal;font-variant:normal;font-weight:normal;font-stretch:normal;font-size:493.88891602px;font-family:'Aller Display';-inkscape-font-specification:'Aller Display';text-align:end;text-anchor:end;fill:#073642"
       id="tspan4697">2,761<tspan
   id="tspan4843"
   style="font-size:493.88891602px;text-align:end;text-anchor:end;fill:#93a1a1">±0,64</tspan><tspan
   style="font-style:normal;font-variant:normal;font-weight:normal;font-stretch:normal;font-size:493.88891602px;font-family:Aller;-inkscape-font-specification:Aller;text-align:end;text-anchor:end"
   id="tspan4701"> ms</tspan></tspan><tspan
       sodipodi:role="line"
       x="15384.207"
       y="2753.8684"
       style="font-style:normal;font-variant:normal;font-weight:normal;font-stretch:normal;font-size:493.88891602px;font-family:'Aller Display';-inkscape-font-specification:'Aller Display';text-align:end;text-anchor:end;fill:#073642"
       id="tspan4695">3,366<tspan
   id="tspan4845"
   style="font-size:493.88891602px;text-align:end;text-anchor:end;fill:#93a1a1">±0,76</tspan><tspan
   style="font-style:normal;font-variant:normal;font-weight:normal;font-stretch:normal;font-size:493.88891602px;font-family:Aller;-inkscape-font-specification:Aller;text-align:end;text-anchor:end"
   id="tspan4703"> ms</tspan></tspan></text>
<path
     d="m 12367.667,3647.3706 -1,-7 0,-6 -1,-7 -1,-6 -1,-7 -2,-6 -1,-6 -2,-6 -3,-6 -2,-6 -3,-6 -3,-5 -4,-6 -3,-5 -4,-6 -4,-5 -4,-4 -5,-5 -5,-5 -4,-4 -5,-4 -6,-4 -5,-3 -5,-4 -6,-3 -6,-3 -6,-2 -6,-3 -6,-2 -6,-1 -6,-2 -7,-1 -6,-1 -7,-1 -6,0 -6,0 -7,0 -6,0 -7,1 -6,1 -7,1 -6,2 -6,1 -6,2 -6,3 -6,2 -6,3 -5,3 -6,4 -5,3 -6,4 -5,4 -4,4 -5,5 -5,5 -4,4 -4,5 -4,6 -3,5 -4,5 -3,6 -3,6 -2,6 -3,6 -2,6 -1,6 -2,6 -1,7 -1,6 -1,7 0,6 0,7 0,6 0,6 1,7 1,6 1,7 2,6 1,6 2,6 3,6 2,6 3,6 3,6 4,5 3,5 4,6 4,5 4,4 5,5 5,5 4,4 5,4 6,4 5,3 5,4 6,3 6,3 6,2 6,3 6,2 6,1 6,2 7,1 6,1 7,1 6,0 7,1 6,-1 6,0 7,-1 6,-1 7,-1 6,-2 6,-1 6,-2 6,-3 6,-2 6,-3 6,-3 5,-4 5,-3 6,-4 5,-4 4,-4 5,-5 5,-5 4,-4 4,-5 4,-6 3,-5 4,-5 3,-6 3,-6 2,-6 3,-6 2,-6 1,-6 2,-6 1,-7 1,-6 1,-7 0,-6 1,-6 z"
     id="path400"
     inkscape:connector-curvature="0"
     style="fill:#268bd2;stroke:none" /><path
     d="m 12367.667,3647.3706 -1,-7 0,-6 -1,-7 -1,-6 -1,-7 -2,-6 -1,-6 -2,-6 -3,-6 -2,-6 -3,-6 -3,-5 -4,-6 -3,-5 -4,-6 -4,-5 -4,-4 -5,-5 -5,-5 -4,-4 -5,-4 -6,-4 -5,-3 -5,-4 -6,-3 -6,-3 -6,-2 -6,-3 -6,-2 -6,-1 -6,-2 -7,-1 -6,-1 -7,-1 -6,0 -6,0 -7,0 -6,0 -7,1 -6,1 -7,1 -6,2 -6,1 -6,2 -6,3 -6,2 -6,3 -5,3 -6,4 -5,3 -6,4 -5,4 -4,4 -5,5 -5,5 -4,4 -4,5 -4,6 -3,5 -4,5 -3,6 -3,6 -2,6 -3,6 -2,6 -1,6 -2,6 -1,7 -1,6 -1,7 0,6 0,7 0,6 0,6 1,7 1,6 1,7 2,6 1,6 2,6 3,6 2,6 3,6 3,6 4,5 3,5 4,6 4,5 4,4 5,5 5,5 4,4 5,4 6,4 5,3 5,4 6,3 6,3 6,2 6,3 6,2 6,1 6,2 7,1 6,1 7,1 6,0 7,1 6,-1 6,0 7,-1 6,-1 7,-1 6,-2 6,-1 6,-2 6,-3 6,-2 6,-3 6,-3 5,-4 5,-3 6,-4 5,-4 4,-4 5,-5 5,-5 4,-4 4,-5 4,-6 3,-5 4,-5 3,-6 3,-6 2,-6 3,-6 2,-6 1,-6 2,-6 1,-7 1,-6 1,-7 0,-6 1,-6 z"
     id="path402"
     inkscape:connector-curvature="0"
     style="fill:none;stroke:#268bd2;stroke-linejoin:round" /><text
     class="TextShape"
     id="text416"
     y="352.37097"
     x="-42.333447"><tspan
       class="TextParagraph"
       font-size="494px"
       font-weight="400"
       id="tspan418"
       style="font-weight:400;font-size:494px;font-family:'Aller Light'"><tspan
         class="TextPosition"
         x="12475.667"
         y="3818.3701"
         id="tspan420"><tspan
           id="tspan422"
           style="fill:#002b36;stroke:none">HiPOP</tspan></tspan></tspan></text>
<text
     xml:space="preserve"
     style="font-style:normal;font-weight:normal;font-size:493.88891602px;line-height:125%;font-family:sans-serif;letter-spacing:0px;word-spacing:0px;fill:#073642;fill-opacity:1;stroke:none;stroke-width:1px;stroke-linecap:butt;stroke-linejoin:miter;stroke-opacity:1"
     x="12088.571"
     y="3067.0029"
     id="text4675-8"
     sodipodi:linespacing="125%"><tspan
       sodipodi:role="line"
       id="tspan4677-2"
       x="12088.571"
       y="3067.0029"
       style="font-style:normal;font-variant:normal;font-weight:normal;font-stretch:normal;font-size:493.88891602px;font-family:'Aller Display';-inkscape-font-specification:'Aller Display';fill:#073642" /><tspan
       sodipodi:role="line"
       x="12088.571"
       y="3684.364"
       id="tspan4679-2"
       style="font-style:normal;font-variant:normal;font-weight:normal;font-stretch:normal;font-size:493.88891602px;font-family:'Aller Display';-inkscape-font-specification:'Aller Display';fill:#073642" /><tspan
       sodipodi:role="line"
       x="12088.571"
       y="4301.7251"
       style="font-style:normal;font-variant:normal;font-weight:normal;font-stretch:normal;font-size:493.88891602px;font-family:'Aller Display';-inkscape-font-specification:'Aller Display';fill:#073642"
       id="tspan4695-4">8,408<tspan
   style="font-size:493.88891602px;fill:#93a1a1"
   id="tspan4781">±1,93</tspan><tspan
   style="font-style:normal;font-variant:normal;font-weight:normal;font-stretch:normal;font-size:493.88891602px;font-family:Aller;-inkscape-font-specification:Aller"
   id="tspan4699-4"> ms</tspan></tspan></text>
<path
     d="m 12207.666,4720.222 0,127 -125,-72 -11,20 124,73 -124,72 11,20 125,-72 0,128 23,0 0,-128 125,72 12,-20 -125,-72 125,-73 -12,-20 -125,72 0,-127 -23,0 z"
     id="path404"
     inkscape:connector-curvature="0"
     style="fill:#859900;stroke:none" /><path
     d="m 12207.666,4720.222 0,127 -125,-72 -11,20 124,73 -124,72 11,20 125,-72 0,128 23,0 0,-128 125,72 12,-20 -125,-72 125,-73 -12,-20 -125,72 0,-127 -23,0 z"
     id="path406"
     inkscape:connector-curvature="0"
     style="fill:none;stroke:#859900;stroke-linejoin:round" /><text
     class="TextShape"
     id="text424"
     y="-225.77818"
     x="-42.333935"><tspan
       class="TextParagraph"
       font-size="494px"
       font-weight="400"
       id="tspan426"
       style="font-weight:400;font-size:494px;font-family:'Aller Light'"><tspan
         class="TextPosition"
         x="12475.666"
         y="5039.2222"
         id="tspan428"><tspan
           id="tspan430"
           style="fill:#002b36;stroke:none">POP</tspan></tspan></tspan></text>
<text
     xml:space="preserve"
     style="font-style:normal;font-weight:normal;font-size:493.88891602px;line-height:125%;font-family:sans-serif;letter-spacing:0px;word-spacing:0px;fill:#073642;fill-opacity:1;stroke:none;stroke-width:1px;stroke-linecap:butt;stroke-linejoin:miter;stroke-opacity:1"
     x="12101.906"
     y="4373.2124"
     id="text4675-84"
     sodipodi:linespacing="125%"><tspan
       sodipodi:role="line"
       id="tspan4677-25"
       x="12101.906"
       y="4373.2124"
       style="font-style:normal;font-variant:normal;font-weight:normal;font-stretch:normal;font-size:493.88891602px;font-family:'Aller Display';-inkscape-font-specification:'Aller Display';fill:#073642" /><tspan
       sodipodi:role="line"
       x="12101.906"
       y="4990.5737"
       id="tspan4679-4"
       style="font-style:normal;font-variant:normal;font-weight:normal;font-stretch:normal;font-size:493.88891602px;font-family:'Aller Display';-inkscape-font-specification:'Aller Display';fill:#073642" /><tspan
       sodipodi:role="line"
       x="12101.906"
       y="5607.9346"
       style="font-style:normal;font-variant:normal;font-weight:normal;font-stretch:normal;font-size:493.88891602px;font-family:'Aller Display';-inkscape-font-specification:'Aller Display';fill:#073642"
       id="tspan4695-2">3,214<tspan
   style="font-size:493.88891602px;fill:#93a1a1"
   id="tspan4792">±0,66</tspan><tspan
   style="font-style:normal;font-variant:normal;font-weight:normal;font-stretch:normal;font-size:493.88891602px;font-family:Aller;-inkscape-font-specification:Aller"
   id="tspan4699-5"> ms</tspan></tspan></text>
<text
     xml:space="preserve"
     style="font-style:normal;font-weight:normal;font-size:423.33337402px;line-height:125%;font-family:sans-serif;letter-spacing:0px;word-spacing:0px;fill:#000000;fill-opacity:1;stroke:none;stroke-width:1px;stroke-linecap:butt;stroke-linejoin:miter;stroke-opacity:1"
     x="15318.934"
     y="5522.0859"
     id="text4387"
     sodipodi:linespacing="125%"><tspan
       sodipodi:role="line"
       id="tspan4389"
       x="15318.934"
       y="5522.0859"></tspan></text>
<text
     sodipodi:linespacing="125%"
     id="text4391"
     y="1609.7446"
     x="6388.3384"
     style="font-style:normal;font-weight:normal;font-size:423.33337402px;line-height:125%;font-family:sans-serif;letter-spacing:0px;word-spacing:0px;fill:#073642;fill-opacity:1;stroke:none;stroke-width:1px;stroke-linecap:butt;stroke-linejoin:miter;stroke-opacity:1"
     xml:space="preserve"><tspan
       id="tspan4409"
       style="font-style:normal;font-variant:normal;font-weight:normal;font-stretch:normal;font-size:352.77780151px;font-family:'Aller Display';-inkscape-font-specification:'Aller Display';text-align:end;text-anchor:end;fill:#073642"
       y="1609.7446"
       x="6388.3384"
       sodipodi:role="line">86,67%</tspan></text>
<text
     sodipodi:linespacing="125%"
     id="text4391-3"
     y="2333.2686"
     x="4862.292"
     style="font-style:normal;font-weight:normal;font-size:423.33337402px;line-height:125%;font-family:sans-serif;letter-spacing:0px;word-spacing:0px;fill:#073642;fill-opacity:1;stroke:none;stroke-width:1px;stroke-linecap:butt;stroke-linejoin:miter;stroke-opacity:1"
     xml:space="preserve"><tspan
       id="tspan4409-6"
       style="font-style:normal;font-variant:normal;font-weight:normal;font-stretch:normal;font-size:352.77783203px;font-family:'Aller Display';-inkscape-font-specification:'Aller Display';text-align:end;text-anchor:end;fill:#073642"
       y="2333.2686"
       x="4862.292"
       sodipodi:role="line">73,33%</tspan></text>
</svg>