<?xml version="1.0" encoding="UTF-8" standalone="no"?>
<svg
   xmlns:dc="http://purl.org/dc/elements/1.1/"
   xmlns:cc="http://creativecommons.org/ns#"
   xmlns:rdf="http://www.w3.org/1999/02/22-rdf-syntax-ns#"
   xmlns:svg="http://www.w3.org/2000/svg"
   xmlns="http://www.w3.org/2000/svg"
   version="1.1"
   id="svg2"
   viewBox="0 0 121.21313 30.24"
   height="8.5344mm"
   width="34.209038mm">
  <defs
     id="defs4" />
  <metadata
     id="metadata7">
    <rdf:RDF>
      <cc:Work
         rdf:about="">
        <dc:format>image/svg+xml</dc:format>
        <dc:type
           rdf:resource="http://purl.org/dc/dcmitype/StillImage" />
        <dc:title></dc:title>
      </cc:Work>
    </rdf:RDF>
  </metadata>
  <g
     transform="translate(-5.3015253,-3.6221429)"
     id="layer1">
    <g
       id="text4136"
       style="font-style:normal;font-weight:normal;font-size:40px;line-height:125%;font-family:sans-serif;letter-spacing:0px;word-spacing:0px;fill:#000000;fill-opacity:1;stroke:none;stroke-width:1px;stroke-linecap:butt;stroke-linejoin:miter;stroke-opacity:1">
      <path
         id="path4160"
         style="font-style:normal;font-variant:normal;font-weight:normal;font-stretch:normal;font-family:BRUSHSTRIKE;-inkscape-font-specification:BRUSHSTRIKE;fill:#859900"
         d="m 17.541525,8.2421429 q 0,-0.02 -0.06,-0.04 -0.04,-0.04 -0.04,-0.12 0,-0.06 0.1,-0.16 0.04,-0.06 0.1,-0.1 l 0.32,0.1 q 0.08,-0.12 0.22,-0.22 0.14,-0.1 0.28,-0.2 0.14,-0.12 0.24,-0.24 0.12,-0.12 0.12,-0.26 0,-0.04 0.1,-0.1 0.12,-0.06 0.36,-0.06 l 0.16,0 q 0,-0.2 0.08,-0.26 0.1,-0.06 0.18,-0.06 0.04,0 0.06,0.02 0.04,0 0.08,0 0.54,0 0.88,-0.2 0.34,-0.22 0.52,-0.22 0.1,0 0.22,0.06 0.18,0 0.62,-0.06 0.44,-0.08 1,-0.16 0.58,-0.1 1.22,-0.2 0.64,-0.1 1.22,-0.18 0.6,-0.1 1.06,-0.16 0.46,-0.06 0.68,-0.06 0.46,0 1,0.18 0.56,0.16 0.94,0.72 0.38,0.56 0.64,1.38 0.26,0.82 0.26,1.52 0,1.1600001 -0.5,2.1200001 -0.48,0.96 -1.24,1.74 -0.74,0.78 -1.64,1.4 -0.9,0.6 -1.74,1.02 0.56,0 1.12,0 0.56,-0.02 1.2,-0.02 l 4.16,-0.02 q 0.08,0 0.22,0 0.14,0 0.24,0.02 l 3.22,0 q 0.18,0 0.32,0.04 0.16,0.02 0.16,0.06 0,0.04 -0.28,0.04 -0.52,0 -0.88,0 -0.36,-0.02 -0.7,-0.02 -0.32,-0.02 -0.72,-0.02 -0.38,-0.02 -0.98,-0.02 0.02,0.02 -0.54,0.04 -0.54,0.02 -1.3,0.04 -0.76,0.02 -1.56,0.04 -0.78,0.02 -1.24,0.02 l -0.32,0 q 0.86,0.02 2.02,0.04 1.16,0.02 2.4,0.06 1.24,0.02 2.44,0.04 1.22,0.02 2.18,0.06 0.96,0.02 1.54,0.06 0.6,0.02 0.6,0.04 0,0.06 -0.3,0.06 l -1.48,0.04 q 0.04,0.06 0.3,0.08 0.26,0 0.54,0 0.02,0 0.22,0.02 0.2,0 0.42,0.02 0.22,0.02 0.4,0.06 0.2,0.04 0.2,0.1 0,0.04 -0.22,0.1 -0.2,0.04 -0.76,0.08 -0.56,0.04 -1.54,0.08 -0.98,0.04 -2.5,0.08 -1.52,0.02 -3.68,0.04 -2.14,0.02 -5.02,0.02 -0.34,0 -0.54,0 -0.18,0 -0.44,0 -0.26,-0.02 -0.7,-0.02 -0.44,-0.02 -1.24,-0.02 -0.76,0.32 -1.48,0.5 -0.72,0.18 -1.44,0.4 0.18,0.48 0.68,1.18 0.5,0.68 1.48,1.6 1,0.92 2.58,2.04 1.58,1.12 3.92,2.44 1.3,0.74 2.68,1.36 1.4,0.62 2.82,1.22 1.42,0.6 2.84,1.22 1.42,0.64 2.76,1.4 0.12,0.04 0.26,0.08 0.16,0.04 0.3,0.1 0.16,0.06 0.28,0.16 0.14,0.1 0.24,0.28 -0.06,0 -0.12,0 -0.04,0.02 -0.1,0.02 -0.1,0 -0.2,-0.06 -0.1,-0.06 -0.2,-0.08 -0.2,0 -0.26,0.02 0,0.32 0.18,0.42 0.2,0.12 0.36,0.28 -0.04,0 -0.04,0.08 -0.34,-0.1 -0.72,-0.22 -0.36,-0.12 -0.66,-0.24 -0.2,0 -0.48,0.12 -0.28,0.14 -0.46,0.14 -0.22,0 -0.44,-0.08 -0.2,-0.08 -0.42,-0.18 -0.2,-0.08 -0.4,-0.16 -0.2,-0.08 -0.4,-0.08 -0.24,0.06 -0.5,0.06 -0.24,0 -0.48,-0.06 -0.12,0 -0.22,-0.08 -0.08,-0.06 -0.18,-0.14 -0.1,-0.08 -0.22,-0.16 -0.1,-0.06 -0.24,-0.06 -0.28,0 -0.84,-0.08 -0.54,-0.06 -1.24,-0.2 -0.7,-0.12 -1.5,-0.3 -0.78,-0.18 -1.54,-0.4 -0.74,-0.2 -1.4,-0.44 -0.64,-0.22 -1.06,-0.44 -2.44,-1.3 -4.04,-2.34 -1.58,-1.02 -2.58,-1.82 -1,-0.82 -1.56,-1.44 -0.54,-0.62 -0.92,-1.12 -0.36,-0.52 -0.68,-0.92 -0.3,-0.42 -0.84,-0.8 -0.48,0.62 -0.94,1.5 -0.46,0.86 -0.88,2.06 -0.56,1.56 -1.12,2.42 -0.54,0.86 -1.24,0.86 -0.16,0 -0.16,-0.16 0,-0.04 0.02,-0.08 l 0.12,-0.44 -0.58,1.2 q -0.08,0.2 -0.14,0.2 -0.02,0 -0.02,-0.02 0,-0.18 0.08,-0.46 0.1,-0.28 0.24,-0.58 0.14,-0.3 0.26,-0.58 0.14,-0.28 0.24,-0.5 -0.28,0.32 -0.58,0.84 -0.28,0.52 -0.52,1.02 -0.24,0.5 -0.3999997,0.86 -0.16,0.38 -0.18,0.38 -0.02,0 -0.02,-0.02 0,-0.06 0.02,-0.12 l 0.06,-0.16 q 0,-0.02 0.14,-0.36 0.12,-0.34 0.2199997,-0.64 -0.04,0.04 -0.04,0.04 0,0 0.06,-0.18 0.06,-0.18 0.12,-0.4 0.08,-0.2 0.14,-0.38 0.06,-0.16 0.06,-0.16 l 0,-0.04 q 0,0 -0.08,0.18 -0.08,0.18 -0.18,0.4 -0.1,0.22 -0.1799997,0.4 -0.08,0.18 -0.1,0.18 -0.02,0 -0.02,-0.06 0,-0.02 0.02,-0.08 0,-0.06 0.04,-0.22 0.04,-0.14 0.1399997,-0.42 0.08,-0.28 0.24,-0.76 -0.04,0.04 -0.08,0.04 -0.02,0.02 -0.08,0.1 -0.06,0.1 -0.1599997,0.3 -0.1,0.22 -0.26,0.66 -0.08,0.2 -0.16,0.34 -0.1,0.16 -0.14,0.16 -0.02,0 -0.02,-0.04 0,-0.1 0.08,-0.32 l 0.26,-0.8 q 0,-0.02 -0.02,-0.02 -0.12,0 -0.24,0.32 -0.14,0.34 -0.28,0.74 -0.14,0.4 -0.24,0.72 -0.12,0.34 -0.18,0.34 -0.02,0 -0.02,-0.06 0,-0.08 0.06,-0.32 l 0.12,-0.4 q 0,-0.02 0.06,-0.28 0.06,-0.24 0.14,-0.52 0.08,-0.34 0.18,-0.74 -0.18,0.52 -0.26,0.74 -0.08,0.24 -0.1,0.24 0,-0.02 0.12,-0.48 0.1,-0.44 0.26,-1 0.14,-0.56 0.26,-1.06 0.12,-0.52 0.12,-0.68 -0.12,0.3 -0.28,0.72 -0.16,0.42 -0.3,0.8 -0.16,0.36 -0.28,0.62 -0.12,0.26 -0.14,0.26 l 0,-0.02 q 0,-0.04 0.12,-0.58 0.12,-0.54 0.44,-1.66 0.32,-1.12 0.8399997,-2.86 0.52,-1.76 1.34,-4.24 l -2.3399997,0 q -1.54,0 -2.44,-0.1 -0.92,-0.1 -0.92,-0.14 0,-0.04 0.3,-0.1 -0.46,0 -0.6,-0.04 -0.16,-0.06 -0.16,-0.2 0,-0.1 0.14,-0.14 0.14,-0.06 0.24,-0.08 -0.18,-0.04 -0.18,-0.12 0,-0.04 0.04,-0.08 0.04,-0.06 0.22,-0.1 0.18,-0.06 0.58,-0.1 0.38,-0.04 1.1,-0.06 0.72,-0.02 1.8,-0.04 1.0799997,-0.02 2.6599997,-0.02 0.68,-2.12 1.08,-3.24 0.42,-1.14 0.66,-1.54 0.16,-0.46 0.3,-0.8600001 0.16,-0.4 0.26,-0.62 0.04,-0.08 0.06,-0.26 0.02,-0.18 0.04,-0.36 0.04,-0.18 0.08,-0.3 0.06,-0.14 0.18,-0.14 0.18,0 0.6,0.16 0.42,0.14 0.86,0.32 0.44,0.18 0.78,0.34 0.34,0.16 0.36,0.2 0.02,0 0.16,0.12 0.14,0.1 0.28,0.26 0.16,0.14 0.28,0.32 0.12,0.18 0.12,0.3400001 0,0.16 0.02,0.34 0.02,0.18 0.02,0.34 0,0.58 -0.12,1.18 -0.12,0.6 -0.3,1.18 -0.18,0.58 -0.38,1.16 -0.2,0.56 -0.36,1.1 0.74,0.02 1.08,0.04 0.36,0.02 0.5,0.04 0.94,-0.26 1.7,-0.76 0.76,-0.52 1.36,-1.14 0.62,-0.62 1.08,-1.28 0.46,-0.68 0.78,-1.26 0.34,-0.6 0.54,-1.0400001 0.2,-0.44 0.3,-0.62 -0.2,-0.06 -0.74,-0.1 -0.54,-0.06 -1.24,-0.08 -0.7,-0.02 -1.5,-0.02 -0.78,-0.02 -1.48,-0.02 -0.32,0 -0.56,0.02 -0.24,0 -0.42,0 -0.46,0 -0.54,-0.16 0.1,-0.14 0.18,-0.22 0.1,-0.1 0.1,-0.26 0,-0.02 -0.02,-0.04 0,-0.02 0,-0.06 -0.06,0.02 -0.14,0.02 -0.24,0 -0.32,-0.18 z m -5,11.7800001 q -0.02,-0.04 -0.02,-0.08 -0.02,-0.04 -0.02,-0.14 -0.04,0.04 -0.12,0.28 -0.08,0.22 -0.18,0.48 -0.1,0.26 -0.2,0.5 -0.1,0.22 -0.16,0.26 -0.02,0 -0.16,0.4 -0.12,0.38 -0.28,0.88 -0.14,0.5 -0.28,0.96 -0.12,0.46 -0.12,0.62 0.02,0.04 0.02,0.04 0,0.02 0.12,-0.28 0.12,-0.32 0.28,-0.78 0.16,-0.48 0.36,-1.02 0.2,-0.54 0.36,-1 0.16,-0.48 0.28,-0.8 0.12,-0.32 0.12,-0.32 z m -0.62,4.12 q -0.02,-0.02 -0.02,-0.04 0,-0.02 -0.02,-0.04 l -0.04,-0.04 q -0.04,0.04 -0.06,0.06 0,0.02 -0.02,0.04 -0.02,0.02 -0.02,0.04 -0.16,0.48 -0.24,0.72 -0.06,0.22 -0.06,0.28 l 0,0.02 q 0.02,0 0.1,-0.14 0.1,-0.16 0.18,-0.32 0.1,-0.18 0.18,-0.32 0.08,-0.16 0.08,-0.16 l -0.06,-0.1 z m 6.98,-7.06 1.3,-0.2 q -0.16,0 -0.4,-0.02 -0.22,-0.04 -0.44,-0.04 -0.2,0 -0.34,0.02 -0.12,0.02 -0.12,0.12 l 0,0.12 z m -9.7599997,11.24 q 0.02,-0.08 0.12,-0.3 0.08,-0.2 0.2,-0.44 0.1,-0.22 0.2,-0.42 0.08,-0.2 0.1,-0.26 0,0.08 -0.06,0.26 -0.06,0.18 -0.12,0.36 -0.08,0.2 -0.14,0.36 -0.06,0.16 -0.06,0.22 l 0,0.02 q -0.06,0.14 -0.18,0.34 -0.12,0.22 -0.16,0.22 0,-0.1 0.1,-0.36 z m 0.82,-3.7 q 0.1,-0.04 0.1599997,-0.22 0.06,-0.18 0.06,-0.22 l 0,-0.06 q 0,-0.06 0.04,-0.28 0.04,-0.22 0.08,-0.46 0.04,-0.24 0.08,-0.44 0.04,-0.22 0.04,-0.26 -0.02,0.04 -0.1,0.32 -0.06,0.28 -0.14,0.62 -0.08,0.34 -0.14,0.64 -0.08,0.3 -0.08,0.36 z M 18.101525,6.8821429 q -0.02,0 -0.02,-0.02 0,0 -0.04,-0.08 0,-0.04 0.06,-0.1 0.02,-0.04 0.06,-0.06 0.28,0.08 0.36,0.12 0.08,0.04 0.08,0.06 0,0.1 -0.2,0.16 -0.18,0.04 -0.22,0.04 -0.04,0 -0.04,-0.02 0,-0.04 -0.04,-0.1 z m -1.7,1.4 q -0.02,0 -0.02,-0.02 0,0 -0.04,-0.08 0,-0.04 0.06,-0.1 0.02,-0.04 0.06,-0.06 0.28,0.08 0.36,0.12 0.08,0.04 0.08,0.06 0,0.1 -0.2,0.16 -0.18,0.04 -0.22,0.04 -0.04,0 -0.04,-0.02 0,-0.04 -0.04,-0.1 z m -3.36,15.0400001 q -0.18,0.04 -0.18,0.2 0,0.16 0.06,0.24 0.08,0.06 0.06,0.06 0.04,0 0.08,-0.06 0.06,-0.08 0.2,-0.32 l -0.04,-0.08 q -0.02,-0.04 -0.04,-0.04 -0.02,-0.02 -0.04,-0.04 -0.04,0.02 -0.08,0.02 -0.02,0 -0.02,0.02 z m 0.22,-1.82 q 0.02,-0.02 0.02,-0.04 0.02,-0.02 0.04,-0.04 l 0.04,-0.04 q -0.04,-0.04 -0.08,-0.04 -0.02,0 -0.04,-0.02 -0.04,0 -0.04,-0.02 0,0.04 -0.02,0.12 -0.02,0.08 -0.02,0.14 l 0,0.02 0.1,-0.08 z" />
      <path
         id="path4162"
         style="font-style:normal;font-variant:normal;font-weight:normal;font-stretch:normal;font-family:BRUSHSTRIKE;-inkscape-font-specification:BRUSHSTRIKE;fill:#859900"
         d="m 42.219025,17.782143 -4.84,0 q -0.1,0 -0.18,0.02 -0.08,0 -0.18,0.02 -0.34,0.4 -0.8,0.94 -0.46,0.52 -0.9,1.02 -0.44,0.5 -0.82,0.9 -0.36,0.38 -0.5,0.48 -0.04,0.04 -0.22,0.16 -0.16,0.1 -0.38,0.26 -0.22,0.14 -0.46,0.32 -0.22,0.18 -0.38,0.32 0,0.04 0.04,0.04 0.08,0 0.3,-0.1 0.22,-0.12 0.44,-0.24 0.24,-0.14 0.44,-0.26 0.2,-0.12 0.28,-0.16 -0.12,0.06 -0.48,0.4 -0.36,0.32 -0.76,0.72 -0.4,0.38 -0.74,0.72 -0.34,0.34 -0.4,0.42 -0.3,0.34 -0.74,0.82 -0.42,0.46 -0.96,1.02 -0.54,0.56 -1.16,1.14 -0.62,0.6 -1.26,1.18 -0.04,0.04 -0.3,0.28 -0.26,0.24 -0.58,0.52 -0.32,0.3 -0.6,0.54 -0.3,0.24 -0.4,0.26 0,-0.04 0.16,-0.28 0.14,-0.22 0.38,-0.54 0.24,-0.3 0.5,-0.66 0.26,-0.36 0.5,-0.68 0.24,-0.32 0.4,-0.56 0.14,-0.24 0.14,-0.3 0,-0.02 -0.02,-0.02 -0.1,0.02 -0.44,0.32 -0.34,0.32 -0.72,0.68 -0.4,0.36 -0.72,0.66 -0.32,0.3 -0.4,0.3 0,-0.02 0.28,-0.38 0.26,-0.36 0.6,-0.78 0.32,-0.42 0.6,-0.78 0.26,-0.34 0.26,-0.36 0,-0.04 -0.04,-0.04 -0.1,0 -0.4,0.22 -0.32,0.24 -0.66,0.52 -0.34,0.3 -0.64,0.52 -0.32,0.24 -0.4,0.24 -0.12,-0.08 -0.12,-0.22 0,-0.12 0.08,-0.28 0.06,-0.14 0.14,-0.3 0.08,-0.14 0.16,-0.3 0.06,-0.14 0.06,-0.26 0,-0.08 -0.04,-0.14 -0.04,-0.04 -0.04,-0.14 0,-0.22 0.24,-0.54 0.24,-0.32 0.48,-0.58 0.08,0 0.14,-0.08 0.06,-0.1 0.12,-0.22 0.04,-0.12 0.08,-0.22 0.04,-0.12 0.08,-0.16 0.3,-0.3 0.7,-0.66 0.38,-0.38 0.52,-0.66 -0.02,0 -0.26,0.24 -0.24,0.24 -0.6,0.6 -0.38,0.34 -0.8,0.78 -0.44,0.42 -0.84,0.8 -0.4,0.36 -0.7,0.64 -0.3,0.28 -0.42,0.34 -0.02,0 -0.02,-0.04 0,-0.1 0.2,-0.36 0.18,-0.26 0.46,-0.6 0.28,-0.34 0.62,-0.7 0.34,-0.38 0.62,-0.72 0.28,-0.34 0.48,-0.58 0.18,-0.26 0.18,-0.34 0,-0.04 -0.02,-0.04 -0.32,0.32 -0.62,0.64 -0.3,0.32 -0.56,0.6 -0.28,0.26 -0.48,0.44 -0.2,0.18 -0.32,0.22 0.12,-0.2 0.4,-0.56 0.28,-0.36 0.7,-0.82 0.4,-0.46 0.92,-1 0.5,-0.54 1.08,-1.12 0.12,-0.1 0.56,-0.6 0.42,-0.52 0.9,-1.12 0.5,-0.6 0.9,-1.1 0.42,-0.5 0.52,-0.6 0.1,-0.14 0.22,-0.3 0.1,-0.14 0.24,-0.32 0.16,-0.2 0.34,-0.44 -1.74,0 -3.18,-0.04 -1.46,-0.06 -2.5,-0.12 -1.04,-0.06 -1.62,-0.12 -0.58,-0.06 -0.58,-0.1 0,-0.04 0.2,-0.04 0.18,-0.02 0.52,-0.06 -1.1,0 -1.46,-0.06 -0.36,-0.08 -0.36,-0.24 0,-0.12 0.3,-0.16 0.28,-0.06 0.52,-0.08 -0.34,-0.04 -0.34,-0.14 0,-0.04 0.06,-0.08 0.06,-0.06 0.34,-0.1 0.28,-0.04 0.88,-0.06 0.58,-0.04 1.66,-0.06 1.06,-0.02 2.7,-0.02 1.64,-0.02 4,-0.02 l 0.12,-0.14 q -0.22,-0.04 -0.42,-0.1 -0.2,-0.06 -0.2,-0.12 0,-0.04 0.2,-0.08 0.22,-0.06 0.74,-0.1 0.62,-0.8 1.12,-1.4 0.5,-0.6 0.66,-0.7 0.5,-0.62 1.16,-1.46 0.68,-0.84 1.4,-1.7600001 0.72,-0.92 1.44,-1.84 0.74,-0.92 1.36,-1.7 0.64,-0.8 1.1,-1.36 0.48,-0.58 0.68,-0.8 0.14,-0.1 0.3,-0.1 0.38,0 0.74,0.36 0.36,0.36 0.76,0.7 0.58,0.52 1,1.2 0.42,0.66 0.7,1.38 0.3,0.72 0.48,1.44 0.2,0.72 0.3,1.3200001 0.1,0.6 0.14,1.04 0.04,0.44 0.04,0.62 0,0.96 -0.02,1.76 0,0.78 0,1.48 l 7.36,0.34 4.3,0 q 0.22,0 0.4,0.04 0.18,0.04 0.18,0.08 0,0.06 -0.36,0.06 -0.6,0 -1.02,0 -0.4,-0.02 -0.8,-0.02 -0.38,-0.02 -0.84,-0.04 -0.46,-0.02 -1.14,-0.02 l 0,0.02 q 0,0.02 -0.3,0.04 -0.3,0 -0.78,0.02 -0.48,0 -1.08,0.02 -0.6,0 -1.2,0.02 -0.6,0 -1.14,0.02 -0.54,0 -0.9,0 l -1.12,0 q -0.26,0 -0.44,0.02 -0.18,0 -0.3,0 l -0.24,0 q 0,0.02 0.62,0.04 0.64,0.02 1.68,0.04 1.04,0 2.36,0.02 1.32,0.02 2.7,0.04 1.38,0.02 2.7,0.04 1.32,0.02 2.36,0.04 1.04,0.02 1.66,0.06 0.64,0.02 0.64,0.06 0,0.06 -0.36,0.06 l -0.42,0 q -0.04,0 -0.08,0.02 -0.02,0 -0.08,0 l -0.02,0 q 0.02,0.04 0.26,0.06 0.24,0 0.34,0 l 0.34,0.06 -0.2,0.02 -0.16,-0.02 q -0.3,0 -1.12,0.04 -0.8,0.04 -2.2,0.1 -1.38,0.06 -3.36,0.14 -1.98,0.06 -4.62,0.12 l 0.04,0 q 0.22,0 0.4,0.04 0.18,0.04 0.18,0.08 0,0.06 -0.36,0.06 -0.6,0 -1.02,0 -0.4,-0.02 -0.8,-0.02 -0.38,-0.02 -0.84,-0.04 -0.46,-0.02 -1.14,-0.02 l 0,0.02 q 0,0.04 -0.12,0.04 l 0,0.26 q 0.16,0 0.5,0.02 0.36,0 0.8,0.02 0.44,0 0.9,0.02 0.48,0 0.86,0.02 0.38,0.02 0.62,0.04 0.26,0.02 0.26,0.06 0,0.06 -0.36,0.06 l -0.42,0 q -0.02,0 -0.42,0 -0.38,0 -0.9,0 -0.5,-0.02 -1.02,-0.02 -0.52,0 -0.82,0 l 0,0.02 q 0.6,0 0.6,0.04 0,0.04 -0.1,0.04 -0.1,-0.02 -0.22,-0.02 -0.1,0 -0.2,0.06 -0.1,0.06 -0.1,0.26 0.42,0.02 0.78,0.04 0.38,0.02 0.66,0.04 0.3,0.02 0.46,0.04 0.18,0.02 0.18,0.04 0,0.04 -0.48,0.06 -0.46,0 -1.6,0.02 -0.04,0.9 -0.08,1.62 -0.02,0.72 -0.06,1.36 -0.04,0.64 -0.08,1.28 -0.04,0.64 -0.06,1.42 -0.04,1.2 -0.28,1.78 -0.22,0.56 -0.66,0.56 -0.38,0 -1.06,-0.5 -0.16,0.14 -0.34,0.2 -0.18,0.04 -0.36,0.04 -0.2,0 -0.38,-0.5 -0.18,-0.52 -0.34,-1.2 -0.14,-0.7 -0.24,-1.38 -0.08,-0.68 -0.08,-1.04 l 0,-3.6 z m 0.04,-6.32 q -0.66,0.66 -1.32,1.46 -0.66,0.8 -1.32,1.68 l 2.62,0.12 0,-0.7 q 0,-0.04 0,-0.3 0,-0.28 0,-0.64 0.02,-0.36 0.02,-0.74 0.02,-0.38 0.02,-0.62 l 0.24,-0.4 q 0,-0.02 -0.02,-0.02 -0.04,0 -0.14,0.08 -0.08,0.08 -0.1,0.08 z m -12.7,8.86 -0.04,0 q -0.12,0 -0.4,0.18 -0.28,0.18 -0.56,0.4 l -1.18,1.78 q 0.36,-0.3 0.68,-0.62 0.32,-0.34 0.66,-0.74 0.24,-0.28 0.38,-0.44 0.16,-0.18 0.24,-0.28 0.08,-0.1 0.12,-0.16 0.04,-0.06 0.1,-0.12 z m -5.9,7.34 q 0.1,-0.12 0.26,-0.3 0.16,-0.18 0.34,-0.36 0.16,-0.16 0.3,-0.3 0.12,-0.12 0.16,-0.12 0.02,0 0.02,0.02 0,0.34 -0.28,0.68 -0.3,0.34 -0.5,0.56 -0.22,0.26 -0.46,0.5 -0.26,0.24 -0.54,0.28 0,0 0.08,-0.1 0.06,-0.1 0.16,-0.26 0.1,-0.14 0.24,-0.32 0.12,-0.16 0.22,-0.28 z m 5.5,-5.2 0.08,-0.08 q 0.06,-0.06 0.14,-0.1 -0.04,0 -0.06,-0.04 -0.02,-0.04 -0.16,-0.04 -0.02,0 -0.24,0.24 -0.22,0.24 -0.56,0.6 -0.34,0.36 -0.72,0.8 -0.4,0.42 -0.74,0.8 -0.34,0.38 -0.56,0.66 -0.22,0.26 -0.22,0.32 0,0.02 0.22,-0.22 0.22,-0.24 0.56,-0.58 0.34,-0.36 0.74,-0.76 0.38,-0.42 0.72,-0.76 0.34,-0.36 0.56,-0.6 0.22,-0.24 0.24,-0.24 z m -4.54,6.12 0.6,-0.68 q 0.02,-0.04 0.24,-0.26 0.2,-0.2 0.46,-0.44 0.24,-0.22 0.46,-0.4 0.22,-0.18 0.28,-0.18 0,0.02 -0.2,0.24 -0.22,0.24 -0.46,0.48 -0.24,0.26 -0.44,0.46 -0.22,0.22 -0.22,0.22 l 0,0.04 q 0,0.04 0,0.04 -0.02,0 -0.12,0 l -0.6,0.48 z m 6.22,-5.72 q -0.1,0 -0.1,-0.06 0.02,-0.06 -0.1,-0.06 -0.2,0 -0.36,0.26 -0.14,0.26 -0.14,0.48 0.04,0.08 0.16,0.08 l 0.08,0 q 0,-0.22 0.06,-0.22 0.06,-0.02 0.16,-0.02 0.18,0 0.18,-0.12 0,-0.14 0.06,-0.34 z m 0.62,-1.2 q 0.12,0.34 0.2,0.34 0.1,-0.04 0.18,-0.1 0.08,-0.04 0.14,-0.1 0.06,-0.08 0.06,-0.18 -0.1,-0.1 -0.14,-0.12 -0.04,-0.04 -0.14,-0.04 -0.08,0.04 -0.14,0.12 -0.06,0.08 -0.16,0.08 z m -5.46,3.54 q 0.12,0 0.24,-0.06 0.1,-0.06 0.1,-0.12 0,-0.02 0.14,-0.18 0.12,-0.18 0.3,-0.38 0.16,-0.22 0.3,-0.4 0.12,-0.2 0.12,-0.24 -0.04,0.04 -0.22,0.24 -0.18,0.18 -0.38,0.42 -0.22,0.24 -0.4,0.46 -0.18,0.2 -0.2,0.26 z m 4.64,-3.08 q -0.02,0 -0.02,0.02 -0.02,0.02 -0.02,0.1 0,0.04 0.08,0.16 0.1,0.1 0.16,0.1 0.02,0 0.06,-0.04 0,-0.02 0.02,-0.04 0,-0.3 -0.28,-0.3 z m -1.7,2.52 q 0,0.06 0.06,0.12 0.08,0.04 0.16,0.04 0.12,0 0.12,-0.08 0,-0.04 -0.04,-0.06 -0.02,-0.02 -0.18,-0.18 -0.04,0 -0.06,0.02 -0.06,0.04 -0.06,0.06 l 0,0.08 z m -1.04,1.72 q 0.1,-0.04 0.24,-0.2 0.12,-0.16 0.22,-0.2 -0.02,-0.04 -0.04,-0.06 -0.02,0 -0.04,-0.02 -0.04,-0.02 -0.06,-0.02 -0.06,0.04 -0.18,0.22 -0.14,0.2 -0.14,0.28 z m -0.54,-1.08 q 0,-0.02 -0.02,-0.04 -0.04,-0.04 -0.08,-0.06 -0.14,0.14 -0.22,0.26 -0.08,0.1 -0.14,0.18 -0.08,0.1 -0.06,0.1 0.02,0 0.12,-0.08 0.08,-0.08 0.3,-0.3 l 0.1,-0.06 z m 2.2,-1.64 q 0,-0.04 -0.02,-0.04 0,-0.02 0,-0.06 -0.02,-0.02 -0.02,-0.06 -0.08,0 -0.12,0.04 l -0.04,0.04 q 0.04,0 0.1,0.1 0.06,0.08 0.1,0.08 l 0,-0.1 z m -0.94,-0.44 q 0.06,0.1 0.08,0.12 0.02,0 0.08,0 0.04,-0.04 0.04,-0.06 l 0,-0.02 q 0,-0.04 -0.04,-0.04 l -0.04,0 -0.12,0 z" />
      <path
         id="path4164"
         style="font-style:normal;font-variant:normal;font-weight:normal;font-stretch:normal;font-family:BRUSHSTRIKE;-inkscape-font-specification:BRUSHSTRIKE;fill:#859900"
         d="m 48.2959,27.302143 q -0.06,0 -0.08,-0.02 0,0 0.04,-0.04 -0.02,-0.02 -0.04,-0.04 -0.02,0 -0.04,-0.04 0,0.1 0.04,0.12 -0.48,0.82 -0.9,1.52 -0.44,0.7 -0.76,1.22 -0.34,0.52 -0.54,0.82 -0.2,0.3 -0.22,0.28 l 0,-0.02 q 0,-0.04 0.02,-0.1 0.02,-0.06 0.12,-0.22 l 0.2,-0.36 q 0,0 0.14,-0.22 0.12,-0.2 0.3,-0.52 0.18,-0.3 0.4,-0.68 0.22,-0.36 0.42,-0.7 0.18,-0.34 0.34,-0.6 0.14,-0.24 0.18,-0.32 -0.3,0.42 -0.38,0.64 -0.1,0.22 -0.14,0.2 l 0,-0.02 q 0,-0.04 0.08,-0.2 0.06,-0.14 0.16,-0.34 0.1,-0.2 0.2,-0.4 0.1,-0.18 0.16,-0.32 -0.02,-0.06 -0.1,-0.14 0,0 -0.14,0.18 -0.14,0.2 -0.3,0.42 -0.16,0.22 -0.3,0.4 -0.16,0.18 -0.2,0.16 -0.02,-0.02 0.16,-0.38 0.18,-0.34 0.6,-1.1 -0.28,-0.42 -0.52,-0.9 -0.24,-0.48 -0.42,-0.92 -0.18,-0.46 -0.3,-0.84 -0.12,-0.38 -0.14,-0.6 0,-0.26 0.2,-0.8 0.18,-0.54 0.5,-1.24 0.3,-0.72 0.72,-1.56 0.4,-0.84 0.82,-1.72 -0.22,-0.12 -0.26,-0.28 -0.04,-0.18 -0.04,-0.4 0,-0.14 0,-0.3 0,-0.18 0.04,-0.22 -1.76,0 -2.68,-0.02 -0.94,-0.04 -1.34,-0.08 -0.4,-0.04 -0.44,-0.08 -0.06,-0.04 -0.06,-0.08 0,-0.04 0.2,-0.04 0.18,-0.02 0.52,-0.06 -1.1,0 -1.46,-0.06 -0.36,-0.08 -0.36,-0.24 0,-0.1 0.28,-0.16 0.28,-0.06 0.54,-0.08 -0.32,-0.04 -0.34,-0.12 -0.02,-0.08 -0.02,-0.12 0,-0.06 0.18,-0.1 0.18,-0.04 0.86,-0.08 0.68,-0.04 2.04,-0.06 1.34,-0.04 3.66,-0.04 l 0.86,-1.72 q 0.18,-0.36 0.44,-0.84 0.28,-0.5 0.58,-1.04 0.32,-0.54 0.64,-1.08 0.34,-0.54 0.64,-1.0000001 l 0.2,-0.42 0.1,-0.08 q 0.94,-0.3 1.78,-0.66 0.86,-0.36 1.94,-0.68 1.1,-0.34 2.62,-0.58 1.52,-0.26 3.8,-0.34 0.22,0 0.42,0.02 0.22,0 0.42,0 0.44,0 0.98,0.3 0.54,0.3 0.98,0.8 0.46,0.48 0.76,1.1 0.32,0.6 0.32,1.2200001 0,0.34 -0.32,1.02 -0.32,0.68 -0.98,1.48 -0.66,0.78 -1.7,1.56 -1.02,0.76 -2.42,1.28 l 4.34,-0.08 q -0.18,0 -0.18,-0.02 0,-0.02 0.98,-0.02 l 1.12,0 -1.92,0.04 q 0.3,0.02 1.08,0.04 0.78,0.02 1.86,0.04 1.08,0 2.36,0.02 1.28,0.02 2.56,0.04 1.3,0 2.5,0.02 1.2,0.02 2.12,0.06 0.94,0.02 1.5,0.04 0.56,0.02 0.56,0.06 0,0.06 -0.36,0.06 l -0.42,0 q -0.04,0 -0.08,0.02 -0.02,0 -0.08,0 l -0.02,0 q 0.02,0.04 0.26,0.06 0.24,0 0.34,0 l 0.34,0.06 -0.2,0.02 0,-0.02 -0.16,0 q -0.34,0 -1.38,0.06 -1.04,0.04 -2.88,0.12 -1.82,0.08 -4.5,0.18 -2.68,0.08 -6.28,0.14 l 0.5,0.12 2.04,0 q 0.14,0 0.32,0 0.2,0 0.44,-0.02 l 1.86,0.04 q 0.1,0 0.12,0.02 0.02,0 0.02,0.02 0.02,0 0.04,0.02 0.02,0 0.12,0 0.1,0 0.14,-0.02 0.12,0 0.18,0.02 l -0.16,0 q -0.02,0 -0.02,0.02 0,0 -0.02,0 l 0.04,0 q 0.02,0 0.02,0.02 0,0 0.02,0 -0.06,0 -0.12,0.02 -0.06,0 -0.12,0 l -0.06,0 q -0.08,0 -0.46,0.04 -0.36,0.02 -0.82,0.04 -0.46,0.02 -0.9,0.04 -0.42,0.02 -0.62,0.02 -0.1,0 -0.22,0.02 -0.12,0 -0.24,0 l -0.86,0 q 0.42,0.22 0.66,0.52 0.26,0.28 0.26,0.68 0,0.06 0,0.14 0,0.06 -0.02,0.12 -0.32,1.54 -1.28,2.8 -0.94,1.26 -2.26,2.26 -1.3,1 -2.86,1.72 -1.56,0.72 -3.12,1.2 -1.54,0.48 -2.96,0.7 -1.4,0.24 -2.42,0.24 -0.84,-0.02 -1.32,-0.06 -0.48,-0.02 -0.72,-0.2 -0.24,-0.18 -0.3,-0.6 -0.06,-0.42 -0.06,-1.22 0,-0.38 0.06,-0.62 0.04,-0.14 0.08,-0.26 l 0.04,-0.08 -2.3,3.96 q -0.1,0.18 -0.24,0.32 -0.14,0.14 -0.14,0.12 -0.02,-0.02 -0.02,-0.02 0,-0.1 0.14,-0.32 0.3,-0.52 0.5,-0.88 0.22,-0.34 0.42,-0.68 0.22,-0.32 0.46,-0.72 0.24,-0.38 0.6,-0.98 l -0.02,0 q 0,0 0.12,-0.24 0.12,-0.24 0.32,-0.62 0.22,-0.38 0.48,-0.86 0.26,-0.5 0.54,-1 0.06,-0.2 0.06,-0.28 l -3.1,5.12 q 0,0.02 0.04,0.06 z m 3.86,-3.48 q 2.18,0 3.82,-0.58 1.66,-0.58 2.76,-1.38 1.12,-0.82 1.68,-1.7 0.56,-0.88 0.56,-1.48 0,-0.5 -0.3,-0.78 -0.3,-0.28 -0.82,-0.4 -0.5,-0.12 -1.16,-0.14 -0.64,-0.02 -1.36,-0.02 l -0.2,0 q -0.4,0.04 -0.8,0.06 -0.38,0 -0.78,0.04 -0.38,0.02 -0.76,0.1 -0.36,0.06 -0.7,0.2 -0.38,0.78 -0.74,1.48 -0.36,0.68 -0.64,1.14 l -1.36,2.34 q 0.04,0.06 0.06,0.22 0.04,0.14 0.08,0.3 0.04,0.16 0.1,0.34 0.08,0.16 0.2,0.26 l 0.36,0 z m 4.82,-8.84 q 1.1,-0.12 1.9,-0.54 0.8,-0.44 1.34,-0.96 0.54,-0.52 0.82,-1.02 0.3,-0.52 0.42,-0.8 0.2,-0.48 0.2,-0.8 0,-0.28 -0.22,-0.38 -0.2,-0.12 -0.66,-0.12 -1.46,0 -2.32,0.18 -0.86,0.16 -1.28,0.56 -0.28,0.54 -0.46,0.9 -0.16,0.34 -0.3,0.66 -0.14,0.3 -0.3,0.66 -0.14,0.34 -0.38,0.9 -0.2,0.48 -0.2,0.52 l 0,0.02 q 0.04,0 0.02,0.08 0,0.06 0.08,0.06 0.24,0.04 0.5,0.08 0.26,0.02 0.5,0.02 0.1,0 0.18,0 0.08,0 0.16,-0.02 z m -5.66,7.4 0.52,-0.96 -0.44,0.76 -0.08,0.2 z" />
      <path
         id="path4166"
         style="font-style:normal;font-variant:normal;font-weight:normal;font-stretch:normal;font-family:BRUSHSTRIKE;-inkscape-font-specification:BRUSHSTRIKE;fill:#859900"
         d="m 82.4534,17.782143 -4.84,0 q -0.1,0 -0.18,0.02 -0.08,0 -0.18,0.02 -0.34,0.4 -0.8,0.94 -0.46,0.52 -0.9,1.02 -0.44,0.5 -0.82,0.9 -0.36,0.38 -0.5,0.48 -0.04,0.04 -0.22,0.16 -0.16,0.1 -0.38,0.26 -0.22,0.14 -0.46,0.32 -0.22,0.18 -0.38,0.32 0,0.04 0.04,0.04 0.08,0 0.3,-0.1 0.22,-0.12 0.44,-0.24 0.24,-0.14 0.44,-0.26 0.2,-0.12 0.28,-0.16 -0.12,0.06 -0.48,0.4 -0.36,0.32 -0.76,0.72 -0.4,0.38 -0.74,0.72 -0.34,0.34 -0.4,0.42 -0.3,0.34 -0.74,0.82 -0.42,0.46 -0.96,1.02 -0.54,0.56 -1.16,1.14 -0.62,0.6 -1.26,1.18 -0.04,0.04 -0.3,0.28 -0.26,0.24 -0.58,0.52 -0.32,0.3 -0.6,0.54 -0.3,0.24 -0.4,0.26 0,-0.04 0.16,-0.28 0.14,-0.22 0.38,-0.54 0.24,-0.3 0.5,-0.66 0.26,-0.36 0.5,-0.68 0.24,-0.32 0.4,-0.56 0.14,-0.24 0.14,-0.3 0,-0.02 -0.02,-0.02 -0.1,0.02 -0.44,0.32 -0.34,0.32 -0.72,0.68 -0.4,0.36 -0.72,0.66 -0.32,0.3 -0.4,0.3 0,-0.02 0.28,-0.38 0.26,-0.36 0.6,-0.78 0.32,-0.42 0.6,-0.78 0.26,-0.34 0.26,-0.36 0,-0.04 -0.04,-0.04 -0.1,0 -0.4,0.22 -0.32,0.24 -0.66,0.52 -0.34,0.3 -0.64,0.52 -0.32,0.24 -0.4,0.24 -0.12,-0.08 -0.12,-0.22 0,-0.12 0.08,-0.28 0.06,-0.14 0.14,-0.3 0.08,-0.14 0.16,-0.3 0.06,-0.14 0.06,-0.26 0,-0.08 -0.04,-0.14 -0.04,-0.04 -0.04,-0.14 0,-0.22 0.24,-0.54 0.24,-0.32 0.48,-0.58 0.08,0 0.14,-0.08 0.06,-0.1 0.12,-0.22 0.04,-0.12 0.08,-0.22 0.04,-0.12 0.08,-0.16 0.3,-0.3 0.7,-0.66 0.38,-0.38 0.52,-0.66 -0.02,0 -0.26,0.24 -0.24,0.24 -0.6,0.6 -0.38,0.34 -0.8,0.78 -0.44,0.42 -0.84,0.8 -0.4,0.36 -0.7,0.64 -0.3,0.28 -0.42,0.34 -0.02,0 -0.02,-0.04 0,-0.1 0.2,-0.36 0.18,-0.26 0.46,-0.6 0.28,-0.34 0.62,-0.7 0.34,-0.38 0.62,-0.72 0.28,-0.34 0.48,-0.58 0.18,-0.26 0.18,-0.34 0,-0.04 -0.02,-0.04 -0.32,0.32 -0.62,0.64 -0.3,0.32 -0.56,0.6 -0.28,0.26 -0.48,0.44 -0.2,0.18 -0.32,0.22 0.12,-0.2 0.4,-0.56 0.28,-0.36 0.7,-0.82 0.4,-0.46 0.92,-1 0.5,-0.54 1.08,-1.12 0.12,-0.1 0.56,-0.6 0.42,-0.52 0.9,-1.12 0.5,-0.6 0.9,-1.1 0.42,-0.5 0.52,-0.6 0.1,-0.14 0.22,-0.3 0.1,-0.14 0.24,-0.32 0.16,-0.2 0.34,-0.44 -1.74,0 -3.18,-0.04 -1.46,-0.06 -2.5,-0.12 -1.04,-0.06 -1.62,-0.12 -0.58,-0.06 -0.58,-0.1 0,-0.04 0.2,-0.04 0.18,-0.02 0.52,-0.06 -1.1,0 -1.46,-0.06 -0.36,-0.08 -0.36,-0.24 0,-0.12 0.3,-0.16 0.28,-0.06 0.52,-0.08 -0.34,-0.04 -0.34,-0.14 0,-0.04 0.06,-0.08 0.06,-0.06 0.34,-0.1 0.28,-0.04 0.88,-0.06 0.58,-0.04 1.66,-0.06 1.06,-0.02 2.7,-0.02 1.64,-0.02 4,-0.02 l 0.12,-0.14 q -0.22,-0.04 -0.42,-0.1 -0.2,-0.06 -0.2,-0.12 0,-0.04 0.2,-0.08 0.22,-0.06 0.74,-0.1 0.62,-0.8 1.12,-1.4 0.5,-0.6 0.66,-0.7 0.5,-0.62 1.16,-1.46 0.68,-0.84 1.4,-1.7600001 0.72,-0.92 1.44,-1.84 0.74,-0.92 1.36,-1.7 0.64,-0.8 1.1,-1.36 0.48,-0.58 0.68,-0.8 0.14,-0.1 0.3,-0.1 0.38,0 0.74,0.36 0.36,0.36 0.76,0.7 0.58,0.52 1,1.2 0.42,0.66 0.7,1.38 0.3,0.72 0.48,1.44 0.2,0.72 0.3,1.3200001 0.1,0.6 0.14,1.04 0.04,0.44 0.04,0.62 0,0.96 -0.02,1.76 0,0.78 0,1.48 l 7.36,0.34 4.3,0 q 0.22,0 0.4,0.04 0.18,0.04 0.18,0.08 0,0.06 -0.36,0.06 -0.6,0 -1.02,0 -0.4,-0.02 -0.8,-0.02 -0.38,-0.02 -0.84,-0.04 -0.46,-0.02 -1.14,-0.02 l 0,0.02 q 0,0.02 -0.3,0.04 -0.3,0 -0.78,0.02 -0.48,0 -1.08,0.02 -0.6,0 -1.2,0.02 -0.6,0 -1.14,0.02 -0.54,0 -0.9,0 l -1.12,0 q -0.26,0 -0.44,0.02 -0.18,0 -0.3,0 l -0.24,0 q 0,0.02 0.62,0.04 0.64,0.02 1.68,0.04 1.04,0 2.36,0.02 1.32,0.02 2.7,0.04 1.38,0.02 2.7,0.04 1.32,0.02 2.36,0.04 1.04,0.02 1.66,0.06 0.64,0.02 0.64,0.06 0,0.06 -0.36,0.06 l -0.42,0 q -0.04,0 -0.08,0.02 -0.02,0 -0.08,0 l -0.02,0 q 0.02,0.04 0.26,0.06 0.24,0 0.34,0 l 0.34,0.06 -0.2,0.02 -0.16,-0.02 q -0.3,0 -1.12,0.04 -0.8,0.04 -2.2,0.1 -1.38,0.06 -3.36,0.14 -1.98,0.06 -4.62,0.12 l 0.04,0 q 0.22,0 0.4,0.04 0.18,0.04 0.18,0.08 0,0.06 -0.36,0.06 -0.6,0 -1.02,0 -0.4,-0.02 -0.8,-0.02 -0.38,-0.02 -0.84,-0.04 -0.46,-0.02 -1.14,-0.02 l 0,0.02 q 0,0.04 -0.12,0.04 l 0,0.26 q 0.16,0 0.5,0.02 0.36,0 0.8,0.02 0.44,0 0.9,0.02 0.48,0 0.86,0.02 0.38,0.02 0.62,0.04 0.26,0.02 0.26,0.06 0,0.06 -0.36,0.06 l -0.42,0 q -0.02,0 -0.42,0 -0.38,0 -0.9,0 -0.5,-0.02 -1.02,-0.02 -0.52,0 -0.82,0 l 0,0.02 q 0.6,0 0.6,0.04 0,0.04 -0.1,0.04 -0.1,-0.02 -0.22,-0.02 -0.1,0 -0.2,0.06 -0.1,0.06 -0.1,0.26 0.42,0.02 0.78,0.04 0.38,0.02 0.66,0.04 0.3,0.02 0.46,0.04 0.18,0.02 0.18,0.04 0,0.04 -0.48,0.06 -0.46,0 -1.6,0.02 -0.04,0.9 -0.08,1.62 -0.02,0.72 -0.06,1.36 -0.04,0.64 -0.08,1.28 -0.04,0.64 -0.06,1.42 -0.04,1.2 -0.28,1.78 -0.22,0.56 -0.66,0.56 -0.38,0 -1.06,-0.5 -0.16,0.14 -0.34,0.2 -0.18,0.04 -0.36,0.04 -0.2,0 -0.38,-0.5 -0.18,-0.52 -0.34,-1.2 -0.14,-0.7 -0.24,-1.38 -0.08,-0.68 -0.08,-1.04 l 0,-3.6 z m 0.04,-6.32 q -0.66,0.66 -1.32,1.46 -0.66,0.8 -1.32,1.68 l 2.62,0.12 0,-0.7 q 0,-0.04 0,-0.3 0,-0.28 0,-0.64 0.02,-0.36 0.02,-0.74 0.02,-0.38 0.02,-0.62 l 0.24,-0.4 q 0,-0.02 -0.02,-0.02 -0.04,0 -0.14,0.08 -0.08,0.08 -0.1,0.08 z m -12.7,8.86 -0.04,0 q -0.12,0 -0.4,0.18 -0.28,0.18 -0.56,0.4 l -1.18,1.78 q 0.36,-0.3 0.68,-0.62 0.32,-0.34 0.66,-0.74 0.24,-0.28 0.38,-0.44 0.16,-0.18 0.24,-0.28 0.08,-0.1 0.12,-0.16 0.04,-0.06 0.1,-0.12 z m -5.9,7.34 q 0.1,-0.12 0.26,-0.3 0.16,-0.18 0.34,-0.36 0.16,-0.16 0.3,-0.3 0.12,-0.12 0.16,-0.12 0.02,0 0.02,0.02 0,0.34 -0.28,0.68 -0.3,0.34 -0.5,0.56 -0.22,0.26 -0.46,0.5 -0.26,0.24 -0.54,0.28 0,0 0.08,-0.1 0.06,-0.1 0.16,-0.26 0.1,-0.14 0.24,-0.32 0.12,-0.16 0.22,-0.28 z m 5.5,-5.2 0.08,-0.08 q 0.06,-0.06 0.14,-0.1 -0.04,0 -0.06,-0.04 -0.02,-0.04 -0.16,-0.04 -0.02,0 -0.24,0.24 -0.22,0.24 -0.56,0.6 -0.34,0.36 -0.72,0.8 -0.4,0.42 -0.74,0.8 -0.34,0.38 -0.56,0.66 -0.22,0.26 -0.22,0.32 0,0.02 0.22,-0.22 0.22,-0.24 0.56,-0.58 0.34,-0.36 0.74,-0.76 0.38,-0.42 0.72,-0.76 0.34,-0.36 0.56,-0.6 0.22,-0.24 0.24,-0.24 z m -4.54,6.12 0.6,-0.68 q 0.02,-0.04 0.24,-0.26 0.2,-0.2 0.46,-0.44 0.24,-0.22 0.46,-0.4 0.22,-0.18 0.28,-0.18 0,0.02 -0.2,0.24 -0.22,0.24 -0.46,0.48 -0.24,0.26 -0.44,0.46 -0.22,0.22 -0.22,0.22 l 0,0.04 q 0,0.04 0,0.04 -0.02,0 -0.12,0 l -0.6,0.48 z m 6.22,-5.72 q -0.1,0 -0.1,-0.06 0.02,-0.06 -0.1,-0.06 -0.2,0 -0.36,0.26 -0.14,0.26 -0.14,0.48 0.04,0.08 0.16,0.08 l 0.08,0 q 0,-0.22 0.06,-0.22 0.06,-0.02 0.16,-0.02 0.18,0 0.18,-0.12 0,-0.14 0.06,-0.34 z m 0.62,-1.2 q 0.12,0.34 0.2,0.34 0.1,-0.04 0.18,-0.1 0.08,-0.04 0.14,-0.1 0.06,-0.08 0.06,-0.18 -0.1,-0.1 -0.14,-0.12 -0.04,-0.04 -0.14,-0.04 -0.08,0.04 -0.14,0.12 -0.06,0.08 -0.16,0.08 z m -5.46,3.54 q 0.12,0 0.24,-0.06 0.1,-0.06 0.1,-0.12 0,-0.02 0.14,-0.18 0.12,-0.18 0.3,-0.38 0.16,-0.22 0.3,-0.4 0.12,-0.2 0.12,-0.24 -0.04,0.04 -0.22,0.24 -0.18,0.18 -0.38,0.42 -0.22,0.24 -0.4,0.46 -0.18,0.2 -0.2,0.26 z m 4.64,-3.08 q -0.02,0 -0.02,0.02 -0.02,0.02 -0.02,0.1 0,0.04 0.08,0.16 0.1,0.1 0.16,0.1 0.02,0 0.06,-0.04 0,-0.02 0.02,-0.04 0,-0.3 -0.28,-0.3 z m -1.7,2.52 q 0,0.06 0.06,0.12 0.08,0.04 0.16,0.04 0.12,0 0.12,-0.08 0,-0.04 -0.04,-0.06 -0.02,-0.02 -0.18,-0.18 -0.04,0 -0.06,0.02 -0.06,0.04 -0.06,0.06 l 0,0.08 z m -1.04,1.72 q 0.1,-0.04 0.24,-0.2 0.12,-0.16 0.22,-0.2 -0.02,-0.04 -0.04,-0.06 -0.02,0 -0.04,-0.02 -0.04,-0.02 -0.06,-0.02 -0.06,0.04 -0.18,0.22 -0.14,0.2 -0.14,0.28 z m -0.54,-1.08 q 0,-0.02 -0.02,-0.04 -0.04,-0.04 -0.08,-0.06 -0.14,0.14 -0.22,0.26 -0.08,0.1 -0.14,0.18 -0.08,0.1 -0.06,0.1 0.02,0 0.12,-0.08 0.08,-0.08 0.3,-0.3 l 0.1,-0.06 z m 2.2,-1.64 q 0,-0.04 -0.02,-0.04 0,-0.02 0,-0.06 -0.02,-0.02 -0.02,-0.06 -0.08,0 -0.12,0.04 l -0.04,0.04 q 0.04,0 0.1,0.1 0.06,0.08 0.1,0.08 l 0,-0.1 z m -0.94,-0.44 q 0.06,0.1 0.08,0.12 0.02,0 0.08,0 0.04,-0.04 0.04,-0.06 l 0,-0.02 q 0,-0.04 -0.04,-0.04 l -0.04,0 -0.12,0 z" />
      <path
         id="path4168"
         style="font-style:normal;font-variant:normal;font-weight:normal;font-stretch:normal;font-family:BRUSHSTRIKE;-inkscape-font-specification:BRUSHSTRIKE;fill:#859900"
         d="m 86.750275,29.702143 0,-0.14 q -0.24,0.38 -0.46,0.74 -0.22,0.38 -0.3,0.42 0,-0.02 -0.02,-0.04 -0.02,0 -0.02,-0.02 l 0.16,-0.28 0,-0.3 -0.22,0.22 q 0,-0.1 0,-0.18 0,-0.08 0.02,-0.16 -0.2,0.2 -0.46,0.4 -0.26,0.22 -0.4,0.22 -0.06,0 -0.06,-0.08 0,-0.14 0.32,-0.68 0.3,-0.54 1.12,-1.66 -0.16,0 -0.34,0.14 -0.18,0.16 -0.36,0.34 -0.18,0.2 -0.32,0.34 -0.14,0.16 -0.2,0.16 -0.02,0 -0.02,-0.06 0,-0.08 0.08,-0.12 0.04,-0.02 0.08,-0.02 0.16,-0.3 0.24,-0.68 0.08,-0.36 0.08,-0.6 l -0.08,0.06 0.1,-0.1 q -0.02,0.04 -0.02,0.04 l 0.12,-0.06 0.16,-0.2 -0.26,0.22 q 0.08,-0.44 0.42,-1.18 0.32,-0.74 0.78,-1.68 0.44,-0.96 0.98,-2.02 0.52,-1.08 1.02,-2.18 0.46,-1.02 0.76,-1.66 0.3,-0.64 0.5,-1.06 0.2,-0.42 0.34,-0.66 0.14,-0.26 0.26,-0.5 l -2.52,0 q -0.6,0 -1.14,0.02 -0.54,0 -1,0 -0.56,0 -0.9,-0.04 -0.34,-0.04 -0.34,-0.16 l 0.02,-0.02 q 0,0 0.08,-0.04 -0.54,0 -0.84,0 -0.32,-0.02 -0.46,-0.04 -0.16,-0.04 -0.2,-0.08 -0.04,-0.04 -0.04,-0.12 0,-0.12 0.3,-0.16 0.3,-0.06 0.54,-0.08 -0.38,-0.04 -0.38,-0.26 0,-0.12 0.34,-0.2 0.32,-0.1 0.84,-0.14 0.52,-0.04 1.16,-0.06 0.64,-0.02 1.28,-0.02 0.98,0 1.5,0.02 0.52,0 0.86,0.02 0.34,0 0.66,0.02 0.34,0 0.96,0.02 0.3,-0.6 0.78,-1.6 0.48,-1 1.28,-2.68 0.34,-0.7 0.68,-1.4800001 0.34,-0.78 0.74,-1.52 0.26,-0.56 0.56,-1.2 0.32,-0.64 0.6,-1.18 0.28,-0.56 0.48,-0.92 0.22,-0.36 0.28,-0.38 0.1,-0.02 0.3,-0.02 0.4,0 0.82,0.18 0.44,0.16 0.8,0.44 0.36,0.26 0.6,0.58 0.24,0.3 0.24,0.56 l 0,0.74 q 0,0.36 -0.12,1.04 -0.1,0.66 -0.4,1.7 -0.3,1.0400001 -0.84,2.4600001 -0.54,1.42 -1.4,3.28 l 7.640005,0 q 0.22,0 0.4,0.04 0.18,0.04 0.18,0.08 0,0.06 -0.36,0.06 -0.6,0 -1.02,0 -0.4,-0.02 -0.8,-0.02 -0.38,-0.02 -0.84,-0.04 -0.46,-0.02 -1.14,-0.02 l 0,0.02 q 0,0.02 -0.32,0.04 -0.3,0 -0.760005,0.02 -0.46,0 -1.02,0.02 -0.54,0 -1,0.02 -0.46,0 -0.78,0.02 -0.3,0.02 -0.3,0.04 1.1,0.02 2.36,0.06 1.280005,0.02 2.540005,0.04 1.26,0.02 2.44,0.06 1.18,0.02 2.08,0.06 0.9,0.02 1.44,0.06 0.54,0.02 0.54,0.04 0,0.06 -0.36,0.06 l -0.42,0 q -0.04,0 -0.08,0.02 -0.02,0 -0.08,0 l -0.02,0 q 0.02,0.04 0.26,0.06 0.24,0 0.34,0 l 0.34,0.06 -0.2,0.02 0,-0.02 q -0.36,0 -0.36,0.02 0,0.02 0.1,0.06 0.1,0.02 0.1,0.06 0,0.1 -2.88,0.2 -2.86,0.1 -8.620005,0.16 -0.2,0.4 -0.56,1.06 -0.36,0.66 -0.96,1.7 -0.58,1.04 -1.44,2.54 -0.84,1.48 -2.02,3.52 l -1.28,2.22 0,-0.02 q -0.46,0.76 -0.96,1.58 -0.48,0.84 -1.02,1.76 -0.1,0.24 -0.34,0.62 -0.26,0.4 -0.38,0.64 0,0.12 -0.1,0.16 -0.1,0.04 -0.2,0.14 l 0.46,-0.76 0,-0.3 q 0.3,-0.54 0.7,-1.22 0.4,-0.68 0.76,-1.32 0.38,-0.62 0.62,-1.1 0.26,-0.46 0.26,-0.6 l 0,-0.02 q -0.04,0 -0.34,0.48 -0.3,0.5 -0.74,1.22 -0.42,0.74 -0.92,1.6 -0.5,0.86 -0.94,1.58 -0.44,0.74 -0.76,1.22 -0.32,0.5 -0.38,0.5 -0.02,-0.02 -0.02,-0.02 l 3.34,-6.16 q 0,0 -0.18,0.3 -0.18,0.32 -0.46,0.78 -0.28,0.48 -0.6,1.02 -0.34,0.56 -0.64,1.02 -0.3,0.48 -0.52,0.8 -0.24,0.32 -0.32,0.32 -0.02,0 -0.02,-0.02 0,-0.06 0.08,-0.28 0.06,-0.22 0.16,-0.5 l 0,0.06 0.28,-0.28 q 0,-0.16 0.12,-0.32 l 0.2,-0.2 q 0.06,-0.1 0.06,-0.1 0,0 0.08,-0.1 l -0.28,0.28 q -0.08,0.1 -0.08,0.1 0,0 -0.06,0.1 l -0.24,0.24 q 0.12,-0.32 0.26,-0.68 0.14,-0.36 0.26,-0.68 0.12,-0.3 0.2,-0.5 0.08,-0.2 0.08,-0.24 -0.02,-0.02 -0.04,-0.02 -0.08,0 -0.22,0.18 -0.14,0.18 -0.32,0.46 l -0.1,0.1 0,0.04 0.28,-0.32 0,0.18 -0.28,0.28 z m -0.86,0.6 q 0,0.24 0.06,0.36 l -0.84,1.34 0.72,-1.64 0.06,-0.06 z m 1.58,1.22 q -0.46,0.82 -0.46,1.04 l -0.54,0.88 0.72,-1.64 0.28,-0.28 z m -0.9,-5.22 -0.28,0.28 q 0,0.22 -0.1,0.42 -0.1,0.22 -0.24,0.4 l 0.1,-0.06 q 0.18,-0.22 0.36,-0.48 0.16,-0.26 0.16,-0.56 z m -1.36,3.96 0.24,-0.28 0.04,0 q 0.14,-0.18 0.22,-0.44 0.06,-0.26 0.2,-0.44 l -0.24,0.24 q -0.16,0.16 -0.22,0.4 -0.08,0.24 -0.18,0.42 l -0.06,0.1 z m 2.46,-1.94 0.24,-0.42 0.08,-0.06 q 0,-0.02 0.02,-0.04 0,0 0,-0.02 l -0.36,0.36 -0.2,0.36 0.22,-0.18 z m -0.52,-0.26 0.04,-0.14 -0.28,0.28 -0.04,0.14 0.28,-0.28 z m 1.5,-1.8 0.16,-0.2 -0.44,0.48 0.28,-0.28 z m -1.26,2.34 0.06,-0.1 -0.16,0.16 0.1,-0.06 z m 0.18,-2.84 -0.1,0.1 q 0.02,0 0.04,-0.02 0,0 0.02,0 l 0.04,-0.08 z m -1.02,5.36 q 0.04,-0.16 0.08,-0.22 l -0.08,0.22 z" />
      <path
         id="path4170"
         style="font-style:normal;font-variant:normal;font-weight:normal;font-stretch:normal;font-family:BRUSHSTRIKE;-inkscape-font-specification:BRUSHSTRIKE;fill:#859900"
         d="m 118.07465,15.262143 q 0.04,0 0.16,0 0.12,0 0.24,0.02 0.14,0 0.26,0.02 0.14,0 0.18,0 l 2.86,0.02 q 0.18,0 0.32,0.04 0.16,0.04 0.16,0.08 0,0.04 -0.28,0.04 l -2,0 q -0.26,0 -0.58,0 -0.32,0 -0.74,-0.02 0,0.02 -0.22,0.02 -0.22,0 -0.6,0 l -1.82,0 q 0,0.06 0.66,0.1 0.66,0.02 1.64,0.04 1,0 2.14,0.02 1.16,0 2.14,0.02 1,0 1.66,0.02 0.66,0.02 0.66,0.04 0,0.08 -0.3,0.08 l -1.48,0.02 q 0,0.02 0.26,0.04 0.26,0.02 0.62,0.06 0.38,0.02 0.82,0.06 0.44,0.04 0.8,0.1 0.38,0.04 0.62,0.1 0.26,0.04 0.26,0.1 0,0.08 -0.46,0.14 -0.46,0.04 -1.64,0.08 -1.16,0.04 -3.18,0.1 -2.02,0.04 -5.14,0.12 -0.1,1.52 -0.72,2.8 -0.62,1.26 -1.58,2.34 -0.96,1.08 -2.2,2 -1.24,0.9 -2.58,1.68 -0.66,0.38 -1.8,0.96 -1.14,0.6 -2.5,1.26 -1.34,0.66 -2.78,1.32 -1.42,0.66 -2.64,1.2 -1.22,0.54 -2.12,0.86 -0.88,0.34 -1.14,0.34 -0.02,0 -0.02,-0.02 0.04,-0.04 0.16,-0.08 0.1,-0.04 0.18,-0.08 l 0,-0.02 q -0.18,0.1 -0.36,0.12 -0.18,0.04 -0.32,0.14 l -1.6,0.42 q -0.04,-0.04 -0.08,-0.04 l -0.04,0 q -0.02,0 -0.02,-0.02 l 0.02,-0.04 q 0.18,-0.06 0.44,-0.14 0.24,-0.06 0.4,-0.2 l 0.74,-0.26 q 0.1,0 0.18,-0.08 0.08,-0.08 0.14,-0.12 -0.76,0.18 -1.5,0.54 -0.76,0.36 -1.54,0.6 0.02,-0.02 0.02,-0.06 0,-0.06 -0.02,-0.12 0.16,0 0.32,-0.1 0.14,-0.08 0.24,-0.14 0.1,0 0.3,-0.06 0.18,-0.06 0.36,-0.16 l 0.02,0 q 0.04,0 0.08,-0.06 0.04,-0.06 0.1,-0.1 l -0.04,0 q -0.2,0 -0.22,0.14 l -1.2,0.34 q -0.08,-0.06 -0.2,-0.06 -0.18,0 -0.38,0.06 -0.22,0.08 -0.44,0.16 -0.22,0.1 -0.44,0.18 -0.24,0.08 -0.44,0.1 -0.12,0.12 -0.38,0.24 -0.26,0.14 -0.58,0.14 -0.16,0 -0.24,-0.06 0.54,-0.2 0.96,-0.38 0.42,-0.16 0.84,-0.48 0.58,-0.34 1.12,-0.56 0.52,-0.22 1.12,-0.46 l 0.12,-0.12 -0.12,0.06 -0.32,0.06 -0.38,0.18 -0.26,-0.04 q 0,0 0.3,-0.14 0.28,-0.12 0.64,-0.3 0.34,-0.16 0.62,-0.34 0.28,-0.16 0.28,-0.26 l -0.74,0.3 q 0.02,-0.02 0.02,-0.04 l 0,-0.02 q -0.02,-0.02 -0.02,-0.04 0.44,-0.18 0.74,-0.36 0.3,-0.18 0.78,-0.34 0.1,-0.16 0.22,-0.2 0.1,-0.04 0.28,-0.04 0.3,-0.18 0.58,-0.3 0.28,-0.12 0.56,-0.26 0.28,-0.12 0.58,-0.28 0.3,-0.14 0.66,-0.36 l 0.04,-0.14 0.14,0.06 q 0.04,-0.14 0.16,-0.2 0.12,-0.06 0.22,-0.1 l 1.28,-0.7 q 0.1,-0.02 0.42,-0.18 0.34,-0.14 0.68,-0.32 0.36,-0.18 0.62,-0.36 0.28,-0.16 0.28,-0.22 l 0,-0.02 q -0.04,0.02 -0.08,0.02 -0.06,0 -0.1,-0.02 -0.04,-0.02 -0.1,-0.02 -0.46,0.28 -0.88,0.46 -0.4,0.18 -0.96,0.5 -0.04,0 -0.16,0.04 -0.12,0.06 -0.18,0.08 l -0.08,-0.04 q 0.28,-0.1 0.52,-0.28 0.24,-0.16 0.48,-0.26 l 0,-0.02 -1.84,0.8 q -0.34,0.04 -0.72,0.28 -0.36,0.24 -0.78,0.46 -0.16,0.04 -0.36,0.12 -0.22,0.08 -0.4,0.18 -0.2,0.1 -0.34,0.18 -0.14,0.1 -0.14,0.18 0.02,0.04 0.02,0.04 0.18,-0.06 0.36,-0.1 0.16,-0.04 0.3,-0.2 l -0.02,0.2 q -0.06,0.08 -0.18,0.14 -0.14,0.08 -0.3,0.14 -0.16,0.06 -0.3,0.1 -0.16,0.06 -0.24,0.08 -0.42,0.24 -0.9,0.38 -0.5,0.16 -1,0.38 -0.4,0.22 -0.8,0.38 -0.4,0.18 -0.8,0.34 0.06,-0.04 0.16,-0.1 0.08,-0.04 0.08,-0.12 0,-0.04 -0.2,-0.18 0.06,0 0.18,0 0.12,0 0.24,-0.02 0.1,0 0.2,-0.04 0.08,-0.02 0.08,-0.06 0,-0.02 0,-0.04 -0.02,0 -0.02,-0.02 l -0.02,-0.02 -0.12,0.04 q 0.02,-0.02 0.02,-0.04 0,0 0.02,-0.02 0.02,0 0.08,-0.04 0.04,-0.02 0.18,-0.08 l 0,0.02 q 0,0.04 -0.04,0.08 l -0.04,0.04 0.48,-0.1 q -0.02,-0.08 -0.06,-0.08 -0.04,0 -0.06,0.02 -0.04,0.04 -0.08,0.04 l 0,-0.12 q 0.28,-0.06 0.52,-0.16 0.24,-0.1 0.48,-0.24 -0.2,0.08 -0.36,0.14 -0.18,0.06 -0.32,0.06 -0.14,0 -0.22,-0.08 0.02,0 0.12,-0.04 0.08,-0.04 0.18,-0.1 0.1,-0.04 0.2,-0.08 0.08,-0.04 0.08,-0.06 0,-0.02 0,-0.02 -0.02,0 -0.02,-0.02 l 0,-0.02 q -0.34,0.08 -0.6,0.24 -0.26,0.16 -0.58,0.26 -0.34,0.04 -0.54,0.2 -0.2,0.16 -0.44,0.3 l 0.2,-0.08 q 0,0.08 0.02,0.1 0,0.02 0.02,0.04 -0.1,0.02 -0.26,0.1 -0.16,0.1 -0.32,0.14 -0.1,-0.08 -0.14,-0.08 -0.04,0 -0.06,0.04 -0.04,0.06 -0.14,0.06 l -0.14,0 q -0.24,0.12 -0.46,0.2 -0.22,0.08 -0.44,0.1 -0.16,0.06 -0.26,0.16 -0.12,0.1 -0.24,0.1 -0.04,0 -0.06,-0.02 -0.58,0.3 -1,0.52 -0.44,0.24 -0.72,0.24 -0.02,-0.02 -0.02,-0.02 0.02,-0.06 0.32,-0.24 0.3,-0.18 0.68,-0.38 0.38,-0.2 0.76,-0.36 0.36,-0.14 0.52,-0.14 l 0.06,0 0.12,-0.16 q -0.04,0 -0.06,0 -0.04,0 -0.04,-0.06 0,-0.02 0.18,-0.1 0.18,-0.06 0.42,-0.16 0.24,-0.1 0.48,-0.22 0.24,-0.1 0.36,-0.2 -0.06,0 -0.12,0 -0.08,0.02 -0.16,0.02 -0.1,0 -0.16,-0.02 0.18,-0.16 0.54,-0.24 0.36,-0.08 0.58,-0.08 l 0.1,0 q 1.06,-0.48 2,-0.92 0.94,-0.42 1.88,-0.92 0.64,-0.34 1.26,-0.7 0.64,-0.36 1.22,-0.46 0.22,-0.14 0.36,-0.28 0.14,-0.14 0.36,-0.2 0.34,-0.18 0.68,-0.32 0.36,-0.16 0.74,-0.56 0.4,-0.08 0.7,-0.16 0.3,-0.08 0.54,-0.2 0.26,-0.12 0.5,-0.3 0.24,-0.18 0.5,-0.44 0.02,0.02 0.08,0.02 0.06,0 0.22,-0.1 0.16,-0.1 0.34,-0.22 0.18,-0.12 0.34,-0.22 0.16,-0.1 0.26,-0.1 l 0.02,0 q 0.18,-0.04 0.26,-0.14 0.1,-0.12 0.22,-0.22 0.02,0.06 0.04,0.08 0.02,0.02 0.02,0.06 0,0.02 -0.04,0.06 0.1,-0.04 0.18,-0.06 0.08,-0.04 0.12,-0.14 l 0.12,-0.06 q 0,-0.18 -0.06,-0.24 -1.44,0.76 -2.82,1.52 -1.38,0.74 -2.98,1.5 -0.26,0.12 -0.4,0.32 l -0.06,0 q -0.28,0 -0.56,0.2 -0.28,0.22 -0.56,0.3 -0.58,0.34 -1.28,0.64 -0.7,0.32 -1.46,0.66 l 0,-0.04 q 0.04,-0.06 0.06,-0.06 0,0 0.02,-0.1 l 0.78,-0.34 q 0.12,-0.16 0.7,-0.52 0.58,-0.34 1.38,-0.8 0.8,-0.44 1.7,-0.92 0.9,-0.48 1.68,-0.88 0.8,-0.42 1.34,-0.7 0.56,-0.3 0.64,-0.36 0.32,-0.22 0.94,-0.54 0.62,-0.34 1.36,-0.74 0.76,-0.42 1.54,-0.88 0.8,-0.48 1.44,-0.98 0.64,-0.52 1.04,-1.04 0.42,-0.52 0.42,-1.04 0,-0.22 -0.18,-0.34 -0.18,-0.14 -0.48,-0.2 -0.3,-0.08 -0.7,-0.1 -0.38,-0.02 -0.78,-0.02 l -0.96,0 q -0.6,0 -1.26,0.06 -0.66,0.06 -1.28,0.14 -0.62,0.06 -1.18,0.14 -0.54,0.08 -0.9,0.12 -0.42,0.04 -0.78,0.06 -0.34,0.02 -0.62,0.02 -1.06,0 -1.78,-0.18 -0.72,-0.18 -0.92,-0.56 -0.96,-0.02 -1.8,-0.06 -0.84,-0.04 -1.46,-0.08 -0.62,-0.06 -0.98,-0.1 -0.36,-0.06 -0.36,-0.12 0,-0.06 0.08,-0.06 0.08,-0.02 0.22,-0.06 -0.46,0 -0.6,-0.06 -0.16,-0.06 -0.16,-0.22 0,-0.12 0.14,-0.18 0.14,-0.06 0.24,-0.08 -0.18,-0.04 -0.18,-0.14 0,-0.12 1.3,-0.14 1.3,-0.04 3.6,-0.04 0.2,-1.4 0.92,-2.54 0.74,-1.16 1.8,-2.08 1.06,-0.9200001 2.38,-1.6400001 1.32,-0.72 2.7,-1.26 1.38,-0.54 2.74,-0.9 1.38,-0.38 2.56,-0.6 1.2,-0.24 2.1,-0.34 0.9,-0.1 1.34,-0.1 0.5,0 0.88,0.14 0.38,0.14 0.64,0.36 0.26,0.22 0.4,0.48 0.14,0.26 0.14,0.5 0,0.1 -0.04,0.22 -0.04,0.12 -0.04,0.18 0,0.04 0.02,0.06 0.02,0 0.02,0.02 0,0.12 -0.58,0.36 -0.56,0.22 -1.5,0.56 -0.94,0.34 -2.14,0.76 -1.2,0.4 -2.46,0.8800001 -1.26,0.46 -2.48,0.96 -1.2,0.5 -2.16,1.02 -0.96,0.5 -1.56,1.02 -0.58,0.5 -0.62,0.96 0.1,-0.02 0.44,-0.08 0.36,-0.08 0.86,-0.18 0.5,-0.1 1.1,-0.22 0.62,-0.12 1.24,-0.22 0.64,-0.1 1.24,-0.16 0.6,-0.06 1.08,-0.06 0.84,0 1.86,0.02 1.04,0.02 2,0.18 0.96,0.16 1.72,0.54 0.76,0.36 1.08,1.06 0.52,0 1.04,0.02 0.52,0 1.1,0 z m -19.86,14.58 q -0.04,-0.04 -0.06,-0.04 l -0.08,0 q 0.06,-0.04 0.12,-0.08 0.06,-0.04 0.16,-0.04 0.04,0 0.06,0 0.04,0.02 0.08,0.02 0.06,0 0.1,-0.04 0.06,-0.02 0.14,-0.06 l 0.06,-0.2 q -0.02,0 -0.04,-0.02 0,0 -0.04,0 -0.12,0 -0.34,0.12 -0.2,0.14 -0.42,0.3 -0.22,0.18 -0.42,0.3 -0.2,0.14 -0.32,0.14 -0.04,0 -0.04,-0.02 -0.16,0.04 -0.28,0.12 -0.12,0.08 -0.24,0.12 l 0.02,0 q 0.08,0 0.32,-0.08 0.22,-0.06 0.46,-0.16 0.26,-0.1 0.48,-0.2 0.22,-0.1 0.28,-0.18 z m -1.4,0.24 q 0,-0.04 0.02,-0.06 0,-0.02 0.02,-0.02 -0.02,-0.04 -0.02,-0.04 -0.02,0 -0.04,-0.02 -0.02,0 -0.02,-0.02 -0.52,0.28 -1.06,0.5 -0.54,0.22 -1.08,0.5 l 0.02,0.02 q 0.08,0 0.32,-0.08 0.22,-0.08 0.48,-0.2 0.24,-0.1 0.48,-0.2 0.22,-0.1 0.3,-0.14 0.12,-0.06 0.18,-0.1 0.04,-0.02 0.08,-0.04 0.02,-0.02 0.08,-0.04 0.06,-0.02 0.24,-0.06 z m -0.82,-0.7 -0.02,0 -0.04,0 q -0.02,0 -0.02,-0.02 -0.4,0.28 -0.72,0.44 -0.32,0.16 -0.6,0.4 0.08,0 0.14,-0.06 0.04,-0.04 0.1,-0.04 0.06,0 0.08,0.02 0.16,-0.02 0.34,-0.1 0.16,-0.08 0.32,-0.2 0.14,-0.1 0.26,-0.22 0.1,-0.12 0.16,-0.22 z m 0.64,-1.64 q -0.64,0.22 -1.18,0.5 -0.56,0.28 -1.16,0.56 l 0.36,-0.12 q 0,0.02 0,0.02 -0.02,0 -0.02,0.02 0,0.02 0.04,0.06 l 0.04,0.04 q 0.4,-0.32 0.88,-0.56 0.48,-0.24 0.98,-0.42 l 0.06,-0.1 z m -3.26,4.86 0,-0.04 q 0,-0.02 0.02,-0.04 0,-0.02 0,-0.06 0.3,-0.04 0.6,-0.16 0.3,-0.12 0.62,-0.28 -0.02,0.08 -0.18,0.18 -0.16,0.1 -0.36,0.18 -0.2,0.1 -0.4,0.16 -0.2,0.06 -0.3,0.06 z m 3.48,-2.6 0.08,-0.12 q 0.06,-0.02 0.16,-0.06 0.1,-0.04 0.2,-0.08 l 0.24,-0.12 q 0.06,0 0.06,0.04 0,0.06 0.04,0.1 0,-0.02 0,-0.04 0.02,-0.02 0.02,-0.06 l 0,-0.04 0.02,0.04 0.08,0.02 0.12,-0.04 q 0.12,-0.04 0.14,-0.04 l -0.12,-0.08 q 0,-0.02 0.02,-0.06 0.02,-0.02 0.02,-0.04 0.02,-0.02 0.06,-0.04 -0.1,0.02 -0.26,0.08 -0.14,0.08 -0.32,0.16 -0.16,0.1 -0.32,0.16 -0.16,0.08 -0.24,0.1 0.02,0.02 0.04,0.02 l 0.02,-0.02 -0.06,0.12 z m 4.24,-4.7 q -0.14,0.1 -0.3,0.18 -0.16,0.06 -0.32,0.12 -0.16,0.08 -0.3,0.16 -0.14,0.1 -0.24,0.26 l 1.08,-0.6 0.08,-0.12 z m -2.82,4.14 q 0.12,0 0.38,-0.14 0.26,-0.14 0.36,-0.22 -0.04,0 -0.16,0.02 -0.1,0.04 -0.24,0.08 -0.12,0.04 -0.24,0.1 -0.12,0.06 -0.14,0.14 0,0.02 0.04,0.02 z m 0.32,-2.16 q 0.16,-0.06 0.32,-0.12 0.16,-0.06 0.42,-0.06 -0.18,0.04 -0.32,0.14 -0.12,0.1 -0.22,0.1 -0.08,0 -0.2,-0.06 z m -0.18,-0.52 q 0.12,-0.06 0.3,-0.18 0.2,-0.12 0.2,-0.22 -0.16,0.1 -0.3,0.14 -0.12,0.04 -0.22,0.14 l 0.02,0.12 z m -1.26,1.14 q 0.06,-0.04 0.08,-0.06 l 0.14,0.18 q -0.1,0.08 -0.18,0.1 -0.06,0.04 -0.2,0.12 0.02,-0.04 0.02,-0.04 0,-0.02 -0.04,-0.06 l -0.02,-0.02 q 0.14,0 0.12,-0.02 -0.02,-0.02 0.08,-0.2 z m -5.98,2.8 q -0.02,0 -0.02,-0.02 l 0,-0.04 0.64,-0.22 q -0.3,0.2 -0.62,0.28 z m 1.36,-1.18 q 0.06,-0.06 0.18,-0.06 0.1,0.02 0.2,-0.08 0,0.1 -0.06,0.12 -0.06,0.04 -0.12,0.04 -0.06,0 -0.1,0 -0.06,0.02 -0.1,-0.02 z m 3.72,1 q -0.24,0.14 -0.4,0.22 -0.18,0.08 -0.36,0.14 0.22,-0.06 0.46,-0.14 0.22,-0.08 0.3,-0.22 z m -4.4,1.82 q 0.08,-0.1 0.18,-0.14 0.1,-0.04 0.2,-0.04 0.08,0 0.1,0.02 -0.16,0.02 -0.28,0.08 -0.12,0.08 -0.26,0.1 l 0.06,-0.02 z m 4.26,-2.5 q -0.1,0.06 -0.2,0.12 -0.1,0.06 -0.2,0.14 0.1,-0.04 0.22,-0.08 0.1,-0.04 0.18,-0.18 z m 2.82,-3.52 q 0.02,0.04 0.1,0.04 0.1,0 0.22,-0.06 0.12,-0.06 0.16,-0.12 -0.14,0.06 -0.26,0.1 -0.1,0.04 -0.22,0.04 z m -1.76,0.96 q 0.06,-0.04 0.16,-0.08 0.1,-0.04 0.2,-0.2 -0.18,0.16 -0.46,0.28 l 0.1,0 z m -0.24,0.14 q -0.02,-0.02 -0.06,-0.02 -0.08,0 -0.2,0.06 -0.12,0.06 -0.2,0.1 0.16,0 0.24,-0.06 0.08,-0.06 0.22,-0.08 z m -6.52,2.1 q 0.02,0 0.04,0 0,0.02 0.04,0.02 0.06,0 0.16,-0.04 0.1,-0.02 0.2,-0.1 -0.12,0.16 -0.3,0.16 -0.06,0 -0.14,-0.04 z m 5.74,1.18 -0.02,0.06 0.1,0 -0.08,-0.06 z m -5.28,-1.32 q 0,0.02 -0.02,0.02 l 0.02,-0.02 z" />
    </g>
  </g>
</svg>
