<?xml version="1.0" encoding="UTF-8" standalone="no"?>
<!-- Created with Inkscape (http://www.inkscape.org/) -->

<svg
   xmlns:dc="http://purl.org/dc/elements/1.1/"
   xmlns:cc="http://creativecommons.org/ns#"
   xmlns:rdf="http://www.w3.org/1999/02/22-rdf-syntax-ns#"
   xmlns:svg="http://www.w3.org/2000/svg"
   xmlns="http://www.w3.org/2000/svg"
   xmlns:sodipodi="http://sodipodi.sourceforge.net/DTD/sodipodi-0.dtd"
   xmlns:inkscape="http://www.inkscape.org/namespaces/inkscape"
   id="svg2"
   version="1.1"
   inkscape:version="0.91 r13725"
   xml:space="preserve"
   width="198.375"
   height="115.49975"
   viewBox="0 0 198.375 115.49975"
   sodipodi:docname="taxo-lpg.svg"><metadata
     id="metadata8"><rdf:RDF><cc:Work
         rdf:about=""><dc:format>image/svg+xml</dc:format><dc:type
           rdf:resource="http://purl.org/dc/dcmitype/StillImage" /><dc:title /></cc:Work></rdf:RDF></metadata><defs
     id="defs6"><clipPath
       clipPathUnits="userSpaceOnUse"
       id="clipPath16"><path
         d="m 0,0.1 595.2,0 0,841.8 L 0,841.9 0,0.1 Z"
         id="path18"
         inkscape:connector-curvature="0"
         style="clip-rule:evenodd" /></clipPath></defs><sodipodi:namedview
     pagecolor="#ffffff"
     bordercolor="#666666"
     borderopacity="1"
     objecttolerance="10"
     gridtolerance="10"
     guidetolerance="10"
     inkscape:pageopacity="0"
     inkscape:pageshadow="2"
     inkscape:window-width="1920"
     inkscape:window-height="1047"
     id="namedview4"
     showgrid="false"
     fit-margin-top="2"
     fit-margin-left="2"
     fit-margin-right="2"
     fit-margin-bottom="2"
     inkscape:zoom="5.0737011"
     inkscape:cx="62.628996"
     inkscape:cy="42.82979"
     inkscape:window-x="0"
     inkscape:window-y="1050"
     inkscape:window-maximized="1"
     inkscape:current-layer="g14"
     showguides="false" /><g
     id="g10"
     inkscape:groupmode="layer"
     inkscape:label="taxonomy_multi"
     transform="matrix(1.25,0,0,-1.25,-258.07693,843.99479)"><g
       id="g12"><g
         id="g14"
         clip-path="url(#clipPath16)"><path
           inkscape:connector-curvature="0"
           id="path3515"
           d="m 311.48949,622.37104 9.31354,21.83765 -33.61273,1.38466 -43.55861,4.93668 -8.08147,-28.47391 16.7631,-20.6479 70.43751,-1.94149 z"
           style="fill:none;fill-opacity:1;fill-rule:evenodd;stroke:#073642;stroke-width:2.80177951;stroke-linecap:round;stroke-linejoin:round;stroke-miterlimit:4;stroke-dasharray:none;stroke-opacity:1"
           sodipodi:nodetypes="cccccccc" /><g
           transform="translate(60.461547,310.49603)"
           id="g5213"><g
             id="g864"><path
               inkscape:connector-curvature="0"
               id="path866"
               style="fill:none;stroke:#eee8d5;stroke-width:5.99959993;stroke-linecap:butt;stroke-linejoin:round;stroke-miterlimit:10;stroke-dasharray:none;stroke-opacity:1"
               d="m 226.7,330.5 0.1,-0.6 0.2,1.4" /></g><g
             id="g868"><path
               inkscape:connector-curvature="0"
               id="path870"
               style="fill:none;stroke:#eee8d5;stroke-width:5.99959993;stroke-linecap:butt;stroke-linejoin:round;stroke-miterlimit:10;stroke-dasharray:none;stroke-opacity:1"
               d="m 227.3,332.7 0.3,1.4" /></g><g
             id="g872"><path
               inkscape:connector-curvature="0"
               id="path874"
               style="fill:none;stroke:#eee8d5;stroke-width:5.99959993;stroke-linecap:butt;stroke-linejoin:round;stroke-miterlimit:10;stroke-dasharray:none;stroke-opacity:1"
               d="m 227.8,335.6 0.3,1.4" /></g><g
             id="g876"><path
               inkscape:connector-curvature="0"
               id="path878"
               style="fill:none;stroke:#eee8d5;stroke-width:5.99959993;stroke-linecap:butt;stroke-linejoin:round;stroke-miterlimit:10;stroke-dasharray:none;stroke-opacity:1"
               d="m 228.4,338.4 0.2,1.4" /></g><g
             id="g880"><path
               inkscape:connector-curvature="0"
               id="path882"
               style="fill:none;stroke:#eee8d5;stroke-width:5.99959993;stroke-linecap:butt;stroke-linejoin:round;stroke-miterlimit:10;stroke-dasharray:none;stroke-opacity:1"
               d="m 228.9,341.3 0.3,1.4" /></g><g
             id="g884"><path
               inkscape:connector-curvature="0"
               id="path886"
               style="fill:none;stroke:#eee8d5;stroke-width:5.99959993;stroke-linecap:butt;stroke-linejoin:round;stroke-miterlimit:10;stroke-dasharray:none;stroke-opacity:1"
               d="m 229.4,344.1 0.3,1.4" /></g><g
             id="g888"><path
               inkscape:connector-curvature="0"
               id="path890"
               style="fill:none;stroke:#eee8d5;stroke-width:5.99959993;stroke-linecap:butt;stroke-linejoin:round;stroke-miterlimit:10;stroke-dasharray:none;stroke-opacity:1"
               d="m 230,346.9 0.3,1.5" /></g><g
             id="g892"><path
               inkscape:connector-curvature="0"
               id="path894"
               style="fill:none;stroke:#eee8d5;stroke-width:5.99959993;stroke-linecap:butt;stroke-linejoin:round;stroke-miterlimit:10;stroke-dasharray:none;stroke-opacity:1"
               d="m 230.5,349.8 0.3,1.4" /></g><g
             id="g896"><path
               inkscape:connector-curvature="0"
               id="path898"
               style="fill:none;stroke:#eee8d5;stroke-width:5.99959993;stroke-linecap:butt;stroke-linejoin:round;stroke-miterlimit:10;stroke-dasharray:none;stroke-opacity:1"
               d="m 231.1,352.6 0.2,1.4" /></g><g
             id="g900"><path
               inkscape:connector-curvature="0"
               id="path902"
               style="fill:none;stroke:#eee8d5;stroke-width:5.99959993;stroke-linecap:butt;stroke-linejoin:round;stroke-miterlimit:10;stroke-dasharray:none;stroke-opacity:1"
               d="m 231.6,355.5 0.2,1.4" /></g><g
             id="g904"><path
               inkscape:connector-curvature="0"
               id="path906"
               style="fill:none;stroke:#eee8d5;stroke-width:5.99959993;stroke-linecap:butt;stroke-linejoin:round;stroke-miterlimit:10;stroke-dasharray:none;stroke-opacity:1"
               d="m 232.1,358.3 0.3,1.4" /></g><g
             id="g908"><path
               inkscape:connector-curvature="0"
               id="path910"
               style="fill:none;stroke:#eee8d5;stroke-width:5.99959993;stroke-linecap:butt;stroke-linejoin:round;stroke-miterlimit:10;stroke-dasharray:none;stroke-opacity:1"
               d="m 231.4,360.1 -1.4,0" /></g><g
             id="g912"><path
               inkscape:connector-curvature="0"
               id="path914"
               style="fill:none;stroke:#eee8d5;stroke-width:5.99959993;stroke-linecap:butt;stroke-linejoin:round;stroke-miterlimit:10;stroke-dasharray:none;stroke-opacity:1"
               d="m 228.6,360.1 -1.5,0" /></g><g
             id="g916"><path
               inkscape:connector-curvature="0"
               id="path918"
               style="fill:none;stroke:#eee8d5;stroke-width:5.99959993;stroke-linecap:butt;stroke-linejoin:round;stroke-miterlimit:10;stroke-dasharray:none;stroke-opacity:1"
               d="m 225.7,360.1 -1.5,0" /></g><g
             id="g920"><path
               inkscape:connector-curvature="0"
               id="path922"
               style="fill:none;stroke:#eee8d5;stroke-width:5.99959993;stroke-linecap:butt;stroke-linejoin:round;stroke-miterlimit:10;stroke-dasharray:none;stroke-opacity:1"
               d="m 222.8,360.1 -1.5,0" /></g><g
             id="g924"><path
               inkscape:connector-curvature="0"
               id="path926"
               style="fill:none;stroke:#eee8d5;stroke-width:5.99959993;stroke-linecap:butt;stroke-linejoin:round;stroke-miterlimit:10;stroke-dasharray:none;stroke-opacity:1"
               d="m 221.3,358.9 0.3,-1.4" /></g><g
             id="g928"><path
               inkscape:connector-curvature="0"
               id="path930"
               style="fill:none;stroke:#eee8d5;stroke-width:5.99959993;stroke-linecap:butt;stroke-linejoin:round;stroke-miterlimit:10;stroke-dasharray:none;stroke-opacity:1"
               d="m 221.9,356.1 0.2,-1.4" /></g><g
             id="g932"><path
               inkscape:connector-curvature="0"
               id="path934"
               style="fill:none;stroke:#eee8d5;stroke-width:5.99959993;stroke-linecap:butt;stroke-linejoin:round;stroke-miterlimit:10;stroke-dasharray:none;stroke-opacity:1"
               d="m 222.4,353.3 0.3,-1.5" /></g><g
             id="g936"><path
               inkscape:connector-curvature="0"
               id="path938"
               style="fill:none;stroke:#eee8d5;stroke-width:5.99959993;stroke-linecap:butt;stroke-linejoin:round;stroke-miterlimit:10;stroke-dasharray:none;stroke-opacity:1"
               d="m 222.9,350.4 0.3,-1.4" /></g><g
             id="g940"><path
               inkscape:connector-curvature="0"
               id="path942"
               style="fill:none;stroke:#eee8d5;stroke-width:5.99959993;stroke-linecap:butt;stroke-linejoin:round;stroke-miterlimit:10;stroke-dasharray:none;stroke-opacity:1"
               d="m 223.5,347.6 0.2,-1.5" /></g><g
             id="g944"><path
               inkscape:connector-curvature="0"
               id="path946"
               style="fill:none;stroke:#eee8d5;stroke-width:5.99959993;stroke-linecap:butt;stroke-linejoin:round;stroke-miterlimit:10;stroke-dasharray:none;stroke-opacity:1"
               d="m 224,344.7 0.2,-1.4" /></g><g
             id="g948"><path
               inkscape:connector-curvature="0"
               id="path950"
               style="fill:none;stroke:#eee8d5;stroke-width:5.99959993;stroke-linecap:butt;stroke-linejoin:round;stroke-miterlimit:10;stroke-dasharray:none;stroke-opacity:1"
               d="m 224.5,341.9 0.3,-1.4" /></g><g
             id="g952"><path
               inkscape:connector-curvature="0"
               id="path954"
               style="fill:none;stroke:#eee8d5;stroke-width:5.99959993;stroke-linecap:butt;stroke-linejoin:round;stroke-miterlimit:10;stroke-dasharray:none;stroke-opacity:1"
               d="m 225.1,339 0.2,-1.4" /></g><g
             id="g956"><path
               inkscape:connector-curvature="0"
               id="path958"
               style="fill:none;stroke:#eee8d5;stroke-width:5.99959993;stroke-linecap:butt;stroke-linejoin:round;stroke-miterlimit:10;stroke-dasharray:none;stroke-opacity:1"
               d="m 225.6,336.2 0.3,-1.4" /></g><g
             id="g960"><path
               inkscape:connector-curvature="0"
               id="path962"
               style="fill:none;stroke:#eee8d5;stroke-width:5.99959993;stroke-linecap:butt;stroke-linejoin:round;stroke-miterlimit:10;stroke-dasharray:none;stroke-opacity:1"
               d="m 226.1,333.4 0.3,-1.5" /></g><g
             id="g964"><path
               inkscape:connector-curvature="0"
               id="path966"
               style="fill:none;stroke:#d33682;stroke-width:2.99979997;stroke-linecap:butt;stroke-linejoin:round;stroke-miterlimit:10;stroke-dasharray:none;stroke-opacity:1"
               d="m 213.2,304.9 -4.9,-3.2" /></g><path
             inkscape:connector-curvature="0"
             id="path968"
             style="fill:#d33682;fill-opacity:1;fill-rule:evenodd;stroke:none"
             d="m 199.4,296 6.5,10.9 6.1,-9.5 -12.6,-1.4 z m 1.4,0.9 9.9,1.1 -4.8,7.5 -5.1,-8.6 z" /><g
             id="g970"><path
               inkscape:connector-curvature="0"
               id="path972"
               style="fill:none;stroke:#d33682;stroke-width:2.99979997;stroke-linecap:butt;stroke-linejoin:round;stroke-miterlimit:10;stroke-dasharray:none;stroke-opacity:1"
               d="m 199.4,296 -4.9,-3.2" /></g><path
             inkscape:connector-curvature="0"
             id="path974"
             style="fill:#d33682;fill-opacity:1;fill-rule:evenodd;stroke:none"
             d="m 185.7,287.1 6.4,10.9 6.2,-9.5 -12.6,-1.4 z m 1.4,0.9 9.9,1.1 -4.9,7.5 -5,-8.6 z" /><g
             id="g976"><path
               inkscape:connector-curvature="0"
               id="path978"
               style="fill:none;stroke:#d33682;stroke-width:2.99979997;stroke-linecap:butt;stroke-linejoin:round;stroke-miterlimit:10;stroke-dasharray:none;stroke-opacity:1"
               d="m 185.7,287.1 -4.9,-3.2" /></g><path
             inkscape:connector-curvature="0"
             id="path980"
             style="fill:#d33682;fill-opacity:1;fill-rule:evenodd;stroke:none"
             d="m 171.9,278.2 6.5,10.9 6.1,-9.5 -12.6,-1.4 z m 1.4,0.9 9.9,1.1 -4.8,7.5 -5.1,-8.6 z" /><g
             id="g982"><path
               inkscape:connector-curvature="0"
               id="path984"
               style="fill:none;stroke:#dc322f;stroke-width:2.99979997;stroke-linecap:butt;stroke-linejoin:round;stroke-miterlimit:10;stroke-dasharray:none;stroke-opacity:1"
               d="m 210.3,311.2 -6.3,0" /></g><path
             inkscape:connector-curvature="0"
             id="path986"
             style="fill:#dc322f;fill-opacity:1;fill-rule:evenodd;stroke:none"
             d="m 204.7,311.2 c 0,-0.9 -0.3,-1.7 -0.7,-2.5 -0.5,-0.8 -1.1,-1.4 -1.9,-1.9 -0.8,-0.4 -1.6,-0.7 -2.5,-0.7 -0.9,0 -1.7,0.3 -2.5,0.7 -0.9,0.5 -1.5,1.1 -1.9,1.9 -0.5,0.8 -0.7,1.6 -0.7,2.5 0,0.9 0.2,1.7 0.7,2.5 0.4,0.9 1,1.5 1.9,1.9 0.8,0.5 1.6,0.7 2.5,0.7 0.9,0 1.7,-0.2 2.5,-0.7 0.8,-0.4 1.4,-1 1.9,-1.9 0.4,-0.8 0.7,-1.6 0.7,-2.5 z m -0.7,0 c 0,-0.8 -0.2,-1.5 -0.6,-2.2 -0.4,-0.7 -0.9,-1.2 -1.6,-1.6 -0.7,-0.4 -1.4,-0.6 -2.2,-0.6 -0.8,0 -1.5,0.2 -2.2,0.6 -0.7,0.4 -1.2,0.9 -1.6,1.6 -0.4,0.7 -0.6,1.4 -0.6,2.2 0,0.8 0.2,1.5 0.6,2.2 0.4,0.7 0.9,1.2 1.6,1.6 0.7,0.4 1.4,0.6 2.2,0.6 0.8,0 1.5,-0.2 2.2,-0.6 0.7,-0.4 1.2,-0.9 1.6,-1.6 0.4,-0.7 0.6,-1.4 0.6,-2.2 z" /><g
             id="g988"><path
               inkscape:connector-curvature="0"
               id="path990"
               style="fill:none;stroke:#dc322f;stroke-width:2.99979997;stroke-linecap:butt;stroke-linejoin:round;stroke-miterlimit:10;stroke-dasharray:none;stroke-opacity:1"
               d="m 194.7,311.2 -6.4,0" /></g><path
             inkscape:connector-curvature="0"
             id="path992"
             style="fill:#dc322f;fill-opacity:1;fill-rule:evenodd;stroke:none"
             d="m 189,311.2 c 0,-0.9 -0.2,-1.7 -0.7,-2.5 -0.4,-0.8 -1,-1.4 -1.8,-1.9 -0.8,-0.4 -1.6,-0.7 -2.6,-0.7 -0.9,0 -1.7,0.3 -2.5,0.7 -0.8,0.5 -1.4,1.1 -1.9,1.9 -0.4,0.8 -0.6,1.6 -0.6,2.5 0,0.9 0.2,1.7 0.6,2.5 0.5,0.9 1.1,1.5 1.9,1.9 0.8,0.5 1.6,0.7 2.5,0.7 1,0 1.8,-0.2 2.6,-0.7 0.8,-0.4 1.4,-1 1.8,-1.9 0.5,-0.8 0.7,-1.6 0.7,-2.5 z m -0.7,0 c 0,-0.8 -0.1,-1.5 -0.6,-2.2 -0.4,-0.7 -0.9,-1.2 -1.5,-1.6 -0.8,-0.4 -1.4,-0.6 -2.3,-0.6 -0.8,0 -1.5,0.2 -2.2,0.6 -0.7,0.4 -1.2,0.9 -1.6,1.6 -0.4,0.7 -0.6,1.4 -0.6,2.2 0,0.8 0.2,1.5 0.6,2.2 0.4,0.7 0.9,1.2 1.6,1.6 0.7,0.4 1.4,0.6 2.2,0.6 0.9,0 1.5,-0.2 2.3,-0.6 0.6,-0.4 1.1,-0.9 1.5,-1.6 0.5,-0.7 0.6,-1.4 0.6,-2.2 z" /><g
             id="g994"><path
               inkscape:connector-curvature="0"
               id="path996"
               style="fill:none;stroke:#dc322f;stroke-width:2.99979997;stroke-linecap:butt;stroke-linejoin:round;stroke-miterlimit:10;stroke-dasharray:none;stroke-opacity:1"
               d="m 179,311.2 -6.3,0" /></g><path
             inkscape:connector-curvature="0"
             id="path998"
             style="fill:#dc322f;fill-opacity:1;fill-rule:evenodd;stroke:none"
             d="m 173.4,311.2 c 0,-0.9 -0.2,-1.7 -0.7,-2.5 -0.4,-0.8 -1,-1.4 -1.8,-1.9 -0.8,-0.4 -1.6,-0.7 -2.6,-0.7 -0.9,0 -1.7,0.3 -2.5,0.7 -0.8,0.5 -1.4,1.1 -1.9,1.9 -0.4,0.8 -0.7,1.6 -0.7,2.5 0,0.9 0.3,1.7 0.7,2.5 0.5,0.9 1.1,1.5 1.9,1.9 0.8,0.5 1.6,0.7 2.5,0.7 1,0 1.8,-0.2 2.6,-0.7 0.8,-0.4 1.4,-1 1.8,-1.9 0.5,-0.8 0.7,-1.6 0.7,-2.5 z m -0.7,0 c 0,-0.8 -0.2,-1.5 -0.6,-2.2 -0.4,-0.7 -0.9,-1.2 -1.6,-1.6 -0.7,-0.4 -1.4,-0.6 -2.2,-0.6 -0.8,0 -1.5,0.2 -2.2,0.6 -0.7,0.4 -1.2,0.9 -1.6,1.6 -0.4,0.7 -0.6,1.4 -0.6,2.2 0,0.8 0.2,1.5 0.6,2.2 0.4,0.7 0.9,1.2 1.6,1.6 0.7,0.4 1.4,0.6 2.2,0.6 0.8,0 1.5,-0.2 2.2,-0.6 0.7,-0.4 1.2,-0.9 1.6,-1.6 0.4,-0.7 0.6,-1.4 0.6,-2.2 z" /><g
             id="g1000"><path
               inkscape:connector-curvature="0"
               id="path1002"
               style="fill:none;stroke:#dc322f;stroke-width:2.99979997;stroke-linecap:butt;stroke-linejoin:round;stroke-miterlimit:10;stroke-dasharray:none;stroke-opacity:1"
               d="m 163.4,311.2 -6.3,0" /></g><path
             inkscape:connector-curvature="0"
             id="path1004"
             style="fill:#dc322f;fill-opacity:1;fill-rule:evenodd;stroke:none"
             d="m 157.8,311.2 c 0,-0.9 -0.3,-1.7 -0.7,-2.5 -0.5,-0.8 -1.1,-1.4 -1.8,-1.9 -0.9,-0.4 -1.7,-0.7 -2.6,-0.7 -0.9,0 -1.7,0.3 -2.5,0.7 -0.8,0.5 -1.4,1.1 -1.9,1.9 -0.4,0.8 -0.7,1.6 -0.7,2.5 0,0.9 0.3,1.7 0.7,2.5 0.5,0.9 1.1,1.5 1.9,1.9 0.8,0.5 1.6,0.7 2.5,0.7 0.9,0 1.7,-0.2 2.6,-0.7 0.7,-0.4 1.3,-1 1.8,-1.9 0.4,-0.8 0.7,-1.6 0.7,-2.5 z m -0.7,0 c 0,-0.8 -0.2,-1.5 -0.6,-2.2 -0.4,-0.7 -0.9,-1.2 -1.6,-1.6 -0.7,-0.4 -1.4,-0.6 -2.2,-0.6 -0.8,0 -1.5,0.2 -2.2,0.6 -0.7,0.4 -1.2,0.9 -1.6,1.6 -0.4,0.7 -0.6,1.4 -0.6,2.2 0,0.8 0.2,1.5 0.6,2.2 0.4,0.7 0.9,1.2 1.6,1.6 0.7,0.4 1.4,0.6 2.2,0.6 0.8,0 1.5,-0.2 2.2,-0.6 0.7,-0.4 1.2,-0.9 1.6,-1.6 0.4,-0.7 0.6,-1.4 0.6,-2.2 z" /><g
             id="g1006"><path
               inkscape:connector-curvature="0"
               id="path1008"
               style="fill:none;stroke:#2aa198;stroke-width:2.99979997;stroke-linecap:butt;stroke-linejoin:round;stroke-miterlimit:10;stroke-dasharray:none;stroke-opacity:1"
               d="m 240.5,311.2 6.3,0" /></g><path
             inkscape:connector-curvature="0"
             id="path1010"
             style="fill:#2aa198;fill-opacity:1;fill-rule:evenodd;stroke:none"
             d="m 246.2,312.1 0.3,1 0.4,0.9 0.7,0.8 0.8,0.7 0.9,0.4 0.9,0.3 1,0.1 0.9,-0.1 0.9,-0.3 1,-0.4 0.8,-0.7 0.6,-0.8 0.5,-0.9 0.3,-1 0.1,-0.9 -0.1,-0.9 -0.3,-1 -0.5,-0.8 -0.6,-0.9 -0.8,-0.6 -1,-0.5 -0.9,-0.2 -0.9,-0.2 -1,0.2 -0.9,0.2 -0.9,0.5 -0.8,0.6 -0.7,0.9 -0.4,0.8 -0.3,1 -0.1,0.9 0.1,0.9 z" /><g
             id="g1012"><path
               inkscape:connector-curvature="0"
               id="path1014"
               style="fill:none;stroke:#2aa198;stroke-width:2.99979997;stroke-linecap:butt;stroke-linejoin:round;stroke-miterlimit:10;stroke-dasharray:none;stroke-opacity:1"
               d="m 256.1,311.2 6.3,0" /></g><path
             inkscape:connector-curvature="0"
             id="path1016"
             style="fill:#2aa198;fill-opacity:1;fill-rule:evenodd;stroke:none"
             d="m 261.8,312.1 0.3,1 0.4,0.9 0.7,0.8 0.8,0.7 1,0.4 0.9,0.3 0.9,0.1 0.9,-0.1 1,-0.3 0.9,-0.4 0.8,-0.7 0.6,-0.8 0.5,-0.9 0.3,-1 0.1,-0.9 -0.1,-0.9 -0.3,-1 -0.5,-0.8 -0.6,-0.9 -0.8,-0.6 -0.9,-0.5 -1,-0.2 -0.9,-0.2 -0.9,0.2 -0.9,0.2 -1,0.5 -0.8,0.6 -0.7,0.9 -0.4,0.8 -0.3,1 -0.1,0.9 0.1,0.9 z" /><g
             id="g1018"><path
               inkscape:connector-curvature="0"
               id="path1020"
               style="fill:none;stroke:#2aa198;stroke-width:2.99979997;stroke-linecap:butt;stroke-linejoin:round;stroke-miterlimit:10;stroke-dasharray:none;stroke-opacity:1"
               d="m 271.7,311.2 6.4,0" /></g><path
             inkscape:connector-curvature="0"
             id="path1022"
             style="fill:#2aa198;fill-opacity:1;fill-rule:evenodd;stroke:none"
             d="m 277.5,312.1 0.2,1 0.5,0.9 0.6,0.8 0.9,0.7 0.9,0.4 0.9,0.3 0.9,0.1 1,-0.1 0.9,-0.3 1,-0.4 0.7,-0.7 0.7,-0.8 0.4,-0.9 0.3,-1 0.1,-0.9 -0.1,-0.9 -0.3,-1 -0.4,-0.8 -0.7,-0.9 -0.7,-0.6 -1,-0.5 -0.9,-0.2 -1,-0.2 -0.9,0.2 -0.9,0.2 -0.9,0.5 -0.9,0.6 -0.6,0.9 -0.5,0.8 -0.2,1 -0.1,0.9 0.1,0.9 z" /><g
             id="g1024"><path
               inkscape:connector-curvature="0"
               id="path1026"
               style="fill:none;stroke:#2aa198;stroke-width:2.99979997;stroke-linecap:butt;stroke-linejoin:round;stroke-miterlimit:10;stroke-dasharray:none;stroke-opacity:1"
               d="m 287.3,311.2 6.4,0" /></g><path
             inkscape:connector-curvature="0"
             id="path1028"
             style="fill:#2aa198;fill-opacity:1;fill-rule:evenodd;stroke:none"
             d="m 293.1,312.1 0.3,1 0.4,0.9 0.7,0.8 0.8,0.7 0.9,0.4 0.9,0.3 1,0.1 0.9,-0.1 0.9,-0.3 1,-0.4 0.8,-0.7 0.6,-0.8 0.4,-0.9 0.4,-1 0,-0.9 0,-0.9 -0.4,-1 -0.4,-0.8 -0.6,-0.9 -0.8,-0.6 -1,-0.5 -0.9,-0.2 -0.9,-0.2 -1,0.2 -0.9,0.2 -0.9,0.5 -0.8,0.6 -0.7,0.9 -0.4,0.8 -0.3,1 -0.1,0.9 0.1,0.9 z" /><g
             id="g1030"><path
               inkscape:connector-curvature="0"
               id="path1032"
               style="fill:none;stroke:#cb4b16;stroke-width:2.99979997;stroke-linecap:butt;stroke-linejoin:round;stroke-miterlimit:10;stroke-dasharray:none;stroke-opacity:1"
               d="m 213.2,319.8 -5.8,3.7" /></g><path
             inkscape:connector-curvature="0"
             id="path1034"
             style="fill:#cb4b16;fill-opacity:1;fill-rule:evenodd;stroke:none"
             d="m 196.7,324.5 5.5,8.5 8.5,-5.5 -5.5,-8.6 -8.5,5.6 z m 0.9,0.1 4.8,7.4 7.4,-4.7 -4.8,-7.4 -7.4,4.7 z" /><g
             id="g1036"><path
               inkscape:connector-curvature="0"
               id="path1038"
               style="fill:none;stroke:#cb4b16;stroke-width:2.99979997;stroke-linecap:butt;stroke-linejoin:round;stroke-miterlimit:10;stroke-dasharray:none;stroke-opacity:1"
               d="m 199.4,328.7 -5.8,3.7" /></g><path
             inkscape:connector-curvature="0"
             id="path1040"
             style="fill:#cb4b16;fill-opacity:1;fill-rule:evenodd;stroke:none"
             d="m 182.9,333.4 5.5,8.5 8.6,-5.5 -5.6,-8.6 -8.5,5.6 z m 1,0.1 4.7,7.4 7.4,-4.7 -4.8,-7.4 -7.3,4.7 z" /><g
             id="g1042"><path
               inkscape:connector-curvature="0"
               id="path1044"
               style="fill:none;stroke:#cb4b16;stroke-width:2.99979997;stroke-linecap:butt;stroke-linejoin:round;stroke-miterlimit:10;stroke-dasharray:none;stroke-opacity:1"
               d="m 185.7,337.6 -5.8,3.7" /></g><path
             inkscape:connector-curvature="0"
             id="path1046"
             style="fill:#cb4b16;fill-opacity:1;fill-rule:evenodd;stroke:none"
             d="m 169.2,342.3 5.5,8.5 8.5,-5.5 -5.5,-8.6 -8.5,5.6 z m 0.9,0.2 4.8,7.3 7.4,-4.7 -4.8,-7.4 -7.4,4.8 z" /><g
             id="g1048"><path
               inkscape:connector-curvature="0"
               id="path1050"
               style="fill:none;stroke:#268bd2;stroke-width:2.99979997;stroke-linecap:butt;stroke-linejoin:round;stroke-miterlimit:10;stroke-dasharray:none;stroke-opacity:1"
               d="m 238.1,304.9 5.8,-3.8" /></g><path
             inkscape:connector-curvature="0"
             id="path1052"
             style="fill:#268bd2;fill-opacity:1;fill-rule:evenodd;stroke:none"
             d="m 254.6,300.2 -5.5,-8.5 -8.5,5.5 5.5,8.5 8.5,-5.5 z" /><g
             id="g1054"><path
               inkscape:connector-curvature="0"
               id="path1056"
               style="fill:none;stroke:#268bd2;stroke-width:2.99979997;stroke-linecap:butt;stroke-linejoin:round;stroke-miterlimit:10;stroke-dasharray:none;stroke-opacity:1"
               d="m 251.9,296 5.8,-3.8" /></g><path
             inkscape:connector-curvature="0"
             id="path1058"
             style="fill:#268bd2;fill-opacity:1;fill-rule:evenodd;stroke:none"
             d="m 268.4,291.3 -5.5,-8.5 -8.6,5.5 5.6,8.5 8.5,-5.5 z" /><g
             id="g1060"><path
               inkscape:connector-curvature="0"
               id="path1062"
               style="fill:none;stroke:#268bd2;stroke-width:2.99979997;stroke-linecap:butt;stroke-linejoin:round;stroke-miterlimit:10;stroke-dasharray:none;stroke-opacity:1"
               d="m 265.6,287.1 5.8,-3.8" /></g><path
             inkscape:connector-curvature="0"
             id="path1064"
             style="fill:#268bd2;fill-opacity:1;fill-rule:evenodd;stroke:none"
             d="m 282.1,282.4 -5.5,-8.5 -8.5,5.5 5.5,8.5 8.5,-5.5 z" /><path
             inkscape:connector-curvature="0"
             id="path1066"
             style="fill:#93a1a1;fill-opacity:1;fill-rule:evenodd;stroke:none"
             d="m 226.1,327 c 8.9,0 15.8,-6.8 15.8,-15.8 0,-8.9 -6.9,-15.8 -15.8,-15.8 -9,0 -15.8,6.9 -15.8,15.8 0,9 6.8,15.8 15.8,15.8 z m -15.8,0 0,0 z m 31.6,-31.6 0,0 z" /><g
             id="g1068"><path
               inkscape:connector-curvature="0"
               id="path1070"
               style="fill:none;stroke:#859900;stroke-width:2.99979997;stroke-linecap:butt;stroke-linejoin:round;stroke-miterlimit:10;stroke-dasharray:none;stroke-opacity:1"
               d="m 238.1,319.8 6.8,4.4" /></g><path
             inkscape:connector-curvature="0"
             id="path1072"
             style="fill:#859900;fill-opacity:1;fill-rule:evenodd;stroke:none"
             d="m 251.9,328.7 -10.7,-0.1 6.2,-9.6 4.5,9.7 z" /><g
             id="g1074"><path
               inkscape:connector-curvature="0"
               id="path1076"
               style="fill:none;stroke:#859900;stroke-width:2.99979997;stroke-linecap:butt;stroke-linejoin:round;stroke-miterlimit:10;stroke-dasharray:none;stroke-opacity:1"
               d="m 246.9,325.5 11.8,7.6" /></g><path
             inkscape:connector-curvature="0"
             id="path1078"
             style="fill:#859900;fill-opacity:1;fill-rule:evenodd;stroke:none"
             d="m 265.6,337.6 -10.7,-0.2 6.2,-9.5 4.5,9.7 z" /><g
             id="g1080"><path
               inkscape:connector-curvature="0"
               id="path1082"
               style="fill:none;stroke:#859900;stroke-width:2.99979997;stroke-linecap:butt;stroke-linejoin:round;stroke-miterlimit:10;stroke-dasharray:none;stroke-opacity:1"
               d="m 259.3,333.5 13.1,8.5" /></g><path
             inkscape:connector-curvature="0"
             id="path1084"
             style="fill:#859900;fill-opacity:1;fill-rule:evenodd;stroke:none"
             d="m 279.4,346.5 -10.7,-0.1 6.1,-9.6 4.6,9.7 z" /></g><circle
           style="opacity:1;fill:#657b83;fill-opacity:1;stroke:none;stroke-width:2.4000001;stroke-linecap:round;stroke-linejoin:round;stroke-miterlimit:4;stroke-dasharray:none;stroke-opacity:1"
           id="path6765-6"
           cx="252.18753"
           cy="-601.55945"
           r="6.7012224"
           transform="scale(1,-1)" /><circle
           style="opacity:1;fill:#657b83;fill-opacity:1;stroke:none;stroke-width:2.4000001;stroke-linecap:round;stroke-linejoin:round;stroke-miterlimit:4;stroke-dasharray:none;stroke-opacity:1"
           id="path6765-7"
           cx="320.30347"
           cy="-644.1319"
           r="6.7012224"
           transform="scale(1,-1)" /><circle
           style="opacity:1;fill:#657b83;fill-opacity:1;stroke:none;stroke-width:2.4000001;stroke-linecap:round;stroke-linejoin:round;stroke-miterlimit:4;stroke-dasharray:none;stroke-opacity:1"
           id="path6765-66"
           cx="311.71014"
           cy="-622.37268"
           r="6.7012224"
           transform="scale(1,-1)" /><circle
           style="opacity:1;fill:#657b83;fill-opacity:1;stroke:none;stroke-width:2.4000001;stroke-linecap:round;stroke-linejoin:round;stroke-miterlimit:4;stroke-dasharray:none;stroke-opacity:1"
           id="path6765-04"
           cx="286.87622"
           cy="-645.078"
           r="6.7012224"
           transform="scale(1,-1)" /><rect
           style="opacity:1;fill:#657b83;fill-opacity:1;stroke:none;stroke-width:3;stroke-linecap:round;stroke-linejoin:round;stroke-miterlimit:4;stroke-dasharray:none;stroke-opacity:1"
           id="rect6965-9"
           width="27.593267"
           height="13.244769"
           x="-70.755669"
           y="-685.16199"
           ry="6.6223845"
           transform="matrix(0.83901712,-0.54410502,-0.54410502,-0.83901712,0,0)" /><circle
           style="opacity:1;fill:#657b83;fill-opacity:1;stroke:none;stroke-width:2.4000001;stroke-linecap:round;stroke-linejoin:round;stroke-miterlimit:4;stroke-dasharray:none;stroke-opacity:1"
           id="path6765-04-3"
           cx="244.14607"
           cy="-649.80829"
           r="6.7012224"
           transform="scale(1,-1)" /><circle
           style="opacity:1;fill:#657b83;fill-opacity:1;stroke:none;stroke-width:2.4000001;stroke-linecap:round;stroke-linejoin:round;stroke-miterlimit:4;stroke-dasharray:none;stroke-opacity:1"
           id="path6765-04-3-6"
           cx="236.26228"
           cy="-621.26898"
           r="6.7012224"
           transform="scale(1,-1)" /></g></g></g></svg>