<?xml version="1.0" encoding="UTF-8" standalone="no"?>
<!-- Created with Inkscape (http://www.inkscape.org/) -->

<svg
   xmlns:dc="http://purl.org/dc/elements/1.1/"
   xmlns:cc="http://creativecommons.org/ns#"
   xmlns:rdf="http://www.w3.org/1999/02/22-rdf-syntax-ns#"
   xmlns:svg="http://www.w3.org/2000/svg"
   xmlns="http://www.w3.org/2000/svg"
   xmlns:sodipodi="http://sodipodi.sourceforge.net/DTD/sodipodi-0.dtd"
   xmlns:inkscape="http://www.inkscape.org/namespaces/inkscape"
   width="57.820206mm"
   height="39.052429mm"
   viewBox="0 0 204.87474 138.37475"
   id="svg5240"
   version="1.1"
   inkscape:version="0.91 r13725"
   sodipodi:docname="taxo.svg">
  <defs
     id="defs5242" />
  <sodipodi:namedview
     id="base"
     pagecolor="#ffffff"
     bordercolor="#666666"
     borderopacity="1.0"
     inkscape:pageopacity="0.0"
     inkscape:pageshadow="2"
     inkscape:zoom="2.8"
     inkscape:cx="118.26507"
     inkscape:cy="41.99927"
     inkscape:document-units="px"
     inkscape:current-layer="layer1"
     showgrid="false"
     fit-margin-top="0"
     fit-margin-left="0"
     fit-margin-right="0"
     fit-margin-bottom="0"
     inkscape:window-width="1680"
     inkscape:window-height="994"
     inkscape:window-x="122"
     inkscape:window-y="30"
     inkscape:window-maximized="1" />
  <metadata
     id="metadata5245">
    <rdf:RDF>
      <cc:Work
         rdf:about="">
        <dc:format>image/svg+xml</dc:format>
        <dc:type
           rdf:resource="http://purl.org/dc/dcmitype/StillImage" />
        <dc:title></dc:title>
      </cc:Work>
    </rdf:RDF>
  </metadata>
  <g
     inkscape:label="Calque 1"
     inkscape:groupmode="layer"
     id="layer1"
     transform="translate(-120.41977,-611.74623)">
    <g
       transform="matrix(1.25,0,0,-1.25,-59.705357,1070.8711)"
       id="g4488">
      <g
         id="g824">
        <path
           inkscape:connector-curvature="0"
           id="path826"
           style="fill:none;stroke:#073642;stroke-width:2.99979997;stroke-linecap:butt;stroke-linejoin:round;stroke-miterlimit:10;stroke-dasharray:none;stroke-opacity:1"
           d="m 225,365.8 c 0.3,0 0.7,0 1.1,0 2,0 4,-0.1 6,-0.2" />
      </g>
      <g
         id="g828">
        <path
           inkscape:connector-curvature="0"
           id="path830"
           style="fill:none;stroke:#073642;stroke-width:2.99979997;stroke-linecap:butt;stroke-linejoin:round;stroke-miterlimit:10;stroke-dasharray:none;stroke-opacity:1"
           d="m 237.9,365.2 c 2,-0.2 4,-0.4 5.9,-0.6" />
      </g>
      <g
         id="g832">
        <path
           inkscape:connector-curvature="0"
           id="path834"
           style="fill:none;stroke:#073642;stroke-width:2.99979997;stroke-linecap:butt;stroke-linejoin:round;stroke-miterlimit:10;stroke-dasharray:none;stroke-opacity:1"
           d="m 249.7,363.6 c 1.9,-0.4 3.9,-0.8 5.8,-1.3" />
      </g>
      <g
         id="g836">
        <path
           inkscape:connector-curvature="0"
           id="path838"
           style="fill:none;stroke:#073642;stroke-width:2.99979997;stroke-linecap:butt;stroke-linejoin:round;stroke-miterlimit:10;stroke-dasharray:none;stroke-opacity:1"
           d="m 261.2,360.7 c 1.9,-0.6 3.8,-1.2 5.6,-2" />
      </g>
      <g
         id="g840">
        <path
           inkscape:connector-curvature="0"
           id="path842"
           style="fill:none;stroke:#073642;stroke-width:2.99979997;stroke-linecap:butt;stroke-linejoin:round;stroke-miterlimit:10;stroke-dasharray:none;stroke-opacity:1"
           d="m 272.2,356.5 c 1.9,-0.8 3.6,-1.7 5.3,-2.7" />
      </g>
      <g
         id="g844">
        <path
           inkscape:connector-curvature="0"
           id="path846"
           style="fill:none;stroke:#073642;stroke-width:2.99979997;stroke-linecap:butt;stroke-linejoin:round;stroke-miterlimit:10;stroke-dasharray:none;stroke-opacity:1"
           d="m 282.6,350.8 c 1.7,-1.1 3.3,-2.2 4.8,-3.4" />
      </g>
      <g
         id="g848">
        <path
           inkscape:connector-curvature="0"
           id="path850"
           style="fill:none;stroke:#073642;stroke-width:2.99979997;stroke-linecap:butt;stroke-linejoin:round;stroke-miterlimit:10;stroke-dasharray:none;stroke-opacity:1"
           d="m 291.9,343.5 c 1.5,-1.4 2.8,-2.8 4.1,-4.3" />
      </g>
      <g
         id="g852">
        <path
           inkscape:connector-curvature="0"
           id="path854"
           style="fill:none;stroke:#073642;stroke-width:2.99979997;stroke-linecap:butt;stroke-linejoin:round;stroke-miterlimit:10;stroke-dasharray:none;stroke-opacity:1"
           d="m 299.5,334.5 c 1.1,-1.7 2.1,-3.4 3,-5.1" />
      </g>
      <g
         id="g856">
        <path
           inkscape:connector-curvature="0"
           id="path858"
           style="fill:none;stroke:#073642;stroke-width:2.99979997;stroke-linecap:butt;stroke-linejoin:round;stroke-miterlimit:10;stroke-dasharray:none;stroke-opacity:1"
           d="m 304.7,323.9 c 0.6,-1.9 1,-3.8 1.3,-5.8" />
      </g>
      <g
         id="g860">
        <path
           inkscape:connector-curvature="0"
           id="path862"
           style="fill:none;stroke:#073642;stroke-width:2.99979997;stroke-linecap:butt;stroke-linejoin:round;stroke-miterlimit:10;stroke-dasharray:none;stroke-opacity:1"
           d="m 306.5,312.2 c 0,-0.1 0,-0.2 0,-0.3 0,-1.9 -0.1,-3.8 -0.4,-5.6" />
      </g>
      <g
         id="g864">
        <path
           inkscape:connector-curvature="0"
           id="path866"
           style="fill:none;stroke:#073642;stroke-width:2.99979997;stroke-linecap:butt;stroke-linejoin:round;stroke-miterlimit:10;stroke-dasharray:none;stroke-opacity:1"
           d="m 304.8,300.5 c -0.6,-1.9 -1.3,-3.7 -2.1,-5.5" />
      </g>
      <g
         id="g868">
        <path
           inkscape:connector-curvature="0"
           id="path870"
           style="fill:none;stroke:#073642;stroke-width:2.99979997;stroke-linecap:butt;stroke-linejoin:round;stroke-miterlimit:10;stroke-dasharray:none;stroke-opacity:1"
           d="m 299.8,289.8 c -1,-1.6 -2.2,-3.2 -3.5,-4.8" />
      </g>
      <g
         id="g872">
        <path
           inkscape:connector-curvature="0"
           id="path874"
           style="fill:none;stroke:#073642;stroke-width:2.99979997;stroke-linecap:butt;stroke-linejoin:round;stroke-miterlimit:10;stroke-dasharray:none;stroke-opacity:1"
           d="m 292.3,280.7 c -1.4,-1.3 -2.9,-2.6 -4.4,-3.9" />
      </g>
      <g
         id="g876">
        <path
           inkscape:connector-curvature="0"
           id="path878"
           style="fill:none;stroke:#073642;stroke-width:2.99979997;stroke-linecap:butt;stroke-linejoin:round;stroke-miterlimit:10;stroke-dasharray:none;stroke-opacity:1"
           d="m 283,273.3 c -1.6,-1 -3.2,-2.1 -5,-3" />
      </g>
      <g
         id="g880">
        <path
           inkscape:connector-curvature="0"
           id="path882"
           style="fill:none;stroke:#073642;stroke-width:2.99979997;stroke-linecap:butt;stroke-linejoin:round;stroke-miterlimit:10;stroke-dasharray:none;stroke-opacity:1"
           d="m 272.7,267.6 c -1.7,-0.8 -3.6,-1.6 -5.4,-2.3" />
      </g>
      <g
         id="g884">
        <path
           inkscape:connector-curvature="0"
           id="path886"
           style="fill:none;stroke:#073642;stroke-width:2.99979997;stroke-linecap:butt;stroke-linejoin:round;stroke-miterlimit:10;stroke-dasharray:none;stroke-opacity:1"
           d="m 261.7,263.3 c -1.9,-0.6 -3.7,-1.1 -5.7,-1.6" />
      </g>
      <g
         id="g888">
        <path
           inkscape:connector-curvature="0"
           id="path890"
           style="fill:none;stroke:#073642;stroke-width:2.99979997;stroke-linecap:butt;stroke-linejoin:round;stroke-miterlimit:10;stroke-dasharray:none;stroke-opacity:1"
           d="m 250.2,260.4 c -1.9,-0.4 -3.8,-0.7 -5.8,-1" />
      </g>
      <g
         id="g892">
        <path
           inkscape:connector-curvature="0"
           id="path894"
           style="fill:none;stroke:#073642;stroke-width:2.99979997;stroke-linecap:butt;stroke-linejoin:round;stroke-miterlimit:10;stroke-dasharray:none;stroke-opacity:1"
           d="m 238.5,258.7 c -1.9,-0.2 -3.9,-0.4 -5.9,-0.5" />
      </g>
      <g
         id="g896">
        <path
           inkscape:connector-curvature="0"
           id="path898"
           style="fill:none;stroke:#073642;stroke-width:2.99979997;stroke-linecap:butt;stroke-linejoin:round;stroke-miterlimit:10;stroke-dasharray:none;stroke-opacity:1"
           d="m 226.6,258.1 c -0.1,0 -0.3,0 -0.5,0 -1.9,0 -3.7,0 -5.5,0.1" />
      </g>
      <g
         id="g900">
        <path
           inkscape:connector-curvature="0"
           id="path902"
           style="fill:none;stroke:#073642;stroke-width:2.99979997;stroke-linecap:butt;stroke-linejoin:round;stroke-miterlimit:10;stroke-dasharray:none;stroke-opacity:1"
           d="m 214.8,258.5 c -2.1,0.2 -4,0.4 -6,0.7" />
      </g>
      <g
         id="g904">
        <path
           inkscape:connector-curvature="0"
           id="path906"
           style="fill:none;stroke:#073642;stroke-width:2.99979997;stroke-linecap:butt;stroke-linejoin:round;stroke-miterlimit:10;stroke-dasharray:none;stroke-opacity:1"
           d="m 203,260.2 c -2,0.3 -3.9,0.8 -5.8,1.2" />
      </g>
      <g
         id="g908">
        <path
           inkscape:connector-curvature="0"
           id="path910"
           style="fill:none;stroke:#073642;stroke-width:2.99979997;stroke-linecap:butt;stroke-linejoin:round;stroke-miterlimit:10;stroke-dasharray:none;stroke-opacity:1"
           d="m 191.5,263 c -1.9,0.6 -3.8,1.2 -5.6,1.9" />
      </g>
      <g
         id="g912">
        <path
           inkscape:connector-curvature="0"
           id="path914"
           style="fill:none;stroke:#073642;stroke-width:2.99979997;stroke-linecap:butt;stroke-linejoin:round;stroke-miterlimit:10;stroke-dasharray:none;stroke-opacity:1"
           d="m 180.4,267.1 c -1.8,0.9 -3.6,1.7 -5.3,2.6" />
      </g>
      <g
         id="g916">
        <path
           inkscape:connector-curvature="0"
           id="path918"
           style="fill:none;stroke:#073642;stroke-width:2.99979997;stroke-linecap:butt;stroke-linejoin:round;stroke-miterlimit:10;stroke-dasharray:none;stroke-opacity:1"
           d="m 170,272.7 c -1.7,1.1 -3.3,2.3 -4.9,3.4" />
      </g>
      <g
         id="g920">
        <path
           inkscape:connector-curvature="0"
           id="path922"
           style="fill:none;stroke:#073642;stroke-width:2.99979997;stroke-linecap:butt;stroke-linejoin:round;stroke-miterlimit:10;stroke-dasharray:none;stroke-opacity:1"
           d="m 160.7,279.9 c -1.5,1.4 -2.9,2.8 -4.2,4.3" />
      </g>
      <g
         id="g924">
        <path
           inkscape:connector-curvature="0"
           id="path926"
           style="fill:none;stroke:#073642;stroke-width:2.99979997;stroke-linecap:butt;stroke-linejoin:round;stroke-miterlimit:10;stroke-dasharray:none;stroke-opacity:1"
           d="m 152.9,288.9 c -1.1,1.6 -2.1,3.3 -3,5.1" />
      </g>
      <g
         id="g928">
        <path
           inkscape:connector-curvature="0"
           id="path930"
           style="fill:none;stroke:#073642;stroke-width:2.99979997;stroke-linecap:butt;stroke-linejoin:round;stroke-miterlimit:10;stroke-dasharray:none;stroke-opacity:1"
           d="m 147.7,299.4 c -0.7,1.9 -1.1,3.8 -1.5,5.8" />
      </g>
      <g
         id="g932">
        <path
           inkscape:connector-curvature="0"
           id="path934"
           style="fill:none;stroke:#073642;stroke-width:2.99979997;stroke-linecap:butt;stroke-linejoin:round;stroke-miterlimit:10;stroke-dasharray:none;stroke-opacity:1"
           d="m 145.6,311.1 c 0,0.3 0,0.5 0,0.8 0,1.8 0.2,3.5 0.4,5.2" />
      </g>
      <g
         id="g936">
        <path
           inkscape:connector-curvature="0"
           id="path938"
           style="fill:none;stroke:#073642;stroke-width:2.99979997;stroke-linecap:butt;stroke-linejoin:round;stroke-miterlimit:10;stroke-dasharray:none;stroke-opacity:1"
           d="m 147.2,322.8 c 0.5,1.9 1.2,3.8 2,5.6" />
      </g>
      <g
         id="g940">
        <path
           inkscape:connector-curvature="0"
           id="path942"
           style="fill:none;stroke:#073642;stroke-width:2.99979997;stroke-linecap:butt;stroke-linejoin:round;stroke-miterlimit:10;stroke-dasharray:none;stroke-opacity:1"
           d="m 152,333.6 c 1,1.6 2.2,3.2 3.5,4.8" />
      </g>
      <g
         id="g944">
        <path
           inkscape:connector-curvature="0"
           id="path946"
           style="fill:none;stroke:#073642;stroke-width:2.99979997;stroke-linecap:butt;stroke-linejoin:round;stroke-miterlimit:10;stroke-dasharray:none;stroke-opacity:1"
           d="m 159.4,342.8 c 1.4,1.3 2.9,2.6 4.4,3.9" />
      </g>
      <g
         id="g948">
        <path
           inkscape:connector-curvature="0"
           id="path950"
           style="fill:none;stroke:#073642;stroke-width:2.99979997;stroke-linecap:butt;stroke-linejoin:round;stroke-miterlimit:10;stroke-dasharray:none;stroke-opacity:1"
           d="m 168.7,350.2 c 1.5,1.1 3.2,2.1 5,3.1" />
      </g>
      <g
         id="g952">
        <path
           inkscape:connector-curvature="0"
           id="path954"
           style="fill:none;stroke:#073642;stroke-width:2.99979997;stroke-linecap:butt;stroke-linejoin:round;stroke-miterlimit:10;stroke-dasharray:none;stroke-opacity:1"
           d="m 179,356.1 c 1.7,0.8 3.5,1.5 5.3,2.3" />
      </g>
      <g
         id="g956">
        <path
           inkscape:connector-curvature="0"
           id="path958"
           style="fill:none;stroke:#073642;stroke-width:2.99979997;stroke-linecap:butt;stroke-linejoin:round;stroke-miterlimit:10;stroke-dasharray:none;stroke-opacity:1"
           d="m 190,360.4 c 1.8,0.6 3.7,1.1 5.6,1.6" />
      </g>
      <g
         id="g960">
        <path
           inkscape:connector-curvature="0"
           id="path962"
           style="fill:none;stroke:#073642;stroke-width:2.99979997;stroke-linecap:butt;stroke-linejoin:round;stroke-miterlimit:10;stroke-dasharray:none;stroke-opacity:1"
           d="m 201.4,363.4 c 1.9,0.4 3.9,0.7 5.8,1" />
      </g>
      <g
         id="g964">
        <path
           inkscape:connector-curvature="0"
           id="path966"
           style="fill:none;stroke:#073642;stroke-width:2.99979997;stroke-linecap:butt;stroke-linejoin:round;stroke-miterlimit:10;stroke-dasharray:none;stroke-opacity:1"
           d="m 213.1,365.1 c 2,0.2 3.9,0.4 5.9,0.5" />
      </g>
      <g
         id="g968">
        <path
           inkscape:connector-curvature="0"
           id="path970"
           style="fill:none;stroke:#d33682;stroke-width:2.99979997;stroke-linecap:butt;stroke-linejoin:round;stroke-miterlimit:10;stroke-dasharray:none;stroke-opacity:1"
           d="M 213.2,304.9 212,304.1" />
      </g>
      <g
         id="g972">
        <path
           inkscape:connector-curvature="0"
           id="path974"
           style="fill:none;stroke:#d33682;stroke-width:2.99979997;stroke-linecap:butt;stroke-linejoin:round;stroke-miterlimit:10;stroke-dasharray:none;stroke-opacity:1"
           d="m 210.8,303.3 -1.3,-0.8" />
      </g>
      <g
         id="g976">
        <path
           inkscape:connector-curvature="0"
           id="path978"
           style="fill:none;stroke:#d33682;stroke-width:2.99979997;stroke-linecap:butt;stroke-linejoin:round;stroke-miterlimit:10;stroke-dasharray:none;stroke-opacity:1"
           d="m 208.3,301.7 -0.9,-0.6" />
      </g>
      <path
         inkscape:connector-curvature="0"
         id="path980"
         style="fill:#d33682;fill-opacity:1;fill-rule:evenodd;stroke:none"
         d="m 207.9,301.5 c 0.6,-0.8 0.8,-1.6 0.9,-2.5 0,-1 -0.2,-1.8 -0.6,-2.6 -0.4,-0.8 -1,-1.4 -1.8,-1.9 -0.7,-0.6 -1.5,-0.8 -2.4,-0.8 -1,-0.1 -1.8,0.1 -2.6,0.5 -0.8,0.4 -1.5,1 -2,1.8 -0.5,0.8 -0.7,1.5 -0.8,2.5 0,0.9 0.1,1.7 0.6,2.5 0.4,0.9 1,1.5 1.7,2 0.8,0.5 1.6,0.7 2.5,0.8 1,0 1.8,-0.1 2.6,-0.6 0.8,-0.4 1.4,-0.9 1.9,-1.7 z m -0.5,-0.4 c 0.4,-0.7 0.6,-1.3 0.7,-2.2 0,-0.8 -0.1,-1.5 -0.5,-2.2 -0.4,-0.7 -0.8,-1.2 -1.5,-1.7 -0.7,-0.4 -1.4,-0.6 -2.2,-0.7 -0.8,0 -1.5,0.1 -2.2,0.5 -0.7,0.4 -1.3,0.9 -1.7,1.5 -0.4,0.7 -0.7,1.4 -0.7,2.2 -0.1,0.8 0.1,1.5 0.5,2.2 0.4,0.7 0.8,1.3 1.5,1.7 0.7,0.5 1.3,0.7 2.2,0.7 0.8,0.1 1.5,-0.1 2.2,-0.5 0.7,-0.3 1.3,-0.8 1.7,-1.5 z" />
      <g
         id="g982">
        <path
           inkscape:connector-curvature="0"
           id="path984"
           style="fill:none;stroke:#d33682;stroke-width:2.99979997;stroke-linecap:butt;stroke-linejoin:round;stroke-miterlimit:10;stroke-dasharray:none;stroke-opacity:1"
           d="m 199.4,296 -1.2,-0.8" />
      </g>
      <g
         id="g986">
        <path
           inkscape:connector-curvature="0"
           id="path988"
           style="fill:none;stroke:#d33682;stroke-width:2.99979997;stroke-linecap:butt;stroke-linejoin:round;stroke-miterlimit:10;stroke-dasharray:none;stroke-opacity:1"
           d="m 197,294.4 -1.2,-0.8" />
      </g>
      <g
         id="g990">
        <path
           inkscape:connector-curvature="0"
           id="path992"
           style="fill:none;stroke:#d33682;stroke-width:2.99979997;stroke-linecap:butt;stroke-linejoin:round;stroke-miterlimit:10;stroke-dasharray:none;stroke-opacity:1"
           d="m 194.6,292.8 -1,-0.6" />
      </g>
      <path
         inkscape:connector-curvature="0"
         id="path994"
         style="fill:#d33682;fill-opacity:1;fill-rule:evenodd;stroke:none"
         d="m 194.2,292.6 c 0.5,-0.8 0.7,-1.6 0.8,-2.5 0.1,-0.9 -0.1,-1.8 -0.5,-2.6 -0.5,-0.8 -1,-1.4 -1.8,-1.9 -0.8,-0.6 -1.6,-0.8 -2.5,-0.8 -0.9,-0.1 -1.8,0.1 -2.6,0.5 -0.8,0.4 -1.4,1 -1.9,1.8 -0.5,0.8 -0.8,1.5 -0.8,2.5 -0.1,0.9 0.1,1.7 0.5,2.5 0.4,0.9 1,1.5 1.8,2 0.8,0.5 1.5,0.8 2.5,0.8 0.9,0 1.7,-0.1 2.5,-0.6 0.9,-0.4 1.5,-0.9 2,-1.7 z m -0.6,-0.4 c 0.5,-0.7 0.7,-1.3 0.7,-2.1 0.1,-0.9 -0.1,-1.6 -0.5,-2.3 -0.3,-0.7 -0.8,-1.2 -1.5,-1.7 -0.6,-0.4 -1.3,-0.6 -2.2,-0.7 -0.7,0 -1.5,0.2 -2.2,0.5 -0.7,0.4 -1.2,0.8 -1.7,1.5 -0.4,0.7 -0.6,1.4 -0.7,2.2 0,0.8 0.1,1.5 0.5,2.2 0.4,0.8 0.9,1.3 1.5,1.7 0.7,0.4 1.4,0.7 2.2,0.7 0.8,0.1 1.5,-0.1 2.2,-0.4 0.7,-0.4 1.3,-0.9 1.7,-1.6 z" />
      <g
         id="g996">
        <path
           inkscape:connector-curvature="0"
           id="path998"
           style="fill:none;stroke:#d33682;stroke-width:2.99979997;stroke-linecap:butt;stroke-linejoin:round;stroke-miterlimit:10;stroke-dasharray:none;stroke-opacity:1"
           d="m 185.7,287.1 -1.2,-0.8" />
      </g>
      <g
         id="g1000">
        <path
           inkscape:connector-curvature="0"
           id="path1002"
           style="fill:none;stroke:#d33682;stroke-width:2.99979997;stroke-linecap:butt;stroke-linejoin:round;stroke-miterlimit:10;stroke-dasharray:none;stroke-opacity:1"
           d="M 183.2,285.5 182,284.7" />
      </g>
      <g
         id="g1004">
        <path
           inkscape:connector-curvature="0"
           id="path1006"
           style="fill:none;stroke:#d33682;stroke-width:2.99979997;stroke-linecap:butt;stroke-linejoin:round;stroke-miterlimit:10;stroke-dasharray:none;stroke-opacity:1"
           d="m 180.8,283.9 -0.9,-0.6" />
      </g>
      <path
         inkscape:connector-curvature="0"
         id="path1008"
         style="fill:#d33682;fill-opacity:1;fill-rule:evenodd;stroke:none"
         d="m 180.5,283.7 c 0.5,-0.8 0.7,-1.6 0.7,-2.5 0.1,-0.9 -0.1,-1.8 -0.5,-2.6 -0.4,-0.8 -1,-1.4 -1.7,-1.9 -0.8,-0.6 -1.6,-0.8 -2.5,-0.8 -1,-0.1 -1.8,0.1 -2.6,0.5 -0.8,0.4 -1.5,1 -2,1.8 -0.5,0.8 -0.7,1.5 -0.8,2.5 0,0.9 0.1,1.7 0.6,2.5 0.4,0.9 1,1.5 1.7,2 0.8,0.5 1.6,0.8 2.5,0.8 1,0 1.8,-0.1 2.6,-0.6 0.8,-0.4 1.4,-0.9 2,-1.7 z m -0.6,-0.4 c 0.4,-0.7 0.6,-1.3 0.7,-2.2 0,-0.8 -0.1,-1.5 -0.5,-2.2 -0.4,-0.7 -0.8,-1.2 -1.5,-1.7 -0.7,-0.4 -1.4,-0.6 -2.2,-0.7 -0.8,0 -1.5,0.1 -2.2,0.5 -0.7,0.4 -1.3,0.8 -1.7,1.5 -0.4,0.7 -0.7,1.4 -0.7,2.2 0,0.8 0.1,1.5 0.5,2.2 0.3,0.8 0.8,1.3 1.5,1.7 0.7,0.4 1.4,0.7 2.2,0.7 0.8,0.1 1.5,-0.1 2.2,-0.4 0.7,-0.4 1.2,-0.9 1.7,-1.6 z" />
      <g
         id="g1010">
        <path
           inkscape:connector-curvature="0"
           id="path1012"
           style="fill:none;stroke:#859900;stroke-width:2.99979997;stroke-linecap:butt;stroke-linejoin:round;stroke-miterlimit:10;stroke-dasharray:none;stroke-opacity:1"
           d="m 239,320.4 1.2,0.8" />
      </g>
      <g
         id="g1014">
        <path
           inkscape:connector-curvature="0"
           id="path1016"
           style="fill:none;stroke:#859900;stroke-width:2.99979997;stroke-linecap:butt;stroke-linejoin:round;stroke-miterlimit:10;stroke-dasharray:none;stroke-opacity:1"
           d="m 241.5,322 1.2,0.8" />
      </g>
      <g
         id="g1018">
        <path
           inkscape:connector-curvature="0"
           id="path1020"
           style="fill:none;stroke:#859900;stroke-width:2.99979997;stroke-linecap:butt;stroke-linejoin:round;stroke-miterlimit:10;stroke-dasharray:none;stroke-opacity:1"
           d="m 243.9,323.6 0.9,0.6" />
      </g>
      <path
         inkscape:connector-curvature="0"
         id="path1022"
         style="fill:#859900;fill-opacity:1;fill-rule:evenodd;stroke:none"
         d="m 243.8,324.6 -0.2,1 -0.2,1 0.2,1 0.3,1 0.5,0.9 0.6,0.7 0.8,0.6 0.8,0.4 0.9,0.3 1,0.1 1.1,-0.1 1,-0.3 0.8,-0.5 0.8,-0.6 0.6,-0.8 0.4,-0.8 0.3,-1 0.1,-1 -0.1,-1 -0.3,-1 -0.5,-0.9 -0.7,-0.7 -0.7,-0.6 -0.9,-0.4 -0.9,-0.3 -1,-0.1 -1.1,0.1 -1,0.3 -0.8,0.5 -0.7,0.7 -0.6,0.7 -0.5,0.8 z" />
      <g
         id="g1024">
        <path
           inkscape:connector-curvature="0"
           id="path1026"
           style="fill:none;stroke:#859900;stroke-width:2.99979997;stroke-linecap:butt;stroke-linejoin:round;stroke-miterlimit:10;stroke-dasharray:none;stroke-opacity:1"
           d="m 260.8,348.8 0.8,-1.2" />
      </g>
      <g
         id="g1028">
        <path
           inkscape:connector-curvature="0"
           id="path1030"
           style="fill:none;stroke:#859900;stroke-width:2.99979997;stroke-linecap:butt;stroke-linejoin:round;stroke-miterlimit:10;stroke-dasharray:none;stroke-opacity:1"
           d="m 262.3,346.3 0.8,-1.2" />
      </g>
      <g
         id="g1032">
        <path
           inkscape:connector-curvature="0"
           id="path1034"
           style="fill:none;stroke:#859900;stroke-width:2.99979997;stroke-linecap:butt;stroke-linejoin:round;stroke-miterlimit:10;stroke-dasharray:none;stroke-opacity:1"
           d="m 263.8,343.9 0.8,-1.3" />
      </g>
      <g
         id="g1036">
        <path
           inkscape:connector-curvature="0"
           id="path1038"
           style="fill:none;stroke:#859900;stroke-width:2.99979997;stroke-linecap:butt;stroke-linejoin:round;stroke-miterlimit:10;stroke-dasharray:none;stroke-opacity:1"
           d="m 265.4,341.4 0.7,-1.2" />
      </g>
      <g
         id="g1040">
        <path
           inkscape:connector-curvature="0"
           id="path1042"
           style="fill:none;stroke:#859900;stroke-width:2.99979997;stroke-linecap:butt;stroke-linejoin:round;stroke-miterlimit:10;stroke-dasharray:none;stroke-opacity:1"
           d="m 266.9,339 0.8,-1.3" />
      </g>
      <g
         id="g1044">
        <path
           inkscape:connector-curvature="0"
           id="path1046"
           style="fill:none;stroke:#859900;stroke-width:2.99979997;stroke-linecap:butt;stroke-linejoin:round;stroke-miterlimit:10;stroke-dasharray:none;stroke-opacity:1"
           d="m 268.4,336.5 0.8,-1.2" />
      </g>
      <path
         inkscape:connector-curvature="0"
         id="path1048"
         style="fill:#859900;fill-opacity:1;fill-rule:evenodd;stroke:none"
         d="m 270.4,335.1 0.9,0.3 1.1,0 1,-0.1 1,-0.3 0.9,-0.5 0.7,-0.7 0.6,-0.7 0.4,-0.9 0.3,-0.9 0,-1 -0.1,-1.1 -0.3,-0.9 -0.6,-0.9 -0.6,-0.7 -0.8,-0.6 -0.8,-0.4 -0.9,-0.3 -1,-0.1 -1.1,0.1 -0.9,0.4 -0.9,0.5 -0.7,0.7 -0.6,0.7 -0.4,0.9 -0.3,0.9 -0.1,1 0.1,1 0.4,1 0.5,0.9 0.7,0.7 0.7,0.6 0.8,0.4 z" />
      <g
         id="g1050">
        <path
           inkscape:connector-curvature="0"
           id="path1052"
           style="fill:none;stroke:#859900;stroke-width:2.99979997;stroke-linecap:butt;stroke-linejoin:round;stroke-miterlimit:10;stroke-dasharray:none;stroke-opacity:1"
           d="m 251.4,328.4 0.7,1.3" />
      </g>
      <g
         id="g1054">
        <path
           inkscape:connector-curvature="0"
           id="path1056"
           style="fill:none;stroke:#859900;stroke-width:2.99979997;stroke-linecap:butt;stroke-linejoin:round;stroke-miterlimit:10;stroke-dasharray:none;stroke-opacity:1"
           d="m 252.8,331 0.6,1.3" />
      </g>
      <g
         id="g1058">
        <path
           inkscape:connector-curvature="0"
           id="path1060"
           style="fill:none;stroke:#859900;stroke-width:2.99979997;stroke-linecap:butt;stroke-linejoin:round;stroke-miterlimit:10;stroke-dasharray:none;stroke-opacity:1"
           d="m 254.1,333.6 0.7,1.3" />
      </g>
      <g
         id="g1062">
        <path
           inkscape:connector-curvature="0"
           id="path1064"
           style="fill:none;stroke:#859900;stroke-width:2.99979997;stroke-linecap:butt;stroke-linejoin:round;stroke-miterlimit:10;stroke-dasharray:none;stroke-opacity:1"
           d="m 255.5,336.1 0.6,1.3" />
      </g>
      <g
         id="g1066">
        <path
           inkscape:connector-curvature="0"
           id="path1068"
           style="fill:none;stroke:#859900;stroke-width:2.99979997;stroke-linecap:butt;stroke-linejoin:round;stroke-miterlimit:10;stroke-dasharray:none;stroke-opacity:1"
           d="m 256.8,338.7 0.7,1.3" />
      </g>
      <g
         id="g1070">
        <path
           inkscape:connector-curvature="0"
           id="path1072"
           style="fill:none;stroke:#859900;stroke-width:2.99979997;stroke-linecap:butt;stroke-linejoin:round;stroke-miterlimit:10;stroke-dasharray:none;stroke-opacity:1"
           d="m 258.2,341.2 0.6,1.3" />
      </g>
      <path
         inkscape:connector-curvature="0"
         id="path1074"
         style="fill:#859900;fill-opacity:1;fill-rule:evenodd;stroke:none"
         d="m 258.1,343.2 -0.7,0.6 -0.6,0.9 -0.4,0.9 -0.2,1 0.1,1.1 0.2,0.9 0.3,0.9 0.5,0.7 0.7,0.8 0.8,0.6 0.9,0.4 1.1,0.1 1,0 1,-0.1 0.9,-0.4 0.7,-0.5 0.7,-0.7 0.6,-0.8 0.4,-1 0.2,-1 0,-1 -0.2,-1 -0.4,-0.8 -0.5,-0.8 -0.6,-0.7 -0.9,-0.6 -0.9,-0.4 -1.1,-0.2 -1,0 -0.9,0.2 -0.9,0.3 -0.8,0.6 z" />
      <g
         id="g1076">
        <path
           inkscape:connector-curvature="0"
           id="path1078"
           style="fill:none;stroke:#dc322f;stroke-width:2.99979997;stroke-linecap:butt;stroke-linejoin:round;stroke-miterlimit:10;stroke-dasharray:none;stroke-opacity:1"
           d="m 210.3,311.2 -6.3,0" />
      </g>
      <path
         inkscape:connector-curvature="0"
         id="path1080"
         style="fill:#dc322f;fill-opacity:1;fill-rule:evenodd;stroke:none"
         d="m 204.7,311.2 c 0,-0.9 -0.3,-1.7 -0.7,-2.5 -0.5,-0.8 -1.1,-1.4 -1.9,-1.9 -0.8,-0.5 -1.6,-0.7 -2.5,-0.7 -0.9,0 -1.7,0.2 -2.6,0.7 -0.8,0.5 -1.4,1.1 -1.8,1.9 -0.5,0.8 -0.7,1.6 -0.7,2.5 0,0.9 0.2,1.7 0.7,2.5 0.4,0.9 1,1.4 1.8,1.9 0.9,0.5 1.7,0.7 2.6,0.7 0.9,0 1.7,-0.2 2.5,-0.7 0.8,-0.5 1.4,-1 1.9,-1.9 0.4,-0.8 0.7,-1.6 0.7,-2.5 z m -0.7,0 c 0,-0.8 -0.2,-1.5 -0.6,-2.2 -0.4,-0.7 -0.9,-1.2 -1.6,-1.6 -0.7,-0.4 -1.4,-0.6 -2.2,-0.6 -0.8,0 -1.5,0.2 -2.2,0.6 -0.7,0.4 -1.2,0.9 -1.6,1.6 -0.4,0.7 -0.6,1.4 -0.6,2.2 0,0.8 0.2,1.5 0.6,2.2 0.4,0.7 0.9,1.2 1.6,1.6 0.7,0.4 1.4,0.6 2.2,0.6 0.8,0 1.5,-0.2 2.2,-0.6 0.7,-0.4 1.2,-0.9 1.6,-1.6 0.4,-0.7 0.6,-1.4 0.6,-2.2 z" />
      <g
         id="g1082">
        <path
           inkscape:connector-curvature="0"
           id="path1084"
           style="fill:none;stroke:#dc322f;stroke-width:2.99979997;stroke-linecap:butt;stroke-linejoin:round;stroke-miterlimit:10;stroke-dasharray:none;stroke-opacity:1"
           d="m 194.7,311.2 -6.3,0" />
      </g>
      <path
         inkscape:connector-curvature="0"
         id="path1086"
         style="fill:#dc322f;fill-opacity:1;fill-rule:evenodd;stroke:none"
         d="m 189,311.2 c 0,-0.9 -0.2,-1.7 -0.7,-2.5 -0.4,-0.8 -1,-1.4 -1.8,-1.9 -0.8,-0.5 -1.6,-0.7 -2.6,-0.7 -0.9,0 -1.7,0.2 -2.5,0.7 -0.8,0.5 -1.4,1.1 -1.9,1.9 -0.4,0.8 -0.6,1.6 -0.6,2.5 0,0.9 0.2,1.7 0.6,2.5 0.5,0.9 1.1,1.4 1.9,1.9 0.8,0.5 1.6,0.7 2.5,0.7 1,0 1.8,-0.2 2.6,-0.7 0.8,-0.5 1.4,-1 1.8,-1.9 0.5,-0.8 0.7,-1.6 0.7,-2.5 z m -0.6,0 c 0,-0.8 -0.2,-1.5 -0.6,-2.2 -0.4,-0.7 -0.9,-1.2 -1.6,-1.6 -0.8,-0.4 -1.4,-0.6 -2.3,-0.6 -0.8,0 -1.4,0.2 -2.1,0.6 -0.8,0.4 -1.3,0.9 -1.7,1.6 -0.4,0.7 -0.6,1.4 -0.6,2.2 0,0.8 0.2,1.5 0.6,2.2 0.4,0.7 0.9,1.2 1.7,1.6 0.7,0.4 1.3,0.6 2.1,0.6 0.9,0 1.5,-0.2 2.3,-0.6 0.7,-0.4 1.1,-0.9 1.6,-1.6 0.4,-0.7 0.6,-1.4 0.6,-2.2 z" />
      <g
         id="g1088">
        <path
           inkscape:connector-curvature="0"
           id="path1090"
           style="fill:none;stroke:#dc322f;stroke-width:2.99979997;stroke-linecap:butt;stroke-linejoin:round;stroke-miterlimit:10;stroke-dasharray:none;stroke-opacity:1"
           d="m 179,311.2 -6.3,0" />
      </g>
      <path
         inkscape:connector-curvature="0"
         id="path1092"
         style="fill:#dc322f;fill-opacity:1;fill-rule:evenodd;stroke:none"
         d="m 173.4,311.2 c 0,-0.9 -0.2,-1.7 -0.7,-2.5 -0.4,-0.8 -1,-1.4 -1.8,-1.9 -0.8,-0.5 -1.6,-0.7 -2.6,-0.7 -0.9,0 -1.7,0.2 -2.5,0.7 -0.8,0.5 -1.4,1.1 -1.9,1.9 -0.4,0.8 -0.7,1.6 -0.7,2.5 0,0.9 0.3,1.7 0.7,2.5 0.5,0.9 1.1,1.4 1.9,1.9 0.8,0.5 1.6,0.7 2.5,0.7 1,0 1.8,-0.2 2.6,-0.7 0.8,-0.5 1.4,-1 1.8,-1.9 0.5,-0.8 0.7,-1.6 0.7,-2.5 z m -0.7,0 c 0,-0.8 -0.2,-1.5 -0.6,-2.2 -0.4,-0.7 -0.9,-1.2 -1.6,-1.6 -0.7,-0.4 -1.4,-0.6 -2.2,-0.6 -0.8,0 -1.5,0.2 -2.2,0.6 -0.7,0.4 -1.2,0.9 -1.6,1.6 -0.4,0.7 -0.6,1.4 -0.6,2.2 0,0.8 0.2,1.5 0.6,2.2 0.4,0.7 0.9,1.2 1.6,1.6 0.7,0.4 1.4,0.6 2.2,0.6 0.8,0 1.5,-0.2 2.2,-0.6 0.7,-0.4 1.2,-0.9 1.6,-1.6 0.4,-0.7 0.6,-1.4 0.6,-2.2 z" />
      <g
         id="g1094">
        <path
           inkscape:connector-curvature="0"
           id="path1096"
           style="fill:none;stroke:#dc322f;stroke-width:2.99979997;stroke-linecap:butt;stroke-linejoin:round;stroke-miterlimit:10;stroke-dasharray:none;stroke-opacity:1"
           d="m 163.4,311.2 -6.3,0" />
      </g>
      <path
         inkscape:connector-curvature="0"
         id="path1098"
         style="fill:#dc322f;fill-opacity:1;fill-rule:evenodd;stroke:none"
         d="m 157.8,311.2 c 0,-0.9 -0.3,-1.7 -0.7,-2.5 -0.5,-0.8 -1.1,-1.4 -1.9,-1.9 -0.8,-0.5 -1.6,-0.7 -2.5,-0.7 -0.9,0 -1.7,0.2 -2.5,0.7 -0.8,0.5 -1.4,1.1 -1.9,1.9 -0.5,0.8 -0.7,1.6 -0.7,2.5 0,0.9 0.2,1.7 0.7,2.5 0.5,0.9 1.1,1.4 1.9,1.9 0.8,0.5 1.6,0.7 2.5,0.7 0.9,0 1.7,-0.2 2.5,-0.7 0.8,-0.5 1.4,-1 1.9,-1.9 0.4,-0.8 0.7,-1.6 0.7,-2.5 z m -0.7,0 c 0,-0.8 -0.2,-1.5 -0.6,-2.2 -0.4,-0.7 -0.9,-1.2 -1.6,-1.6 -0.7,-0.4 -1.4,-0.6 -2.2,-0.6 -0.8,0 -1.5,0.2 -2.2,0.6 -0.7,0.4 -1.2,0.9 -1.6,1.6 -0.4,0.7 -0.6,1.4 -0.6,2.2 0,0.8 0.2,1.5 0.6,2.2 0.4,0.7 0.9,1.2 1.6,1.6 0.7,0.4 1.4,0.6 2.2,0.6 0.8,0 1.5,-0.2 2.2,-0.6 0.7,-0.4 1.2,-0.9 1.6,-1.6 0.4,-0.7 0.6,-1.4 0.6,-2.2 z" />
      <g
         id="g1100">
        <path
           inkscape:connector-curvature="0"
           id="path1102"
           style="fill:none;stroke:#2aa198;stroke-width:2.99979997;stroke-linecap:butt;stroke-linejoin:round;stroke-miterlimit:10;stroke-dasharray:none;stroke-opacity:1"
           d="m 240.5,311.2 6.3,0" />
      </g>
      <path
         inkscape:connector-curvature="0"
         id="path1104"
         style="fill:#2aa198;fill-opacity:1;fill-rule:evenodd;stroke:none"
         d="m 246.2,312.1 0.3,1 0.5,0.9 0.6,0.8 0.8,0.6 0.9,0.5 1,0.3 0.9,0.1 0.9,-0.1 1,-0.3 0.9,-0.5 0.8,-0.6 0.6,-0.8 0.5,-0.9 0.3,-1 0.1,-0.9 -0.1,-0.9 -0.3,-1 -0.5,-0.9 -0.6,-0.8 -0.8,-0.6 -0.9,-0.5 -1,-0.2 -0.9,-0.2 -0.9,0.2 -1,0.2 -0.9,0.5 -0.8,0.6 -0.6,0.8 -0.5,0.9 -0.3,1 -0.1,0.9 0.1,0.9 z" />
      <g
         id="g1106">
        <path
           inkscape:connector-curvature="0"
           id="path1108"
           style="fill:none;stroke:#2aa198;stroke-width:2.99979997;stroke-linecap:butt;stroke-linejoin:round;stroke-miterlimit:10;stroke-dasharray:none;stroke-opacity:1"
           d="m 256.1,311.2 6.3,0" />
      </g>
      <path
         inkscape:connector-curvature="0"
         id="path1110"
         style="fill:#2aa198;fill-opacity:1;fill-rule:evenodd;stroke:none"
         d="m 261.9,312.1 0.2,1 0.5,0.9 0.6,0.8 0.8,0.6 1,0.5 0.9,0.3 0.9,0.1 0.9,-0.1 1,-0.3 0.9,-0.5 0.8,-0.6 0.6,-0.8 0.5,-0.9 0.3,-1 0.1,-0.9 -0.1,-0.9 -0.3,-1 -0.5,-0.9 -0.6,-0.8 -0.8,-0.6 -0.9,-0.5 -1,-0.2 -0.9,-0.2 -0.9,0.2 -0.9,0.2 -1,0.5 -0.8,0.6 -0.6,0.8 -0.5,0.9 -0.2,1 -0.1,0.9 0.1,0.9 z" />
      <g
         id="g1112">
        <path
           inkscape:connector-curvature="0"
           id="path1114"
           style="fill:none;stroke:#2aa198;stroke-width:2.99979997;stroke-linecap:butt;stroke-linejoin:round;stroke-miterlimit:10;stroke-dasharray:none;stroke-opacity:1"
           d="m 271.7,311.2 6.4,0" />
      </g>
      <path
         inkscape:connector-curvature="0"
         id="path1116"
         style="fill:#2aa198;fill-opacity:1;fill-rule:evenodd;stroke:none"
         d="m 277.5,312.1 0.2,1 0.5,0.9 0.6,0.8 0.9,0.6 0.9,0.5 0.9,0.3 0.9,0.1 1,-0.1 0.9,-0.3 0.9,-0.5 0.8,-0.6 0.7,-0.8 0.4,-0.9 0.3,-1 0.1,-0.9 -0.1,-0.9 -0.3,-1 -0.4,-0.9 -0.7,-0.8 -0.8,-0.6 -0.9,-0.5 -0.9,-0.2 -1,-0.2 -0.9,0.2 -0.9,0.2 -0.9,0.5 -0.9,0.6 -0.6,0.8 -0.5,0.9 -0.2,1 -0.1,0.9 0.1,0.9 z" />
      <g
         id="g1118">
        <path
           inkscape:connector-curvature="0"
           id="path1120"
           style="fill:none;stroke:#2aa198;stroke-width:2.99979997;stroke-linecap:butt;stroke-linejoin:round;stroke-miterlimit:10;stroke-dasharray:none;stroke-opacity:1"
           d="m 287.3,311.2 6.4,0" />
      </g>
      <path
         inkscape:connector-curvature="0"
         id="path1122"
         style="fill:#2aa198;fill-opacity:1;fill-rule:evenodd;stroke:none"
         d="m 293.1,312.1 0.3,1 0.4,0.9 0.7,0.8 0.8,0.6 0.9,0.5 0.9,0.3 1,0.1 0.9,-0.1 0.9,-0.3 1,-0.5 0.8,-0.6 0.6,-0.8 0.4,-0.9 0.4,-1 0,-0.9 0,-0.9 -0.4,-1 -0.4,-0.9 -0.6,-0.8 -0.8,-0.6 -1,-0.5 -0.9,-0.2 -0.9,-0.2 -1,0.2 -0.9,0.2 -0.9,0.5 -0.8,0.6 -0.7,0.8 -0.4,0.9 -0.3,1 -0.1,0.9 0.1,0.9 z" />
      <g
         id="g1124">
        <path
           inkscape:connector-curvature="0"
           id="path1126"
           style="fill:none;stroke:#cb4b16;stroke-width:2.99979997;stroke-linecap:butt;stroke-linejoin:round;stroke-miterlimit:10;stroke-dasharray:none;stroke-opacity:1"
           d="m 212.8,319.8 -5.8,3.8" />
      </g>
      <path
         inkscape:connector-curvature="0"
         id="path1128"
         style="fill:#cb4b16;fill-opacity:1;fill-rule:evenodd;stroke:none"
         d="m 196.3,324.5 5.5,8.5 8.5,-5.5 -5.5,-8.5 -8.5,5.5 z m 0.9,0.1 4.8,7.4 7.4,-4.7 -4.8,-7.4 -7.4,4.7 z" />
      <g
         id="g1130">
        <path
           inkscape:connector-curvature="0"
           id="path1132"
           style="fill:none;stroke:#cb4b16;stroke-width:2.99979997;stroke-linecap:butt;stroke-linejoin:round;stroke-miterlimit:10;stroke-dasharray:none;stroke-opacity:1"
           d="m 199,328.7 -5.8,3.8" />
      </g>
      <path
         inkscape:connector-curvature="0"
         id="path1134"
         style="fill:#cb4b16;fill-opacity:1;fill-rule:evenodd;stroke:none"
         d="m 182.5,333.4 5.5,8.5 8.6,-5.5 -5.6,-8.5 -8.5,5.5 z m 1,0.1 4.7,7.4 7.4,-4.7 -4.8,-7.4 -7.3,4.7 z" />
      <g
         id="g1136">
        <path
           inkscape:connector-curvature="0"
           id="path1138"
           style="fill:none;stroke:#cb4b16;stroke-width:2.99979997;stroke-linecap:butt;stroke-linejoin:round;stroke-miterlimit:10;stroke-dasharray:none;stroke-opacity:1"
           d="m 185.3,337.6 -5.8,3.8" />
      </g>
      <path
         inkscape:connector-curvature="0"
         id="path1140"
         style="fill:#cb4b16;fill-opacity:1;fill-rule:evenodd;stroke:none"
         d="m 168.8,342.3 5.5,8.5 8.5,-5.5 -5.5,-8.6 -8.5,5.6 z m 0.9,0.2 4.8,7.3 7.4,-4.7 -4.8,-7.4 -7.4,4.8 z" />
      <g
         id="g1142">
        <path
           inkscape:connector-curvature="0"
           id="path1144"
           style="fill:none;stroke:#268bd2;stroke-width:2.99979997;stroke-linecap:butt;stroke-linejoin:round;stroke-miterlimit:10;stroke-dasharray:none;stroke-opacity:1"
           d="m 239.4,303.4 5.8,-3.7" />
      </g>
      <path
         inkscape:connector-curvature="0"
         id="path1146"
         style="fill:#268bd2;fill-opacity:1;fill-rule:evenodd;stroke:none"
         d="m 255.9,298.8 -5.5,-8.5 -8.5,5.5 5.5,8.5 8.5,-5.5 z" />
      <g
         id="g1148">
        <path
           inkscape:connector-curvature="0"
           id="path1150"
           style="fill:none;stroke:#268bd2;stroke-width:2.99979997;stroke-linecap:butt;stroke-linejoin:round;stroke-miterlimit:10;stroke-dasharray:none;stroke-opacity:1"
           d="m 253.2,294.5 5.8,-3.7" />
      </g>
      <path
         inkscape:connector-curvature="0"
         id="path1152"
         style="fill:#268bd2;fill-opacity:1;fill-rule:evenodd;stroke:none"
         d="m 269.7,289.9 -5.5,-8.5 -8.5,5.5 5.5,8.5 8.5,-5.5 z" />
      <g
         id="g1154">
        <path
           inkscape:connector-curvature="0"
           id="path1156"
           style="fill:none;stroke:#268bd2;stroke-width:2.99979997;stroke-linecap:butt;stroke-linejoin:round;stroke-miterlimit:10;stroke-dasharray:none;stroke-opacity:1"
           d="m 266.9,285.6 5.8,-3.7" />
      </g>
      <path
         inkscape:connector-curvature="0"
         id="path1158"
         style="fill:#268bd2;fill-opacity:1;fill-rule:evenodd;stroke:none"
         d="m 283.4,281 -5.5,-8.5 -8.5,5.5 5.5,8.5 8.5,-5.5 z" />
    </g>
    <g
       transform="matrix(-0.07393561,0.5036452,-0.50917647,-0.07287994,430.23341,562.58365)"
       id="g4452">
      <path
         inkscape:connector-curvature="0"
         style="font-style:normal;font-variant:normal;font-weight:900;font-stretch:normal;font-size:medium;line-height:125%;font-family:and;-inkscape-font-specification:'and Heavy';letter-spacing:0px;word-spacing:0px;fill:#d33682;fill-opacity:1;stroke:none;stroke-width:1px;stroke-linecap:butt;stroke-linejoin:miter;stroke-opacity:1"
         d="m 290.75586,326.75391 c -1.18211,0 -2.35004,0.0579 -3.50586,0.1582 l 0,17.64258 c 1.14146,-0.20294 2.30973,-0.32227 3.50586,-0.32227 10.46468,0 19.40961,8.25633 20.11719,19.87891 l 19.13672,0 c -0.78597,-20.95602 -18.0897,-37.35742 -39.25391,-37.35742 z"
         id="path4354" />
      <path
         inkscape:connector-curvature="0"
         style="font-style:normal;font-variant:normal;font-weight:900;font-stretch:normal;font-size:medium;line-height:125%;font-family:and;-inkscape-font-specification:'and Heavy';letter-spacing:0px;word-spacing:0px;fill:#dc322f;fill-opacity:1;stroke:none;stroke-width:1px;stroke-linecap:butt;stroke-linejoin:miter;stroke-opacity:1"
         d="m 310.88922,364.33893 c 0.0213,0.41541 0.0352,0.83416 0.0352,1.25781 0,12.54955 -8.96496,21.36523 -20.16992,21.36524 -0.52158,0 -1.0357,-0.0248 -1.54688,-0.0625 l 0,17.5039 c 0.51392,0.0191 1.02842,0.0371 1.54688,0.0371 21.51352,0 39.29296,-16.58324 39.29296,-38.84375 0,-0.42203 -0.018,-0.83927 -0.0312,-1.25781 l -19.12695,0 z"
         id="path4356" />
      <path
         inkscape:connector-curvature="0"
         style="font-style:normal;font-variant:normal;font-weight:900;font-stretch:normal;font-size:medium;line-height:125%;font-family:and;-inkscape-font-specification:'and Heavy';letter-spacing:0px;word-spacing:0px;fill:#859900;fill-opacity:1;stroke:none;stroke-width:1px;stroke-linecap:butt;stroke-linejoin:miter;stroke-opacity:1"
         d="m 251.50044,367.08904 c 0.75288,20.86654 17.20571,36.40395 37.39453,37.30665 l 0,-17.52344 c -9.88027,-0.87865 -17.62066,-8.71972 -18.26172,-19.78321 l -19.13281,0 z"
         id="path4358" />
      <path
         inkscape:connector-curvature="0"
         id="path4327"
         d="m 289.35179,326.78636 c -20.88766,0.71993 -37.67711,17.4169 -37.87891,38.42969 l 19.1211,0 c 0.17754,-11.67513 8.45805,-20.21262 18.75781,-20.92773 l 0,-17.50196 z"
         style="font-style:normal;font-variant:normal;font-weight:900;font-stretch:normal;font-size:medium;line-height:125%;font-family:and;-inkscape-font-specification:'and Heavy';letter-spacing:0px;word-spacing:0px;fill:#2aa198;fill-opacity:1;stroke:none;stroke-width:1px;stroke-linecap:butt;stroke-linejoin:miter;stroke-opacity:1" />
      <path
         inkscape:connector-curvature="0"
         style="fill:#6c71c4;fill-opacity:1;fill-rule:evenodd;stroke:none;stroke-width:0.54912043px;stroke-linecap:butt;stroke-linejoin:miter;stroke-opacity:1"
         d="m 299.01195,346.07544 c 4.30116,1.99991 7.85044,5.52472 9.92187,10.08984 l 19.76172,19.76758 c 0.87599,-3.26617 1.35156,-6.72431 1.35156,-10.33594 0,-7.14983 -1.92927,-13.80469 -5.28125,-19.52148 l -25.7539,0 z"
         id="path4192" />
      <path
         inkscape:connector-curvature="0"
         style="fill:#d33682;fill-opacity:1;fill-rule:evenodd;stroke:none;stroke-width:0.54912043px;stroke-linecap:butt;stroke-linejoin:miter;stroke-opacity:1"
         d="m 310.26976,357.52661 0,2.51562 c 0.42567,1.75327 0.6543,3.61136 0.6543,5.55469 0,1.99834 -0.22882,3.90103 -0.65625,5.68946 l -0.006,28.15235 c 8.92041,-4.94791 15.67939,-13.25279 18.42969,-23.49024 l -18.42174,-18.42187 z"
         id="path4243" />
      <path
         inkscape:connector-curvature="0"
         style="fill:#dc322f;fill-opacity:1;fill-rule:evenodd;stroke:none;stroke-width:0.54912043px;stroke-linecap:butt;stroke-linejoin:miter;stroke-opacity:1"
         d="m 310.24828,373.69067 -1.16211,1.16211 c -2.11024,4.92214 -5.8948,8.6458 -10.59571,10.59179 l -17.75781,17.75196 c 3.20582,0.81112 6.56452,1.24414 10.02149,1.24414 7.06943,0 13.72962,-1.79976 19.49414,-4.99414 l 0,-25.75586 z"
         id="path4245" />
      <path
         inkscape:connector-curvature="0"
         style="fill:#cb4b16;fill-opacity:1;fill-rule:evenodd;stroke:none;stroke-width:0.54912043px;stroke-linecap:butt;stroke-linejoin:miter;stroke-opacity:1"
         d="m 256.61546,385.10669 c 5.1809,8.96785 13.85552,15.49561 24.125,18.09179 l 17.75977,-17.75781 c -2.38101,0.98715 -4.99558,1.51952 -7.74609,1.51952 -3.02761,0 -5.88147,-0.66077 -8.44922,-1.84764 l -25.68946,-0.006 z"
         id="path4249" />
      <path
         inkscape:connector-curvature="0"
         style="fill:#b58900;fill-opacity:1;fill-rule:evenodd;stroke:none;stroke-width:0.54912043px;stroke-linecap:butt;stroke-linejoin:miter;stroke-opacity:1"
         d="m 252.85374,355.28636 c -0.90142,3.27765 -1.39062,6.73084 -1.39062,10.31055 0,7.22782 1.8825,13.85036 5.15039,19.50781 l 25.67578,0 c -4.35396,-2.01727 -7.85959,-5.58211 -9.85937,-10.23632 l -19.57618,-19.58204 z"
         id="path4253" />
      <path
         inkscape:connector-curvature="0"
         style="fill:#859900;fill-opacity:1;fill-rule:evenodd;stroke:none;stroke-width:0.54912043px;stroke-linecap:butt;stroke-linejoin:miter;stroke-opacity:1"
         d="m 271.24632,331.84886 c -8.90416,5.01722 -15.62351,13.37662 -18.39062,23.4336 l 18.38476,18.38477 0,-2.38866 c -0.42623,-1.78614 -0.65429,-3.68622 -0.65429,-5.68165 0,-1.95943 0.22943,-3.83164 0.65625,-5.59767 l 0.004,-28.15039 z"
         id="path4257" />
      <path
         inkscape:connector-curvature="0"
         style="fill:#2aa198;fill-opacity:1;fill-rule:evenodd;stroke:none;stroke-width:0.54912043px;stroke-linecap:butt;stroke-linejoin:miter;stroke-opacity:1"
         d="m 290.75414,326.75317 c -7.10299,0 -13.7651,1.85692 -19.52149,5.10352 l 0,25.64648 1.30078,-1.29883 c 2.11937,-4.74586 5.81984,-8.38928 10.35352,-10.35156 l 17.84961,-17.8418 c -3.18887,-0.81934 -6.53434,-1.25781 -9.98242,-1.25781 z"
         id="path4261" />
      <path
         inkscape:connector-curvature="0"
         style="fill:#268bd2;fill-opacity:1;fill-rule:evenodd;stroke:none;stroke-width:0.54912043px;stroke-linecap:butt;stroke-linejoin:miter;stroke-opacity:1"
         d="m 300.74828,328.01488 -17.81641,17.81642 c 2.41123,-1.03634 5.0553,-1.59767 7.82227,-1.59767 2.92763,0 5.72808,0.66271 8.27148,1.84767 l 25.74609,0.006 c -5.18475,-8.84948 -13.79117,-15.43976 -24.02343,-18.07225 z"
         id="path4265" />
    </g>
  </g>
</svg>
