<?xml version="1.0" encoding="UTF-8" standalone="no"?>
<!-- Created with Inkscape (http://www.inkscape.org/) -->

<svg
   xmlns:dc="http://purl.org/dc/elements/1.1/"
   xmlns:cc="http://creativecommons.org/ns#"
   xmlns:rdf="http://www.w3.org/1999/02/22-rdf-syntax-ns#"
   xmlns:svg="http://www.w3.org/2000/svg"
   xmlns="http://www.w3.org/2000/svg"
   xmlns:sodipodi="http://sodipodi.sourceforge.net/DTD/sodipodi-0.dtd"
   xmlns:inkscape="http://www.inkscape.org/namespaces/inkscape"
   width="62.62767mm"
   height="72.741905mm"
   viewBox="0 0 221.90907 257.7469"
   id="svg22411"
   version="1.1"
   inkscape:version="0.91 r13725"
   sodipodi:docname="what.svg">
  <defs
     id="defs22413" />
  <sodipodi:namedview
     id="base"
     pagecolor="#ffffff"
     bordercolor="#666666"
     borderopacity="1.0"
     inkscape:pageopacity="0.0"
     inkscape:pageshadow="2"
     inkscape:zoom="0.98994949"
     inkscape:cx="-33.278658"
     inkscape:cy="-127.3195"
     inkscape:document-units="px"
     inkscape:current-layer="g13551"
     showgrid="false"
     fit-margin-top="0"
     fit-margin-left="0"
     fit-margin-right="0"
     fit-margin-bottom="0"
     inkscape:window-width="1920"
     inkscape:window-height="1054"
     inkscape:window-x="0"
     inkscape:window-y="1080"
     inkscape:window-maximized="1" />
  <metadata
     id="metadata22416">
    <rdf:RDF>
      <cc:Work
         rdf:about="">
        <dc:format>image/svg+xml</dc:format>
        <dc:type
           rdf:resource="http://purl.org/dc/dcmitype/StillImage" />
        <dc:title></dc:title>
      </cc:Work>
    </rdf:RDF>
  </metadata>
  <g
     inkscape:label="Calque 1"
     inkscape:groupmode="layer"
     id="layer1"
     transform="translate(-240.47412,-174.9173)">
    <g
       id="g13551"
       transform="matrix(0.7480736,0,0,0.74807355,-1421.0433,2052.9335)">
      <g
         id="g11736"
         transform="translate(-21.734295,-37.689195)">
        <circle
           r="128.00003"
           cy="-2344.7808"
           cx="2385.7146"
           id="path11616-3"
           style="fill:#859900;fill-opacity:1;stroke:none;stroke-width:3.5999999;stroke-linecap:round;stroke-linejoin:round;stroke-miterlimit:4;stroke-dasharray:none" />
        <path
           style="fill:#fffffc;fill-opacity:1"
           id="path4"
           d="m 2432.7807,-2330.7377 -11.9585,0 q -2.8525,0 -4.937,-2.0845 -2.0845,-2.0845 -2.0845,-4.937 l 0,-14.043 q 0,-2.8525 2.0845,-4.937 2.0845,-2.0846 4.937,-2.0846 l 11.9585,0 q -3.5107,-11.8488 -12.3425,-20.6805 -8.8318,-8.8318 -20.6806,-12.3426 l 0,11.9586 q 0,2.8525 -2.0845,4.9369 -2.0845,2.0845 -4.937,2.0845 l -14.0431,0 q -2.8525,0 -4.9369,-2.0845 -2.0845,-2.0844 -2.0845,-4.9369 l 0,-11.9586 q -11.8489,3.5108 -20.6807,12.3426 -8.8316,8.8317 -12.3424,20.6805 l 11.9585,0 q 2.8525,0 4.937,2.0846 2.0845,2.0845 2.0845,4.937 l 0,14.043 q 0,2.8525 -2.0845,4.937 -2.0845,2.0845 -4.937,2.0845 l -11.9585,0 q 3.5108,11.8488 12.3424,20.6806 8.8318,8.8317 20.6807,12.3425 l 0,-11.9585 q 0,-2.8526 2.0845,-4.9371 2.0844,-2.0844 4.9369,-2.0844 l 14.0431,0 q 2.8525,0 4.937,2.0844 2.0845,2.0845 2.0845,4.9371 l 0,11.9585 q 11.8488,-3.5108 20.6806,-12.3425 8.8318,-8.8318 12.3425,-20.6806 z m 37.1922,-21.0645 0,14.043 q 0,2.8525 -2.0845,4.937 -2.0846,2.0845 -4.9371,2.0845 l -15.6887,0 q -4.0594,17.6635 -16.9504,30.5546 -12.8911,12.8911 -30.5546,16.9505 l 0,15.6886 q 0,2.8525 -2.0845,4.937 -2.0845,2.0845 -4.937,2.0845 l -14.0431,0 q -2.8525,0 -4.9369,-2.0845 -2.0845,-2.0845 -2.0845,-4.937 l 0,-15.6886 q -17.6636,-4.0594 -30.5547,-16.9505 -12.8911,-12.8911 -16.9504,-30.5546 l -15.6887,0 q -2.8525,0 -4.9369,-2.0845 -2.0846,-2.0845 -2.0846,-4.937 l 0,-14.043 q 0,-2.8525 2.0846,-4.937 2.0844,-2.0846 4.9369,-2.0846 l 15.6887,0 q 4.0593,-17.6635 16.9504,-30.5545 12.8911,-12.8911 30.5547,-16.9505 l 0,-15.6886 q 0,-2.8526 2.0845,-4.9371 2.0844,-2.0845 4.9369,-2.0845 l 14.0431,0 q 2.8525,0 4.937,2.0845 2.0845,2.0845 2.0845,4.9371 l 0,15.6886 q 17.6635,4.0594 30.5546,16.9505 12.891,12.891 16.9504,30.5545 l 15.6887,0 q 2.8525,0 4.9371,2.0846 2.0845,2.0845 2.0845,4.937 z"
           inkscape:connector-curvature="0" />
      </g>
      <text
         sodipodi:linespacing="125%"
         id="text13465-0"
         y="-2167.2458"
         x="2220.7004"
         style="font-style:normal;font-weight:normal;font-size:53.47067642px;line-height:125%;font-family:sans-serif;letter-spacing:0px;word-spacing:0px;fill:#859900;fill-opacity:1;stroke:none;stroke-width:1px;stroke-linecap:butt;stroke-linejoin:miter;stroke-opacity:1"
         xml:space="preserve"><tspan
           style="font-style:normal;font-variant:normal;font-weight:normal;font-stretch:normal;font-size:120.309021px;font-family:AllerDisplay;-inkscape-font-specification:AllerDisplay;fill:#859900"
           y="-2167.2458"
           x="2220.7004"
           id="tspan13467-0"
           sodipodi:role="line">What</tspan></text>
    </g>
  </g>
</svg>
