<?xml version="1.0" encoding="UTF-8" standalone="no"?>
<!-- Created with Inkscape (http://www.inkscape.org/) -->

<svg
   xmlns:dc="http://purl.org/dc/elements/1.1/"
   xmlns:cc="http://creativecommons.org/ns#"
   xmlns:rdf="http://www.w3.org/1999/02/22-rdf-syntax-ns#"
   xmlns:svg="http://www.w3.org/2000/svg"
   xmlns="http://www.w3.org/2000/svg"
   xmlns:sodipodi="http://sodipodi.sourceforge.net/DTD/sodipodi-0.dtd"
   xmlns:inkscape="http://www.inkscape.org/namespaces/inkscape"
   width="77.222351mm"
   height="72.767326mm"
   viewBox="0 0 273.6225 257.83698"
   id="svg22989"
   version="1.1"
   inkscape:version="0.91 r13725"
   sodipodi:docname="where.svg">
  <defs
     id="defs22991" />
  <sodipodi:namedview
     id="base"
     pagecolor="#ffffff"
     bordercolor="#666666"
     borderopacity="1.0"
     inkscape:pageopacity="0.0"
     inkscape:pageshadow="2"
     inkscape:zoom="0.35"
     inkscape:cx="-931.04593"
     inkscape:cy="-25.367202"
     inkscape:document-units="px"
     inkscape:current-layer="g13558"
     showgrid="false"
     fit-margin-top="0"
     fit-margin-left="0"
     fit-margin-right="0"
     fit-margin-bottom="0"
     inkscape:window-width="1920"
     inkscape:window-height="1054"
     inkscape:window-x="0"
     inkscape:window-y="1080"
     inkscape:window-maximized="1" />
  <metadata
     id="metadata22994">
    <rdf:RDF>
      <cc:Work
         rdf:about="">
        <dc:format>image/svg+xml</dc:format>
        <dc:type
           rdf:resource="http://purl.org/dc/dcmitype/StillImage" />
        <dc:title></dc:title>
      </cc:Work>
    </rdf:RDF>
  </metadata>
  <g
     inkscape:label="Calque 1"
     inkscape:groupmode="layer"
     id="layer1"
     transform="translate(-380.33163,-249.15802)">
    <g
       id="g13558"
       transform="matrix(0.7480736,0,0,0.74807355,-1353.7739,1800.3276)">
      <g
         id="g11732"
         transform="translate(-44.446648,39.976338)">
        <circle
           r="128.00002"
           cy="-1985.5286"
           cx="2545.4263"
           id="path11616"
           style="fill:#2aa198;fill-opacity:1;stroke:none;stroke-width:3.5999999;stroke-linecap:round;stroke-linejoin:round;stroke-miterlimit:4;stroke-dasharray:none" />
        <path
           d="m 2545.4233,-2072.161 c -39.0168,0 -70.793,31.7775 -70.793,70.7943 0,12.2908 5.3785,26.2359 11.7281,38.9179 6.3495,12.682 13.7655,24.026 18.2389,30.4989 5.4309,7.8747 13.1036,17.9742 20.4842,26.224 3.6906,4.1253 7.2943,7.7831 10.6093,10.514 3.315,2.7307 6.0921,4.8524 9.7991,4.8524 3.7069,0 6.4847,-2.1227 9.7991,-4.8551 3.3143,-2.7323 6.9184,-6.3927 10.6054,-10.523 7.3692,-8.2553 15.0199,-18.3649 20.4214,-26.279 l 0.01,-0.01 c 4.4746,-6.4748 11.8702,-17.798 18.2011,-30.4597 6.3328,-12.6656 11.6953,-26.5952 11.6953,-38.8826 -1e-4,-39.0168 -31.7775,-70.7943 -70.7943,-70.7943 z m 0.067,11.3753 c 32.7777,0 59.4224,26.6443 59.4858,59.4255 0,13.3823 -9.9112,36.8552 -27.7127,62.6641 l 0,0.01 0,0 c -8.4734,12.3461 -16.2772,21.7944 -22.2471,28.1073 -2.985,3.1564 -5.5199,5.5333 -7.3826,7.0559 -0.8755,0.7156 -1.5684,1.2029 -2.0663,1.5133 -0.5084,-0.3166 -1.2237,-0.8216 -2.1158,-1.5512 -1.8739,-1.5325 -4.4154,-3.9122 -7.4048,-7.069 -5.9787,-6.3134 -13.783,-15.7462 -22.2563,-28.0589 l 0,0 c -17.8072,-25.8836 -27.7139,-49.2922 -27.7139,-62.6734 0,-32.7776 26.6401,-59.419 59.4178,-59.419 z m 0,30.9131 c -15.73,0 -28.5712,12.834 -28.5712,28.5059 0,15.73 12.8412,28.5712 28.5712,28.5712 15.7301,0 28.5726,-12.8412 28.5726,-28.5712 l 0,-0.01 0,-0.01 c -0.076,-15.663 -12.9007,-28.4889 -28.5726,-28.4889 z m 0,11.3751 c 9.5002,0 17.1974,7.6329 17.1974,17.1974 0,9.4966 -7.6273,17.189 -17.1869,17.1947 -9.5839,-0.062 -17.2064,-7.6868 -17.2064,-17.2613 0,-9.5002 7.6182,-17.1308 17.1959,-17.1308 z"
           style="color:#000000;font-style:normal;font-variant:normal;font-weight:normal;font-stretch:normal;font-size:medium;line-height:normal;font-family:sans-serif;text-indent:0;text-align:start;text-decoration:none;text-decoration-line:none;text-decoration-style:solid;text-decoration-color:#000000;letter-spacing:normal;word-spacing:normal;text-transform:none;direction:ltr;block-progression:tb;writing-mode:lr-tb;baseline-shift:baseline;text-anchor:start;white-space:normal;clip-rule:nonzero;display:inline;overflow:visible;visibility:visible;opacity:1;isolation:auto;mix-blend-mode:normal;color-interpolation:sRGB;color-interpolation-filters:linearRGB;solid-color:#000000;solid-opacity:1;fill:#fffffc;fill-opacity:1;fill-rule:nonzero;stroke:none;stroke-width:10;stroke-linecap:butt;stroke-linejoin:miter;stroke-miterlimit:4;stroke-dasharray:none;stroke-dashoffset:0;stroke-opacity:1;color-rendering:auto;image-rendering:auto;shape-rendering:auto;text-rendering:auto;enable-background:accumulate"
           id="path11"
           inkscape:connector-curvature="0" />
      </g>
      <text
         sodipodi:linespacing="125%"
         id="text13465-0-9"
         y="-1730.328"
         x="2317.7339"
         style="font-style:normal;font-weight:normal;font-size:53.47067642px;line-height:125%;font-family:sans-serif;letter-spacing:0px;word-spacing:0px;fill:#2aa198;fill-opacity:1;stroke:none;stroke-width:1px;stroke-linecap:butt;stroke-linejoin:miter;stroke-opacity:1"
         xml:space="preserve"><tspan
           style="font-style:normal;font-variant:normal;font-weight:normal;font-stretch:normal;font-size:120.309021px;font-family:AllerDisplay;-inkscape-font-specification:AllerDisplay;fill:#2aa198"
           y="-1730.328"
           x="2317.7339"
           id="tspan13467-0-7"
           sodipodi:role="line">Where</tspan></text>
    </g>
  </g>
</svg>
