<?xml version="1.0" encoding="UTF-8" standalone="no"?>
<!-- Created with Inkscape (http://www.inkscape.org/) -->

<svg
   xmlns:dc="http://purl.org/dc/elements/1.1/"
   xmlns:cc="http://creativecommons.org/ns#"
   xmlns:rdf="http://www.w3.org/1999/02/22-rdf-syntax-ns#"
   xmlns:svg="http://www.w3.org/2000/svg"
   xmlns="http://www.w3.org/2000/svg"
   xmlns:sodipodi="http://sodipodi.sourceforge.net/DTD/sodipodi-0.dtd"
   xmlns:inkscape="http://www.inkscape.org/namespaces/inkscape"
   width="54.047501mm"
   height="72.640327mm"
   viewBox="0 0 191.50689 257.38698"
   id="svg21252"
   version="1.1"
   inkscape:version="0.91 r13725"
   sodipodi:docname="why.svg">
  <defs
     id="defs21254" />
  <sodipodi:namedview
     id="base"
     pagecolor="#ffffff"
     bordercolor="#666666"
     borderopacity="1.0"
     inkscape:pageopacity="0.0"
     inkscape:pageshadow="2"
     inkscape:zoom="1.4"
     inkscape:cx="90.880027"
     inkscape:cy="-30.460954"
     inkscape:document-units="px"
     inkscape:current-layer="g13529"
     showgrid="false"
     fit-margin-top="0"
     fit-margin-left="0"
     fit-margin-right="0"
     fit-margin-bottom="0"
     inkscape:window-width="1920"
     inkscape:window-height="1054"
     inkscape:window-x="0"
     inkscape:window-y="1080"
     inkscape:window-maximized="1" />
  <metadata
     id="metadata21257">
    <rdf:RDF>
      <cc:Work
         rdf:about="">
        <dc:format>image/svg+xml</dc:format>
        <dc:type
           rdf:resource="http://purl.org/dc/dcmitype/StillImage" />
        <dc:title></dc:title>
      </cc:Work>
    </rdf:RDF>
  </metadata>
  <g
     inkscape:label="Calque 1"
     inkscape:groupmode="layer"
     id="layer1"
     transform="translate(-307.10375,-309.38301)">
    <g
       id="g13529"
       transform="matrix(0.7480736,0,0,0.74807355,101.56731,1860.5526)">
      <g
         transform="translate(-40.102942,-17.914409)"
         id="g11724">
        <circle
           r="128.00003"
           cy="-1927.6378"
           cx="442.85727"
           id="path11616-7"
           style="fill:#dc322f;fill-opacity:1;stroke:none;stroke-width:3.5999999;stroke-linecap:round;stroke-linejoin:round;stroke-miterlimit:4;stroke-dasharray:none" />
        <path
           inkscape:connector-curvature="0"
           id="path4138"
           d="m 470.40769,-2015.911 c -0.56236,-0.01 -1.12687,0.01 -1.69141,0.055 -5.17684,0.4128 -9.47063,2.3991 -13.07812,6.0489 -2.64002,2.6714 -4.24451,5.5197 -5.1875,9.207 -1.74877,6.8373 0.11055,13.9553 4.93164,18.8848 1.18567,1.2122 2.59372,2.5049 3.13086,2.8789 l 0.97656,0.6738 -3.51172,8.7891 c -1.93133,4.8335 -3.56491,8.847 -3.63281,8.914 -0.0675,0.068 -1.49044,-0.1276 -3.16211,-0.4336 -8.66447,-1.5903 -17.73727,0.2327 -24.91602,5.0078 l -2.98437,1.9844 -14.89453,-14.8691 -14.89453,-14.8711 1.35351,-2.6289 c 5.68847,-11.0516 0.40649,-24.3852 -11.25195,-28.4043 -5.57874,-1.9229 -10.53574,-1.5895 -15.93164,1.0703 -7.04623,3.4737 -11.67691,11.5646 -11.05274,19.3144 1.18498,14.7144 16.56136,23.3698 29.59571,16.6602 l 2.6289,-1.3535 14.86914,14.8945 14.8711,14.8946 -1.98633,2.9843 c -6.86441,10.3206 -7.41441,24.2962 -1.37891,35.0391 0.54619,0.9723 0.99414,1.8669 0.99414,1.9824 0,0.2557 -25.36275,20.5918 -25.68164,20.5918 -0.12136,0 -1.16926,-0.648 -2.32812,-1.4394 -3.25162,-2.2192 -6.04172,-3.1143 -10.31641,-3.3047 -4.16504,-0.1875 -6.64652,0.3158 -10.32812,2.0918 -2.88208,1.3897 -7.01278,5.426 -8.54493,8.3496 -4.30401,8.2115 -2.88544,17.5505 3.64649,23.9961 4.14198,4.0871 8.45194,5.8691 14.1914,5.8691 5.78075,0 10.1297,-1.7889 14.19532,-5.8398 4.28681,-4.2706 5.99993,-8.3829 5.98633,-14.3594 -0.008,-3.2705 -0.1397,-4.1565 -0.95704,-6.3867 -0.52204,-1.4244 -1.0303,-2.8276 -1.1289,-3.1133 -0.12599,-0.3678 3.54068,-3.5021 12.32031,-10.5313 6.87517,-5.504 12.69994,-10.1267 12.94336,-10.2695 0.28196,-0.1673 1.17046,0.3748 2.45117,1.4961 4.32679,3.7871 9.71554,6.4211 15.64453,7.6484 5.32832,1.1028 13.46003,0.5229 18.03125,-1.2871 0.49071,-0.1944 1.41256,1.4149 5.50782,9.6114 l 4.91796,9.8437 -2.44335,2.5723 c -3.89067,4.0959 -5.63868,8.4508 -5.63868,14.0547 0,5.7393 1.78391,10.0493 5.8711,14.1914 2.91526,2.9543 6.17189,4.7985 10.01172,5.666 l 0,0.01 c 2.69654,0.6072 7.2583,0.4381 10.01367,-0.373 6.6907,-1.9711 12.18152,-7.6975 13.95898,-14.5566 0.69002,-2.6539 0.6974,-7.2854 0.0195,-9.9473 -2.37064,-9.3081 -11.58382,-15.9795 -21.02539,-15.2227 -1.53549,0.1224 -3.21134,0.3123 -3.72265,0.4278 -0.91361,0.202 -1.01569,0.034 -5.78321,-9.4961 -2.66932,-5.3361 -4.84875,-9.8201 -4.84375,-9.9629 0.005,-0.1442 0.74346,-0.7621 1.64063,-1.3672 4.30061,-2.9155 9.13943,-9.0338 11.27929,-14.2617 0.62784,-1.534 1.22172,-2.8668 1.32032,-2.9688 0.0989,-0.099 3.53797,0.4862 7.64062,1.3008 l 7.45899,1.4824 0,1.4199 c 0,2.114 1.21511,6.4661 2.48047,8.8887 1.56837,3.0019 5.66257,6.9952 8.65625,8.4414 8.07139,3.8987 17.23714,2.4496 23.41211,-3.7031 6.37141,-6.3478 7.88953,-15.3727 3.93554,-23.4062 -3.39824,-6.9038 -10.26541,-11.129 -18.04492,-11.129 -3.81224,0 -6.13716,0.5279 -9.375,2.1114 -2.98238,1.4578 -7.11132,5.5363 -8.60547,8.5 -0.59829,1.1872 -1.27907,2.1601 -1.51367,2.1601 -0.23466,0 -3.6514,-0.6449 -7.5918,-1.4316 l -7.16406,-1.4317 -0.006,-3.4882 c -0.0146,-11.2446 -5.68534,-21.771 -15.12695,-28.0801 -2.39478,-1.5998 -2.84261,-2.0432 -2.68555,-2.6484 0.10369,-0.4005 1.65458,-4.3794 3.44727,-8.8418 l 3.25976,-8.1153 3.05078,0.1153 c 10.02043,0.3766 18.25338,-5.4868 21.0293,-14.9786 0.85457,-2.923 0.78085,-8.2508 -0.15625,-11.205 -2.64781,-8.3479 -10.67204,-14.2941 -19.10742,-14.4121 z m 40.74804,87.2089 a 14.205268,14.205267 0 0 1 14.20508,14.2051 14.205268,14.205267 0 0 1 -14.20508,14.207 14.205268,14.205267 0 0 1 -14.20507,-14.207 14.205268,14.205267 0 0 1 14.20507,-14.2051 z"
           style="fill:#ffffff;fill-opacity:1" />
      </g>
      <text
         sodipodi:linespacing="125%"
         id="text13465-5"
         y="-1730.328"
         x="280.83069"
         style="font-style:normal;font-weight:normal;font-size:53.47067642px;line-height:125%;font-family:sans-serif;letter-spacing:0px;word-spacing:0px;fill:#dc322f;fill-opacity:1;stroke:none;stroke-width:1px;stroke-linecap:butt;stroke-linejoin:miter;stroke-opacity:1"
         xml:space="preserve"><tspan
           style="font-style:normal;font-variant:normal;font-weight:normal;font-stretch:normal;font-size:120.309021px;font-family:AllerDisplay;-inkscape-font-specification:AllerDisplay;fill:#dc322f"
           y="-1730.328"
           x="280.83069"
           id="tspan13467-5"
           sodipodi:role="line">Why</tspan></text>
    </g>
  </g>
</svg>
